<svg width="375" height="95" viewBox="0 0 375 95" fill="none" xmlns="http://www.w3.org/2000/svg">
<rect x="20" y="20" width="40" height="55" rx="20" fill="#FFE8AD"/>
<path d="M34.7411 41.12H39.4931V41.9H29.1251V41.12H33.8891V38.396H33.5291C32.8731 38.396 32.2971 38.264 31.8011 38C31.3051 37.736 30.9211 37.376 30.6491 36.92C30.3851 36.456 30.2531 35.94 30.2531 35.372C30.2531 34.804 30.3851 34.292 30.6491 33.836C30.9211 33.38 31.3051 33.02 31.8011 32.756C32.2971 32.492 32.8731 32.36 33.5291 32.36H35.1011C35.7571 32.36 36.3331 32.492 36.8291 32.756C37.3251 33.02 37.7051 33.38 37.9691 33.836C38.2411 34.292 38.3771 34.804 38.3771 35.372C38.3771 35.94 38.2411 36.456 37.9691 36.92C37.7051 37.376 37.3251 37.736 36.8291 38C36.3331 38.264 35.7571 38.396 35.1011 38.396H34.7411V41.12ZM31.1171 35.372C31.1171 35.796 31.2171 36.18 31.4171 36.524C31.6171 36.86 31.9091 37.128 32.2931 37.328C32.6771 37.52 33.1331 37.616 33.6611 37.616H34.9571C35.4851 37.616 35.9411 37.52 36.3251 37.328C36.7091 37.128 37.0011 36.86 37.2011 36.524C37.4091 36.18 37.5131 35.796 37.5131 35.372C37.5131 34.948 37.4091 34.568 37.2011 34.232C37.0011 33.896 36.7091 33.632 36.3251 33.44C35.9411 33.248 35.4851 33.152 34.9571 33.152H33.6611C33.1331 33.152 32.6771 33.248 32.2931 33.44C31.9091 33.632 31.6171 33.896 31.4171 34.232C31.2171 34.568 31.1171 34.948 31.1171 35.372ZM42.808 34.58H49.516V35.336H41.956V31.94H42.808V34.58ZM50.872 37.076H40.504V36.344H50.872V37.076ZM49.84 42.86H41.848V40.124H48.676V38.888H41.788V38.156H49.54V40.844H42.7V42.128H49.84V42.86Z" fill="#7A5900"/>
<path d="M36.7646 62.4H35.3646V52.908L32.7886 54.966L31.9906 53.916L35.5746 51.06H36.7646V62.4ZM43.3385 62.61C42.5638 62.61 41.8638 62.428 41.2385 62.064C40.6225 61.7 40.1325 61.1587 39.7685 60.44C39.4045 59.712 39.2225 58.8393 39.2225 57.822V55.624C39.2225 54.616 39.4045 53.7527 39.7685 53.034C40.1325 52.3153 40.6225 51.774 41.2385 51.41C41.8638 51.0367 42.5638 50.85 43.3385 50.85C44.1132 50.85 44.8132 51.0367 45.4385 51.41C46.0638 51.774 46.5585 52.3153 46.9225 53.034C47.2865 53.7527 47.4685 54.616 47.4685 55.624V57.822C47.4685 58.8393 47.2865 59.712 46.9225 60.44C46.5585 61.1587 46.0638 61.7 45.4385 62.064C44.8132 62.428 44.1132 62.61 43.3385 62.61ZM43.3385 61.35C44.1412 61.35 44.7945 61.0467 45.2985 60.44C45.8025 59.824 46.0545 58.928 46.0545 57.752V55.708C46.0545 54.532 45.8025 53.6407 45.2985 53.034C44.7945 52.418 44.1412 52.11 43.3385 52.11C42.5358 52.11 41.8825 52.418 41.3785 53.034C40.8745 53.6407 40.6225 54.532 40.6225 55.708V57.752C40.6225 58.928 40.8745 59.824 41.3785 60.44C41.8825 61.0467 42.5358 61.35 43.3385 61.35Z" fill="#7A5900"/>
<rect x="69.8335" y="20.5" width="39" height="54" rx="19.5" stroke="#E6E6E6"/>
<path d="M92.992 36.176H94.72V36.956H92.992V42.8H92.14V31.724H92.992V36.176ZM87.796 33.14H90.544V33.872H84.172V33.14H86.932V31.736H87.796V33.14ZM87.856 40.484C89.08 40.412 90.156 40.316 91.084 40.196L91.18 40.952C90.356 41.064 89.452 41.152 88.468 41.216C87.492 41.288 86.616 41.324 85.84 41.324H84.016L83.98 40.544H85.888C86.08 40.544 86.448 40.536 86.992 40.52V38.984C86.312 38.92 85.76 38.708 85.336 38.348C84.92 37.988 84.712 37.516 84.712 36.932V36.728C84.712 36.08 84.96 35.576 85.456 35.216C85.952 34.848 86.592 34.664 87.376 34.664C88.144 34.664 88.776 34.848 89.272 35.216C89.768 35.576 90.016 36.08 90.016 36.728V36.932C90.016 37.5 89.816 37.964 89.416 38.324C89.024 38.684 88.504 38.9 87.856 38.972V40.484ZM85.552 36.92C85.552 37.328 85.724 37.656 86.068 37.904C86.412 38.152 86.848 38.276 87.376 38.276C87.896 38.276 88.324 38.152 88.66 37.904C89.004 37.656 89.176 37.328 89.176 36.92V36.752C89.176 36.336 89.004 36.004 88.66 35.756C88.324 35.508 87.896 35.384 87.376 35.384C86.848 35.384 86.412 35.508 86.068 35.756C85.724 36.004 85.552 36.336 85.552 36.752V36.92Z" fill="#666666"/>
<path d="M87.8276 62.4H86.4276V52.908L83.8516 54.966L83.0536 53.916L86.6376 51.06H87.8276V62.4ZM94.4995 62.4H93.0995V52.908L90.5235 54.966L89.7255 53.916L93.3095 51.06H94.4995V62.4Z" fill="#666666"/>
<rect x="119.167" y="20.5" width="39" height="54" rx="19.5" stroke="#E6E6E6"/>
<path d="M138.401 34.796C137.697 35.708 136.421 36.536 134.573 37.28L134.225 36.524C136.937 35.452 138.293 34.176 138.293 32.696V31.964H139.145V32.696C139.145 33.192 139.045 33.656 138.845 34.088L143.093 36.548L142.685 37.28L138.401 34.796ZM133.481 38.648H143.849V39.44H139.097V42.92H138.245V39.44H133.481V38.648Z" fill="#666666"/>
<path d="M135.725 62.4H134.325V52.908L131.749 54.966L130.951 53.916L134.535 51.06H135.725V62.4ZM138.155 62.4V61.308L142.313 57.178C142.976 56.5247 143.452 55.96 143.741 55.484C144.03 54.9987 144.175 54.4993 144.175 53.986C144.175 53.4073 143.974 52.95 143.573 52.614C143.181 52.278 142.63 52.11 141.921 52.11C140.717 52.11 139.886 52.866 139.429 54.378L138.099 54.056C138.351 53.1413 138.799 52.3807 139.443 51.774C140.096 51.158 140.922 50.85 141.921 50.85C142.649 50.85 143.284 50.976 143.825 51.228C144.376 51.4707 144.8 51.8253 145.099 52.292C145.407 52.7587 145.561 53.3047 145.561 53.93C145.561 54.6487 145.384 55.3113 145.029 55.918C144.674 56.5247 144.124 57.1967 143.377 57.934L140.171 61.112H145.827V62.4H138.155Z" fill="#666666"/>
<rect x="168.5" y="20.5" width="39" height="54" rx="19.5" stroke="#E6E6E6"/>
<path d="M188.431 35.876V37.22H193.183V37.988H182.815V37.22H187.579V35.876H184.267V32H191.743V35.876H188.431ZM190.879 32.744H185.119V35.132H190.879V32.744ZM190.987 40.1H184.159V39.32H191.851V42.92H190.987V40.1Z" fill="#666666"/>
<path d="M184.929 62.4H183.529V52.908L180.953 54.966L180.155 53.916L183.739 51.06H184.929V62.4ZM188.423 59.334C188.936 60.678 189.893 61.35 191.293 61.35C192.095 61.35 192.73 61.1633 193.197 60.79C193.673 60.4073 193.911 59.9127 193.911 59.306C193.911 58.6807 193.663 58.1673 193.169 57.766C192.683 57.3647 191.988 57.164 191.083 57.164H189.655V55.946H191.083C191.904 55.946 192.534 55.764 192.973 55.4C193.421 55.036 193.645 54.56 193.645 53.972C193.645 53.3933 193.43 52.9407 193.001 52.614C192.571 52.278 191.993 52.11 191.265 52.11C190.089 52.11 189.253 52.7213 188.759 53.944L187.499 53.468C187.788 52.7027 188.245 52.0773 188.871 51.592C189.496 51.0973 190.294 50.85 191.265 50.85C191.993 50.85 192.637 50.976 193.197 51.228C193.766 51.4707 194.209 51.8207 194.527 52.278C194.853 52.7353 195.017 53.2767 195.017 53.902C195.017 54.5647 194.844 55.12 194.499 55.568C194.163 56.016 193.719 56.3427 193.169 56.548C193.803 56.744 194.317 57.0893 194.709 57.584C195.101 58.0787 195.297 58.6713 195.297 59.362C195.297 60.006 195.129 60.5707 194.793 61.056C194.457 61.5507 193.985 61.9333 193.379 62.204C192.772 62.4747 192.077 62.61 191.293 62.61C190.21 62.61 189.323 62.3487 188.633 61.826C187.942 61.3033 187.457 60.622 187.177 59.782L188.423 59.334Z" fill="#666666"/>
<rect x="217.833" y="20.5" width="39" height="54" rx="19.5" stroke="#E6E6E6"/>
<path d="M242.516 36.26V37.04H232.148V36.26H239.696C239.808 35.652 239.896 35.044 239.96 34.436C240.032 33.82 240.068 33.328 240.068 32.96V32.9H233.456V32.12H240.92V32.78C240.92 33.788 240.8 34.948 240.56 36.26H242.516ZM241.184 42.8H233.492V38.564H241.184V42.8ZM240.32 39.332H234.344V42.032H240.32V39.332Z" fill="#666666"/>
<path d="M234.153 62.4H232.753V52.908L230.177 54.966L229.379 53.916L232.963 51.06H234.153V62.4ZM243.415 58.872H245.165V60.16H243.415V62.61H242.029V60.16H236.331V59.012L241.539 51.06H243.415V58.872ZM242.029 52.656L238.011 58.872H242.029V52.656Z" fill="#666666"/>
<rect x="267.167" y="20.5" width="39" height="54" rx="19.5" stroke="#E6E6E6"/>
<path d="M287.097 38.744V41.12H291.849V41.912H281.481V41.12H286.245V38.744H282.825V32.54H290.517V33.32H283.677V35.24H290.517V36.008H283.677V37.976H290.757V38.744H287.097Z" fill="#666666"/>
<path d="M283.725 62.4H282.325V52.908L279.749 54.966L278.951 53.916L282.535 51.06H283.725V62.4ZM290.173 55.148C290.882 55.148 291.512 55.3067 292.063 55.624C292.623 55.9413 293.057 56.3847 293.365 56.954C293.682 57.514 293.841 58.158 293.841 58.886C293.841 59.614 293.678 60.2627 293.351 60.832C293.024 61.392 292.562 61.826 291.965 62.134C291.377 62.4513 290.696 62.61 289.921 62.61C289.072 62.61 288.288 62.4233 287.569 62.05C286.86 61.6767 286.351 61.14 286.043 60.44L287.233 59.768C287.457 60.2813 287.802 60.6687 288.269 60.93C288.736 61.1913 289.263 61.322 289.851 61.322C290.644 61.322 291.274 61.1027 291.741 60.664C292.217 60.216 292.455 59.6233 292.455 58.886C292.455 58.1487 292.222 57.556 291.755 57.108C291.288 56.66 290.677 56.436 289.921 56.436C289.38 56.436 288.918 56.5713 288.535 56.842C288.162 57.1033 287.872 57.4813 287.667 57.976H286.379L287.093 51.06H293.435V52.348H288.297L287.863 56.156C288.143 55.8293 288.484 55.582 288.885 55.414C289.286 55.2367 289.716 55.148 290.173 55.148Z" fill="#666666"/>
<rect x="316.5" y="20.5" width="39" height="54" rx="19.5" stroke="#E6E6E6"/>
<path d="M340.175 37.148H339.323V31.724H340.175V37.148ZM334.187 36.824C333.347 36.824 332.655 36.624 332.111 36.224C331.567 35.816 331.295 35.24 331.295 34.496V34.304C331.295 33.552 331.563 32.976 332.099 32.576C332.643 32.176 333.339 31.976 334.187 31.976C335.019 31.976 335.703 32.176 336.239 32.576C336.783 32.976 337.055 33.552 337.055 34.304V34.496C337.055 35.24 336.783 35.816 336.239 36.224C335.703 36.624 335.019 36.824 334.187 36.824ZM334.187 36.044C334.787 36.044 335.271 35.908 335.639 35.636C336.015 35.364 336.203 34.976 336.203 34.472V34.316C336.203 33.82 336.015 33.436 335.639 33.164C335.271 32.884 334.787 32.744 334.187 32.744C333.579 32.744 333.087 32.884 332.711 33.164C332.343 33.436 332.159 33.82 332.159 34.316V34.472C332.159 34.976 332.343 35.364 332.711 35.636C333.087 35.908 333.579 36.044 334.187 36.044ZM340.643 42.86H333.059V39.992H339.323V38.672H333.011V37.94H340.175V40.736H333.923V42.104H340.643V42.86Z" fill="#666666"/>
<path d="M332.922 62.4H331.522V52.908L328.946 54.966L328.148 53.916L331.732 51.06H332.922V62.4ZM339.636 54.952C340.317 54.952 340.947 55.1107 341.526 55.428C342.104 55.7453 342.566 56.1933 342.912 56.772C343.266 57.3507 343.444 58.0227 343.444 58.788C343.444 59.5533 343.266 60.2253 342.912 60.804C342.557 61.3827 342.072 61.826 341.456 62.134C340.84 62.4513 340.154 62.61 339.398 62.61C338.623 62.61 337.932 62.456 337.326 62.148C336.719 61.84 336.243 61.3873 335.898 60.79C335.552 60.1927 335.38 59.4833 335.38 58.662V55.834C335.38 54.714 335.557 53.7807 335.912 53.034C336.276 52.2873 336.752 51.7367 337.34 51.382C337.937 51.0273 338.581 50.85 339.272 50.85C341.12 50.85 342.436 51.6667 343.22 53.3L342.058 53.916C341.74 53.3 341.372 52.8427 340.952 52.544C340.532 52.2453 339.99 52.096 339.328 52.096C338.534 52.096 337.89 52.4133 337.396 53.048C336.91 53.6827 336.672 54.63 336.682 55.89V56.436C336.98 55.96 337.391 55.596 337.914 55.344C338.446 55.0827 339.02 54.952 339.636 54.952ZM339.398 61.364C339.892 61.364 340.34 61.2567 340.742 61.042C341.152 60.8367 341.474 60.538 341.708 60.146C341.941 59.754 342.058 59.292 342.058 58.76C342.058 58.2373 341.941 57.78 341.708 57.388C341.474 56.996 341.152 56.6973 340.742 56.492C340.34 56.2867 339.892 56.184 339.398 56.184C338.912 56.184 338.469 56.2867 338.068 56.492C337.666 56.6973 337.349 56.996 337.116 57.388C336.882 57.78 336.766 58.2373 336.766 58.76C336.766 59.292 336.882 59.754 337.116 60.146C337.349 60.538 337.666 60.8367 338.068 61.042C338.469 61.2567 338.912 61.364 339.398 61.364Z" fill="#666666"/>
</svg>
