<svg width="33" height="21" viewBox="0 0 33 21" fill="none" xmlns="http://www.w3.org/2000/svg">
<rect x="0.507" y="0.507" width="31.986" height="19.986" rx="9.993" fill="#F5F9FF"/>
<rect x="0.507" y="0.507" width="31.986" height="19.986" rx="9.993" stroke="#5FA3FC" stroke-width="1.014"/>
<g clip-path="url(#clip0_6946_10875)">
<path d="M16.1253 17.9326C15.1404 17.9326 14.2144 17.7457 13.3472 17.3719C12.4802 16.9981 11.726 16.4908 11.0846 15.85C10.4431 15.2092 9.93539 14.4556 9.56131 13.5893C9.1871 12.7231 9 11.7975 9 10.8124C9 9.82751 9.18697 8.90149 9.56092 8.03436C9.93486 7.16737 10.4424 6.41315 11.0834 5.77171C11.7244 5.13027 12.4783 4.62251 13.3449 4.24843C14.2115 3.87423 15.1374 3.68712 16.1227 3.68712C16.6493 3.68712 17.1612 3.74067 17.6585 3.84778C18.1556 3.95475 18.6279 4.11376 19.0753 4.3248V5.20763C18.634 4.97416 18.1659 4.79431 17.6711 4.66808C17.1764 4.54172 16.6602 4.47854 16.1227 4.47854C14.3684 4.47854 12.8746 5.09518 11.6413 6.32847C10.4081 7.56176 9.79141 9.05555 9.79141 10.8099C9.79141 12.5642 10.4081 14.058 11.6413 15.2912C12.8746 16.5245 14.3684 17.1412 16.1227 17.1412C17.877 17.1412 19.3708 16.5245 20.6041 15.2912C21.8374 14.058 22.4541 12.5642 22.4541 10.8099C22.4541 10.4284 22.4213 10.0575 22.3559 9.69732C22.2905 9.3371 22.1954 8.98756 22.0706 8.6487H22.9198C23.0284 8.99059 23.1097 9.33967 23.1639 9.69594C23.2183 10.0521 23.2455 10.4234 23.2455 10.8099C23.2455 11.7952 23.0586 12.7211 22.6847 13.5877C22.3109 14.4543 21.8036 15.2081 21.1629 15.8492C20.5221 16.4902 19.7685 16.9977 18.9022 17.3717C18.036 17.7456 17.1104 17.9326 16.1253 17.9326ZM22.8498 6.45707V4.87424H21.2669V4.08283H22.8498V2.5H23.6412V4.08283H25.224V4.87424H23.6412V6.45707H22.8498ZM18.7441 9.71414C18.9902 9.71414 19.1983 9.62794 19.3683 9.45555C19.5382 9.28315 19.6232 9.07389 19.6232 8.82776C19.6232 8.5815 19.537 8.37342 19.3648 8.20353C19.1924 8.03351 18.9831 7.94849 18.737 7.94849C18.4907 7.94849 18.2826 8.03469 18.1127 8.20709C17.9427 8.37949 17.8577 8.58875 17.8577 8.83488C17.8577 9.08114 17.9439 9.28922 18.1163 9.45911C18.2886 9.62913 18.4978 9.71414 18.7441 9.71414ZM13.5085 9.71414C13.7548 9.71414 13.9628 9.62794 14.1327 9.45555C14.3027 9.28315 14.3878 9.07389 14.3878 8.82776C14.3878 8.5815 14.3016 8.37342 14.1292 8.20353C13.9569 8.03351 13.7476 7.94849 13.5014 7.94849C13.2552 7.94849 13.0472 8.03469 12.8771 8.20709C12.7073 8.37949 12.6223 8.58875 12.6223 8.83488C12.6223 9.08114 12.7084 9.28922 12.8807 9.45911C13.0531 9.62913 13.2624 9.71414 13.5085 9.71414ZM16.1227 14.6755C16.8925 14.6755 17.5915 14.4673 18.2198 14.0509C18.848 13.6343 19.322 13.0816 19.6416 12.3927H12.6039C12.9235 13.0816 13.3974 13.6343 14.0257 14.0509C14.6539 14.4673 15.3529 14.6755 16.1227 14.6755Z" fill="#2D87FB"/>
</g>
<defs>
<clipPath id="clip0_6946_10875">
<rect width="17" height="16" fill="white" transform="translate(8 2.5)"/>
</clipPath>
</defs>
</svg>
