<svg width="81" height="92" viewBox="0 0 81 92" fill="none" xmlns="http://www.w3.org/2000/svg">
<g clip-path="url(#clip0_6731_98320)">
<path d="M29.4448 11.0846C29.119 11.0846 28.834 10.8528 28.7797 10.5187C28.7322 10.2392 27.6259 3.69471 29.9199 1.09736C30.6054 0.313378 31.5149 -0.0547512 32.5941 -0.000213493C34.5012 0.129313 35.1324 1.26779 35.3361 1.92906C35.7433 3.24478 35.2003 4.96271 34.4537 5.56263C34.1619 5.80123 33.7343 5.74669 33.4967 5.45355C33.266 5.16041 33.3135 4.73093 33.6053 4.49233C33.8632 4.28781 34.3112 3.20387 34.0397 2.33127C33.8565 1.73136 33.3542 1.41095 32.5126 1.35641C31.861 1.32233 31.3317 1.52684 30.9312 1.99041C29.3905 3.73562 29.8181 8.5622 30.11 10.2733C30.1711 10.6414 29.9267 10.9959 29.5602 11.0641C29.5195 11.0641 29.4788 11.0709 29.4448 11.0709V11.0846Z" fill="#CCAB62"/>
<path d="M10.8632 28.4404V59.1179V61.2312C10.8632 61.9947 10.646 62.7514 10.2456 63.3991L4.05572 73.3522C3.0648 74.9406 4.55118 76.9176 6.34299 76.3995L12.9197 74.5111C13.9785 74.2044 15.1052 74.3543 16.0622 74.8997C18.0711 76.045 22.3878 77.8652 29.5278 77.8652C39.7221 77.8652 48.1924 69.4732 48.1924 59.1179V28.4404C48.1924 18.0851 39.8375 9.69312 29.5278 9.69312C19.2182 9.69312 10.8632 18.0851 10.8632 28.4404Z" fill="#FFDA79"/>
<path d="M22.2315 41.3948C22.2315 41.8428 21.8699 42.206 21.4239 42.206C20.9778 42.206 20.6162 41.8428 20.6162 41.3948" stroke="#997F4A" stroke-width="0.384937"/>
<path d="M21.675 36.2882H21.1795C20.4936 36.2882 19.9375 36.8468 19.9375 37.5358C19.9375 38.2248 20.4936 38.7833 21.1795 38.7833H21.675C22.361 38.7833 22.917 38.2248 22.917 37.5358C22.917 36.8468 22.361 36.2882 21.675 36.2882Z" fill="#997F4A"/>
<path d="M30.5719 38.9806C30.5719 38.9806 30.5583 38.9806 30.5448 38.9806L24.5246 38.5511C24.3345 38.5375 24.1988 38.3738 24.2124 38.1898C24.2259 37.9989 24.4092 37.8625 24.5721 37.8762L30.5923 38.3057C30.7823 38.3193 30.918 38.4829 30.9045 38.667C30.8909 38.8442 30.7416 38.9806 30.5651 38.9806H30.5719Z" fill="#997F4A"/>
<path d="M14.0671 39.2125C13.9042 39.2125 13.7549 39.0898 13.7346 38.9262C13.7074 38.7421 13.8364 38.5648 14.0196 38.5376L18.3362 37.8763C18.5195 37.849 18.696 37.9786 18.7231 38.1626C18.7503 38.3467 18.6213 38.5239 18.438 38.5512L14.1214 39.2125C14.1214 39.2125 14.0875 39.2125 14.0671 39.2125Z" fill="#997F4A"/>
<path d="M24.9717 29.5056H24.9649C24.0728 29.5056 23.3496 30.232 23.3496 31.1281V32.3484C23.3496 33.2445 24.0728 33.9709 24.9649 33.9709H24.9717C25.8639 33.9709 26.5871 33.2445 26.5871 32.3484V31.1281C26.5871 30.232 25.8639 29.5056 24.9717 29.5056Z" fill="#997F4A"/>
<path d="M18.3834 29.5056H18.3766C17.4844 29.5056 16.7612 30.232 16.7612 31.1281V32.3484C16.7612 33.2445 17.4844 33.9709 18.3766 33.9709H18.3834C19.2755 33.9709 19.9987 33.2445 19.9987 32.3484V31.1281C19.9987 30.232 19.2755 29.5056 18.3834 29.5056Z" fill="#997F4A"/>
<path d="M16.848 36.1859C14.4046 36.1859 12.416 34.0044 12.416 31.3253C12.416 28.6461 14.4046 26.4646 16.848 26.4646C19.2914 26.4646 21.28 28.6461 21.28 31.3253C21.28 34.0044 19.2914 36.1859 16.848 36.1859ZM16.848 27.01C14.7033 27.01 12.959 28.9461 12.959 31.3253C12.959 33.7045 14.7033 35.6406 16.848 35.6406C18.9927 35.6406 20.737 33.7045 20.737 31.3253C20.737 28.9461 18.9927 27.01 16.848 27.01Z" fill="#CCAB62"/>
<path d="M26.3775 36.1859C23.873 36.1859 21.8301 34.0044 21.8301 31.3253C21.8301 28.6461 23.8662 26.4646 26.3775 26.4646C28.8887 26.4646 30.9248 28.6461 30.9248 31.3253C30.9248 34.0044 28.8887 36.1859 26.3775 36.1859ZM26.3775 27.01C24.1716 27.01 22.373 28.9461 22.373 31.3253C22.373 33.7045 24.1649 35.6406 26.3775 35.6406C28.5901 35.6406 30.3819 33.7045 30.3819 31.3253C30.3819 28.9461 28.5833 27.01 26.3775 27.01Z" fill="#CCAB62"/>
<path d="M21.973 31.3457H21.1382V31.8911H21.973V31.3457Z" fill="#CCAB62"/>
<path d="M24.5452 37.3108C24.3619 37.3108 24.2126 37.1676 24.2058 36.9836C24.199 36.7927 24.3415 36.6359 24.5248 36.6291L30.5518 36.3291C30.7418 36.3155 30.8979 36.4655 30.9047 36.6563C30.9115 36.8472 30.769 37.004 30.5857 37.0108L24.5587 37.3108H24.5452Z" fill="#997F4A"/>
<path d="M18.4158 37.4531C18.4158 37.4531 18.3886 37.4531 18.3683 37.4531L13.9838 36.8668C13.8005 36.8396 13.6648 36.6691 13.6919 36.4851C13.7191 36.301 13.8888 36.1715 14.072 36.1919L18.4565 36.7782C18.6398 36.8055 18.7755 36.9759 18.7484 37.16C18.728 37.3304 18.5787 37.4531 18.4158 37.4531Z" fill="#997F4A"/>
</g>
<path d="M2.52266 40.2255L10.0391 39.9135C10.7343 39.8847 11.3614 40.3266 11.5685 40.9913L16.7041 57.472C17.0055 58.4393 16.3074 59.4313 15.2958 59.4733L7.77931 59.7853C7.0841 59.8142 6.45703 59.3723 6.2499 58.7076L1.11433 42.2268C0.81291 41.2595 1.51101 40.2675 2.52266 40.2255Z" fill="#ACD0FF" stroke="#91C0FD" stroke-width="0.769874"/>
<path d="M3.39315 43.634C3.44818 43.8106 3.43905 43.9659 3.38896 44.074C3.33892 44.1821 3.25405 44.2344 3.15939 44.2384C3.06473 44.2423 2.94985 44.1983 2.83462 44.0972C2.71927 43.9959 2.61483 43.8454 2.5598 43.6687C2.50476 43.4921 2.51389 43.3368 2.56398 43.2287C2.61402 43.1206 2.69889 43.0683 2.79356 43.0643C2.88822 43.0604 3.00309 43.1044 3.11833 43.2055C3.23367 43.3068 3.33811 43.4573 3.39315 43.634Z" fill="#4B4B4B" stroke="#606060" stroke-width="0.384937"/>
<ellipse cx="0.251696" cy="0.333234" rx="0.251696" ry="0.333234" transform="matrix(0.998498 -0.0416786 0.297501 0.954721 4.18506 43.0658)" fill="#2E67B1"/>
<ellipse cx="0.251696" cy="0.333234" rx="0.251696" ry="0.333234" transform="matrix(0.998498 -0.0416786 0.297501 0.954721 4.52881 44.168)" fill="#2E67B1"/>
<path d="M4.08016 45.8381C4.13519 46.0147 4.12606 46.17 4.07598 46.2781C4.02594 46.3862 3.94106 46.4385 3.8464 46.4425C3.75174 46.4464 3.63687 46.4024 3.52163 46.3013C3.40628 46.2 3.30185 46.0495 3.24681 45.8728C3.19177 45.6962 3.2009 45.5409 3.25099 45.4328C3.30103 45.3247 3.38591 45.2724 3.48057 45.2684C3.57523 45.2645 3.6901 45.3085 3.80534 45.4096C3.92068 45.5109 4.02512 45.6614 4.08016 45.8381Z" fill="#4B4B4B" stroke="#606060" stroke-width="0.384937"/>
<path d="M4.76668 48.0424C4.82172 48.219 4.81259 48.3743 4.7625 48.4825C4.71246 48.5905 4.62758 48.6428 4.53292 48.6468C4.43826 48.6507 4.32339 48.6068 4.20815 48.5056C4.09281 48.4044 3.98837 48.2538 3.93333 48.0772C3.8783 47.9006 3.88743 47.7453 3.93751 47.6371C3.98755 47.529 4.07243 47.4767 4.16709 47.4728C4.26175 47.4688 4.37663 47.5128 4.49186 47.614C4.60721 47.7152 4.71165 47.8658 4.76668 48.0424Z" fill="#4B4B4B" stroke="#606060" stroke-width="0.384937"/>
<ellipse opacity="0.06" cx="29.4124" cy="88.5356" rx="16.096" ry="3.46444" fill="#5B4200"/>
<path d="M55.856 87.3808C55.856 86.1052 56.89 85.0712 58.1656 85.0712H75.781C76.2062 85.0712 76.5509 85.4159 76.5509 85.841V88.9205C76.5509 89.3457 76.2062 89.6904 75.781 89.6904H58.1656C56.89 89.6904 55.856 88.6564 55.856 87.3808V87.3808Z" fill="#FFFBF0"/>
<line x1="56.6226" y1="86.4184" x2="76.551" y2="86.4184" stroke="#E6E6E6" stroke-width="0.384937"/>
<line x1="56.6226" y1="87.5732" x2="76.551" y2="87.5732" stroke="#E6E6E6" stroke-width="0.384937"/>
<line x1="56.6226" y1="88.7281" x2="76.551" y2="88.7281" stroke="#E6E6E6" stroke-width="0.384937"/>
<path d="M76.5509 89.113V89.113C76.5509 89.4319 76.2923 89.6904 75.9734 89.6904H57.7806C56.7177 89.6904 55.856 88.8287 55.856 87.7657V86.9959C55.856 85.9329 56.7177 85.0712 57.7806 85.0712H75.9734C76.2923 85.0712 76.5509 85.3297 76.5509 85.6486V85.6486" stroke="#FFBE14" stroke-width="1.15481"/>
<path d="M55.856 81.6067C55.856 80.3312 56.89 79.2971 58.1656 79.2971H75.781C76.2062 79.2971 76.5509 79.6418 76.5509 80.067V83.1465C76.5509 83.5717 76.2062 83.9164 75.781 83.9164H58.1656C56.89 83.9164 55.856 82.8823 55.856 81.6067V81.6067Z" fill="#FFFBF0"/>
<line x1="56.6226" y1="80.6443" x2="76.551" y2="80.6443" stroke="#E6E6E6" stroke-width="0.384937"/>
<line x1="56.6226" y1="81.7991" x2="76.551" y2="81.7991" stroke="#E6E6E6" stroke-width="0.384937"/>
<line x1="56.6226" y1="82.954" x2="76.551" y2="82.954" stroke="#E6E6E6" stroke-width="0.384937"/>
<path d="M76.5509 83.339V83.339C76.5509 83.6579 76.2923 83.9164 75.9734 83.9164H57.7806C56.7177 83.9164 55.856 83.0547 55.856 81.9917V81.2218C55.856 80.1588 56.7177 79.2971 57.7806 79.2971H75.9734C76.2923 79.2971 76.5509 79.5556 76.5509 79.8745V79.8745" stroke="#056BF0" stroke-width="1.15481"/>
<path d="M59.3052 75.8327C59.3052 74.5571 60.3392 73.5231 61.6148 73.5231H79.2302C79.6554 73.5231 80.0001 73.8678 80.0001 74.2929V77.3724C80.0001 77.7976 79.6554 78.1423 79.2302 78.1423H61.6148C60.3392 78.1423 59.3052 77.1083 59.3052 75.8327V75.8327Z" fill="#FFFBF0"/>
<line x1="60.0718" y1="74.8703" x2="80.0002" y2="74.8703" stroke="#E6E6E6" stroke-width="0.384937"/>
<line x1="60.0718" y1="76.0252" x2="80.0002" y2="76.0252" stroke="#E6E6E6" stroke-width="0.384937"/>
<line x1="60.0718" y1="77.1801" x2="80.0002" y2="77.1801" stroke="#E6E6E6" stroke-width="0.384937"/>
<path d="M80.0001 77.5649V77.5649C80.0001 77.8838 79.7416 78.1423 79.4227 78.1423H61.2299C60.1669 78.1423 59.3052 77.2806 59.3052 76.2176V75.4478C59.3052 74.3848 60.1669 73.5231 61.2299 73.5231H79.4227C79.7416 73.5231 80.0001 73.7816 80.0001 74.1005V74.1005" stroke="#91C0FD" stroke-width="1.15481"/>
<defs>
<clipPath id="clip0_6731_98320">
<rect width="44.4557" height="77.8662" fill="white" transform="translate(3.73584)"/>
</clipPath>
</defs>
</svg>
