<svg width="41" height="41" viewBox="0 0 41 41" fill="none" xmlns="http://www.w3.org/2000/svg">
<mask id="mask0_6942_35629" style="mask-type:luminance" maskUnits="userSpaceOnUse" x="0" y="0" width="41" height="41">
<path d="M40.5039 0.806351H0.503906V40.8064H40.5039V0.806351Z" fill="white"/>
</mask>
<g mask="url(#mask0_6942_35629)">
<path d="M40.5039 0.806351H0.503906V40.8064H40.5039V0.806351Z" fill="#FFCC47"/>
<path d="M19.7279 8.20634C19.4099 8.20634 19.1519 7.94834 19.1519 7.63034V4.81434C19.1519 4.49634 19.4099 4.23834 19.7279 4.23834C20.0459 4.23834 20.3039 4.49634 20.3039 4.81434V7.63034C20.3039 7.94834 20.0459 8.20634 19.7279 8.20634Z" fill="white"/>
<path d="M22.446 8.53237C22.36 8.53237 22.2741 8.51437 22.1921 8.47437C21.9061 8.33437 21.7881 7.98837 21.9281 7.70237L23.1881 5.13037C23.3281 4.84437 23.6741 4.72636 23.9601 4.86636C24.2461 5.00636 24.3641 5.35237 24.2241 5.63837L22.9641 8.21036C22.8641 8.41436 22.658 8.53437 22.446 8.53437V8.53237Z" fill="white"/>
<path d="M17.0776 8.53233C16.8636 8.53233 16.6596 8.41434 16.5596 8.20834L15.2996 5.63633C15.1596 5.35033 15.2776 5.00434 15.5636 4.86434C15.8496 4.72434 16.1956 4.84234 16.3356 5.12834L17.5956 7.70033C17.7356 7.98633 17.6176 8.33233 17.3316 8.47233C17.2496 8.51233 17.1636 8.53033 17.0776 8.53033V8.53233Z" fill="white"/>
<path d="M4.50391 61.3784L4.50391 23.7484C4.50391 14.9184 11.6739 7.74838 20.5039 7.74838C29.3339 7.74838 36.5039 14.9184 36.5039 23.7484V77.3784H20.5039C11.6739 77.3784 4.50391 70.2084 4.50391 61.3784Z" fill="white"/>
<path d="M19.6681 29.9184H19.3541C18.9156 29.9184 18.5601 30.2734 18.5601 30.7114C18.5601 31.1493 18.9156 31.5044 19.3541 31.5044H19.6681C20.1066 31.5044 20.4621 31.1493 20.4621 30.7114C20.4621 30.2734 20.1066 29.9184 19.6681 29.9184Z" fill="#7A5900"/>
<path d="M21.5058 30.2884C21.3938 30.2884 21.2998 30.2024 21.2898 30.0884C21.2798 29.9684 21.3698 29.8644 21.4878 29.8544L25.3318 29.5504C25.4378 29.5444 25.5558 29.6304 25.5638 29.7484C25.5738 29.8684 25.4838 29.9724 25.3658 29.9824L21.5218 30.2864C21.5218 30.2864 21.5098 30.2864 21.5038 30.2864L21.5058 30.2884Z" fill="#7A5900"/>
<path d="M25.3501 31.6323C25.3501 31.6323 25.3401 31.6323 25.3341 31.6323L21.4881 31.3604C21.3681 31.3524 21.2781 31.2484 21.2861 31.1284C21.2941 31.0084 21.4061 30.9184 21.5181 30.9284L25.3641 31.2004C25.4841 31.2084 25.5741 31.3123 25.5661 31.4323C25.5581 31.5463 25.4621 31.6343 25.3501 31.6343V31.6323Z" fill="#7A5900"/>
<path d="M17.5659 30.2884C17.5499 30.2884 17.5339 30.2884 17.5179 30.2824L14.7639 29.6624C14.6479 29.6364 14.5739 29.5204 14.5999 29.4024C14.6259 29.2864 14.7439 29.2124 14.8579 29.2384L17.6119 29.8584C17.7279 29.8844 17.8019 30.0004 17.7759 30.1184C17.7539 30.2184 17.6639 30.2884 17.5639 30.2884H17.5659Z" fill="#7A5900"/>
<path d="M14.8097 31.7804C14.7057 31.7804 14.6117 31.7044 14.5957 31.5964C14.5777 31.4784 14.6597 31.3684 14.7777 31.3504L17.5337 30.9323C17.6497 30.9143 17.7617 30.9964 17.7797 31.1144C17.7977 31.2324 17.7157 31.3424 17.5977 31.3604L14.8417 31.7784C14.8297 31.7784 14.8197 31.7804 14.8077 31.7804H14.8097Z" fill="#7A5900"/>
<path d="M21.7718 25.8544H21.7698C21.1998 25.8544 20.7378 26.3164 20.7378 26.8863V27.6624C20.7378 28.2323 21.1998 28.6943 21.7698 28.6943H21.7718C22.3417 28.6943 22.8038 28.2323 22.8038 27.6624V26.8863C22.8038 26.3164 22.3417 25.8544 21.7718 25.8544Z" fill="#7A5900"/>
<path d="M17.5682 25.8544H17.5662C16.9962 25.8544 16.5342 26.3164 16.5342 26.8863V27.6624C16.5342 28.2323 16.9962 28.6943 17.5662 28.6943H17.5682C18.1381 28.6943 18.6002 28.2323 18.6002 27.6624V26.8863C18.6002 26.3164 18.1381 25.8544 17.5682 25.8544Z" fill="#7A5900"/>
<path d="M18.7677 33.2923L20.6837 32.9663C20.8397 32.9403 20.9697 33.0843 20.9297 33.2363L20.3537 35.3723C20.3057 35.5463 20.0777 35.5903 19.9697 35.4443L18.6297 33.6343C18.5337 33.5043 18.6077 33.3183 18.7677 33.2923Z" fill="#7A5900"/>
<path d="M20.7381 25.0884C20.7041 25.0884 20.6701 25.0804 20.6381 25.0644C20.5321 25.0104 20.4901 24.8804 20.5441 24.7724C20.5561 24.7504 21.7121 22.5504 23.9681 23.3404C24.0801 23.3804 24.1401 23.5044 24.1001 23.6164C24.0601 23.7284 23.9381 23.7904 23.8241 23.7484C21.9281 23.0844 20.9701 24.8904 20.9301 24.9684C20.8921 25.0424 20.8161 25.0864 20.7381 25.0864V25.0884Z" fill="#7A5900"/>
<path d="M18.6 25.0884C18.532 25.0884 18.464 25.0563 18.422 24.9963C18.372 24.9263 17.204 23.3023 15.642 24.1083C15.536 24.1643 15.404 24.1224 15.35 24.0144C15.294 23.9084 15.336 23.7763 15.444 23.7223C17.342 22.7443 18.762 24.7263 18.778 24.7463C18.846 24.8443 18.822 24.9783 18.726 25.0483C18.688 25.0743 18.644 25.0884 18.602 25.0884H18.6Z" fill="#7A5900"/>
</g>
</svg>
