<svg width="259" height="259" viewBox="0 0 259 259" fill="none" xmlns="http://www.w3.org/2000/svg">
<g filter="url(#filter0_f_6355_23550)">
<circle cx="129.5" cy="129.5" r="72.5" fill="#FFE8A3"/>
</g>
<g clip-path="url(#clip0_6355_23550)">
<path d="M61.9915 115.894C61.5861 115.894 61.2314 115.604 61.1638 115.187C61.1047 114.838 59.728 106.664 62.5827 103.42C63.4357 102.441 64.5674 101.981 65.9102 102.049C68.2835 102.211 69.0689 103.633 69.3223 104.459C69.829 106.102 69.1534 108.248 68.2244 108.997C67.8612 109.295 67.3291 109.227 67.0335 108.861C66.7464 108.495 66.8055 107.958 67.1686 107.66C67.4896 107.405 68.047 106.051 67.7092 104.961C67.4811 104.212 66.8562 103.811 65.8089 103.743C64.9981 103.701 64.3394 103.956 63.8411 104.535C61.9239 106.715 62.456 112.743 62.8191 114.881C62.8952 115.34 62.5911 115.783 62.135 115.868C62.0844 115.868 62.0337 115.877 61.9915 115.877V115.894Z" fill="#CCAB62"/>
<path d="M38.8692 137.572V175.888V178.528C38.8692 179.481 38.5989 180.427 38.1006 181.235L30.3982 193.667C29.1651 195.651 31.0147 198.12 33.2444 197.473L41.4282 195.114C42.7457 194.731 44.1477 194.919 45.3385 195.6C47.8384 197.03 53.2099 199.304 62.0947 199.304C74.7801 199.304 85.3202 188.822 85.3202 175.888V137.572C85.3202 124.638 74.9236 114.157 62.0947 114.157C49.2658 114.157 38.8692 124.638 38.8692 137.572Z" fill="#FFDA79"/>
<path d="M52.0102 154.764C52.5652 154.764 53.0152 154.31 53.0152 153.75C53.0152 153.191 52.5652 152.737 52.0102 152.737C51.4551 152.737 51.0051 153.191 51.0051 153.75C51.0051 154.31 51.4551 154.764 52.0102 154.764Z" fill="#997F4A"/>
<path d="M52.3227 147.373H51.7062C50.8526 147.373 50.1606 148.071 50.1606 148.931C50.1606 149.792 50.8526 150.49 51.7062 150.49H52.3227C53.1763 150.49 53.8683 149.792 53.8683 148.931C53.8683 148.071 53.1763 147.373 52.3227 147.373Z" fill="#997F4A"/>
<path d="M63.3935 150.736C63.3935 150.736 63.3766 150.736 63.3597 150.736L55.8684 150.2C55.6319 150.183 55.463 149.978 55.4799 149.748C55.4968 149.51 55.7248 149.34 55.9275 149.357L63.4188 149.893C63.6553 149.91 63.8242 150.114 63.8073 150.344C63.7904 150.566 63.6046 150.736 63.385 150.736H63.3935Z" fill="#997F4A"/>
<path d="M42.8558 151.026C42.6531 151.026 42.4673 150.872 42.442 150.668C42.4082 150.438 42.5687 150.217 42.7967 150.183L48.1681 149.357C48.3962 149.323 48.6158 149.484 48.6495 149.714C48.6833 149.944 48.5229 150.166 48.2948 150.2L42.9234 151.026C42.9234 151.026 42.8812 151.026 42.8558 151.026Z" fill="#997F4A"/>
<path d="M56.425 138.901H56.4166C55.3064 138.901 54.4065 139.808 54.4065 140.927V142.452C54.4065 143.571 55.3064 144.478 56.4166 144.478H56.425C57.5351 144.478 58.4351 143.571 58.4351 142.452V140.927C58.4351 139.808 57.5351 138.901 56.425 138.901Z" fill="#997F4A"/>
<path d="M48.227 138.901H48.2186C47.1084 138.901 46.2085 139.808 46.2085 140.927V142.452C46.2085 143.571 47.1084 144.478 48.2186 144.478H48.227C49.3371 144.478 50.2371 143.571 50.2371 142.452V140.927C50.2371 139.808 49.3371 138.901 48.227 138.901Z" fill="#997F4A"/>
<path d="M46.3163 147.245C43.2758 147.245 40.8013 144.521 40.8013 141.174C40.8013 137.828 43.2758 135.103 46.3163 135.103C49.3567 135.103 51.8313 137.828 51.8313 141.174C51.8313 144.521 49.3567 147.245 46.3163 147.245ZM46.3163 135.784C43.6475 135.784 41.4769 138.203 41.4769 141.174C41.4769 144.146 43.6475 146.564 46.3163 146.564C48.9851 146.564 51.1556 144.146 51.1556 141.174C51.1556 138.203 48.9851 135.784 46.3163 135.784Z" fill="#CCAB62"/>
<path d="M58.1747 147.245C55.0583 147.245 52.5161 144.521 52.5161 141.174C52.5161 137.828 55.0498 135.103 58.1747 135.103C61.2996 135.103 63.8333 137.828 63.8333 141.174C63.8333 144.521 61.2996 147.245 58.1747 147.245ZM58.1747 135.784C55.4299 135.784 53.1918 138.203 53.1918 141.174C53.1918 144.146 55.4214 146.564 58.1747 146.564C60.928 146.564 63.1576 144.146 63.1576 141.174C63.1576 138.203 60.9195 135.784 58.1747 135.784Z" fill="#CCAB62"/>
<path d="M52.6941 141.2H51.6553V141.881H52.6941V141.2Z" fill="#CCAB62"/>
<path d="M55.8947 148.65C55.6667 148.65 55.4809 148.471 55.4725 148.241C55.464 148.003 55.6414 147.807 55.8694 147.799L63.3691 147.424C63.6056 147.407 63.7999 147.594 63.8083 147.833C63.8168 148.071 63.6394 148.267 63.4114 148.276L55.9116 148.65H55.8947Z" fill="#997F4A"/>
<path d="M48.2672 148.829C48.2672 148.829 48.2335 148.829 48.2081 148.829L42.7522 148.096C42.5242 148.062 42.3553 147.85 42.3891 147.62C42.4229 147.39 42.634 147.228 42.862 147.254L48.3179 147.986C48.546 148.02 48.7149 148.233 48.6811 148.463C48.6557 148.675 48.4699 148.829 48.2672 148.829Z" fill="#997F4A"/>
</g>
<g clip-path="url(#clip1_6355_23550)">
<path d="M110.85 97.5465C110.557 97.5465 110.299 97.363 110.195 97.0878C110.125 96.8973 108.298 92.2609 100.562 92.2609C100.179 92.2609 99.8647 91.9434 99.8647 91.5553C99.8647 91.1671 100.179 90.8496 100.562 90.8496C106.714 90.8496 109.581 93.5735 110.767 95.2742C111.806 93.5241 114.533 90.8002 121.397 90.8002C121.78 90.8002 122.094 91.1177 122.094 91.5059C122.094 91.894 121.78 92.2115 121.397 92.2115C112.706 92.2115 111.569 96.7985 111.527 96.9961C111.457 97.2995 111.199 97.5253 110.892 97.5465C110.878 97.5465 110.864 97.5465 110.85 97.5465Z" fill="#75A0C6"/>
<path d="M110.974 97.1581C110.59 97.1581 110.277 96.8406 110.277 96.4524C110.277 90.8917 116.875 87.7655 117.161 87.6385C117.517 87.4762 117.928 87.6385 118.089 87.9843C118.249 88.3371 118.096 88.7534 117.747 88.9228C117.684 88.951 111.679 91.802 111.679 96.4524C111.679 96.8406 111.365 97.1581 110.981 97.1581H110.974Z" fill="#75A0C6"/>
<path d="M106.216 96.6715C91.9595 96.6715 80.4019 108.365 80.4019 122.789V127.545V183.125V185.312C80.4019 186.103 80.1787 186.886 79.7672 187.556L73.399 197.852C72.3806 199.496 73.9082 201.543 75.7496 201.007L82.5083 199.052C83.5965 198.734 84.7543 198.889 85.7378 199.454C87.8024 200.64 92.2385 202.524 99.5762 202.524C99.632 202.524 112.306 202.524 117.356 202.524C131.605 202.524 143.17 190.831 143.17 176.414V127.538V126.43V122.789C143.17 108.365 131.612 96.6715 117.356 96.6715C112.306 96.6715 111.259 96.6715 106.209 96.6715H106.216Z" fill="#91C0FD"/>
<path d="M96.2233 133.445H95.7142C95.0092 133.445 94.4377 134.023 94.4377 134.737C94.4377 135.45 95.0092 136.028 95.7142 136.028H96.2233C96.9283 136.028 97.4998 135.45 97.4998 134.737C97.4998 134.023 96.9283 133.445 96.2233 133.445Z" fill="#48617C"/>
<path d="M99.6116 126.833H99.6046C98.6878 126.833 97.9446 127.585 97.9446 128.513V129.776C97.9446 130.703 98.6878 131.455 99.6046 131.455H99.6116C100.528 131.455 101.272 130.703 101.272 129.776V128.513C101.272 127.585 100.528 126.833 99.6116 126.833Z" fill="#48617C"/>
<path d="M92.8484 126.833H92.8414C91.9246 126.833 91.1814 127.585 91.1814 128.513V129.776C91.1814 130.703 91.9246 131.455 92.8414 131.455H92.8484C93.7652 131.455 94.5085 130.703 94.5085 129.776V128.513C94.5085 127.585 93.7652 126.833 92.8484 126.833Z" fill="#48617C"/>
<path d="M96.4099 141.285C96.096 141.285 95.7751 141.243 95.4334 141.144C94.7986 140.968 94.143 140.558 94.0732 140.516C93.7454 140.311 93.6478 139.874 93.85 139.542C94.0523 139.21 94.4848 139.112 94.8126 139.316C94.966 139.408 95.4334 139.683 95.81 139.782C97.8188 140.347 98.9767 137.947 99.0255 137.841C99.1929 137.489 99.6044 137.34 99.9532 137.51C100.302 137.679 100.448 138.095 100.288 138.448C99.7927 139.521 98.4117 141.285 96.4168 141.285H96.4099Z" fill="#48617C"/>
<path d="M107.725 139.973C110.614 139.973 112.956 137.603 112.956 134.68C112.956 131.757 110.614 129.387 107.725 129.387C104.836 129.387 102.494 131.757 102.494 134.68C102.494 137.603 104.836 139.973 107.725 139.973Z" fill="#75A0C6"/>
<path d="M86.4232 139.973C89.3123 139.973 91.6544 137.603 91.6544 134.68C91.6544 131.757 89.3123 129.387 86.4232 129.387C83.534 129.387 81.1919 131.757 81.1919 134.68C81.1919 137.603 83.534 139.973 86.4232 139.973Z" fill="#75A0C6"/>
<path d="M99.1817 134.052C99.0004 134.052 98.8469 133.911 98.833 133.727C98.819 133.53 98.9585 133.361 99.1538 133.346L105.341 132.852C105.515 132.838 105.703 132.979 105.717 133.177C105.731 133.375 105.592 133.544 105.396 133.558L99.2096 134.052C99.2096 134.052 99.1887 134.052 99.1817 134.052Z" fill="#48617C"/>
<path d="M105.369 136.239C105.369 136.239 105.355 136.239 105.341 136.239L99.1538 135.795C98.9585 135.781 98.819 135.611 98.833 135.421C98.8469 135.223 99.0353 135.075 99.2027 135.096L105.39 135.541C105.585 135.555 105.724 135.724 105.71 135.915C105.696 136.098 105.543 136.239 105.362 136.239H105.369Z" fill="#48617C"/>
<path d="M92.8402 134.051C92.8402 134.051 92.7914 134.051 92.7635 134.044L88.3274 133.035C88.1391 132.993 88.0205 132.802 88.0624 132.612C88.1042 132.421 88.2925 132.301 88.4809 132.344L92.917 133.353C93.1053 133.395 93.2239 133.586 93.182 133.776C93.1471 133.938 93.0007 134.051 92.8402 134.051Z" fill="#48617C"/>
<path d="M88.4026 136.479C88.2352 136.479 88.0818 136.352 88.0608 136.183C88.0329 135.992 88.1655 135.809 88.3538 135.781L92.7899 135.096C92.9782 135.068 93.1596 135.202 93.1875 135.393C93.2154 135.583 93.0828 135.767 92.8945 135.795L88.4584 136.479C88.4584 136.479 88.4235 136.479 88.4026 136.479Z" fill="#48617C"/>
</g>
<g clip-path="url(#clip2_6355_23550)">
<path d="M154.758 50.8581C154.294 50.8581 153.914 50.475 153.914 50.0066V45.8515C153.914 45.3832 154.294 45 154.758 45C155.223 45 155.603 45.3832 155.603 45.8515V50.0066C155.603 50.475 155.223 50.8581 154.758 50.8581Z" fill="#C99A3A"/>
<path d="M158.745 51.3438C158.618 51.3438 158.491 51.3183 158.373 51.2587C157.951 51.0543 157.782 50.5434 157.985 50.1177L159.834 46.3202C160.037 45.8944 160.544 45.7241 160.966 45.9285C161.388 46.1328 161.557 46.6437 161.354 47.0694L159.505 50.867C159.361 51.165 159.057 51.3438 158.745 51.3438Z" fill="#C99A3A"/>
<path d="M150.882 51.3438C150.569 51.3438 150.265 51.165 150.122 50.867L148.272 47.0694C148.07 46.6437 148.238 46.1328 148.661 45.9285C149.083 45.7241 149.59 45.8944 149.792 46.3202L151.642 50.1177C151.845 50.5434 151.676 51.0543 151.254 51.2587C151.135 51.3183 151.009 51.3438 150.882 51.3438Z" fill="#C99A3A"/>
<path d="M131.772 73.3114V188.26V190.899C131.772 191.853 131.501 192.798 131.003 193.607L123.301 206.039C122.067 208.023 123.917 210.492 126.147 209.845L134.331 207.486C135.648 207.103 137.05 207.29 138.241 207.971C140.741 209.402 146.112 211.675 154.997 211.675C167.682 211.675 178.223 201.194 178.223 188.26V73.3114C178.223 60.3776 167.826 49.896 154.997 49.896C142.168 49.896 131.772 60.3776 131.772 73.3114Z" fill="#FFCC47"/>
<path d="M144.262 87.25H143.645C142.792 87.25 142.1 87.9476 142.1 88.8082C142.1 89.6688 142.792 90.3664 143.645 90.3664H144.262C145.116 90.3664 145.807 89.6688 145.807 88.8082C145.807 87.9476 145.116 87.25 144.262 87.25Z" fill="#99752C"/>
<path d="M147.841 87.9736C147.622 87.9736 147.436 87.8033 147.419 87.5819C147.402 87.3435 147.571 87.1391 147.808 87.1221L155.299 86.5261C155.51 86.5176 155.738 86.6793 155.755 86.9178C155.772 87.1562 155.603 87.3605 155.366 87.3775L147.875 87.9736C147.875 87.9736 147.85 87.9736 147.841 87.9736Z" fill="#997F4A"/>
<path d="M155.333 90.613C155.333 90.613 155.316 90.613 155.299 90.613L147.808 90.0765C147.571 90.0595 147.402 89.8552 147.419 89.6253C147.436 89.3869 147.656 89.2166 147.867 89.2336L155.358 89.77C155.595 89.7871 155.763 89.9914 155.747 90.2213C155.73 90.4427 155.544 90.613 155.324 90.613H155.333Z" fill="#997F4A"/>
<path d="M140.166 87.9738C140.166 87.9738 140.106 87.9738 140.073 87.9653L134.701 86.7477C134.473 86.6966 134.33 86.4667 134.38 86.2368C134.431 86.0069 134.659 85.8621 134.887 85.9132L140.258 87.1308C140.486 87.1819 140.63 87.4118 140.579 87.6417C140.537 87.8375 140.36 87.9738 140.166 87.9738Z" fill="#997F4A"/>
<path d="M134.795 90.9024C134.592 90.9024 134.407 90.7492 134.381 90.5448C134.347 90.3149 134.508 90.0935 134.736 90.0595L140.107 89.2335C140.335 89.1995 140.555 89.3613 140.589 89.5912C140.623 89.821 140.462 90.0424 140.234 90.0765L134.863 90.9024C134.863 90.9024 134.82 90.9024 134.795 90.9024Z" fill="#997F4A"/>
<path d="M148.368 79.2633H148.359C147.249 79.2633 146.349 80.1706 146.349 81.2898V82.8139C146.349 83.9331 147.249 84.8404 148.359 84.8404H148.368C149.478 84.8404 150.378 83.9331 150.378 82.8139V81.2898C150.378 80.1706 149.478 79.2633 148.368 79.2633Z" fill="#99752C"/>
<path d="M140.173 79.2633H140.164C139.054 79.2633 138.154 80.1706 138.154 81.2898V82.8139C138.154 83.9331 139.054 84.8404 140.164 84.8404H140.173C141.283 84.8404 142.183 83.9331 142.183 82.8139V81.2898C142.183 80.1706 141.283 79.2633 140.173 79.2633Z" fill="#99752C"/>
<path d="M142.504 93.8833L146.237 93.2447C146.541 93.1936 146.794 93.4746 146.718 93.7726L145.595 97.9704C145.502 98.3109 145.054 98.3961 144.852 98.1151L142.242 94.5645C142.056 94.309 142.2 93.9429 142.512 93.8918L142.504 93.8833Z" fill="#99752C"/>
<path d="M146.348 77.7564C146.281 77.7564 146.213 77.7394 146.154 77.7053C145.943 77.5947 145.867 77.3392 145.968 77.1349C145.993 77.0923 148.248 72.7668 152.64 74.325C152.86 74.4016 152.978 74.6486 152.902 74.8699C152.826 75.0913 152.589 75.2105 152.361 75.1339C148.662 73.8312 146.804 77.3818 146.72 77.535C146.644 77.6798 146.5 77.7649 146.348 77.7649V77.7564Z" fill="#C99A3A"/>
<path d="M142.183 77.7558C142.048 77.7558 141.921 77.6962 141.837 77.577C141.744 77.4408 139.463 74.2478 136.423 75.8315C136.22 75.9422 135.958 75.857 135.857 75.6442C135.747 75.4313 135.832 75.1759 136.034 75.0737C139.734 73.1494 142.504 77.0491 142.529 77.0832C142.664 77.279 142.614 77.543 142.428 77.6792C142.352 77.7303 142.267 77.7558 142.183 77.7558Z" fill="#C99A3A"/>
</g>
<g clip-path="url(#clip3_6355_23550)">
<path d="M192.158 112.676C191.938 112.676 191.719 112.59 191.567 112.429C191.541 112.403 188.509 109.517 182.893 109.644C182.428 109.644 182.04 109.287 182.031 108.81C182.023 108.333 182.386 107.95 182.859 107.941C187.732 107.822 190.857 109.712 192.124 110.675C196.026 107.184 202.216 108.657 202.495 108.725C202.951 108.835 203.222 109.295 203.112 109.755C203.002 110.215 202.537 110.496 202.09 110.377C202.031 110.36 195.95 108.921 192.791 112.395C192.639 112.565 192.42 112.667 192.192 112.667H192.175L192.158 112.676Z" fill="#4F8DC6"/>
<path d="M192.13 112.369C191.783 112.369 191.471 112.156 191.344 111.824C191.327 111.773 189.41 106.928 185.618 105.923C185.171 105.804 184.9 105.335 185.019 104.884C185.137 104.433 185.601 104.16 186.049 104.28C188.904 105.037 190.821 107.404 191.885 109.167C193.194 106.161 196.175 104.85 197.847 104.561C198.312 104.475 198.743 104.799 198.819 105.259C198.895 105.719 198.591 106.161 198.126 106.238C197.932 106.272 193.464 107.115 192.966 111.611C192.924 112.002 192.62 112.309 192.24 112.36C192.206 112.36 192.164 112.36 192.13 112.36V112.369Z" fill="#4F8DC6"/>
<path d="M192.131 112.368C191.743 112.368 191.388 112.096 191.304 111.696C189.952 105.301 193.196 102.381 193.339 102.261C193.694 101.955 194.226 101.989 194.53 102.346C194.834 102.704 194.8 103.232 194.446 103.547C194.336 103.649 191.827 105.991 192.959 111.347C193.052 111.806 192.765 112.258 192.309 112.36C192.25 112.377 192.191 112.377 192.131 112.377V112.368Z" fill="#4F8DC6"/>
<path d="M217.063 133.86C216.033 133.655 215.273 132.778 215.112 131.722C213.432 120.457 203.795 111.815 192.157 111.815C179.328 111.815 168.932 122.297 168.932 135.23V190.585V193.224C168.932 194.178 168.661 195.123 168.163 195.932L160.461 208.363C159.228 210.347 161.077 212.816 163.307 212.169L171.491 209.811C172.808 209.428 174.21 209.615 175.401 210.296C177.901 211.727 183.272 214 192.157 214C200.468 214 207.849 209.504 211.962 202.761C212.385 202.071 213.136 201.662 213.939 201.662C222.806 201.662 230.002 194.416 230.002 185.476V149.731C230.002 141.872 224.436 135.324 217.063 133.86Z" fill="#5FA3FC"/>
<path d="M180.983 146.998H180.367C179.513 146.998 178.821 147.696 178.821 148.556C178.821 149.417 179.513 150.115 180.367 150.115H180.983C181.837 150.115 182.529 149.417 182.529 148.556C182.529 147.696 181.837 146.998 180.983 146.998Z" fill="#3C6899"/>
<path d="M184.563 147.73C184.343 147.73 184.157 147.56 184.141 147.338C184.124 147.1 184.293 146.896 184.529 146.879L192.02 146.283C192.231 146.266 192.46 146.436 192.476 146.674C192.493 146.913 192.324 147.117 192.088 147.134L184.597 147.73C184.597 147.73 184.571 147.73 184.563 147.73Z" fill="#3C6899"/>
<path d="M192.054 150.37C192.054 150.37 192.037 150.37 192.02 150.37L184.529 149.834C184.293 149.817 184.124 149.612 184.141 149.382C184.157 149.144 184.385 148.974 184.588 148.991L192.079 149.527C192.316 149.544 192.485 149.749 192.468 149.979C192.451 150.2 192.265 150.37 192.046 150.37H192.054Z" fill="#3C6899"/>
<path d="M176.887 147.73C176.887 147.73 176.828 147.73 176.794 147.722L171.423 146.504C171.195 146.453 171.051 146.223 171.102 145.993C171.152 145.763 171.38 145.619 171.608 145.67L176.98 146.887C177.208 146.938 177.352 147.168 177.301 147.398C177.259 147.594 177.081 147.73 176.887 147.73Z" fill="#3C6899"/>
<path d="M171.516 150.66C171.314 150.66 171.128 150.506 171.103 150.302C171.069 150.072 171.229 149.851 171.457 149.817L176.829 148.991C177.057 148.957 177.276 149.118 177.31 149.348C177.344 149.578 177.184 149.8 176.955 149.834L171.584 150.66C171.584 150.66 171.542 150.66 171.516 150.66Z" fill="#3C6899"/>
<path d="M185.326 139.034L185.317 139.033C184.211 138.936 183.236 139.761 183.14 140.876L183.008 142.394C182.911 143.509 183.729 144.492 184.835 144.589L184.843 144.59C185.949 144.688 186.924 143.863 187.021 142.748L187.153 141.23C187.25 140.115 186.431 139.132 185.326 139.034Z" fill="#3C6899"/>
<path d="M176.656 139.026L176.647 139.027C175.541 139.124 174.723 140.107 174.82 141.222L174.952 142.741C175.048 143.856 176.023 144.68 177.129 144.583L177.138 144.582C178.244 144.484 179.062 143.502 178.965 142.387L178.833 140.868C178.736 139.753 177.762 138.929 176.656 139.026Z" fill="#3C6899"/>
<path d="M180.67 153.912C178.322 153.912 177.765 153.078 177.68 152.907C177.571 152.703 177.647 152.439 177.858 152.328C178.06 152.218 178.322 152.294 178.432 152.507C178.432 152.507 178.854 153.061 180.679 153.061C182.503 153.061 182.934 152.49 182.934 152.49C183.043 152.286 183.297 152.209 183.499 152.32C183.702 152.43 183.778 152.694 183.668 152.907C183.584 153.078 183.018 153.912 180.679 153.912H180.67Z" fill="#3C6899"/>
<path d="M178.727 153.146C178.727 153.146 178.617 155.479 180.745 155.632C180.745 155.632 182.78 155.751 182.62 152.822C182.62 152.822 180.948 153.827 178.727 153.146Z" fill="#3C6899"/>
<path d="M218.432 181.423C220.248 145.712 216.718 135.001 216.067 133.375C215.713 133.094 215.426 132.71 215.257 132.276C215.434 135.503 217.368 174.058 212.149 202.497C212.368 202.233 212.639 202.02 212.934 201.875C213.23 201.731 213.559 201.654 213.905 201.645C218.069 199.432 218.432 181.423 218.432 181.423Z" fill="#4E87C6"/>
<path d="M225 144.367C226.715 149.962 226.394 160.809 225.752 175.514L226.597 175.548C227.239 160.75 227.559 149.842 225.803 144.112C224.283 139.156 222.534 136.602 221.191 135.291C220.474 134.925 219.713 134.61 218.936 134.354L218.869 134.763C218.869 134.763 222.264 135.495 224.992 144.367H225Z" fill="#4E87C6"/>
<path d="M222.99 180.648C225.87 180.631 228.877 179.413 229.992 178.911V177.974C229.493 178.213 226.098 179.78 222.99 179.797C221.816 179.797 220.879 180.716 220.854 181.874C220.634 192.245 219.376 199.372 217.467 201.237C217.906 201.134 218.345 201.024 218.776 200.888C221.014 197.099 221.571 187.681 221.698 181.891C221.715 181.202 222.281 180.657 222.99 180.648Z" fill="#4E87C6"/>
</g>
<path d="M76 78.7625V78.7625C76.9416 78.391 77.6871 77.6455 78.0586 76.7039V76.7039V76.7039C78.4298 77.6456 79.1755 78.3911 80.1171 78.7625V78.7625V78.7625C79.1755 79.1338 78.4298 79.8793 78.0586 80.821V80.821V80.821C77.6871 79.8795 76.9416 79.1339 76 78.7625V78.7625Z" fill="white"/>
<path d="M79.6904 72.0293V72.0293C80.1612 71.8436 80.534 71.4708 80.7197 71V71V71C80.9053 71.4709 81.2782 71.8436 81.749 72.0293V72.0293V72.0293C81.2782 72.215 80.9053 72.5877 80.7197 73.0586V73.0586V73.0586C80.534 72.5878 80.1612 72.215 79.6904 72.0293V72.0293Z" fill="white"/>
<path d="M125.797 76.2037V76.2037C126.117 76.0775 126.37 75.8241 126.497 75.504V75.504V75.504C126.623 75.8241 126.876 76.0775 127.196 76.2037V76.2037V76.2037C126.876 76.33 126.623 76.5834 126.497 76.9034V76.9034V76.9034C126.37 76.5834 126.117 76.33 125.797 76.2037V76.2037Z" fill="white"/>
<defs>
<filter id="filter0_f_6355_23550" x="0.0577698" y="0.0577698" width="258.884" height="258.884" filterUnits="userSpaceOnUse" color-interpolation-filters="sRGB">
<feFlood flood-opacity="0" result="BackgroundImageFix"/>
<feBlend mode="normal" in="SourceGraphic" in2="BackgroundImageFix" result="shape"/>
<feGaussianBlur stdDeviation="28.4711" result="effect1_foregroundBlur_6355_23550"/>
</filter>
<clipPath id="clip0_6355_23550">
<rect width="55.319" height="97.2549" fill="white" transform="translate(30 102.049)"/>
</clipPath>
<clipPath id="clip1_6355_23550">
<rect width="70.0989" height="114.948" fill="white" transform="translate(73.0728 87.5748)"/>
</clipPath>
<clipPath id="clip2_6355_23550">
<rect width="55.319" height="166.675" fill="white" transform="translate(122.901 45)"/>
</clipPath>
<clipPath id="clip3_6355_23550">
<rect width="69.9384" height="111.951" fill="white" transform="translate(160.062 102.049)"/>
</clipPath>
</defs>
</svg>
