<svg width="39" height="72" viewBox="0 0 39 72" fill="none" xmlns="http://www.w3.org/2000/svg">
<path opacity="0.36" d="M17.8464 6.83105C17.7243 6.83105 17.6022 6.77629 17.5177 6.67224C17.5036 6.65581 15.8176 4.79931 12.6944 4.88146C12.4361 4.88146 12.2201 4.65145 12.2154 4.34477C12.2107 4.03809 12.4127 3.79165 12.6757 3.78618C15.3855 3.70951 17.1232 4.92527 17.8277 5.5441C19.9974 3.29878 23.4399 4.24619 23.5949 4.29001C23.8485 4.3612 23.9988 4.65692 23.9377 4.95265C23.8767 5.24838 23.6184 5.4291 23.3695 5.35243C23.3366 5.34147 19.9552 4.41596 18.1987 6.65033C18.1141 6.75986 17.992 6.82558 17.8652 6.82558H17.8558L17.8464 6.83105Z" fill="#4F8DC6"/>
<path opacity="0.36" d="M17.829 6.63417C17.6364 6.63417 17.4627 6.49726 17.3922 6.28368C17.3828 6.25082 16.3167 3.13475 14.208 2.48854C13.9591 2.41187 13.8088 2.11066 13.8746 1.82041C13.9403 1.53017 14.1986 1.35492 14.4475 1.43159C16.0349 1.91899 17.101 3.44143 17.6928 4.57504C18.4207 2.64187 20.0786 1.79851 21.0085 1.61231C21.2668 1.55755 21.5063 1.76565 21.5486 2.06138C21.5908 2.3571 21.4218 2.64187 21.1635 2.69116C21.0554 2.71307 18.571 3.25523 18.2939 6.14677C18.2705 6.39868 18.1014 6.59583 17.89 6.62869C17.8713 6.62869 17.8478 6.62869 17.829 6.62869V6.63417Z" fill="#4F8DC6"/>
<path opacity="0.36" d="M17.8308 6.63458C17.6147 6.63458 17.4175 6.45933 17.3705 6.20194C16.6191 2.08917 18.4225 0.210761 18.5023 0.134092C18.6996 -0.0630586 18.9955 -0.041153 19.1645 0.188856C19.3336 0.418865 19.3148 0.758401 19.1176 0.961028C19.0565 1.02674 17.6617 2.53275 18.291 5.97741C18.3427 6.27314 18.183 6.56338 17.9294 6.6291C17.8965 6.64005 17.8636 6.64005 17.8308 6.64005V6.63458Z" fill="#4F8DC6"/>
<path opacity="0.36" d="M31.6952 20.4562C31.1223 20.3248 30.6996 19.7607 30.6103 19.0817C29.6758 11.8364 24.3171 6.27783 17.8454 6.27783C10.7115 6.27783 4.93019 13.0193 4.93019 21.3379V56.94V58.6377C4.93019 59.251 4.77991 59.8589 4.50282 60.3792L0.219659 68.3747C-0.466022 69.6507 0.562499 71.2389 1.80236 70.8227L6.35321 69.3057C7.08586 69.0593 7.86547 69.1797 8.52767 69.6179C9.91781 70.5379 12.9048 72.0001 17.8454 72.0001C22.4667 72.0001 26.5714 69.1086 28.8586 64.7712C29.0934 64.3277 29.5114 64.0648 29.9575 64.0648C34.8888 64.0648 38.8902 59.4044 38.8902 53.6542V30.6642C38.8902 25.6095 35.7952 21.3982 31.6952 20.4562Z" fill="#5FA3FC"/>
<path opacity="0.36" d="M17.0189 28.9064H16.6761C16.2014 28.9064 15.8167 29.3551 15.8167 29.9086C15.8167 30.462 16.2014 30.9107 16.6761 30.9107H17.0189C17.4936 30.9107 17.8784 30.462 17.8784 29.9086C17.8784 29.3551 17.4936 28.9064 17.0189 28.9064Z" fill="#3C6899"/>
<path opacity="0.36" d="M19.0087 29.3774C18.8866 29.3774 18.7832 29.2679 18.7738 29.1255C18.7644 28.9722 18.8584 28.8407 18.9899 28.8298L23.1556 28.4464C23.273 28.4355 23.3998 28.545 23.4092 28.6983C23.4186 28.8517 23.3247 28.9831 23.1932 28.9941L19.0274 29.3774C19.0274 29.3774 19.0134 29.3774 19.0087 29.3774Z" fill="#3C6899"/>
<path opacity="0.36" d="M23.1744 31.0753C23.1744 31.0753 23.165 31.0753 23.1556 31.0753L18.9899 30.7303C18.8584 30.7193 18.7644 30.5879 18.7738 30.44C18.7832 30.2867 18.91 30.1772 19.0228 30.1881L23.1885 30.5331C23.32 30.5441 23.4139 30.6755 23.4045 30.8234C23.3951 30.9658 23.2918 31.0753 23.1697 31.0753H23.1744Z" fill="#3C6899"/>
<path opacity="0.36" d="M14.7401 29.3774C14.7401 29.3774 14.7072 29.3774 14.6884 29.3719L11.7015 28.5888C11.5747 28.556 11.4948 28.4081 11.523 28.2602C11.5512 28.1124 11.678 28.0193 11.8048 28.0521L14.7917 28.8353C14.9185 28.8681 14.9984 29.016 14.9702 29.1638C14.9467 29.2898 14.8481 29.3774 14.7401 29.3774Z" fill="#3C6899"/>
<path opacity="0.36" d="M11.7544 31.2617C11.6416 31.2617 11.5383 31.1631 11.5242 31.0317C11.5054 30.8838 11.5947 30.7415 11.7215 30.7195L14.7084 30.1883C14.8352 30.1664 14.9573 30.2705 14.9761 30.4183C14.9949 30.5662 14.9057 30.7086 14.7789 30.7305L11.7919 31.2617C11.7919 31.2617 11.7684 31.2617 11.7544 31.2617Z" fill="#3C6899"/>
<path opacity="0.36" d="M19.4331 23.7844L19.4284 23.7839C18.8135 23.7211 18.2713 24.2516 18.2175 24.9687L18.1443 25.9453C18.0905 26.6624 18.5454 27.2945 19.1603 27.3573L19.165 27.3578C19.78 27.4205 20.3221 26.89 20.3759 26.1729L20.4492 25.1964C20.503 24.4793 20.0481 23.8471 19.4331 23.7844Z" fill="#3C6899"/>
<path opacity="0.36" d="M14.6109 23.7797L14.6062 23.7802C13.9912 23.8429 13.5363 24.4751 13.5901 25.1922L13.6634 26.1688C13.7172 26.8859 14.2593 27.4163 14.8743 27.3536L14.879 27.3531C15.4939 27.2904 15.9488 26.6582 15.895 25.9411L15.8218 24.9646C15.768 24.2475 15.2258 23.717 14.6109 23.7797Z" fill="#3C6899"/>
<path opacity="0.36" d="M16.8439 33.3531C15.5383 33.3531 15.2284 32.8164 15.1814 32.7069C15.1203 32.5754 15.1626 32.4057 15.28 32.3345C15.3927 32.2633 15.5383 32.3126 15.5994 32.4495C15.5994 32.4495 15.8342 32.8055 16.8486 32.8055C17.8631 32.8055 18.1026 32.4385 18.1026 32.4385C18.1636 32.3071 18.3045 32.2578 18.4172 32.329C18.53 32.4002 18.5722 32.57 18.5112 32.7069C18.4642 32.8164 18.1495 33.3531 16.8486 33.3531H16.8439Z" fill="#3C6899"/>
<path opacity="0.36" d="M15.7627 32.8603C15.7627 32.8603 15.7017 34.3609 16.8852 34.4594C16.8852 34.4594 18.017 34.5361 17.9278 32.6522C17.9278 32.6522 16.9979 33.2984 15.7627 32.8603Z" fill="#3C6899"/>
<path opacity="0.36" d="M32.4561 51.0479C33.4658 28.0799 31.5027 21.1906 31.1411 20.1446C30.9438 19.9638 30.7841 19.7174 30.6902 19.4381C30.7888 21.5137 31.8643 46.3108 28.9619 64.602C29.084 64.4322 29.2343 64.2953 29.3987 64.2022C29.5631 64.1091 29.7462 64.0598 29.9388 64.0543C32.2541 62.6305 32.4561 51.0479 32.4561 51.0479Z" fill="#4E87C6"/>
<path opacity="0.36" d="M36.1083 27.2147C37.0617 30.8127 36.8833 37.7896 36.5263 47.2473L36.996 47.2692C37.3529 37.7513 37.5314 30.736 36.5545 27.0504C35.7092 23.8631 34.737 22.2202 33.9903 21.3768C33.5911 21.1413 33.1684 20.9387 32.7363 20.7744L32.6987 21.0373C32.6987 21.0373 34.5867 21.5083 36.1037 27.2147H36.1083Z" fill="#4E87C6"/>
<path d="M34.9904 50.5489C36.5919 50.538 38.2638 49.7549 38.8838 49.4317V48.8293C38.6067 48.9827 36.7187 49.9903 34.9904 50.0013C34.3376 50.0013 33.8163 50.5927 33.8022 51.3375C33.6801 58.0078 32.9803 62.5915 31.9189 63.7909C32.1632 63.7252 32.4074 63.654 32.6469 63.5663C33.8914 61.1293 34.2014 55.0724 34.2719 51.3485C34.2813 50.9049 34.5959 50.5544 34.9904 50.5489Z" fill="#4E87C6"/>
</svg>
