<svg width="335" height="178" viewBox="0 0 335 178" fill="none" xmlns="http://www.w3.org/2000/svg">
<g clip-path="url(#clip0_5769_211276)">
<rect width="335" height="178" rx="12" fill="#5FA3FC"/>
<path d="M34.256 35.116H36.686V37.204H34.256V45.844H31.952V29.032H34.256V35.116ZM24.518 41.074C26.246 41.074 28.214 40.906 30.422 40.57L30.674 42.604C28.394 42.988 26.204 43.18 24.104 43.18H20.918V30.184H23.24V41.074H24.518ZM50.3344 45.844V29.032H52.5664V45.844H50.3344ZM46.6804 35.278V29.302H48.8584V45.448H46.6804V37.384H45.1144V38.014C45.1144 39.958 44.7844 41.392 44.1244 42.316C43.4764 43.24 42.6124 43.702 41.5324 43.702C40.4404 43.702 39.5644 43.24 38.9044 42.316C38.2444 41.392 37.9144 39.958 37.9144 38.014V35.44C37.9144 33.496 38.2444 32.062 38.9044 31.138C39.5644 30.214 40.4404 29.752 41.5324 29.752C42.6004 29.752 43.4584 30.202 44.1064 31.102C44.7664 32.002 45.1024 33.394 45.1144 35.278H46.6804ZM42.9544 35.44C42.9544 33.04 42.4804 31.84 41.5324 31.84C41.0884 31.84 40.7344 32.122 40.4704 32.686C40.2184 33.25 40.0924 34.168 40.0924 35.44V38.014C40.0924 39.286 40.2184 40.204 40.4704 40.768C40.7344 41.332 41.0884 41.614 41.5324 41.614C42.4804 41.614 42.9544 40.414 42.9544 38.014V35.44ZM67.4027 45.844V29.032H69.6347V45.844H67.4027ZM63.7487 35.458V29.302H65.9267V45.448H63.7487V37.564H60.9587C60.1067 39.856 58.6787 41.98 56.6747 43.936L54.9647 42.28C56.5727 40.78 57.7607 39.178 58.5287 37.474C59.2967 35.77 59.6807 34.072 59.6807 32.38H55.4867V30.274H61.9307V31.93C61.9307 33.142 61.8107 34.318 61.5707 35.458H63.7487ZM90.2499 32.488H92.4459V34.576H90.2499V38.554H87.9999V29.05H90.2499V32.488ZM81.1599 37.654C80.1879 37.798 79.0539 37.87 77.7579 37.87H76.5519V29.752H81.0159V31.786H78.7659V35.836H78.9279C79.4439 35.836 80.1219 35.782 80.9619 35.674L81.1599 37.654ZM86.8119 37.636C85.7199 37.792 84.5379 37.87 83.2659 37.87H81.6639V29.752H86.2179V31.786H83.8959V35.836H84.2919C84.9159 35.836 85.6899 35.776 86.6139 35.656L86.8119 37.636ZM87.9459 41.542H78.9279V39.472H90.2499V46.024H87.9459V41.542ZM111.459 29.05V32.146H113.889V34.234H111.459V37.924H109.155V29.05H111.459ZM98.0311 29.752H106.473V37.204H98.0311V29.752ZM100.263 35.188H104.241V31.786H100.263V35.188ZM107.175 40.858C107.139 41.218 107.037 41.578 106.869 41.938L112.449 44.044L111.639 46.024L105.429 43.648C104.805 44.14 104.037 44.59 103.125 44.998C102.213 45.406 101.193 45.748 100.065 46.024L99.3631 44.044C100.959 43.612 102.231 43.126 103.179 42.586C104.127 42.034 104.661 41.458 104.781 40.858H100.299V38.842H111.531V40.858H107.175ZM119.203 34.036H128.761V36.124H116.899V29.374H119.203V34.036ZM130.723 39.724H114.883V37.636H130.723V39.724ZM129.157 45.844H116.899V40.984H119.203V43.702H129.157V45.844ZM145.489 39.094V42.568H152.257V44.674H136.417V42.568H143.185V39.094H138.271V30.076H150.421V39.094H145.489ZM148.117 32.146H140.557V37.042H148.117V32.146ZM168.065 38.104H165.761V29.032H168.065V38.104ZM158.669 37.654C157.313 37.654 156.203 37.306 155.339 36.61C154.475 35.914 154.043 34.912 154.043 33.604V33.37C154.043 32.05 154.469 31.042 155.321 30.346C156.185 29.65 157.301 29.302 158.669 29.302C160.037 29.302 161.147 29.65 161.999 30.346C162.863 31.042 163.295 32.05 163.295 33.37V33.604C163.295 34.912 162.863 35.914 161.999 36.61C161.135 37.306 160.025 37.654 158.669 37.654ZM158.669 35.638C159.353 35.638 159.911 35.464 160.343 35.116C160.775 34.768 160.991 34.252 160.991 33.568V33.388C160.991 32.704 160.775 32.188 160.343 31.84C159.911 31.492 159.353 31.318 158.669 31.318C157.985 31.318 157.427 31.492 156.995 31.84C156.563 32.188 156.347 32.704 156.347 33.388V33.568C156.347 34.252 156.563 34.768 156.995 35.116C157.427 35.464 157.985 35.638 158.669 35.638ZM168.065 45.844H156.653V39.022H168.065V45.844ZM158.939 41.056V43.792H165.761V41.056H158.939ZM185.133 45.844H182.829V29.032H185.133V45.844ZM175.701 43.702C174.333 43.702 173.223 43.24 172.371 42.316C171.531 41.392 171.111 39.958 171.111 38.014V35.44C171.111 33.496 171.531 32.062 172.371 31.138C173.223 30.214 174.333 29.752 175.701 29.752C177.057 29.752 178.155 30.214 178.995 31.138C179.847 32.062 180.273 33.496 180.273 35.44V38.014C180.273 39.958 179.847 41.392 178.995 42.316C178.155 43.24 177.057 43.702 175.701 43.702ZM175.701 41.614C176.385 41.614 176.931 41.332 177.339 40.768C177.759 40.204 177.969 39.286 177.969 38.014V35.44C177.969 34.168 177.759 33.25 177.339 32.686C176.931 32.122 176.385 31.84 175.701 31.84C175.017 31.84 174.465 32.128 174.045 32.704C173.625 33.268 173.415 34.18 173.415 35.44V38.014C173.415 39.274 173.625 40.192 174.045 40.768C174.465 41.332 175.017 41.614 175.701 41.614ZM207.927 37.384H201.159V39.094H201.969C202.845 39.094 203.607 39.25 204.255 39.562C204.903 39.862 205.401 40.276 205.749 40.804C206.097 41.32 206.271 41.902 206.271 42.55C206.271 43.21 206.097 43.804 205.749 44.332C205.413 44.86 204.915 45.274 204.255 45.574C203.607 45.874 202.845 46.024 201.969 46.024H198.063C197.187 46.024 196.419 45.874 195.759 45.574C195.111 45.274 194.613 44.86 194.265 44.332C193.929 43.804 193.761 43.21 193.761 42.55C193.761 41.902 193.935 41.32 194.283 40.804C194.631 40.276 195.129 39.862 195.777 39.562C196.425 39.25 197.187 39.094 198.063 39.094H198.855V37.384H192.087V35.368H203.103C203.307 34.012 203.433 32.764 203.481 31.624H193.977V29.536H205.785V30.652C205.785 31.996 205.665 33.568 205.425 35.368H207.927V37.384ZM203.967 42.532C203.967 42.088 203.763 41.74 203.355 41.488C202.947 41.224 202.323 41.092 201.483 41.092H198.531C197.703 41.092 197.079 41.224 196.659 41.488C196.251 41.74 196.047 42.088 196.047 42.532C196.047 43 196.251 43.366 196.659 43.63C197.079 43.894 197.703 44.026 198.531 44.026H201.483C202.323 44.026 202.947 43.894 203.355 43.63C203.763 43.366 203.967 43 203.967 42.532ZM224.995 35.44V37.474H209.155V35.44H220.153C220.369 34.132 220.501 32.86 220.549 31.624H211.045V29.518H222.853V30.634C222.853 32.194 222.727 33.796 222.475 35.44H224.995ZM223.159 45.862H211.009V39.184H223.159V45.862ZM220.855 41.164H213.295V43.846H220.855V41.164ZM239.849 35.116H242.297V37.204H239.849V45.844H237.563V29.032H239.849V35.116ZM230.003 29.05H232.325V31.336H236.105V33.388H226.223V31.336H230.003V29.05ZM231.173 34.666C231.965 34.666 232.679 34.834 233.315 35.17C233.963 35.494 234.467 35.962 234.827 36.574C235.199 37.174 235.385 37.87 235.385 38.662V39.652C235.385 40.444 235.199 41.146 234.827 41.758C234.467 42.358 233.963 42.826 233.315 43.162C232.679 43.498 231.965 43.666 231.173 43.666C230.393 43.666 229.679 43.498 229.031 43.162C228.383 42.826 227.873 42.358 227.501 41.758C227.129 41.146 226.943 40.444 226.943 39.652V38.662C226.943 37.87 227.129 37.174 227.501 36.574C227.873 35.962 228.377 35.494 229.013 35.17C229.661 34.834 230.381 34.666 231.173 34.666ZM233.099 38.752C233.099 38.116 232.919 37.618 232.559 37.258C232.199 36.898 231.737 36.718 231.173 36.718C230.621 36.718 230.159 36.898 229.787 37.258C229.427 37.618 229.247 38.116 229.247 38.752V39.562C229.247 40.198 229.427 40.702 229.787 41.074C230.159 41.434 230.621 41.614 231.173 41.614C231.725 41.614 232.181 41.434 232.541 41.074C232.913 40.702 233.099 40.198 233.099 39.562V38.752ZM256.936 35.116H259.366V37.204H256.936V45.844H254.632V29.032H256.936V35.116ZM247.18 41.074C248.92 41.074 250.894 40.912 253.102 40.588L253.354 42.622C251.182 42.994 248.992 43.18 246.784 43.18H243.598V30.184H252.004V32.29H245.92V41.074H247.18ZM272.636 36.718H269.594V38.518H261.098V29.842H269.594V31.21H272.636V29.032H274.958V41.47H272.636V36.718ZM263.33 36.502H267.362V31.858H263.33V36.502ZM272.636 34.9V33.046H269.594V34.9H272.636ZM265.832 40.408V43.756H275.57V45.844H263.546V40.408H265.832ZM277.194 32.848C277.542 31.816 278.13 30.994 278.958 30.382C279.786 29.758 280.806 29.446 282.018 29.446C282.822 29.446 283.584 29.614 284.304 29.95C285.036 30.286 285.624 30.772 286.068 31.408C286.512 32.032 286.734 32.764 286.734 33.604C286.734 34.588 286.488 35.41 285.996 36.07C285.516 36.73 284.796 37.3 283.836 37.78C283.308 38.056 282.948 38.308 282.756 38.536C282.576 38.752 282.48 39.046 282.468 39.418L282.45 40.228H280.29L280.272 39.184C280.26 38.668 280.314 38.236 280.434 37.888C280.566 37.54 280.788 37.228 281.1 36.952C281.424 36.676 281.88 36.394 282.468 36.106C283.152 35.746 283.644 35.38 283.944 35.008C284.256 34.636 284.412 34.168 284.412 33.604C284.412 32.968 284.184 32.47 283.728 32.11C283.272 31.738 282.702 31.552 282.018 31.552C281.31 31.552 280.752 31.72 280.344 32.056C279.936 32.392 279.6 32.896 279.336 33.568L277.194 32.848ZM281.388 45.124C280.98 45.124 280.632 44.98 280.344 44.692C280.056 44.416 279.912 44.074 279.912 43.666C279.912 43.258 280.056 42.91 280.344 42.622C280.632 42.334 280.98 42.19 281.388 42.19C281.796 42.19 282.138 42.334 282.414 42.622C282.702 42.91 282.846 43.258 282.846 43.666C282.846 44.074 282.702 44.416 282.414 44.692C282.138 44.98 281.796 45.124 281.388 45.124Z" fill="white"/>
<path d="M20.81 69.52C22.082 68.992 23.054 68.422 23.726 67.81C24.41 67.198 24.818 66.532 24.95 65.812H21.422V63.796H25.022V62.05H27.29V63.796H30.908V65.812H27.272C27.236 66.22 27.152 66.634 27.02 67.054L31.502 69.322L30.422 71.356L25.904 68.926C25.04 69.886 23.678 70.75 21.818 71.518L20.81 69.52ZM32.888 78.844V62.05H35.192V78.844H32.888ZM31.934 74.056C30.47 74.236 28.922 74.374 27.29 74.47C27.206 75.718 27.062 77.212 26.858 78.952L24.59 78.682C24.806 76.846 24.944 75.478 25.004 74.578C24.68 74.59 24.206 74.596 23.582 74.596H20.882L20.774 72.508H23.798C24.854 72.508 26.108 72.46 27.56 72.364C29.012 72.268 30.38 72.142 31.664 71.986L31.934 74.056ZM43.7824 63.328H47.5624V65.182H37.6804V63.328H41.4604V61.852H43.7824V63.328ZM53.7544 64.192V66.154H51.3064V67.702H53.7544V69.664H51.3064V71.77H49.0204V62.032H51.3064V64.192H53.7544ZM46.8604 68.908C46.8604 69.832 46.4644 70.54 45.6724 71.032C44.8924 71.512 43.8784 71.752 42.6304 71.752C41.3944 71.752 40.3744 71.506 39.5704 71.014C38.7784 70.522 38.3824 69.82 38.3824 68.908V68.692C38.3824 67.78 38.7784 67.078 39.5704 66.586C40.3744 66.082 41.3944 65.83 42.6304 65.83C43.8784 65.83 44.8924 66.076 45.6724 66.568C46.4644 67.06 46.8604 67.768 46.8604 68.692V68.908ZM40.6324 68.872C40.6324 69.196 40.8184 69.454 41.1904 69.646C41.5744 69.826 42.0544 69.916 42.6304 69.916C43.2184 69.916 43.6984 69.826 44.0704 69.646C44.4424 69.454 44.6284 69.196 44.6284 68.872V68.728C44.6284 68.404 44.4364 68.146 44.0524 67.954C43.6804 67.762 43.2064 67.666 42.6304 67.666C42.0544 67.666 41.5744 67.768 41.1904 67.972C40.8184 68.164 40.6324 68.416 40.6324 68.728V68.872ZM47.6344 72.508C48.8464 72.508 49.8244 72.802 50.5684 73.39C51.3124 73.978 51.6844 74.776 51.6844 75.784C51.6844 76.792 51.3124 77.584 50.5684 78.16C49.8244 78.736 48.8464 79.024 47.6344 79.024H43.9624C42.7504 79.024 41.7664 78.73 41.0104 78.142C40.2664 77.566 39.8944 76.78 39.8944 75.784C39.8944 74.776 40.2664 73.978 41.0104 73.39C41.7664 72.802 42.7504 72.508 43.9624 72.508H47.6344ZM47.3104 76.972C47.9824 76.972 48.4924 76.864 48.8404 76.648C49.2004 76.432 49.3804 76.138 49.3804 75.766C49.3804 75.382 49.2004 75.082 48.8404 74.866C48.4924 74.65 47.9824 74.542 47.3104 74.542H44.2684C43.5964 74.542 43.0804 74.65 42.7204 74.866C42.3724 75.082 42.1984 75.382 42.1984 75.766C42.1984 76.138 42.3784 76.432 42.7384 76.648C43.0984 76.864 43.6084 76.972 44.2684 76.972H47.3104ZM71.8676 78.844V62.032H74.0996V78.844H71.8676ZM66.5396 68.278H68.2136V62.302H70.3916V78.448H68.2136V70.384H66.5396V68.278ZM62.9216 74.452C64.1816 74.452 65.4596 74.344 66.7556 74.128L67.0256 76.126C66.3896 76.258 65.7176 76.354 65.0096 76.414C64.3136 76.486 63.4736 76.522 62.4896 76.522H59.6276V63.184H66.1076V65.254H61.9316V68.746H65.9636V70.762H61.9316V74.452H62.9216ZM83.8599 68.458C82.6239 70.018 80.6739 71.392 78.0099 72.58L76.9479 70.6C79.1439 69.58 80.7219 68.536 81.6819 67.468C82.6539 66.388 83.1399 65.254 83.1399 64.066V62.806H85.4439V64.066C85.4439 64.918 85.2939 65.734 84.9939 66.514L91.4559 70.672L90.1959 72.58L83.8599 68.458ZM76.2819 77.674V75.568H92.1219V77.674H76.2819ZM97.4903 71.032H107.714V73.066H95.2043V63.076H107.354V65.146H97.4903V67.036H107.354V69.052H97.4903V71.032ZM93.3503 77.674V75.568H109.19V77.674H93.3503ZM119.491 72.886V75.568H126.259V77.674H110.419V75.568H117.187V72.886H112.273V66.964H122.119V65.146H112.183V63.076H124.423V68.98H114.559V70.87H124.783V72.886H119.491ZM136.596 68.656C135.756 69.664 134.388 70.564 132.492 71.356L131.556 69.394C132.816 68.854 133.77 68.278 134.418 67.666C135.066 67.042 135.45 66.358 135.57 65.614H132.132V63.598H135.624V61.852H137.856V63.598H141.438V65.614H137.82C137.784 66.01 137.712 66.4 137.604 66.784L142.014 69.034L140.952 70.996L136.596 68.656ZM145.578 62.032V65.326H148.008V67.396H145.578V71.284H143.292V62.032H145.578ZM141.294 74.164C141.282 74.464 141.192 74.8 141.024 75.172L146.568 77.062L145.812 79.024L139.548 76.846C138.3 77.77 136.494 78.496 134.13 79.024L133.5 77.044C135.108 76.648 136.38 76.21 137.316 75.73C138.264 75.25 138.798 74.728 138.918 74.164H134.418V72.202H145.668V74.164H141.294ZM162.646 68.116H165.094V70.204H162.646V78.844H160.36V62.032H162.646V68.116ZM153.574 62.752C154.906 62.752 155.986 63.214 156.814 64.138C157.642 65.062 158.056 66.496 158.056 68.44V71.014C158.056 72.958 157.642 74.392 156.814 75.316C155.986 76.24 154.906 76.702 153.574 76.702C152.23 76.702 151.138 76.24 150.298 75.316C149.47 74.392 149.056 72.958 149.056 71.014V68.44C149.056 66.496 149.47 65.062 150.298 64.138C151.138 63.214 152.23 62.752 153.574 62.752ZM155.752 68.44C155.752 67.18 155.548 66.268 155.14 65.704C154.744 65.128 154.222 64.84 153.574 64.84C152.902 64.84 152.362 65.122 151.954 65.686C151.558 66.25 151.36 67.168 151.36 68.44V71.014C151.36 72.286 151.558 73.204 151.954 73.768C152.362 74.332 152.902 74.614 153.574 74.614C154.222 74.614 154.744 74.332 155.14 73.768C155.548 73.192 155.752 72.274 155.752 71.014V68.44ZM175.161 72.454V75.568H181.929V77.674H166.089V75.568H172.857V72.454H167.943V62.986H170.229V65.722H177.789V62.986H180.093V72.454H175.161ZM177.789 67.81H170.229V70.384H177.789V67.81ZM195.793 78.844V62.032H198.025V78.844H195.793ZM189.763 67.576H192.139V62.302H194.317V78.448H192.139V69.682H189.763V67.576ZM188.269 65.254C188.269 66.706 188.149 68.05 187.909 69.286L191.419 75.172L189.565 76.432L187.063 72.256C186.511 73.756 185.719 75.202 184.687 76.594L182.941 75.262C184.021 73.75 184.813 72.178 185.317 70.546C185.833 68.914 186.091 67.15 186.091 65.254V62.968H188.269V65.254ZM206.723 72.004C205.751 72.004 204.887 71.806 204.131 71.41C203.387 71.002 202.805 70.45 202.385 69.754C201.977 69.058 201.773 68.272 201.773 67.396C201.773 66.532 201.977 65.752 202.385 65.056C202.805 64.36 203.387 63.814 204.131 63.418C204.887 63.01 205.751 62.806 206.723 62.806H209.585C210.557 62.806 211.421 63.01 212.177 63.418C212.933 63.814 213.515 64.36 213.923 65.056C214.343 65.752 214.553 66.532 214.553 67.396C214.553 68.272 214.343 69.058 213.923 69.754C213.515 70.45 212.933 71.002 212.177 71.41C211.421 71.806 210.557 72.004 209.585 72.004H206.723ZM207.155 64.876C206.207 64.876 205.451 65.11 204.887 65.578C204.335 66.034 204.059 66.646 204.059 67.414C204.059 68.194 204.335 68.818 204.887 69.286C205.451 69.754 206.207 69.988 207.155 69.988H209.153C210.089 69.988 210.839 69.754 211.403 69.286C211.967 68.818 212.249 68.194 212.249 67.414C212.249 66.646 211.967 66.034 211.403 65.578C210.851 65.11 210.101 64.876 209.153 64.876H207.155ZM212.249 72.94V75.568H216.065V77.674H200.225V75.568H204.059V72.94H206.291V75.568H210.017V72.94H212.249ZM220.534 73.228H218.41L218.176 62.716H220.768L220.534 73.228ZM219.472 78.124C219.064 78.124 218.716 77.98 218.428 77.692C218.152 77.416 218.014 77.074 218.014 76.666C218.014 76.258 218.152 75.91 218.428 75.622C218.716 75.334 219.064 75.19 219.472 75.19C219.88 75.19 220.222 75.334 220.498 75.622C220.786 75.91 220.93 76.258 220.93 76.666C220.93 77.074 220.786 77.416 220.498 77.692C220.222 77.98 219.88 78.124 219.472 78.124Z" fill="white"/>
<path d="M238 64.5L245 71.5L238 78.5" stroke="white" stroke-width="2" stroke-linecap="round" stroke-linejoin="round"/>
<g opacity="0.38">
<g opacity="0.8">
<g opacity="0.6">
<rect y="116" width="101" height="30" rx="15" fill="#C4DEFE"/>
<path d="M20.3897 129.643V130.6H18.6957L18.2777 132.69H19.8837V133.647H18.0907L17.5957 136.1H16.5617L17.0457 133.647H15.1097L14.6257 136.1H13.5807L14.0647 133.647H12.6237V132.69H14.2627L14.6697 130.6H13.1187V129.643H14.8677L15.3517 127.19H16.3967L15.9127 129.643H17.8487L18.3327 127.19H19.3777L18.8827 129.643H20.3897ZM15.3077 132.69H17.2437L17.6507 130.6H15.7147L15.3077 132.69Z" fill="#056BF0"/>
<path d="M31.9509 130.325H33.5239V131.326H31.9509V136.694H30.8509V126.486H31.9509V130.325ZM27.1879 128.411C27.1879 129.269 27.0889 130.09 26.8909 130.875L29.7949 134.505L28.9699 135.198L26.4839 132.085C26.0145 133.207 25.2885 134.281 24.3059 135.308L23.5249 134.582C24.4195 133.651 25.0722 132.694 25.4829 131.711C25.9009 130.721 26.1099 129.621 26.1099 128.411V127.08H27.1879V128.411ZM42.0625 128.73V126.486H43.1075V132.217H42.0625V129.709H40.7975V132.217H39.7745V126.596H40.7975V128.73H42.0625ZM38.6745 131.909L36.6395 130.094C36.2289 130.835 35.6019 131.517 34.7585 132.14L34.1205 131.326C35.5212 130.27 36.2215 129.005 36.2215 127.531V126.816H37.2775V127.531C37.2775 128.081 37.2042 128.609 37.0575 129.115L39.3235 131.139L38.6745 131.909ZM42.0075 133.856H36.1995V132.855H43.1075V136.804H42.0075V133.856ZM53.3842 136.694H52.2842V126.486H53.3842V136.694ZM47.9832 132.591C47.4625 132.591 46.9932 132.492 46.5752 132.294C46.1645 132.089 45.8382 131.784 45.5962 131.381C45.3542 130.978 45.2332 130.479 45.2332 129.885V129.687C45.2332 129.093 45.3542 128.594 45.5962 128.191C45.8382 127.78 46.1645 127.476 46.5752 127.278C46.9932 127.073 47.4625 126.97 47.9832 126.97C48.5039 126.97 48.9695 127.073 49.3802 127.278C49.7982 127.476 50.1245 127.78 50.3592 128.191C50.6012 128.594 50.7222 129.093 50.7222 129.687V129.885C50.7222 130.479 50.6012 130.978 50.3592 131.381C50.1245 131.784 49.7982 132.089 49.3802 132.294C48.9695 132.492 48.5039 132.591 47.9832 132.591ZM47.9832 131.59C48.4672 131.59 48.8632 131.443 49.1712 131.15C49.4792 130.857 49.6332 130.431 49.6332 129.874V129.687C49.6332 129.13 49.4792 128.704 49.1712 128.411C48.8632 128.118 48.4672 127.971 47.9832 127.971C47.4919 127.971 47.0922 128.118 46.7842 128.411C46.4835 128.704 46.3332 129.13 46.3332 129.687V129.874C46.3332 130.431 46.4835 130.857 46.7842 131.15C47.0922 131.443 47.4919 131.59 47.9832 131.59ZM44.7932 135.11L44.7382 134.109H46.5862C47.2095 134.109 47.9722 134.08 48.8742 134.021C49.7762 133.962 50.6269 133.885 51.4262 133.79L51.5472 134.758C50.7919 134.868 49.9522 134.952 49.0282 135.011C48.1115 135.077 47.2645 135.11 46.4872 135.11H44.7932ZM61.6381 127.366H64.1241V128.257H58.0521V127.366H60.5271V126.365H61.6381V127.366ZM65.4111 132.14V126.486H66.5111V132.14H65.4111ZM63.6621 130.534C63.6621 131.055 63.4201 131.462 62.9361 131.755C62.4521 132.041 61.8398 132.184 61.0991 132.184C60.3438 132.184 59.7241 132.041 59.2401 131.755C58.7635 131.469 58.5251 131.062 58.5251 130.534V130.402C58.5251 129.874 58.7635 129.467 59.2401 129.181C59.7241 128.895 60.3438 128.752 61.0991 128.752C61.8471 128.752 62.4595 128.895 62.9361 129.181C63.4201 129.467 63.6621 129.874 63.6621 130.402V130.534ZM59.5921 130.512C59.5921 130.754 59.7315 130.945 60.0101 131.084C60.2961 131.223 60.6591 131.293 61.0991 131.293C61.5318 131.293 61.8875 131.223 62.1661 131.084C62.4521 130.945 62.5951 130.754 62.5951 130.512V130.424C62.5951 130.189 62.4521 129.999 62.1661 129.852C61.8801 129.705 61.5245 129.632 61.0991 129.632C60.6665 129.632 60.3071 129.705 60.0211 129.852C59.7351 129.999 59.5921 130.189 59.5921 130.424V130.512ZM60.8461 133.702H65.4111V132.668H66.5111V136.694H59.7571V132.668H60.8461V133.702ZM60.8461 134.659V135.726H65.4111V134.659H60.8461ZM72.7948 130.215C72.0761 131.198 70.8771 132.078 69.1978 132.855L68.6918 131.909C70.0118 131.278 70.9761 130.629 71.5848 129.962C72.1935 129.287 72.4978 128.565 72.4978 127.795V127.014H73.5978V127.795C73.5978 128.316 73.5025 128.811 73.3118 129.28L77.2938 131.942L76.6998 132.855L72.7948 130.215ZM68.1968 135.924V134.923H77.7888V135.924H68.1968ZM86.2835 130.424V126.486H87.3725V136.694H86.2835V131.425H84.6005V130.424H86.2835ZM81.2675 134.252C81.8615 134.252 82.4885 134.226 83.1485 134.175C83.8158 134.116 84.4538 134.039 85.0625 133.944L85.1945 134.89C84.6225 135 83.9735 135.084 83.2475 135.143C82.5288 135.209 81.8065 135.242 81.0805 135.242H79.1775V127.234H84.1935V128.224H80.2775V130.699H84.0835V131.667H80.2775V134.252H81.2675Z" fill="#056BF0"/>
</g>
<rect x="121" y="116" width="50" height="30" rx="15" fill="#E6E6E6"/>
<path d="M141.39 129.643V130.6H139.696L139.278 132.69H140.884V133.647H139.091L138.596 136.1H137.562L138.046 133.647H136.11L135.626 136.1H134.581L135.065 133.647H133.624V132.69H135.263L135.67 130.6H134.119V129.643H135.868L136.352 127.19H137.397L136.913 129.643H138.849L139.333 127.19H140.378L139.883 129.643H141.39ZM136.308 132.69H138.244L138.651 130.6H136.715L136.308 132.69Z" fill="#666666"/>
<path d="M145.644 133.515C145.871 134.072 146.216 134.505 146.678 134.813C147.147 135.114 147.697 135.264 148.328 135.264C148.966 135.264 149.476 135.139 149.857 134.89C150.238 134.633 150.429 134.281 150.429 133.834C150.429 133.416 150.297 133.093 150.033 132.866C149.776 132.631 149.399 132.444 148.9 132.305L147.569 131.931C145.978 131.469 145.182 130.64 145.182 129.445C145.182 128.961 145.31 128.536 145.567 128.169C145.831 127.802 146.19 127.52 146.645 127.322C147.1 127.124 147.609 127.025 148.174 127.025C148.973 127.025 149.659 127.223 150.231 127.619C150.803 128.015 151.214 128.532 151.463 129.17L150.517 129.621C150.304 129.122 150 128.734 149.604 128.455C149.208 128.169 148.731 128.026 148.174 128.026C147.602 128.026 147.144 128.154 146.799 128.411C146.454 128.66 146.282 129.005 146.282 129.445C146.282 129.856 146.414 130.175 146.678 130.402C146.949 130.622 147.327 130.802 147.811 130.941L149.12 131.315C150.719 131.762 151.518 132.602 151.518 133.834C151.518 134.325 151.379 134.754 151.1 135.121C150.821 135.495 150.44 135.777 149.956 135.968C149.472 136.166 148.929 136.265 148.328 136.265C147.441 136.265 146.682 136.063 146.051 135.66C145.42 135.257 144.969 134.688 144.698 133.955L145.644 133.515ZM158.308 127.19V128.169H153.952V131.051H157.879V132.041H153.952V136.1H152.852V127.19H158.308Z" fill="#666666"/>
<rect x="191" y="116" width="109" height="30" rx="15" fill="#FFE8AD"/>
<path d="M211.39 129.643V130.6H209.696L209.278 132.69H210.884V133.647H209.091L208.596 136.1H207.562L208.046 133.647H206.11L205.626 136.1H204.581L205.065 133.647H203.624V132.69H205.263L205.67 130.6H204.119V129.643H205.868L206.352 127.19H207.397L206.913 129.643H208.849L209.333 127.19H210.378L209.883 129.643H211.39ZM206.308 132.69H208.244L208.651 130.6H206.715L206.308 132.69Z" fill="#7A5900"/>
<path d="M223.084 130.325H224.668V131.326H223.084V136.694H221.984V126.486H223.084V130.325ZM217.364 126.497H218.475V127.993H220.906V128.972H214.933V127.993H217.364V126.497ZM217.936 129.885C218.405 129.885 218.83 129.984 219.212 130.182C219.593 130.38 219.894 130.662 220.114 131.029C220.334 131.396 220.444 131.817 220.444 132.294V132.888C220.444 133.365 220.334 133.786 220.114 134.153C219.894 134.52 219.593 134.802 219.212 135C218.83 135.205 218.405 135.308 217.936 135.308C217.466 135.308 217.037 135.205 216.649 135C216.267 134.802 215.963 134.52 215.736 134.153C215.516 133.786 215.406 133.365 215.406 132.888V132.294C215.406 131.817 215.516 131.396 215.736 131.029C215.963 130.662 216.267 130.38 216.649 130.182C217.03 129.984 217.459 129.885 217.936 129.885ZM219.344 132.338C219.344 131.891 219.208 131.535 218.937 131.271C218.673 131.007 218.339 130.875 217.936 130.875C217.525 130.875 217.184 131.007 216.913 131.271C216.641 131.535 216.506 131.891 216.506 132.338V132.844C216.506 133.299 216.641 133.662 216.913 133.933C217.184 134.197 217.525 134.329 217.936 134.329C218.339 134.329 218.673 134.197 218.937 133.933C219.208 133.662 219.344 133.299 219.344 132.844V132.338ZM234.086 136.694H232.986V126.486H234.086V136.694ZM228.443 135.363C227.637 135.363 226.98 135.084 226.474 134.527C225.976 133.962 225.726 133.101 225.726 131.942V130.391C225.726 129.232 225.976 128.374 226.474 127.817C226.98 127.252 227.637 126.97 228.443 126.97C229.243 126.97 229.892 127.252 230.39 127.817C230.889 128.374 231.138 129.232 231.138 130.391V131.942C231.138 133.101 230.889 133.962 230.39 134.527C229.892 135.084 229.243 135.363 228.443 135.363ZM228.443 134.362C228.927 134.362 229.316 134.168 229.609 133.779C229.903 133.383 230.049 132.767 230.049 131.931V130.402C230.049 129.559 229.903 128.943 229.609 128.554C229.316 128.165 228.927 127.971 228.443 127.971C227.952 127.971 227.56 128.165 227.266 128.554C226.973 128.943 226.826 129.559 226.826 130.402V131.931C226.826 132.767 226.973 133.383 227.266 133.779C227.567 134.168 227.959 134.362 228.443 134.362ZM243.648 126.486H244.682V134.241H243.648V126.486ZM242.504 133.922H241.492V129.808H240.293V128.862H241.492V126.585H242.504V133.922ZM240.667 132.558C240.227 132.646 239.765 132.712 239.281 132.756C238.804 132.8 238.247 132.822 237.609 132.822H236.069V127.025H239.996V128.004H237.136V129.39H239.897V130.358H237.136V131.832H237.807C238.628 131.832 239.541 131.759 240.546 131.612L240.667 132.558ZM238.874 133.713V135.693H245.111V136.694H237.774V133.713H238.874ZM254.948 134.131H253.859V130.897H251.857V130.006H253.859V128.818H251.857V127.927H253.859V126.486H254.948V134.131ZM249.217 130.413C248.733 131.249 247.977 132.026 246.951 132.745L246.324 131.909C247.189 131.3 247.823 130.655 248.227 129.973C248.637 129.284 248.843 128.521 248.843 127.685V126.871H249.921V127.685C249.921 128.308 249.833 128.891 249.657 129.434L252.418 131.777L251.769 132.591L249.217 130.413ZM249.294 133.493V135.693H255.377V136.694H248.205V133.493H249.294ZM263.849 126.651H264.949V130.644H257.909V126.651H259.009V127.795H263.849V126.651ZM259.009 128.697V129.742H263.849V128.697H259.009ZM266.225 131.579V132.525H261.99V133.625H265.059V136.804H263.959V134.593H257.81V133.625H260.89V132.525H256.633V131.579H266.225ZM272.41 133.009V134.923H276.656V135.935H267.064V134.923H271.321V133.009H268.241V127.168H275.49V128.158H269.341V129.588H275.49V130.556H269.341V132.041H275.699V133.009H272.41ZM285.14 126.486H286.24V136.694H285.14V131.535H282.412C281.627 133.068 280.34 134.406 278.551 135.55L277.902 134.681C278.657 134.204 279.321 133.68 279.893 133.108C280.472 132.536 280.938 131.938 281.29 131.315C280.212 131.41 279.178 131.465 278.188 131.48H277.968L277.913 130.479H278.111C278.646 130.472 279.266 130.453 279.97 130.424C280.674 130.387 281.271 130.343 281.763 130.292C281.99 129.647 282.104 129.02 282.104 128.411V128.29H278.122V127.289H283.215V128.191C283.215 129.005 283.086 129.786 282.83 130.534H285.14V126.486Z" fill="#7A5900"/>
<g opacity="0.6">
<rect x="320" y="116" width="77" height="30" rx="15" fill="#C4DEFE"/>
<path d="M340.39 129.643V130.6H338.696L338.278 132.69H339.884V133.647H338.091L337.596 136.1H336.562L337.046 133.647H335.11L334.626 136.1H333.581L334.065 133.647H332.624V132.69H334.263L334.67 130.6H333.119V129.643H334.868L335.352 127.19H336.397L335.913 129.643H337.849L338.333 127.19H339.378L338.883 129.643H340.39ZM335.308 132.69H337.244L337.651 130.6H335.715L335.308 132.69Z" fill="#056BF0"/>
</g>
</g>
<g opacity="0.7">
<g opacity="0.6">
<rect y="154" width="77" height="30" rx="15" fill="#E6E6E6"/>
<path d="M20.3897 167.643V168.6H18.6957L18.2777 170.69H19.8837V171.647H18.0907L17.5957 174.1H16.5617L17.0457 171.647H15.1097L14.6257 174.1H13.5807L14.0647 171.647H12.6237V170.69H14.2627L14.6697 168.6H13.1187V167.643H14.8677L15.3517 165.19H16.3967L15.9127 167.643H17.8487L18.3327 165.19H19.3777L18.8827 167.643H20.3897ZM15.3077 170.69H17.2437L17.6507 168.6H15.7147L15.3077 170.69Z" fill="#666666"/>
<path d="M31.7297 168.325H33.3027V169.326H31.7297V174.694H30.6297V164.486H31.7297V168.325ZM26.9997 166.73C26.9997 167.507 26.908 168.241 26.7247 168.93L29.6177 172.483L28.7927 173.198L26.3067 170.129C25.8593 171.185 25.137 172.245 24.1397 173.308L23.3587 172.582C24.2313 171.643 24.8767 170.716 25.2947 169.799C25.72 168.882 25.9327 167.859 25.9327 166.73V166.29H23.7547V165.289H29.2107V166.29H26.9997V166.73ZM41.6433 174.694V164.486H42.7323V174.694H41.6433ZM34.6693 166.29V165.289H39.5973V166.191C39.5973 167.621 39.2087 168.956 38.4313 170.195C37.654 171.434 36.5467 172.527 35.1093 173.473L34.4493 172.604C35.7473 171.775 36.7447 170.811 37.4413 169.711C38.1453 168.611 38.4973 167.511 38.4973 166.411V166.29H34.6693ZM52.25 174.694V164.486H53.328V174.694H52.25ZM50.039 166.95V164.64H51.084V174.485H50.039V171.119H48.312V170.151H50.039V167.918H48.543C48.1763 169.964 47.135 171.816 45.419 173.473L44.616 172.681C45.5913 171.779 46.3357 170.785 46.849 169.7C47.3623 168.607 47.619 167.511 47.619 166.411V166.29H44.858V165.289H48.697V166.191C48.697 166.44 48.686 166.693 48.664 166.95H50.039ZM63.0217 164.486V166.4H64.6057V167.412H63.0217V169.524H61.9217V164.486H63.0217ZM58.9407 164.871H59.9967V169.183H55.0357V164.871H56.0917V166.092H58.9407V164.871ZM56.0917 167.027V168.248H58.9407V167.027H56.0917ZM63.0217 172.868H57.5767V173.825H63.3957V174.749H56.4877V171.966H61.9217V171.064H56.4327V170.162H63.0217V172.868Z" fill="#666666"/>
</g>
<rect x="97" y="154" width="109" height="30" rx="15" fill="#C4DEFE"/>
<path d="M117.39 167.643V168.6H115.696L115.278 170.69H116.884V171.647H115.091L114.596 174.1H113.562L114.046 171.647H112.11L111.626 174.1H110.581L111.065 171.647H109.624V170.69H111.263L111.67 168.6H110.119V167.643H111.868L112.352 165.19H113.397L112.913 167.643H114.849L115.333 165.19H116.378L115.883 167.643H117.39ZM112.308 170.69H114.244L114.651 168.6H112.715L112.308 170.69Z" fill="#056BF0"/>
<path d="M129.084 166.62H130.668V167.621H129.084V169.997H127.984V164.486H129.084V166.62ZM126.114 165.586C126.114 166.649 125.714 167.551 124.915 168.292C124.115 169.025 122.968 169.623 121.472 170.085L121.054 169.106C122.242 168.747 123.18 168.296 123.87 167.753C124.559 167.21 124.933 166.635 124.992 166.026H121.285V165.025H126.114V165.586ZM129.084 174.694H122.55V170.646H129.084V174.694ZM127.984 171.614H123.639V173.704H127.984V171.614ZM140.086 170.052H138.986V167.335H136.775V166.367H138.986V164.486H140.086V170.052ZM134.399 167.951C133.886 168.714 133.094 169.407 132.023 170.03L131.44 169.15C132.342 168.622 133.002 168.061 133.42 167.467C133.846 166.866 134.058 166.202 134.058 165.476V164.816H135.125V165.476C135.125 166.019 135.041 166.536 134.872 167.027L137.71 169.007L137.116 169.865L134.399 167.951ZM137.776 170.591C138.268 170.591 138.697 170.683 139.063 170.866C139.43 171.042 139.712 171.291 139.91 171.614C140.116 171.929 140.218 172.289 140.218 172.692C140.218 173.103 140.116 173.466 139.91 173.781C139.712 174.104 139.43 174.353 139.063 174.529C138.697 174.712 138.268 174.804 137.776 174.804H135.554C135.07 174.804 134.641 174.712 134.267 174.529C133.901 174.353 133.618 174.104 133.42 173.781C133.222 173.466 133.123 173.103 133.123 172.692C133.123 172.289 133.222 171.929 133.42 171.614C133.618 171.291 133.901 171.042 134.267 170.866C134.641 170.683 135.07 170.591 135.554 170.591H137.776ZM137.611 173.814C138.103 173.814 138.477 173.711 138.733 173.506C138.99 173.301 139.118 173.029 139.118 172.692C139.118 172.355 138.99 172.083 138.733 171.878C138.477 171.673 138.103 171.57 137.611 171.57H135.73C135.239 171.57 134.861 171.673 134.597 171.878C134.341 172.083 134.212 172.355 134.212 172.692C134.212 173.029 134.341 173.301 134.597 173.506C134.861 173.711 135.239 173.814 135.73 173.814H137.611ZM149.637 164.486H150.682V169.469H149.637V164.486ZM148.493 169.469H147.481V167.126H145.886V166.147H147.481V164.596H148.493V169.469ZM146.205 169.348L144.17 167.753C143.767 168.413 143.143 169.018 142.3 169.568L141.695 168.743C143.074 167.812 143.763 166.693 143.763 165.388V164.783H144.808V165.388C144.808 165.909 144.738 166.382 144.599 166.807L146.81 168.556L146.205 169.348ZM144.962 172.846V173.814H151.045V174.749H143.873V171.944H149.582V171.02H143.818V170.107H150.682V172.846H144.962ZM159.848 174.694V164.486H160.948V174.694H159.848ZM157.516 171.845C157.897 171.808 158.377 171.75 158.957 171.669L159.078 172.648C158.286 172.773 157.442 172.872 156.548 172.945C155.653 173.011 154.813 173.044 154.029 173.044H152.445L152.39 172.032H153.633V166.246H152.533V165.234H158.616V166.246H157.516V171.845ZM156.438 166.246H154.711V172.021C155.319 172.006 155.895 171.981 156.438 171.944V166.246ZM167.979 168.358V169.414H172.225V170.371H162.633V169.414H166.89V168.358H163.909V164.706H170.839V165.63H165.009V167.423H170.949V168.358H167.979ZM169.959 172.417H163.81V171.416H171.059V174.804H169.959V172.417ZM180.709 168.006V164.486H181.809V174.694H180.709V169.007H178.289V168.006H180.709ZM176.826 166.411C176.826 167.284 176.723 168.105 176.518 168.875L179.543 172.494L178.718 173.198L176.111 170.052C175.62 171.189 174.857 172.274 173.823 173.308L173.053 172.571C173.984 171.632 174.666 170.675 175.099 169.7C175.539 168.717 175.759 167.621 175.759 166.411V165.08H176.826V166.411ZM191.668 168.325H193.252V169.326H191.668V174.694H190.568V164.486H191.668V168.325ZM183.869 166.29V165.289H188.698V166.191C188.698 167.614 188.316 168.945 187.554 170.184C186.798 171.416 185.72 172.512 184.32 173.473L183.638 172.604C184.906 171.775 185.882 170.811 186.564 169.711C187.253 168.611 187.598 167.511 187.598 166.411V166.29H183.869Z" fill="#056BF0"/>
<g opacity="0.6">
<rect x="226" y="154" width="88" height="30" rx="15" fill="#FFE8AD"/>
<path d="M246.39 167.643V168.6H244.696L244.278 170.69H245.884V171.647H244.091L243.596 174.1H242.562L243.046 171.647H241.11L240.626 174.1H239.581L240.065 171.647H238.624V170.69H240.263L240.67 168.6H239.119V167.643H240.868L241.352 165.19H242.397L241.913 167.643H243.849L244.333 165.19H245.378L244.883 167.643H246.39ZM241.308 170.69H243.244L243.651 168.6H241.715L241.308 170.69Z" fill="#7A5900"/>
<path d="M258.586 174.694H257.497V164.486H258.586V174.694ZM250.391 173.242V168.699H254.197V166.224H250.391V165.234H255.297V169.667H251.491V172.252H252.514C253.094 172.252 253.724 172.226 254.406 172.175C255.096 172.116 255.756 172.036 256.386 171.933L256.518 172.89C255.924 173 255.257 173.084 254.516 173.143C253.776 173.209 253.042 173.242 252.316 173.242H250.391ZM264.87 168.215C264.151 169.198 262.952 170.078 261.273 170.855L260.767 169.909C262.087 169.278 263.051 168.629 263.66 167.962C264.269 167.287 264.573 166.565 264.573 165.795V165.014H265.673V165.795C265.673 166.316 265.578 166.811 265.387 167.28L269.369 169.942L268.775 170.855L264.87 168.215ZM260.272 173.924V172.923H269.864V173.924H260.272ZM279.448 170.052H278.359V164.486H279.448V170.052ZM271.363 169.7V164.97H272.474V168.699H273.321C273.907 168.699 274.545 168.67 275.235 168.611C275.924 168.552 276.595 168.472 277.248 168.369L277.391 169.337C276.745 169.447 276.052 169.535 275.312 169.601C274.578 169.667 273.852 169.7 273.134 169.7H271.363ZM274.927 174.804C274.443 174.804 274.014 174.712 273.64 174.529C273.273 174.353 272.987 174.104 272.782 173.781C272.584 173.466 272.485 173.103 272.485 172.692C272.485 172.289 272.584 171.929 272.782 171.614C272.987 171.291 273.273 171.042 273.64 170.866C274.014 170.683 274.443 170.591 274.927 170.591H277.149C277.64 170.591 278.069 170.683 278.436 170.866C278.802 171.042 279.085 171.291 279.283 171.614C279.488 171.929 279.591 172.289 279.591 172.692C279.591 173.103 279.488 173.466 279.283 173.781C279.085 174.104 278.802 174.353 278.436 174.529C278.069 174.712 277.64 174.804 277.149 174.804H274.927ZM276.984 173.814C277.475 173.814 277.849 173.711 278.106 173.506C278.362 173.301 278.491 173.029 278.491 172.692C278.491 172.355 278.362 172.083 278.106 171.878C277.849 171.673 277.475 171.57 276.984 171.57H275.103C274.611 171.57 274.234 171.673 273.97 171.878C273.713 172.083 273.585 172.355 273.585 172.692C273.585 173.029 273.713 173.301 273.97 173.506C274.234 173.711 274.611 173.814 275.103 173.814H276.984ZM285.137 170.481C284.536 170.481 284.008 170.364 283.553 170.129C283.099 169.887 282.747 169.557 282.497 169.139C282.248 168.721 282.123 168.252 282.123 167.731C282.123 167.218 282.248 166.756 282.497 166.345C282.747 165.934 283.099 165.612 283.553 165.377C284.008 165.135 284.536 165.014 285.137 165.014H286.732C287.334 165.014 287.862 165.135 288.316 165.377C288.771 165.612 289.123 165.934 289.372 166.345C289.622 166.756 289.746 167.218 289.746 167.731C289.746 168.252 289.622 168.721 289.372 169.139C289.123 169.557 288.771 169.887 288.316 170.129C287.862 170.364 287.334 170.481 286.732 170.481H285.137ZM285.324 165.993C284.672 165.993 284.158 166.154 283.784 166.477C283.41 166.8 283.223 167.221 283.223 167.742C283.223 168.27 283.41 168.695 283.784 169.018C284.158 169.341 284.672 169.502 285.324 169.502H286.534C287.187 169.502 287.704 169.341 288.085 169.018C288.467 168.695 288.657 168.27 288.657 167.742C288.657 167.221 288.467 166.8 288.085 166.477C287.704 166.154 287.187 165.993 286.534 165.993H285.324ZM288.283 171.064V172.923H290.725V173.924H281.133V172.923H283.586V171.064H284.664V172.923H287.216V171.064H288.283ZM297.218 167.643V166.697H299.209V164.486H300.309V170.052H299.209V167.643H297.218ZM294.655 168.171C294.156 168.882 293.335 169.546 292.191 170.162L291.674 169.282C292.569 168.776 293.225 168.263 293.643 167.742C294.068 167.214 294.281 166.616 294.281 165.949H292.081V164.97H297.581V165.949H295.348C295.348 166.426 295.271 166.873 295.117 167.291L297.977 169.095L297.427 169.997L294.655 168.171ZM297.999 170.591C298.49 170.591 298.919 170.683 299.286 170.866C299.653 171.042 299.935 171.291 300.133 171.614C300.338 171.929 300.441 172.289 300.441 172.692C300.441 173.103 300.338 173.466 300.133 173.781C299.935 174.104 299.653 174.353 299.286 174.529C298.919 174.712 298.49 174.804 297.999 174.804H295.777C295.293 174.804 294.864 174.712 294.49 174.529C294.123 174.353 293.841 174.104 293.643 173.781C293.445 173.466 293.346 173.103 293.346 172.692C293.346 172.289 293.445 171.929 293.643 171.614C293.841 171.291 294.123 171.042 294.49 170.866C294.864 170.683 295.293 170.591 295.777 170.591H297.999ZM297.834 173.814C298.325 173.814 298.699 173.711 298.956 173.506C299.213 173.301 299.341 173.029 299.341 172.692C299.341 172.355 299.213 172.083 298.956 171.878C298.699 171.673 298.325 171.57 297.834 171.57H295.953C295.462 171.57 295.084 171.673 294.82 171.878C294.563 172.083 294.435 172.355 294.435 172.692C294.435 173.029 294.563 173.301 294.82 173.506C295.084 173.711 295.462 173.814 295.953 173.814H297.834Z" fill="#7A5900"/>
</g>
<rect x="334" y="154" width="56" height="30" rx="15" fill="#E6E6E6"/>
</g>
</g>
<g clip-path="url(#clip1_5769_211276)">
<path d="M269.692 117.264C269.231 117.362 268.758 117.122 268.581 116.668C268.43 116.289 264.899 107.41 267.363 103.06C268.097 101.75 269.273 100.957 270.815 100.708C273.552 100.315 274.787 101.727 275.273 102.596C276.245 104.326 275.993 106.908 275.117 107.978C274.776 108.402 274.155 108.454 273.731 108.113C273.316 107.77 273.255 107.151 273.596 106.727C273.899 106.362 274.207 104.7 273.561 103.554C273.121 102.765 272.315 102.465 271.108 102.643C270.176 102.791 269.489 103.239 269.062 104.012C267.407 106.934 269.462 113.6 270.389 115.921C270.586 116.421 270.347 116.994 269.849 117.2C269.791 117.213 269.736 117.234 269.688 117.245L269.692 117.264Z" fill="#CCAB62"/>
<path d="M248.626 147.307L257.844 190.494L258.479 193.47C258.708 194.544 258.628 195.675 258.257 196.708L252.493 212.588C251.568 215.124 254.265 217.458 256.643 216.188L265.378 211.544C266.783 210.793 268.421 210.664 269.939 211.143C273.124 212.149 279.777 213.408 289.875 211.253C304.293 208.175 313.752 193.804 310.64 179.226L301.423 136.038C298.311 121.46 283.973 112.168 269.391 115.28C254.81 118.392 245.515 132.728 248.626 147.307Z" fill="#FFDA79"/>
<path d="M267.699 163.498C268.33 163.363 268.732 162.743 268.597 162.112C268.463 161.481 267.842 161.079 267.211 161.214C266.58 161.349 266.178 161.969 266.313 162.6C266.447 163.231 267.068 163.633 267.699 163.498Z" fill="#997F4A"/>
<path d="M266.276 155.091L265.575 155.241C264.605 155.448 263.986 156.402 264.193 157.372C264.4 158.342 265.355 158.96 266.325 158.753L267.026 158.604C267.996 158.397 268.614 157.442 268.407 156.472C268.2 155.502 267.246 154.884 266.276 155.091Z" fill="#997F4A"/>
<path d="M279.668 156.196C279.668 156.196 279.649 156.2 279.63 156.204L270.986 157.417C270.713 157.455 270.472 157.266 270.436 157.002C270.398 156.73 270.616 156.482 270.85 156.452L279.494 155.24C279.767 155.201 280.008 155.391 280.044 155.654C280.078 155.908 279.908 156.145 279.658 156.198L279.668 156.196Z" fill="#997F4A"/>
<path d="M256.394 161.504C256.164 161.554 255.916 161.426 255.838 161.202C255.744 160.951 255.873 160.662 256.124 160.569L262.031 158.335C262.282 158.241 262.57 158.37 262.664 158.621C262.758 158.872 262.628 159.16 262.377 159.254L256.471 161.488C256.471 161.488 256.423 161.498 256.394 161.504Z" fill="#997F4A"/>
<path d="M267.647 142.748L267.637 142.75C266.375 143.019 265.571 144.26 265.84 145.521L266.207 147.239C266.476 148.501 267.717 149.305 268.979 149.036L268.988 149.034C270.25 148.765 271.055 147.524 270.786 146.262L270.419 144.544C270.15 143.283 268.909 142.478 267.647 142.748Z" fill="#997F4A"/>
<path d="M256.486 145.303L256.476 145.305C255.214 145.574 254.41 146.815 254.679 148.077L255.046 149.795C255.315 151.056 256.556 151.86 257.818 151.591L257.827 151.589C259.089 151.32 259.894 150.079 259.624 148.817L259.258 147.099C258.989 145.838 257.747 145.034 256.486 145.303Z" fill="#997F4A"/>
<path d="M259.418 156.404C255.962 157.142 252.494 154.671 251.689 150.899C250.884 147.127 253.041 143.456 256.497 142.718C259.953 141.981 263.421 144.452 264.226 148.223C265.031 151.995 262.874 155.666 259.418 156.404ZM256.661 143.486C253.627 144.134 251.742 147.386 252.457 150.735C253.172 154.085 256.221 156.284 259.254 155.636C262.287 154.989 264.173 151.737 263.458 148.387C262.743 145.038 259.694 142.839 256.661 143.486Z" fill="#CCAB62"/>
<path d="M272.896 153.527C269.354 154.283 265.809 151.829 265.004 148.057C264.199 144.285 266.424 140.6 269.976 139.842C273.527 139.084 277.063 141.54 277.868 145.312C278.673 149.084 276.448 152.769 272.896 153.527ZM270.139 140.609C267.02 141.275 265.057 144.544 265.772 147.893C266.487 151.243 269.603 153.428 272.733 152.76C275.862 152.092 277.815 148.825 277.1 145.476C276.385 142.126 273.259 139.944 270.139 140.609Z" fill="#CCAB62"/>
<path d="M265.212 148.043L264.032 148.295L264.196 149.063L265.376 148.811L265.212 148.043Z" fill="#CCAB62"/>
<path d="M270.643 155.664C270.384 155.719 270.129 155.563 270.064 155.306C269.997 155.039 270.152 154.775 270.409 154.71L278.843 152.469C279.108 152.392 279.374 152.556 279.441 152.823C279.508 153.09 279.353 153.353 279.096 153.418L270.662 155.66L270.643 155.664Z" fill="#997F4A"/>
<path d="M262.016 157.715C262.016 157.715 261.977 157.723 261.949 157.729L255.571 158.227C255.304 158.244 255.061 158.045 255.044 157.778C255.027 157.511 255.228 157.277 255.493 157.25L261.871 156.752C262.138 156.735 262.381 156.934 262.398 157.202C262.421 157.448 262.246 157.666 262.016 157.715Z" fill="#997F4A"/>
<circle cx="254.232" cy="149.219" r="8.25" transform="rotate(25.4791 254.232 149.219)" stroke="#7A5900" stroke-width="2.1"/>
<rect x="249.789" y="155.521" width="2.5" height="14.3" rx="1.25" transform="rotate(25.4791 249.789 155.521)" fill="#7A5900"/>
</g>
</g>
<defs>
<clipPath id="clip0_5769_211276">
<rect width="335" height="178" rx="12" fill="white"/>
</clipPath>
<clipPath id="clip1_5769_211276">
<rect width="64.2921" height="112.089" fill="white" transform="translate(230 109.42) rotate(-12.0479)"/>
</clipPath>
</defs>
</svg>
