<svg width="20" height="20" viewBox="0 0 20 20" fill="none" xmlns="http://www.w3.org/2000/svg">
<path d="M10.0002 4.16671L10.0002 4.17504M10.0002 10L10.0002 10.0084M10.0002 15.8334L10.0002 15.8417M10.0002 5.00004C9.53993 5.00004 9.16683 4.62694 9.16683 4.16671C9.16683 3.70647 9.53993 3.33337 10.0002 3.33337C10.4604 3.33337 10.8335 3.70647 10.8335 4.16671C10.8335 4.62694 10.4604 5.00004 10.0002 5.00004ZM10.0002 10.8334C9.53993 10.8334 9.16683 10.4603 9.16683 10C9.16683 9.5398 9.53993 9.16671 10.0002 9.16671C10.4604 9.16671 10.8335 9.5398 10.8335 10C10.8335 10.4603 10.4604 10.8334 10.0002 10.8334ZM10.0002 16.6667C9.53993 16.6667 9.16683 16.2936 9.16683 15.8334C9.16683 15.3731 9.53993 15 10.0002 15C10.4604 15 10.8335 15.3731 10.8335 15.8334C10.8335 16.2936 10.4604 16.6667 10.0002 16.6667Z" stroke="#808080" stroke-linecap="round" stroke-linejoin="round"/>
</svg>
