<svg width="41" height="41" viewBox="0 0 41 41" fill="none" xmlns="http://www.w3.org/2000/svg">
<mask id="mask0_6942_35383" style="mask-type:luminance" maskUnits="userSpaceOnUse" x="0" y="0" width="41" height="41">
<path d="M40.5039 0.553879H0.503906V40.5539H40.5039V0.553879Z" fill="white"/>
</mask>
<g mask="url(#mask0_6942_35383)">
<path d="M40.5039 0.553879H0.503906V40.5539H40.5039V0.553879Z" fill="#FFCC47"/>
<path d="M4.50391 64.3019L4.50391 26.6739C4.50391 17.8439 11.6739 10.6739 20.5039 10.6739C29.3339 10.6739 36.5039 17.8439 36.5039 26.6739V80.3019H20.5039C11.6739 80.3019 4.50391 73.1319 4.50391 64.3019Z" fill="white"/>
<path d="M19.6777 30.4899H19.3697C18.9422 30.4899 18.5957 30.836 18.5957 31.2629C18.5957 31.6898 18.9422 32.0359 19.3697 32.0359H19.6777C20.1052 32.0359 20.4517 31.6898 20.4517 31.2629C20.4517 30.836 20.1052 30.4899 19.6777 30.4899Z" fill="#7A5900"/>
<path d="M21.4701 30.8499C21.3621 30.8499 21.2681 30.7659 21.2601 30.6559C21.2501 30.5399 21.3381 30.4379 21.4541 30.4279L25.2021 30.1319C25.3081 30.1239 25.4201 30.2099 25.4301 30.3259C25.4401 30.4419 25.3521 30.5439 25.2361 30.5539L21.4881 30.8499C21.4881 30.8499 21.4761 30.8499 21.4721 30.8499H21.4701Z" fill="#7A5900"/>
<path d="M25.2198 32.1619C25.2198 32.1619 25.2098 32.1619 25.2038 32.1619L21.4538 31.8979C21.3378 31.8899 21.2498 31.7879 21.2578 31.6719C21.2658 31.5559 21.3798 31.4679 21.4838 31.4759L25.2338 31.7399C25.3498 31.7479 25.4378 31.8499 25.4298 31.9659C25.4218 32.0779 25.3298 32.1619 25.2198 32.1619Z" fill="#7A5900"/>
<path d="M17.6278 30.8499C17.6118 30.8499 17.5978 30.8499 17.5818 30.8439L14.8958 30.2399C14.7818 30.2139 14.7098 30.1019 14.7358 29.9879C14.7618 29.8739 14.8758 29.8019 14.9878 29.8279L17.6738 30.4319C17.7878 30.4579 17.8598 30.5699 17.8338 30.6839C17.8118 30.7819 17.7258 30.8479 17.6278 30.8479V30.8499Z" fill="#7A5900"/>
<path d="M14.94 32.3059C14.838 32.3059 14.748 32.2319 14.732 32.1259C14.714 32.0099 14.794 31.9019 14.91 31.8859L17.598 31.4779C17.712 31.4619 17.822 31.5399 17.838 31.6559C17.856 31.7719 17.776 31.8799 17.66 31.8959L14.972 32.3039C14.962 32.3039 14.95 32.3059 14.94 32.3059Z" fill="#7A5900"/>
<path d="M22.7657 27.6229C22.8142 27.0683 22.4044 26.5794 21.8503 26.5309C21.2963 26.4825 20.8078 26.8928 20.7593 27.4473L20.6936 28.1985C20.6451 28.7531 21.0549 29.2419 21.6089 29.2904C22.1629 29.3389 22.6514 28.9286 22.6999 28.374L22.7657 27.6229Z" fill="#7A5900"/>
<path d="M18.5961 27.4471C18.5476 26.8925 18.0592 26.4822 17.5051 26.5307C16.9511 26.5791 16.5413 27.068 16.5898 27.6226L16.6555 28.3737C16.704 28.9283 17.1925 29.3386 17.7465 29.2901C18.3006 29.2417 18.7104 28.7528 18.6619 28.1982L18.5961 27.4471Z" fill="#7A5900"/>
<path d="M19.524 33.9199C18.35 33.9199 18.07 33.5039 18.026 33.4199C17.972 33.3159 18.012 33.1899 18.114 33.1339C18.216 33.0799 18.344 33.1179 18.4 33.2219C18.4 33.2219 18.612 33.4959 19.524 33.4959C20.436 33.4959 20.652 33.2139 20.654 33.2119C20.71 33.1079 20.834 33.0739 20.936 33.1279C21.04 33.1819 21.076 33.3159 21.022 33.4179C20.978 33.5019 20.698 33.9179 19.524 33.9179V33.9199Z" fill="#7A5900"/>
<path d="M18.5479 33.5419C18.5479 33.5419 18.4919 34.6999 19.5559 34.7759C19.5559 34.7759 20.5739 34.8339 20.4939 33.3819C20.4939 33.3819 19.6579 33.8799 18.5459 33.5419H18.5479Z" fill="#7A5900"/>
<path d="M20.2378 11.1279C20.0958 11.1279 19.9578 11.0719 19.8558 10.9719C19.8378 10.9539 17.8938 9.11588 14.2798 9.19788C13.9798 9.20188 13.7318 8.96788 13.7238 8.66788C13.7158 8.36788 13.9538 8.11988 14.2538 8.11188C17.3858 8.03788 19.3938 9.23988 20.2058 9.85388C22.7158 7.62588 26.6918 8.56988 26.8698 8.61388C27.1598 8.68588 27.3378 8.97988 27.2678 9.26988C27.1958 9.56188 26.8998 9.73988 26.6118 9.66788C26.5718 9.65788 22.6658 8.73988 20.6378 10.9519C20.5378 11.0599 20.3978 11.1239 20.2518 11.1279C20.2478 11.1279 20.2418 11.1279 20.2378 11.1279Z" fill="white"/>
<path d="M20.2218 10.9319C20.0018 10.9319 19.7978 10.7959 19.7158 10.5859C19.7038 10.5539 18.4698 7.46587 16.0338 6.82387C15.7438 6.74787 15.5718 6.44987 15.6478 6.15987C15.7238 5.86987 16.0238 5.69787 16.3118 5.77387C18.1478 6.25787 19.3758 7.76787 20.0638 8.88987C20.9038 6.97387 22.8218 6.13587 23.8958 5.95387C24.1938 5.89987 24.4718 6.10387 24.5218 6.39787C24.5718 6.69187 24.3738 6.97187 24.0778 7.02387C23.9518 7.04587 21.0818 7.58387 20.7618 10.4479C20.7338 10.6959 20.5398 10.8939 20.2918 10.9259C20.2678 10.9299 20.2438 10.9299 20.2198 10.9299L20.2218 10.9319Z" fill="white"/>
<path d="M20.2218 10.9319C19.9718 10.9319 19.7458 10.7579 19.6918 10.5019C18.8258 6.42387 20.9078 4.56387 20.9978 4.48587C21.2238 4.28987 21.5678 4.31387 21.7638 4.53987C21.9598 4.76587 21.9358 5.10587 21.7118 5.30387C21.6418 5.36787 20.0298 6.85987 20.7538 10.2759C20.8158 10.5699 20.6278 10.8579 20.3358 10.9199C20.2978 10.9279 20.2598 10.9319 20.2218 10.9319Z" fill="white"/>
</g>
</svg>
