<svg width="337" height="612" viewBox="0 0 337 612" fill="none" xmlns="http://www.w3.org/2000/svg">
<path fill-rule="evenodd" clip-rule="evenodd" d="M336 25C336 11.7452 325.255 1 312 1H25C11.7452 1 1 11.7452 1 25V568.617C1 568.66 1.03493 568.695 1.07803 568.695V568.695C1.12113 568.695 1.15606 568.73 1.15606 568.773L1.15015 605.988C1.14947 610.242 6.12415 612.554 9.37519 609.81L51.3809 574.355C55.711 570.7 61.1946 568.695 66.861 568.695H312C325.255 568.695 336 557.95 336 544.695V25Z" fill="white"/>
<path d="M1.15015 605.988L0.150147 605.988L1.15015 605.988ZM9.37519 609.81L8.73018 609.046L8.73018 609.046L9.37519 609.81ZM51.3809 574.355L50.7358 573.59L51.3809 574.355ZM25 2H312V0H25V2ZM2 568.617V25H0V568.617H2ZM2.15015 605.988L2.15606 568.773L0.156056 568.773L0.150147 605.988L2.15015 605.988ZM8.73018 609.046C6.12936 611.241 2.14961 609.392 2.15015 605.988L0.150147 605.988C0.149336 611.093 6.11893 613.867 10.0202 610.574L8.73018 609.046ZM50.7358 573.59L8.73018 609.046L10.0202 610.574L52.0259 575.119L50.7358 573.59ZM312 567.695H66.861V569.695H312V567.695ZM335 25V544.695H337V25H335ZM312 569.695C325.807 569.695 337 558.502 337 544.695H335C335 557.397 324.703 567.695 312 567.695V569.695ZM1.07803 569.695C0.568787 569.695 0.155975 569.282 0.156056 568.773L2.15606 568.773C2.15615 568.178 1.67347 567.695 1.07803 567.695V569.695ZM0 568.617C0 569.212 0.48265 569.695 1.07803 569.695V567.695C1.58722 567.695 2 568.108 2 568.617H0ZM52.0259 575.119C56.1756 571.616 61.4307 569.695 66.861 569.695V567.695C60.9585 567.695 55.2464 569.783 50.7358 573.59L52.0259 575.119ZM312 2C324.703 2 335 12.2975 335 25H337C337 11.1929 325.807 0 312 0V2ZM25 0C11.1929 0 0 11.1929 0 25H2C2 12.2974 12.2974 2 25 2V0Z" fill="#E6E6E6"/>
<mask id="path-3-inside-1_6572_26779" fill="white">
<path d="M0 275H337V281H0V275Z"/>
</mask>
<path d="M0 275H337V281H0V275Z" fill="#FFFBF0"/>
<path d="M0 276H337V274H0V276ZM337 280H0V282H337V280Z" fill="#E6E6E6" mask="url(#path-3-inside-1_6572_26779)"/>
<rect x="65.5" y="287.5" width="19" height="5" rx="2.5" transform="rotate(-90 65.5 287.5)" fill="white"/>
<rect x="65.5" y="287.5" width="19" height="5" rx="2.5" transform="rotate(-90 65.5 287.5)" stroke="#E6E6E6"/>
<rect x="132.5" y="287.5" width="19" height="5" rx="2.5" transform="rotate(-90 132.5 287.5)" fill="white"/>
<rect x="132.5" y="287.5" width="19" height="5" rx="2.5" transform="rotate(-90 132.5 287.5)" stroke="#E6E6E6"/>
<rect x="199.5" y="287.5" width="19" height="5" rx="2.5" transform="rotate(-90 199.5 287.5)" fill="white"/>
<rect x="199.5" y="287.5" width="19" height="5" rx="2.5" transform="rotate(-90 199.5 287.5)" stroke="#E6E6E6"/>
<rect x="266.5" y="287.5" width="19" height="5" rx="2.5" transform="rotate(-90 266.5 287.5)" fill="white"/>
<rect x="266.5" y="287.5" width="19" height="5" rx="2.5" transform="rotate(-90 266.5 287.5)" stroke="#E6E6E6"/>
</svg>
