<svg width="259" height="208" viewBox="0 0 259 208" fill="none" xmlns="http://www.w3.org/2000/svg">
<path d="M234.687 48.7498C246.131 48.7498 255.408 39.4728 255.408 28.029L255.408 20.7208C255.408 9.27707 246.131 5.58017e-05 234.687 5.53014e-05L199.721 5.3773e-05C188.277 5.32728e-05 179 9.27707 179 20.7208L179 55.7795C179 59.3415 183.914 60.2917 185.242 56.9864L188.062 49.9682C188.357 49.2321 189.071 48.7498 189.864 48.7498L198.102 48.7498L217.204 48.7498L234.687 48.7498Z" fill="#91C0FD"/>
<path d="M204.914 15.6V18.816H207.09V20.672H204.914V24.96H202.882V15.6H204.914ZM200.914 19.728C200.914 20.9227 200.535 21.8347 199.778 22.464C199.031 23.0827 198.066 23.392 196.882 23.392C195.687 23.392 194.711 23.0827 193.954 22.464C193.207 21.8347 192.834 20.9227 192.834 19.728V19.52C192.834 18.3253 193.207 17.4133 193.954 16.784C194.711 16.1547 195.687 15.84 196.882 15.84C198.066 15.84 199.031 16.1547 199.778 16.784C200.535 17.4133 200.914 18.3253 200.914 19.52V19.728ZM194.882 19.696C194.882 20.3253 195.068 20.8053 195.442 21.136C195.815 21.456 196.295 21.616 196.882 21.616C197.468 21.616 197.943 21.456 198.306 21.136C198.679 20.8053 198.866 20.3253 198.866 19.696V19.536C198.866 18.9067 198.679 18.432 198.306 18.112C197.943 17.7813 197.468 17.616 196.882 17.616C196.295 17.616 195.815 17.7813 195.442 18.112C195.068 18.432 194.882 18.9067 194.882 19.536V19.696ZM201.09 24.928C201.09 25.504 200.967 26.0693 200.722 26.624L205.826 28.8L205.01 30.608L199.522 28.224C198.423 29.2373 196.86 30.0587 194.834 30.688L194.082 28.864C195.65 28.352 196.855 27.7653 197.698 27.104C198.551 26.432 198.978 25.7067 198.978 24.928V24.304H201.09V24.928ZM222.214 18.544H213.462V16.672H224.262V18.064C224.262 19.1947 224.193 20.4533 224.054 21.84C223.926 23.216 223.745 24.5867 223.51 25.952L221.478 25.632C221.692 24.384 221.868 23.1147 222.006 21.824C222.145 20.5227 222.214 19.4773 222.214 18.688V18.544ZM211.942 29.488V27.616H226.022V29.488H211.942ZM234.218 21.264C233.109 22.736 231.221 23.9413 228.554 24.88L227.69 23.104C229.44 22.496 230.8 21.7653 231.77 20.912C232.752 20.048 233.301 19.1573 233.418 18.24H228.122V16.384H235.498V17.392C235.498 18.1067 235.392 18.7947 235.178 19.456H238.042V15.584H240.074V26.64H238.042V21.264H234.218ZM231.978 25.632V28.672H240.634V30.528H229.946V25.632H231.978Z" fill="white"/>
<path d="M23.7208 98.7504C12.277 98.7504 3 89.4734 3 78.0296L3 70.7215C3 59.2777 12.277 50.0007 23.7208 50.0007L58.6871 50.0007C70.1309 50.0007 79.4079 59.2777 79.4079 70.7215L79.4079 105.78C79.4079 109.342 74.494 110.292 73.1661 106.987L70.3464 99.9688C70.0507 99.2327 69.3371 98.7504 68.5439 98.7504L60.3059 98.7504L41.204 98.7504L23.7208 98.7504Z" fill="#91C0FD"/>
<path d="M28.9138 71.992H31.0898V73.848H28.9138V81.528H26.8818V66.584H28.9138V71.992ZM20.8498 67.224C22.0338 67.224 22.9938 67.6347 23.7298 68.456C24.4658 69.2773 24.8338 70.552 24.8338 72.28V74.568C24.8338 76.296 24.4658 77.5707 23.7298 78.392C22.9938 79.2133 22.0338 79.624 20.8498 79.624C19.6551 79.624 18.6845 79.2133 17.9378 78.392C17.2018 77.5707 16.8338 76.296 16.8338 74.568V72.28C16.8338 70.552 17.2018 69.2773 17.9378 68.456C18.6845 67.6347 19.6551 67.224 20.8498 67.224ZM22.7858 72.28C22.7858 71.16 22.6045 70.3493 22.2418 69.848C21.8898 69.336 21.4258 69.08 20.8498 69.08C20.2525 69.08 19.7725 69.3307 19.4098 69.832C19.0578 70.3333 18.8818 71.1493 18.8818 72.28V74.568C18.8818 75.6987 19.0578 76.5147 19.4098 77.016C19.7725 77.5173 20.2525 77.768 20.8498 77.768C21.4258 77.768 21.8898 77.5173 22.2418 77.016C22.6045 76.504 22.7858 75.688 22.7858 74.568V72.28ZM46.8544 71.832V66.584H48.9024V81.528H46.8544V73.688H43.9264V71.832H46.8544ZM41.7664 69.976C41.7664 71.032 41.6384 72.056 41.3824 73.048L45.5264 78.056L43.9904 79.384L40.5984 75.224C39.8944 76.696 38.8598 78.1307 37.4944 79.528L36.0384 78.184C37.3078 76.8613 38.2411 75.5547 38.8384 74.264C39.4464 72.9627 39.7504 71.5333 39.7504 69.976V69.56H36.6304V67.688H44.9344V69.56H41.7664V69.976ZM58.2183 72.264C57.109 73.736 55.221 74.9413 52.5543 75.88L51.6903 74.104C53.4396 73.496 54.7996 72.7653 55.7703 71.912C56.7516 71.048 57.301 70.1573 57.4183 69.24H52.1223V67.384H59.4983V68.392C59.4983 69.1067 59.3916 69.7947 59.1783 70.456H62.0423V66.584H64.0743V77.64H62.0423V72.264H58.2183ZM55.9783 76.632V79.672H64.6343V81.528H53.9463V76.632H55.9783Z" fill="white"/>
<g clip-path="url(#clip0_6572_26734)">
<path d="M125.398 46.8961C125.046 46.8961 124.694 46.7608 124.451 46.5035C124.41 46.4629 119.555 41.8735 110.561 42.0765C109.817 42.0765 109.195 41.5079 109.181 40.7498C109.168 39.9917 109.749 39.3824 110.507 39.3689C118.311 39.1794 123.315 42.1849 125.344 43.7147C131.592 38.164 141.506 40.5061 141.952 40.6144C142.683 40.7904 143.115 41.5215 142.94 42.2525C142.764 42.9836 142.02 43.4304 141.303 43.2408C141.208 43.2138 131.47 40.9258 126.412 46.4494C126.169 46.7201 125.817 46.8826 125.452 46.8826H125.425L125.398 46.8961Z" fill="#4F8DC6"/>
<path d="M125.353 46.4067C124.798 46.4067 124.298 46.0682 124.095 45.5402C124.068 45.459 120.998 37.7558 114.925 36.1583C114.208 35.9687 113.775 35.2241 113.965 34.5066C114.154 33.7891 114.898 33.3559 115.615 33.5454C120.186 34.7503 123.256 38.5139 124.96 41.3163C127.057 36.5373 131.831 34.4524 134.509 33.9922C135.253 33.8568 135.943 34.3712 136.064 35.1023C136.186 35.8333 135.699 36.5373 134.955 36.6592C134.644 36.7133 127.49 38.0536 126.692 45.2018C126.624 45.8245 126.137 46.3119 125.528 46.3931C125.474 46.3931 125.407 46.3931 125.353 46.3931V46.4067Z" fill="#4F8DC6"/>
<path d="M125.356 46.4066C124.734 46.4066 124.165 45.9733 124.03 45.337C121.866 35.1699 127.06 30.5263 127.29 30.3367C127.858 29.8494 128.71 29.9035 129.197 30.4721C129.684 31.0407 129.63 31.8801 129.061 32.381C128.886 32.5435 124.869 36.2665 126.681 44.782C126.83 45.513 126.37 46.2306 125.64 46.393C125.545 46.4201 125.45 46.4201 125.356 46.4201V46.4066Z" fill="#4F8DC6"/>
<path d="M165.282 80.577C163.632 80.252 162.415 78.8576 162.158 77.1789C159.467 59.2679 144.035 45.5266 125.397 45.5266C104.853 45.5266 88.2038 62.1921 88.2038 82.7566V170.768V174.965C88.2038 176.481 87.771 177.984 86.9731 179.27L74.6383 199.036C72.6637 202.19 75.6256 206.117 79.1962 205.088L92.3019 201.338C94.4118 200.728 96.6569 201.026 98.5639 202.109C102.567 204.384 111.169 207.998 125.397 207.998C138.706 207.998 150.527 200.85 157.113 190.128C157.79 189.031 158.993 188.382 160.278 188.382C174.479 188.382 186.003 176.861 186.003 162.645V105.812C186.003 93.3164 177.09 82.9055 165.282 80.577Z" fill="#5FA3FC"/>
<path d="M107.503 101.467H106.516C105.149 101.467 104.041 102.576 104.041 103.944C104.041 105.313 105.149 106.422 106.516 106.422H107.503C108.87 106.422 109.978 105.313 109.978 103.944C109.978 102.576 108.87 101.467 107.503 101.467Z" fill="#3C6899"/>
<path d="M113.235 102.633C112.884 102.633 112.586 102.362 112.559 102.01C112.532 101.631 112.802 101.306 113.181 101.279L125.178 100.332C125.516 100.305 125.881 100.575 125.908 100.954C125.935 101.334 125.665 101.658 125.286 101.686L113.289 102.633C113.289 102.633 113.249 102.633 113.235 102.633Z" fill="#3C6899"/>
<path d="M125.232 106.83C125.232 106.83 125.205 106.83 125.178 106.83L113.181 105.977C112.802 105.95 112.532 105.625 112.559 105.259C112.586 104.88 112.951 104.609 113.276 104.636L125.272 105.489C125.651 105.516 125.922 105.841 125.895 106.207C125.868 106.559 125.57 106.83 125.218 106.83H125.232Z" fill="#3C6899"/>
<path d="M100.943 102.633C100.943 102.633 100.848 102.633 100.794 102.62L92.1925 100.684C91.8273 100.603 91.5974 100.237 91.6785 99.8716C91.7597 99.506 92.1248 99.2759 92.49 99.3571L101.092 101.293C101.457 101.374 101.687 101.74 101.606 102.105C101.538 102.417 101.254 102.633 100.943 102.633Z" fill="#3C6899"/>
<path d="M92.3426 107.29C92.018 107.29 91.7205 107.046 91.6799 106.721C91.6258 106.356 91.8828 106.004 92.248 105.95L100.85 104.636C101.215 104.582 101.567 104.84 101.621 105.205C101.675 105.571 101.418 105.923 101.053 105.977L92.4508 107.29C92.4508 107.29 92.3832 107.29 92.3426 107.29Z" fill="#3C6899"/>
<path d="M114.456 88.8082L114.443 88.8071C112.672 88.652 111.111 89.9633 110.956 91.7361L110.745 94.1502C110.59 95.9229 111.9 97.4857 113.671 97.6408L113.684 97.642C115.455 97.7971 117.017 96.4858 117.172 94.713L117.383 92.2989C117.538 90.5262 116.227 88.9633 114.456 88.8082Z" fill="#3C6899"/>
<path d="M100.572 88.7942L100.559 88.7953C98.7879 88.9504 97.4778 90.5133 97.6327 92.286L97.8437 94.7001C97.9987 96.4729 99.56 97.7842 101.331 97.6291L101.344 97.6279C103.115 97.4728 104.426 95.91 104.271 94.1373L104.06 91.7232C103.905 89.9504 102.343 88.6391 100.572 88.7942Z" fill="#3C6899"/>
<path d="M107.001 112.461C103.241 112.461 102.349 111.134 102.214 110.864C102.038 110.539 102.159 110.119 102.498 109.943C102.822 109.767 103.241 109.889 103.417 110.227C103.417 110.227 104.094 111.107 107.015 111.107C109.936 111.107 110.626 110.2 110.626 110.2C110.802 109.875 111.208 109.754 111.532 109.93C111.857 110.106 111.979 110.525 111.803 110.864C111.668 111.134 110.761 112.461 107.015 112.461H107.001Z" fill="#3C6899"/>
<path d="M103.889 111.241C103.889 111.241 103.713 114.951 107.121 115.194C107.121 115.194 110.381 115.384 110.124 110.727C110.124 110.727 107.446 112.324 103.889 111.241Z" fill="#3C6899"/>
<path d="M167.474 156.203C170.382 99.4238 164.728 82.3928 163.687 79.807C163.119 79.3602 162.659 78.751 162.389 78.0605C162.673 83.1915 165.77 144.492 157.411 189.71C157.763 189.29 158.196 188.952 158.669 188.722C159.143 188.491 159.67 188.37 160.225 188.356C166.892 184.836 167.474 156.203 167.474 156.203Z" fill="#4E87C6"/>
<path d="M177.992 97.2866C180.738 106.181 180.224 123.429 179.196 146.809L180.549 146.863C181.576 123.334 182.09 105.992 179.277 96.8805C176.843 89.0013 174.043 84.9398 171.893 82.8549C170.743 82.2728 169.526 81.7719 168.281 81.3657L168.173 82.0156C168.173 82.0156 173.61 83.1798 177.979 97.2866H177.992Z" fill="#4E87C6"/>
<path d="M174.773 154.974C179.385 154.946 184.2 153.01 185.985 152.212V150.723C185.187 151.102 179.75 153.593 174.773 153.62C172.893 153.62 171.392 155.082 171.351 156.923C171 173.413 168.984 184.744 165.928 187.709C166.631 187.546 167.334 187.37 168.024 187.154C171.608 181.129 172.501 166.156 172.704 156.95C172.731 155.854 173.637 154.987 174.773 154.974Z" fill="#4E87C6"/>
</g>
<defs>
<clipPath id="clip0_6572_26734">
<rect width="112" height="178" fill="white" transform="translate(74 30)"/>
</clipPath>
</defs>
</svg>
