<svg width="335" height="302" viewBox="0 0 335 302" fill="none" xmlns="http://www.w3.org/2000/svg">
<path d="M1 228.319L1.00001 25.7531C1.00001 12.6346 11.6347 2 24.7532 2L310.247 2.00001C323.365 2.00001 334 12.6347 334 25.7532L334 291.533C334 294.196 330.685 295.421 328.954 293.397L294.579 253.234C293.949 252.497 293.027 252.073 292.057 252.073L251.25 252.073L167.5 252.073L24.7532 252.073C11.6347 252.073 1 241.438 1 228.319Z" fill="white" stroke="#E6E6E6" stroke-width="2"/>
<path d="M210.968 25.624H214.28V27.224H205.576V25.624H208.904V24.424H210.968V25.624ZM217.816 24.584V29.512H219.816V31.384H217.816V36.184H215.768V24.584H217.816ZM214.904 34.728C213.816 34.8773 212.616 34.9947 211.304 35.08C210.003 35.1653 208.797 35.208 207.688 35.208H205.4L205.304 33.576H207.88C208.36 33.576 208.733 33.5707 209 33.56V32.504C208.147 32.408 207.469 32.168 206.968 31.784C206.467 31.4 206.216 30.888 206.216 30.248V30.072C206.216 29.3147 206.563 28.7387 207.256 28.344C207.949 27.9493 208.851 27.752 209.96 27.752C211.059 27.752 211.949 27.9493 212.632 28.344C213.325 28.7387 213.672 29.3147 213.672 30.072V30.248C213.672 30.8667 213.432 31.368 212.952 31.752C212.483 32.1253 211.848 32.3707 211.048 32.488V33.464C212.595 33.3573 213.821 33.2507 214.728 33.144L214.904 34.728ZM208.264 30.216C208.264 30.4507 208.424 30.6373 208.744 30.776C209.064 30.9147 209.469 30.984 209.96 30.984C210.44 30.984 210.835 30.9147 211.144 30.776C211.464 30.6373 211.624 30.4507 211.624 30.216V30.104C211.624 29.8693 211.464 29.6827 211.144 29.544C210.835 29.4053 210.44 29.336 209.96 29.336C209.469 29.336 209.064 29.4053 208.744 29.544C208.424 29.6827 208.264 29.8693 208.264 30.104V30.216ZM207.832 35.944H209.864V37.736H218.52V39.528H207.832V35.944ZM232.828 24.6V27.512H234.988V29.352H232.828V32.728H230.796V24.6H232.828ZM224.844 30.28C224.108 31.2507 222.935 32.1413 221.324 32.952L220.38 31.304C221.596 30.664 222.487 29.9973 223.052 29.304C223.628 28.6107 223.943 27.848 223.996 27.016H220.956V25.224H229.068V27.016H225.98C225.969 27.5813 225.879 28.12 225.708 28.632L229.628 30.952L228.62 32.632L224.844 30.28ZM229.564 33.384C230.268 33.384 230.892 33.5173 231.436 33.784C231.98 34.04 232.401 34.408 232.7 34.888C233.009 35.368 233.164 35.9173 233.164 36.536C233.164 37.1653 233.009 37.7147 232.7 38.184C232.401 38.664 231.98 39.032 231.436 39.288C230.892 39.5547 230.268 39.688 229.564 39.688H226.284C225.58 39.688 224.956 39.5547 224.412 39.288C223.868 39.032 223.441 38.664 223.132 38.184C222.833 37.7147 222.684 37.1653 222.684 36.536C222.684 35.9173 222.833 35.368 223.132 34.888C223.441 34.408 223.868 34.04 224.412 33.784C224.967 33.5173 225.591 33.384 226.284 33.384H229.564ZM229.26 37.864C229.857 37.864 230.316 37.7413 230.636 37.496C230.956 37.2613 231.116 36.936 231.116 36.52C231.116 36.1147 230.956 35.7947 230.636 35.56C230.316 35.3147 229.857 35.192 229.26 35.192H226.572C225.975 35.192 225.516 35.3147 225.196 35.56C224.887 35.7947 224.732 36.1147 224.732 36.52C224.732 36.936 224.887 37.2613 225.196 37.496C225.516 37.7413 225.975 37.864 226.572 37.864H229.26ZM248 29.992H250.176V31.848H248V39.528H245.968V24.584H248V29.992ZM239.248 24.6H241.312V26.632H244.672V28.456H235.888V26.632H239.248V24.6ZM240.288 29.592C240.992 29.592 241.626 29.7413 242.192 30.04C242.768 30.328 243.216 30.744 243.536 31.288C243.866 31.8213 244.032 32.44 244.032 33.144V34.024C244.032 34.728 243.866 35.352 243.536 35.896C243.216 36.4293 242.768 36.8453 242.192 37.144C241.626 37.4427 240.992 37.592 240.288 37.592C239.594 37.592 238.96 37.4427 238.384 37.144C237.808 36.8453 237.354 36.4293 237.024 35.896C236.693 35.352 236.528 34.728 236.528 34.024V33.144C236.528 32.44 236.693 31.8213 237.024 31.288C237.354 30.744 237.802 30.328 238.368 30.04C238.944 29.7413 239.584 29.592 240.288 29.592ZM242 33.224C242 32.6587 241.84 32.216 241.52 31.896C241.2 31.576 240.789 31.416 240.288 31.416C239.797 31.416 239.386 31.576 239.056 31.896C238.736 32.216 238.576 32.6587 238.576 33.224V33.944C238.576 34.5093 238.736 34.9573 239.056 35.288C239.386 35.608 239.797 35.768 240.288 35.768C240.778 35.768 241.184 35.608 241.504 35.288C241.834 34.9573 242 34.5093 242 33.944V33.224ZM254.9 29.032H263.396V30.888H252.852V24.888H254.9V29.032ZM265.14 34.088H251.06V32.232H265.14V34.088ZM263.748 39.528H252.852V35.208H254.9V37.624H263.748V39.528ZM281.432 29.992V24.584H283.416V39.528H281.432V31.848H279.944V39.176H278.008V24.824H279.944V29.992H281.432ZM274.712 28.664C274.691 29.752 274.59 30.7067 274.408 31.528L277.64 36.184L276.056 37.384L273.672 33.912C273.15 35.1493 272.419 36.3547 271.48 37.528L269.976 36.328C270.947 35.0693 271.646 33.8267 272.072 32.6C272.51 31.3733 272.739 30.0613 272.76 28.664H270.472V26.808H272.776V24.6H274.744V26.808H277.16V28.664H274.712ZM296.284 30.136V24.584H298.332V39.528H296.284V32.008H294.14V30.136H296.284ZM289.484 35.624C291.148 35.624 292.855 35.4853 294.604 35.208L294.844 36.968C293.169 37.2987 291.265 37.464 289.132 37.464H286.108V25.608H293.596V27.448H288.14V30.552H293.452V32.344H288.14V35.624H289.484Z" fill="#808080"/>
<g clip-path="url(#clip0_6600_30930)">
<path d="M254.981 102.114C254.768 102.114 254.58 101.983 254.504 101.787C254.454 101.651 253.124 98.3436 247.496 98.3436C247.217 98.3436 246.989 98.117 246.989 97.8402C246.989 97.5633 247.217 97.3368 247.496 97.3368C251.972 97.3368 254.058 99.2799 254.92 100.493C255.677 99.2447 257.661 97.3015 262.654 97.3015C262.933 97.3015 263.162 97.528 263.162 97.8049C263.162 98.0818 262.933 98.3083 262.654 98.3083C256.331 98.3083 255.504 101.58 255.474 101.721C255.423 101.938 255.235 102.099 255.012 102.114C255.002 102.114 254.991 102.114 254.981 102.114Z" fill="#75A0C6"/>
<path d="M255.07 101.834C254.791 101.834 254.563 101.608 254.563 101.331C254.563 97.3641 259.364 95.134 259.572 95.0434C259.83 94.9276 260.13 95.0434 260.247 95.2901C260.363 95.5418 260.252 95.8388 259.998 95.9596C259.952 95.9798 255.583 98.0135 255.583 101.331C255.583 101.608 255.355 101.834 255.076 101.834H255.07Z" fill="#75A0C6"/>
<path d="M251.613 101.488C241.241 101.488 232.832 109.83 232.832 120.119V123.512V163.161V164.721C232.832 165.285 232.67 165.844 232.37 166.322L227.737 173.667C226.996 174.84 228.108 176.3 229.447 175.917L234.365 174.523C235.156 174.296 235.999 174.407 236.714 174.81C238.216 175.655 241.444 176.999 246.782 176.999C246.823 176.999 256.043 176.999 259.717 176.999C270.085 176.999 278.499 168.658 278.499 158.373V123.507V122.717V120.119C278.499 109.83 270.09 101.488 259.717 101.488C256.043 101.488 255.282 101.488 251.608 101.488H251.613Z" fill="#91C0FD"/>
<path d="M244.343 127.717H243.972C243.459 127.717 243.044 128.129 243.044 128.638C243.044 129.147 243.459 129.56 243.972 129.56H244.343C244.856 129.56 245.271 129.147 245.271 128.638C245.271 128.129 244.856 127.717 244.343 127.717Z" fill="#48617C"/>
<path d="M246.804 122.999H246.799C246.132 122.999 245.592 123.536 245.592 124.197V125.099C245.592 125.76 246.132 126.297 246.799 126.297H246.804C247.471 126.297 248.012 125.76 248.012 125.099V124.197C248.012 123.536 247.471 122.999 246.804 122.999Z" fill="#48617C"/>
<path d="M241.883 122.999H241.878C241.211 122.999 240.67 123.536 240.67 124.197V125.099C240.67 125.76 241.211 126.297 241.878 126.297H241.883C242.55 126.297 243.091 125.76 243.091 125.099V124.197C243.091 123.536 242.55 122.999 241.883 122.999Z" fill="#48617C"/>
<path d="M244.478 133.312C244.25 133.312 244.016 133.282 243.768 133.212C243.306 133.086 242.829 132.794 242.778 132.764C242.54 132.618 242.469 132.306 242.616 132.069C242.763 131.832 243.078 131.762 243.316 131.908C243.428 131.973 243.768 132.17 244.042 132.24C245.503 132.643 246.346 130.931 246.381 130.856C246.503 130.604 246.802 130.498 247.056 130.619C247.31 130.74 247.416 131.037 247.3 131.289C246.939 132.054 245.935 133.312 244.483 133.312H244.478Z" fill="#48617C"/>
<path d="M252.711 132.373C254.813 132.373 256.517 130.683 256.517 128.597C256.517 126.512 254.813 124.822 252.711 124.822C250.609 124.822 248.905 126.512 248.905 128.597C248.905 130.683 250.609 132.373 252.711 132.373Z" fill="#75A0C6"/>
<path d="M237.211 132.373C239.312 132.373 241.016 130.683 241.016 128.597C241.016 126.512 239.312 124.822 237.211 124.822C235.109 124.822 233.405 126.512 233.405 128.597C233.405 130.683 235.109 132.373 237.211 132.373Z" fill="#75A0C6"/>
<path d="M246.492 128.15C246.36 128.15 246.248 128.05 246.238 127.919C246.228 127.778 246.33 127.657 246.472 127.647L250.973 127.295C251.1 127.284 251.237 127.385 251.247 127.526C251.257 127.667 251.156 127.788 251.013 127.798L246.512 128.15C246.512 128.15 246.497 128.15 246.492 128.15Z" fill="#48617C"/>
<path d="M250.993 129.711C250.993 129.711 250.983 129.711 250.973 129.711L246.472 129.394C246.33 129.384 246.228 129.263 246.238 129.127C246.248 128.986 246.385 128.88 246.507 128.895L251.008 129.212C251.15 129.222 251.252 129.343 251.242 129.479C251.232 129.61 251.12 129.711 250.988 129.711H250.993Z" fill="#48617C"/>
<path d="M241.877 128.149C241.877 128.149 241.841 128.149 241.821 128.143L238.594 127.424C238.457 127.393 238.37 127.257 238.401 127.122C238.431 126.986 238.568 126.9 238.705 126.93L241.933 127.65C242.07 127.68 242.156 127.816 242.126 127.952C242.1 128.068 241.994 128.149 241.877 128.149Z" fill="#48617C"/>
<path d="M238.65 129.883C238.528 129.883 238.416 129.793 238.401 129.672C238.381 129.536 238.477 129.405 238.614 129.385L241.842 128.896C241.979 128.876 242.111 128.972 242.131 129.108C242.151 129.244 242.055 129.375 241.918 129.395L238.69 129.883C238.69 129.883 238.665 129.883 238.65 129.883Z" fill="#48617C"/>
</g>
<path d="M187.766 196.208H189.602V196.988H187.766V199.724H186.902V193.724H187.766V196.208ZM184.55 194.912C184.55 196 184.118 196.944 183.254 197.744C182.398 198.544 181.178 199.204 179.594 199.724L179.258 198.98C180.61 198.548 181.682 197.996 182.474 197.324C183.266 196.644 183.674 195.924 183.698 195.164H179.45V194.384H184.55V194.912ZM187.766 204.8H180.866V200.516H187.766V204.8ZM186.902 201.284H181.73V204.02H186.902V201.284ZM199.745 199.784H198.893V196.724H196.277V195.956H198.893V193.736H199.745V199.784ZM193.661 197.276C193.117 198.156 192.217 198.96 190.961 199.688L190.517 198.992C191.509 198.408 192.249 197.784 192.737 197.12C193.233 196.448 193.481 195.688 193.481 194.84V194.12H194.333V194.84C194.333 195.456 194.233 196.024 194.033 196.544L197.273 198.836L196.817 199.52L193.661 197.276ZM197.321 200.456C197.849 200.456 198.309 200.556 198.701 200.756C199.093 200.948 199.393 201.216 199.601 201.56C199.809 201.896 199.913 202.272 199.913 202.688C199.913 203.112 199.809 203.492 199.601 203.828C199.393 204.164 199.093 204.428 198.701 204.62C198.309 204.812 197.849 204.908 197.321 204.908H194.993C194.465 204.908 194.005 204.812 193.613 204.62C193.221 204.428 192.921 204.164 192.713 203.828C192.505 203.492 192.401 203.112 192.401 202.688C192.401 202.272 192.505 201.896 192.713 201.56C192.921 201.216 193.221 200.948 193.613 200.756C194.005 200.556 194.465 200.456 194.993 200.456H197.321ZM197.153 204.14C197.769 204.14 198.237 204.004 198.557 203.732C198.885 203.468 199.049 203.116 199.049 202.676C199.049 202.252 198.885 201.904 198.557 201.632C198.237 201.36 197.769 201.224 197.153 201.224H195.161C194.545 201.224 194.073 201.36 193.745 201.632C193.417 201.904 193.253 202.252 193.253 202.676C193.253 203.116 193.417 203.468 193.745 203.732C194.073 204.004 194.545 204.14 195.161 204.14H197.153ZM208.725 203.24L212.025 194.516H212.937L209.265 204.164H208.185L204.501 194.516H205.413L208.725 203.24ZM214.014 201.536C214.262 202.192 214.654 202.692 215.19 203.036C215.734 203.38 216.378 203.552 217.122 203.552C217.874 203.552 218.482 203.396 218.946 203.084C219.41 202.772 219.642 202.34 219.642 201.788C219.642 201.276 219.478 200.88 219.15 200.6C218.822 200.32 218.362 200.096 217.77 199.928L216.306 199.496C214.618 199.008 213.774 198.132 213.774 196.868C213.774 196.364 213.91 195.92 214.182 195.536C214.462 195.152 214.842 194.856 215.322 194.648C215.802 194.44 216.338 194.336 216.93 194.336C217.786 194.336 218.518 194.548 219.126 194.972C219.734 195.396 220.166 195.956 220.422 196.652L219.666 197C219.426 196.408 219.074 195.948 218.61 195.62C218.146 195.292 217.586 195.128 216.93 195.128C216.242 195.128 215.686 195.284 215.262 195.596C214.838 195.908 214.626 196.332 214.626 196.868C214.626 197.364 214.79 197.752 215.118 198.032C215.454 198.312 215.91 198.536 216.486 198.704L217.95 199.136C218.718 199.368 219.334 199.688 219.798 200.096C220.27 200.504 220.506 201.068 220.506 201.788C220.506 202.308 220.358 202.76 220.062 203.144C219.766 203.528 219.362 203.824 218.85 204.032C218.338 204.24 217.762 204.344 217.122 204.344C216.186 204.344 215.374 204.128 214.686 203.696C214.006 203.264 213.526 202.656 213.246 201.872L214.014 201.536ZM232.983 193.724H233.835V199.148H232.983V193.724ZM227.835 197C227.275 197.808 226.331 198.544 225.003 199.208L224.607 198.5C225.639 197.972 226.407 197.408 226.911 196.808C227.423 196.208 227.679 195.52 227.679 194.744V194.108H228.531V194.744C228.531 195.296 228.431 195.808 228.231 196.28L231.591 198.284L231.171 198.968L227.835 197ZM227.571 202.736V204.104H234.291V204.86H226.719V201.992H232.983V200.672H226.659V199.94H233.835V202.736H227.571ZM243.222 199.088H246.222V199.844H235.854V199.088H238.866V197.72C238.306 197.576 237.878 197.352 237.582 197.048C237.286 196.736 237.138 196.344 237.138 195.872C237.138 195.216 237.414 194.72 237.966 194.384C238.518 194.048 239.286 193.88 240.27 193.88H241.818C242.802 193.88 243.57 194.048 244.122 194.384C244.674 194.72 244.95 195.216 244.95 195.872C244.95 196.344 244.802 196.736 244.506 197.048C244.21 197.352 243.782 197.576 243.222 197.72V199.088ZM237.99 195.872C237.99 196.28 238.198 196.592 238.614 196.808C239.03 197.024 239.63 197.132 240.414 197.132H241.674C242.45 197.132 243.046 197.024 243.462 196.808C243.878 196.584 244.086 196.272 244.086 195.872C244.086 195.472 243.878 195.168 243.462 194.96C243.054 194.744 242.458 194.636 241.674 194.636H240.414C239.63 194.636 239.03 194.744 238.614 194.96C238.198 195.168 237.99 195.472 237.99 195.872ZM239.694 199.088H242.394V197.84C242.282 197.856 241.834 197.864 241.05 197.864C240.274 197.864 239.822 197.856 239.694 197.84V199.088ZM242.25 200.972C243.13 200.972 243.81 201.156 244.29 201.524C244.77 201.884 245.01 202.356 245.01 202.94C245.01 203.532 244.77 204.008 244.29 204.368C243.81 204.736 243.13 204.92 242.25 204.92H239.826C238.954 204.92 238.278 204.736 237.798 204.368C237.318 204.008 237.078 203.532 237.078 202.94C237.078 202.356 237.318 201.884 237.798 201.524C238.278 201.156 238.954 200.972 239.826 200.972H242.25ZM242.058 204.152C242.746 204.152 243.266 204.044 243.618 203.828C243.97 203.612 244.146 203.316 244.146 202.94C244.146 202.564 243.97 202.272 243.618 202.064C243.266 201.848 242.746 201.74 242.058 201.74H240.018C239.33 201.74 238.81 201.848 238.458 202.064C238.106 202.272 237.93 202.564 237.93 202.94C237.93 203.316 238.106 203.612 238.458 203.828C238.81 204.044 239.33 204.152 240.018 204.152H242.058ZM248.193 206.264H247.485L247.737 203.084H248.601L248.193 206.264ZM262.241 204.8H261.377V193.724H262.241V204.8ZM256.205 203.324C255.365 203.324 254.681 203.024 254.153 202.424C253.625 201.816 253.361 200.892 253.361 199.652V197.996C253.361 196.756 253.625 195.836 254.153 195.236C254.681 194.628 255.365 194.324 256.205 194.324C257.045 194.324 257.729 194.628 258.257 195.236C258.785 195.836 259.049 196.756 259.049 197.996V199.652C259.049 200.892 258.785 201.816 258.257 202.424C257.729 203.024 257.045 203.324 256.205 203.324ZM256.205 202.532C256.813 202.532 257.297 202.296 257.657 201.824C258.017 201.352 258.197 200.624 258.197 199.64V197.996C258.197 197.012 258.017 196.288 257.657 195.824C257.297 195.352 256.813 195.116 256.205 195.116C255.597 195.116 255.113 195.352 254.753 195.824C254.401 196.288 254.225 197.012 254.225 197.996V199.64C254.225 200.624 254.401 201.352 254.753 201.824C255.113 202.296 255.597 202.532 256.205 202.532ZM267.91 199.916C269.286 199.276 270.31 198.608 270.982 197.912C271.654 197.208 271.99 196.452 271.99 195.644V195.32H268.522V194.54H276.214V195.32H272.854V195.644C272.854 196.172 272.754 196.664 272.554 197.12L276.802 199.952L276.346 200.648L272.146 197.84C271.418 198.88 270.134 199.816 268.294 200.648L267.91 199.916ZM272.794 200.396V203.12H277.546V203.912H267.178V203.12H271.942V200.396H272.794ZM282.253 194.828H285.037V195.56H278.617V194.828H281.401V193.58H282.253V194.828ZM287.293 196.436H289.141V197.216H287.293V199.856H286.441V193.724H287.293V196.436ZM284.521 198.116C284.521 198.676 284.269 199.112 283.765 199.424C283.261 199.736 282.621 199.892 281.845 199.892C281.061 199.892 280.417 199.736 279.913 199.424C279.409 199.112 279.157 198.676 279.157 198.116V197.96C279.157 197.408 279.409 196.976 279.913 196.664C280.425 196.352 281.069 196.196 281.845 196.196C282.621 196.196 283.261 196.352 283.765 196.664C284.269 196.976 284.521 197.408 284.521 197.96V198.116ZM280.009 198.104C280.009 198.424 280.181 198.68 280.525 198.872C280.877 199.064 281.317 199.16 281.845 199.16C282.365 199.16 282.801 199.064 283.153 198.872C283.505 198.68 283.681 198.424 283.681 198.104V197.984C283.681 197.672 283.505 197.42 283.153 197.228C282.801 197.028 282.365 196.928 281.845 196.928C281.317 196.928 280.877 197.028 280.525 197.228C280.181 197.42 280.009 197.672 280.009 197.984V198.104ZM281.269 201.836H286.441V200.516H287.293V204.788H280.405V200.516H281.269V201.836ZM281.269 202.604V204.032H286.441V202.604H281.269ZM301.35 204.8V193.736H302.202V204.8H301.35ZM296.49 199.292C295.642 199.292 294.946 199.084 294.402 198.668C293.858 198.244 293.586 197.64 293.586 196.856V196.652C293.586 195.86 293.858 195.256 294.402 194.84C294.946 194.416 295.642 194.204 296.49 194.204C297.33 194.204 298.022 194.416 298.566 194.84C299.11 195.256 299.382 195.86 299.382 196.652V196.856C299.382 197.64 299.11 198.244 298.566 198.668C298.022 199.084 297.33 199.292 296.49 199.292ZM294.45 196.844C294.45 197.38 294.638 197.796 295.014 198.092C295.39 198.388 295.882 198.536 296.49 198.536C297.098 198.536 297.586 198.388 297.954 198.092C298.33 197.796 298.518 197.38 298.518 196.844V196.664C298.518 196.128 298.33 195.712 297.954 195.416C297.586 195.12 297.098 194.972 296.49 194.972C295.882 194.972 295.39 195.12 295.014 195.416C294.638 195.712 294.45 196.128 294.45 196.664V196.844ZM300.39 201.128C299.35 201.272 298.19 201.376 296.91 201.44C296.838 202.416 296.722 203.568 296.562 204.896L295.722 204.8C295.89 203.352 295.998 202.244 296.046 201.476C295.518 201.492 295.142 201.5 294.918 201.5H292.998L292.95 200.708H294.966C295.678 200.708 296.53 200.676 297.522 200.612C298.522 200.548 299.446 200.464 300.294 200.36L300.39 201.128ZM308.169 194.84H310.965V195.572H304.533V194.84H307.317V193.58H308.169V194.84ZM312.729 196.916V193.724H313.581V200.084H312.729V197.672H310.929V196.916H312.729ZM310.437 198.2C310.437 198.768 310.185 199.212 309.681 199.532C309.185 199.844 308.545 200 307.761 200C306.977 200 306.333 199.844 305.829 199.532C305.333 199.212 305.085 198.768 305.085 198.2V198.032C305.085 197.464 305.333 197.024 305.829 196.712C306.333 196.392 306.977 196.232 307.761 196.232C308.537 196.232 309.177 196.392 309.681 196.712C310.185 197.024 310.437 197.464 310.437 198.032V198.2ZM305.925 198.188C305.925 198.516 306.097 198.78 306.441 198.98C306.785 199.18 307.225 199.28 307.761 199.28C308.281 199.28 308.717 199.18 309.069 198.98C309.421 198.78 309.597 198.516 309.597 198.188V198.068C309.597 197.74 309.421 197.476 309.069 197.276C308.717 197.068 308.281 196.964 307.761 196.964C307.233 196.964 306.793 197.068 306.441 197.276C306.097 197.476 305.925 197.74 305.925 198.068V198.188ZM313.581 204.788H306.465V200.864H313.581V204.788ZM312.729 201.62H307.317V204.032H312.729V201.62ZM324.263 198.056V193.724H325.115V204.8H324.263V198.848H322.547V204.596H321.719V193.904H322.547V198.056H324.263ZM317.819 193.736H318.671V195.476H320.831V196.268H315.647V195.476H317.819V193.736ZM318.263 197.408C318.671 197.408 319.035 197.512 319.355 197.72C319.675 197.928 319.923 198.228 320.099 198.62C320.275 199.012 320.363 199.472 320.363 200V200.636C320.363 201.156 320.275 201.616 320.099 202.016C319.923 202.408 319.675 202.712 319.355 202.928C319.035 203.136 318.671 203.24 318.263 203.24C317.847 203.24 317.475 203.136 317.147 202.928C316.827 202.712 316.579 202.408 316.403 202.016C316.227 201.624 316.139 201.164 316.139 200.636V200C316.139 199.208 316.331 198.58 316.715 198.116C317.107 197.644 317.623 197.408 318.263 197.408ZM319.547 200.048C319.547 199.48 319.427 199.032 319.187 198.704C318.947 198.368 318.639 198.2 318.263 198.2C317.871 198.2 317.555 198.368 317.315 198.704C317.075 199.032 316.955 199.48 316.955 200.048V200.588C316.955 201.156 317.075 201.612 317.315 201.956C317.555 202.292 317.871 202.46 318.263 202.46C318.639 202.46 318.947 202.292 319.187 201.956C319.427 201.612 319.547 201.156 319.547 200.588V200.048Z" fill="#666666"/>
<path d="M219.201 219.872H220.821V221.264H219.201V223.736H217.665V217.688H219.201V219.872ZM215.913 218.9C215.913 220.14 215.473 221.164 214.593 221.972C213.721 222.772 212.445 223.416 210.765 223.904L210.165 222.536C211.405 222.192 212.377 221.764 213.081 221.252C213.793 220.74 214.209 220.196 214.329 219.62H210.501V218.228H215.913V218.9ZM219.201 228.896H211.821V224.348H219.201V228.896ZM217.665 225.704H213.357V227.528H217.665V225.704ZM231.204 223.796H229.668V220.928H227.472V219.572H229.668V217.7H231.204V223.796ZM224.892 221.708C224.34 222.476 223.512 223.184 222.408 223.832L221.58 222.62C222.548 222.044 223.244 221.44 223.668 220.808C224.1 220.176 224.316 219.492 224.316 218.756V218.024H225.816V218.756C225.816 219.364 225.728 219.92 225.552 220.424L228.492 222.464L227.664 223.652L224.892 221.708ZM228.612 224.288C229.14 224.288 229.612 224.388 230.028 224.588C230.444 224.78 230.764 225.056 230.988 225.416C231.22 225.776 231.336 226.188 231.336 226.652C231.336 227.124 231.22 227.536 230.988 227.888C230.764 228.248 230.444 228.524 230.028 228.716C229.62 228.916 229.148 229.016 228.612 229.016H226.068C225.54 229.016 225.068 228.916 224.652 228.716C224.244 228.524 223.924 228.248 223.692 227.888C223.468 227.536 223.356 227.124 223.356 226.652C223.356 226.188 223.468 225.776 223.692 225.416C223.924 225.056 224.244 224.78 224.652 224.588C225.068 224.388 225.54 224.288 226.068 224.288H228.612ZM228.396 227.648C228.844 227.648 229.188 227.556 229.428 227.372C229.676 227.188 229.8 226.944 229.8 226.64C229.8 226.336 229.676 226.096 229.428 225.92C229.188 225.736 228.844 225.644 228.396 225.644H226.284C225.836 225.644 225.492 225.736 225.252 225.92C225.012 226.096 224.892 226.336 224.892 226.64C224.892 226.952 225.012 227.196 225.252 227.372C225.492 227.556 225.836 227.648 226.284 227.648H228.396ZM244.312 217.688H245.764V223.148H244.312V217.688ZM243.352 223.148H241.936V220.688H240.364V219.344H241.936V217.808H243.352V223.148ZM240.532 223.076L238.516 221.504C238.068 222.176 237.436 222.78 236.62 223.316L235.756 222.176C236.5 221.672 237.04 221.116 237.376 220.508C237.712 219.9 237.88 219.264 237.88 218.6V217.976H239.344V218.6C239.344 219.176 239.272 219.712 239.128 220.208L241.396 221.972L240.532 223.076ZM239.596 226.928V227.672H246.112V228.956H238.06V225.692H244.24V225.008H238V223.76H245.764V226.928H239.596ZM255.403 228.896V217.688H256.939V228.896H255.403ZM253.219 225.488C253.555 225.456 253.995 225.4 254.539 225.32L254.719 226.7C253.847 226.836 252.919 226.94 251.935 227.012C250.959 227.084 250.039 227.12 249.175 227.12H247.471L247.387 225.716H248.623V219.86H247.555V218.456H254.275V219.86H253.219V225.488ZM251.719 219.86H250.111V225.704C250.687 225.688 251.223 225.66 251.719 225.62V219.86ZM267.622 221.984V222.968H272.134V224.276H261.574V222.968H266.086V221.984H262.918V217.904H270.682V219.176H264.454V220.712H270.802V221.984H267.622ZM269.374 226.628H262.81V225.212H270.91V229.016H269.374V226.628ZM281.137 221.384V217.688H282.673V228.896H281.137V222.788H278.701V221.384H281.137ZM277.249 219.848C277.249 220.736 277.145 221.604 276.937 222.452L280.081 226.316L278.941 227.288L276.349 224.12C275.829 225.248 275.049 226.34 274.009 227.396L272.929 226.388C273.913 225.388 274.629 224.368 275.077 223.328C275.525 222.28 275.749 221.12 275.749 219.848V218.312H277.249V219.848ZM293.428 221.744H295.048V223.136H293.428V228.896H291.892V217.688H293.428V221.744ZM284.728 219.92V218.516H290.14V219.62C290.14 221.196 289.728 222.664 288.904 224.024C288.088 225.376 286.904 226.576 285.352 227.624L284.404 226.424C285.332 225.816 286.108 225.144 286.732 224.408C287.364 223.672 287.832 222.924 288.136 222.164C288.44 221.396 288.592 220.648 288.592 219.92H284.728Z" fill="black"/>
<path d="M48.5539 25.624H51.8659V27.224H43.1619V25.624H46.4899V24.424H48.5539V25.624ZM55.4019 24.584V29.512H57.4019V31.384H55.4019V36.184H53.3539V24.584H55.4019ZM52.4899 34.728C51.4019 34.8773 50.2019 34.9947 48.8899 35.08C47.5886 35.1653 46.3833 35.208 45.2739 35.208H42.9859L42.8899 33.576H45.4659C45.9459 33.576 46.3193 33.5707 46.5859 33.56V32.504C45.7326 32.408 45.0553 32.168 44.5539 31.784C44.0526 31.4 43.8019 30.888 43.8019 30.248V30.072C43.8019 29.3147 44.1486 28.7387 44.8419 28.344C45.5353 27.9493 46.4366 27.752 47.5459 27.752C48.6446 27.752 49.5353 27.9493 50.2179 28.344C50.9113 28.7387 51.2579 29.3147 51.2579 30.072V30.248C51.2579 30.8667 51.0179 31.368 50.5379 31.752C50.0686 32.1253 49.4339 32.3707 48.6339 32.488V33.464C50.1806 33.3573 51.4073 33.2507 52.3139 33.144L52.4899 34.728ZM45.8499 30.216C45.8499 30.4507 46.0099 30.6373 46.3299 30.776C46.6499 30.9147 47.0553 30.984 47.5459 30.984C48.0259 30.984 48.4206 30.9147 48.7299 30.776C49.0499 30.6373 49.2099 30.4507 49.2099 30.216V30.104C49.2099 29.8693 49.0499 29.6827 48.7299 29.544C48.4206 29.4053 48.0259 29.336 47.5459 29.336C47.0553 29.336 46.6499 29.4053 46.3299 29.544C46.0099 29.6827 45.8499 29.8693 45.8499 30.104V30.216ZM45.4179 35.944H47.4499V37.736H56.1059V39.528H45.4179V35.944ZM70.4138 24.6V27.512H72.5738V29.352H70.4138V32.728H68.3658V24.6H70.4138ZM62.3978 29.944C61.6405 30.9893 60.5311 31.9333 59.0698 32.776L57.9818 31.16C59.2725 30.392 60.2005 29.5867 60.7658 28.744C61.3311 27.9013 61.6138 26.9893 61.6138 26.008V25.032H63.6138V26.008C63.6138 26.7973 63.5018 27.5387 63.2778 28.232L67.1818 30.872L66.0938 32.456L62.3978 29.944ZM67.1498 33.384C67.8538 33.384 68.4778 33.5173 69.0218 33.784C69.5658 34.04 69.9871 34.408 70.2858 34.888C70.5951 35.368 70.7498 35.9173 70.7498 36.536C70.7498 37.1653 70.5951 37.7147 70.2858 38.184C69.9871 38.664 69.5658 39.032 69.0218 39.288C68.4778 39.5547 67.8538 39.688 67.1498 39.688H63.8698C63.1658 39.688 62.5418 39.5547 61.9978 39.288C61.4538 39.032 61.0271 38.664 60.7178 38.184C60.4191 37.7147 60.2698 37.1653 60.2698 36.536C60.2698 35.9173 60.4191 35.368 60.7178 34.888C61.0271 34.408 61.4538 34.04 61.9978 33.784C62.5525 33.5173 63.1765 33.384 63.8698 33.384H67.1498ZM66.8458 37.864C67.4431 37.864 67.9018 37.7413 68.2218 37.496C68.5418 37.2613 68.7018 36.936 68.7018 36.52C68.7018 36.1147 68.5418 35.7947 68.2218 35.56C67.9018 35.3147 67.4431 35.192 66.8458 35.192H64.1578C63.5605 35.192 63.1018 35.3147 62.7818 35.56C62.4725 35.7947 62.3178 36.1147 62.3178 36.52C62.3178 36.936 62.4725 37.2613 62.7818 37.496C63.1018 37.7413 63.5605 37.864 64.1578 37.864H66.8458ZM86.4337 39.528H84.3857V24.584H86.4337V39.528ZM78.3697 33.592C77.5804 33.592 76.871 33.4427 76.2417 33.144C75.623 32.8453 75.1324 32.392 74.7697 31.784C74.407 31.176 74.2257 30.4293 74.2257 29.544V29.288C74.2257 28.392 74.407 27.64 74.7697 27.032C75.1324 26.424 75.623 25.9707 76.2417 25.672C76.871 25.3733 77.5804 25.224 78.3697 25.224C79.1484 25.224 79.847 25.3733 80.4657 25.672C81.0844 25.9707 81.575 26.424 81.9377 27.032C82.3004 27.64 82.4817 28.392 82.4817 29.288V29.544C82.4817 30.4293 82.3004 31.176 81.9377 31.784C81.575 32.392 81.0844 32.8453 80.4657 33.144C79.847 33.4427 79.1484 33.592 78.3697 33.592ZM78.3697 31.736C78.967 31.736 79.4577 31.5493 79.8417 31.176C80.2364 30.792 80.4337 30.2373 80.4337 29.512V29.288C80.4337 28.5627 80.2364 28.0133 79.8417 27.64C79.4577 27.256 78.967 27.064 78.3697 27.064C77.7617 27.064 77.2604 27.256 76.8657 27.64C76.4817 28.0133 76.2897 28.5627 76.2897 29.288V29.512C76.2897 30.2373 76.4817 30.792 76.8657 31.176C77.2604 31.5493 77.7617 31.736 78.3697 31.736ZM73.7137 37.336L73.6177 35.48H76.3057C77.223 35.48 78.327 35.4427 79.6177 35.368C80.919 35.2827 82.1457 35.1707 83.2977 35.032L83.5377 36.856C82.4284 37.016 81.207 37.1333 79.8737 37.208C78.5404 37.2933 77.287 37.336 76.1137 37.336H73.7137ZM103.846 29.992V24.584H105.83V39.528H103.846V31.848H102.358V39.176H100.422V24.824H102.358V29.992H103.846ZM97.1263 28.664C97.105 29.752 97.0036 30.7067 96.8223 31.528L100.054 36.184L98.4703 37.384L96.0863 33.912C95.5636 35.1493 94.833 36.3547 93.8943 37.528L92.3903 36.328C93.361 35.0693 94.0596 33.8267 94.4863 32.6C94.9236 31.3733 95.153 30.0613 95.1743 28.664H92.8863V26.808H95.1903V24.6H97.1583V26.808H99.5743V28.664H97.1263ZM118.698 30.136V24.584H120.746V39.528H118.698V32.008H116.554V30.136H118.698ZM111.898 35.624C113.562 35.624 115.269 35.4853 117.018 35.208L117.258 36.968C115.584 37.2987 113.68 37.464 111.546 37.464H108.522V25.608H116.01V27.448H110.554V30.552H115.866V32.344H110.554V35.624H111.898Z" fill="#0455BE"/>
<g clip-path="url(#clip1_6600_30930)">
<path d="M80.4432 103.691C80.2862 103.691 80.1292 103.629 80.0205 103.512C80.0024 103.493 77.8348 101.405 73.8196 101.497C73.4875 101.497 73.2098 101.239 73.2037 100.894C73.1977 100.549 73.4573 100.271 73.7954 100.265C77.2793 100.179 79.5133 101.547 80.419 102.243C83.2085 99.717 87.6343 100.783 87.8336 100.832C88.1596 100.912 88.3529 101.245 88.2744 101.577C88.1959 101.91 87.8638 102.113 87.5438 102.027C87.5015 102.015 83.1542 100.974 80.896 103.487C80.7873 103.61 80.6304 103.684 80.4673 103.684H80.4553L80.4432 103.691Z" fill="#4F8DC6"/>
<path d="M80.4258 103.467C80.1783 103.467 79.9549 103.313 79.8643 103.073C79.8522 103.036 78.4816 99.5303 75.7706 98.8034C75.4506 98.7171 75.2574 98.3783 75.3419 98.0518C75.4264 97.7253 75.7585 97.5281 76.0785 97.6144C78.1193 98.1627 79.4899 99.8753 80.2507 101.151C81.1866 98.9759 83.318 98.0271 84.5135 97.8177C84.8456 97.7561 85.1535 97.9902 85.2078 98.3229C85.2622 98.6555 85.0448 98.9759 84.7127 99.0313C84.5739 99.056 81.3798 99.6659 81.0236 102.919C80.9934 103.202 80.776 103.424 80.5043 103.461C80.4802 103.461 80.45 103.461 80.4258 103.461V103.467Z" fill="#4F8DC6"/>
<path d="M80.4282 103.467C80.1505 103.467 79.8969 103.27 79.8365 102.981C78.8705 98.3541 81.189 96.241 81.2917 96.1548C81.5453 95.933 81.9256 95.9576 82.143 96.2164C82.3604 96.4751 82.3362 96.8571 82.0826 97.085C82.0041 97.1589 80.2109 98.8531 81.02 102.728C81.0864 103.061 80.8811 103.387 80.555 103.461C80.5128 103.474 80.4705 103.474 80.4282 103.474V103.467Z" fill="#4F8DC6"/>
<path d="M98.2537 119.017C97.517 118.869 96.9736 118.234 96.8589 117.47C95.6573 109.32 88.7681 103.067 80.4478 103.067C71.2762 103.067 63.8436 110.651 63.8436 120.009V160.059V161.969C63.8436 162.659 63.6503 163.342 63.2941 163.928L57.7875 172.922C56.906 174.358 58.2283 176.144 59.8223 175.676L65.673 173.969C66.615 173.692 67.6173 173.828 68.4686 174.321C70.2558 175.356 74.0959 177.001 80.4478 177.001C86.3891 177.001 91.6663 173.748 94.6068 168.868C94.9086 168.369 95.446 168.074 96.0196 168.074C102.359 168.074 107.504 162.831 107.504 156.362V130.5C107.504 124.814 103.525 120.076 98.2537 119.017Z" fill="#5FA3FC"/>
<path d="M72.4527 128.523H72.0119C71.4017 128.523 70.907 129.028 70.907 129.651C70.907 130.273 71.4017 130.778 72.0119 130.778H72.4527C73.0629 130.778 73.5576 130.273 73.5576 129.651C73.5576 129.028 73.0629 128.523 72.4527 128.523Z" fill="#3C6899"/>
<path d="M75.0149 129.055C74.8579 129.055 74.7251 128.931 74.713 128.771C74.7009 128.599 74.8217 128.451 74.9907 128.439L80.3464 128.007C80.4973 127.995 80.6603 128.118 80.6724 128.291C80.6845 128.463 80.5637 128.611 80.3947 128.623L75.039 129.055C75.039 129.055 75.0209 129.055 75.0149 129.055Z" fill="#3C6899"/>
<path d="M80.3705 130.963C80.3705 130.963 80.3584 130.963 80.3464 130.963L74.9907 130.575C74.8217 130.563 74.7009 130.415 74.713 130.248C74.7251 130.076 74.8881 129.953 75.033 129.965L80.3886 130.353C80.5577 130.365 80.6785 130.513 80.6664 130.68C80.6543 130.84 80.5215 130.963 80.3645 130.963H80.3705Z" fill="#3C6899"/>
<path d="M69.5263 129.054C69.5263 129.054 69.484 129.054 69.4599 129.047L65.6198 128.166C65.4567 128.129 65.3541 127.963 65.3903 127.797C65.4266 127.63 65.5896 127.526 65.7526 127.563L69.5927 128.444C69.7557 128.481 69.8584 128.647 69.8222 128.813C69.792 128.955 69.6652 129.054 69.5263 129.054Z" fill="#3C6899"/>
<path d="M65.6892 131.175C65.5443 131.175 65.4115 131.064 65.3933 130.916C65.3692 130.75 65.4839 130.59 65.6469 130.565L69.4871 129.967C69.6501 129.943 69.8071 130.06 69.8312 130.226C69.8554 130.392 69.7406 130.553 69.5776 130.577L65.7375 131.175C65.7375 131.175 65.7073 131.175 65.6892 131.175Z" fill="#3C6899"/>
<path d="M75.5614 122.76L75.5553 122.76C74.7647 122.689 74.0677 123.286 73.9985 124.093L73.9043 125.191C73.8352 125.998 74.42 126.709 75.2106 126.78L75.2167 126.78C76.0073 126.851 76.7043 126.254 76.7735 125.447L76.8677 124.349C76.9368 123.542 76.352 122.831 75.5614 122.76Z" fill="#3C6899"/>
<path d="M69.3634 122.762L69.3573 122.763C68.5667 122.833 67.9819 123.544 68.051 124.351L68.1452 125.45C68.2144 126.256 68.9114 126.853 69.702 126.783L69.708 126.782C70.4987 126.711 71.0835 126 71.0143 125.194L70.9202 124.095C70.851 123.288 70.154 122.692 69.3634 122.762Z" fill="#3C6899"/>
<path d="M72.2316 133.525C70.553 133.525 70.1545 132.922 70.0941 132.798C70.0156 132.65 70.07 132.459 70.2209 132.379C70.3658 132.299 70.553 132.355 70.6315 132.509C70.6315 132.509 70.9334 132.909 72.2376 132.909C73.5418 132.909 73.8497 132.496 73.8497 132.496C73.9282 132.349 74.1093 132.293 74.2543 132.373C74.3992 132.453 74.4535 132.644 74.375 132.798C74.3146 132.922 73.9101 133.525 72.2376 133.525H72.2316Z" fill="#3C6899"/>
<path d="M70.8435 132.971C70.8435 132.971 70.765 134.659 72.2865 134.77C72.2865 134.77 73.7417 134.856 73.6269 132.737C73.6269 132.737 72.4314 133.464 70.8435 132.971Z" fill="#3C6899"/>
<path d="M99.2288 153.432C100.527 127.594 98.0031 119.844 97.5382 118.667C97.2846 118.464 97.0793 118.187 96.9585 117.873C97.0853 120.208 98.468 148.103 94.7366 168.679C94.8936 168.488 95.0868 168.334 95.2981 168.23C95.5094 168.125 95.7449 168.07 95.9925 168.063C98.9692 166.462 99.2288 153.432 99.2288 153.432Z" fill="#4E87C6"/>
<path d="M103.924 126.624C105.15 130.672 104.92 138.52 104.461 149.16L105.065 149.184C105.524 138.477 105.753 130.585 104.497 126.439C103.411 122.854 102.161 121.006 101.201 120.057C100.687 119.792 100.144 119.564 99.5886 119.379L99.5403 119.675C99.5403 119.675 101.968 120.205 103.918 126.624H103.924Z" fill="#4E87C6"/>
<path d="M102.487 152.872C104.546 152.86 106.696 151.979 107.493 151.615V150.938C107.136 151.11 104.709 152.244 102.487 152.256C101.648 152.256 100.978 152.921 100.96 153.759C100.803 161.263 99.9029 166.419 98.5383 167.769C98.8523 167.695 99.1663 167.615 99.4742 167.516C101.074 164.775 101.473 157.961 101.563 153.772C101.575 153.273 101.98 152.878 102.487 152.872Z" fill="#4E87C6"/>
</g>
<path d="M36.6199 194.972H39.4039V195.716H32.9839V194.972H35.7679V193.58H36.6199V194.972ZM41.6599 193.724V197.12H43.5079V197.924H41.6599V202.244H40.8079V193.724H41.6599ZM38.8879 198.74C38.8879 199.38 38.6359 199.888 38.1319 200.264C37.6279 200.632 36.9879 200.816 36.2119 200.816C35.7079 200.816 35.2519 200.736 34.8439 200.576C34.4359 200.408 34.1119 200.168 33.8719 199.856C33.6399 199.544 33.5239 199.172 33.5239 198.74V198.536C33.5239 197.896 33.7759 197.396 34.2799 197.036C34.7919 196.668 35.4359 196.484 36.2119 196.484C36.9879 196.484 37.6279 196.668 38.1319 197.036C38.6359 197.396 38.8879 197.896 38.8879 198.536V198.74ZM34.3759 198.728C34.3759 199.128 34.5479 199.452 34.8919 199.7C35.2439 199.94 35.6839 200.06 36.2119 200.06C36.7319 200.06 37.1679 199.94 37.5199 199.7C37.8719 199.452 38.0479 199.128 38.0479 198.728V198.56C38.0479 198.16 37.8719 197.84 37.5199 197.6C37.1679 197.352 36.7319 197.228 36.2119 197.228C35.6839 197.228 35.2439 197.352 34.8919 197.6C34.5479 197.84 34.3759 198.16 34.3759 198.56V198.728ZM34.7719 201.812H35.6359V204.008H42.2959V204.788H34.7719V201.812ZM52.7988 199.496V193.724H53.6628V199.496H52.7988ZM50.5308 196.7C50.5308 197.228 50.4028 197.68 50.1468 198.056C49.8988 198.424 49.5548 198.704 49.1148 198.896C48.6828 199.08 48.1988 199.172 47.6628 199.172C47.1188 199.172 46.6268 199.08 46.1868 198.896C45.7548 198.704 45.4108 198.424 45.1548 198.056C44.9068 197.68 44.7828 197.228 44.7828 196.7V196.496C44.7828 195.704 45.0508 195.096 45.5868 194.672C46.1308 194.24 46.8228 194.024 47.6628 194.024C48.4948 194.024 49.1788 194.24 49.7148 194.672C50.2588 195.096 50.5308 195.704 50.5308 196.496V196.7ZM45.6468 196.688C45.6468 197.224 45.8308 197.644 46.1988 197.948C46.5668 198.244 47.0548 198.392 47.6628 198.392C48.2628 198.392 48.7468 198.244 49.1148 197.948C49.4908 197.644 49.6788 197.224 49.6788 196.688V196.508C49.6788 195.964 49.4908 195.544 49.1148 195.248C48.7468 194.952 48.2628 194.804 47.6628 194.804C47.0548 194.804 46.5668 194.952 46.1988 195.248C45.8308 195.544 45.6468 195.964 45.6468 196.508V196.688ZM47.3988 201.644H52.7988V200.168H53.6628V204.8H46.5468V200.168H47.3988V201.644ZM47.3988 202.412V204.02H52.7988V202.412H47.3988ZM64.3457 204.8V193.724H65.1857V204.8H64.3457ZM61.9577 198.176V193.904H62.7857V204.596H61.9577V198.956H60.4577V199.652C60.4577 200.9 60.2497 201.824 59.8337 202.424C59.4177 203.024 58.8697 203.324 58.1897 203.324C57.4937 203.324 56.9377 203.024 56.5217 202.424C56.1057 201.824 55.8977 200.9 55.8977 199.652V197.996C55.8977 196.748 56.1057 195.824 56.5217 195.224C56.9377 194.624 57.4937 194.324 58.1897 194.324C58.8697 194.324 59.4177 194.624 59.8337 195.224C60.2497 195.824 60.4577 196.748 60.4577 197.996V198.176H61.9577ZM59.6297 197.996C59.6297 197.012 59.4977 196.288 59.2337 195.824C58.9777 195.352 58.6257 195.116 58.1777 195.116C57.7297 195.116 57.3737 195.352 57.1097 195.824C56.8537 196.288 56.7257 197.012 56.7257 197.996V199.64C56.7257 200.624 56.8537 201.352 57.1097 201.824C57.3737 202.296 57.7297 202.532 58.1777 202.532C58.6257 202.532 58.9777 202.296 59.2337 201.824C59.4977 201.352 59.6297 200.624 59.6297 199.64V197.996ZM73.0746 194.876H75.2706V195.608H70.0146V194.876H72.2106V193.58H73.0746V194.876ZM78.6426 196.676V193.724H79.4826V200.324H78.6426V197.444H76.9746V200.324H76.1586V193.844H76.9746V196.676H78.6426ZM74.8386 198.32C74.8386 198.904 74.6386 199.364 74.2386 199.7C73.8386 200.028 73.3146 200.192 72.6666 200.192C72.0026 200.192 71.4706 200.028 71.0706 199.7C70.6706 199.372 70.4706 198.912 70.4706 198.32V198.152C70.4706 197.568 70.6706 197.112 71.0706 196.784C71.4706 196.456 72.0026 196.292 72.6666 196.292C73.3146 196.292 73.8386 196.456 74.2386 196.784C74.6386 197.112 74.8386 197.568 74.8386 198.152V198.32ZM71.2626 198.308C71.2626 198.652 71.3906 198.932 71.6466 199.148C71.9026 199.356 72.2426 199.46 72.6666 199.46C73.0746 199.46 73.4026 199.356 73.6506 199.148C73.9066 198.932 74.0346 198.652 74.0346 198.308V198.188C74.0346 197.836 73.9066 197.556 73.6506 197.348C73.4026 197.132 73.0746 197.024 72.6666 197.024C72.2426 197.024 71.9026 197.132 71.6466 197.348C71.3906 197.556 71.2626 197.836 71.2626 198.188V198.308ZM78.6186 201.896H72.2106V201.104H79.4826V204.908H78.6186V201.896ZM89.8535 199.724V193.724H90.7055V199.724H89.8535ZM84.7175 197.228C84.1575 198.1 83.2175 198.9 81.8975 199.628L81.4775 198.932C82.5095 198.356 83.2775 197.74 83.7815 197.084C84.2935 196.42 84.5495 195.672 84.5495 194.84V194.12H85.4015V194.84C85.4015 195.424 85.2975 195.98 85.0895 196.508L88.4615 198.704L88.0175 199.4L84.7175 197.228ZM90.7055 204.8H83.5895V200.516H90.7055V204.8ZM89.8535 201.284H84.4415V204.02H89.8535V201.284ZM101.484 193.724V196.664H103.32V197.456H101.484V202.136H100.62V193.724H101.484ZM93.0004 194.384H98.1844V199.856H93.0004V194.384ZM93.8404 199.088H97.3444V195.152H93.8404V199.088ZM94.5844 201.428H95.4484V204.008H102.108V204.8H94.5844V201.428ZM112.649 199.328H117.401V200.084H107.033V199.328H111.797V198.068L110.165 196.76C109.789 197.352 109.165 197.892 108.293 198.38L107.861 197.72C108.637 197.264 109.169 196.788 109.457 196.292C109.745 195.788 109.889 195.22 109.889 194.588V194H110.729V194.588C110.729 195.156 110.657 195.64 110.513 196.04L112.229 197.408C112.813 197 113.213 196.572 113.429 196.124C113.645 195.668 113.753 195.156 113.753 194.588V194H114.593V194.588C114.593 195.148 114.521 195.628 114.377 196.028L116.585 197.78L116.081 198.38L114.041 196.748C113.729 197.236 113.265 197.684 112.649 198.092V199.328ZM115.205 202.22H108.377V201.44H116.069V204.92H115.205V202.22ZM124.028 199.328H128.78V200.084H118.412V199.328H123.176V198.068L121.544 196.76C121.168 197.352 120.544 197.892 119.672 198.38L119.24 197.72C120.016 197.264 120.548 196.788 120.836 196.292C121.124 195.788 121.268 195.22 121.268 194.588V194H122.108V194.588C122.108 195.156 122.036 195.64 121.892 196.04L123.608 197.408C124.192 197 124.592 196.572 124.808 196.124C125.024 195.668 125.132 195.156 125.132 194.588V194H125.972V194.588C125.972 195.148 125.9 195.628 125.756 196.028L127.964 197.78L127.46 198.38L125.42 196.748C125.108 197.236 124.644 197.684 124.028 198.092V199.328ZM126.584 202.22H119.756V201.44H127.448V204.92H126.584V202.22ZM131.339 201.236H130.523L130.451 194.216H131.411L131.339 201.236ZM130.931 204.344C130.747 204.344 130.587 204.276 130.451 204.14C130.323 204.012 130.259 203.856 130.259 203.672C130.259 203.488 130.323 203.332 130.451 203.204C130.587 203.076 130.747 203.012 130.931 203.012C131.115 203.012 131.271 203.076 131.399 203.204C131.535 203.332 131.603 203.488 131.603 203.672C131.603 203.856 131.535 204.012 131.399 204.14C131.271 204.276 131.115 204.344 130.931 204.344Z" fill="#666666"/>
<path d="M57.0405 218.672H59.5605V219.944H52.9725V218.672H55.4925V217.568H57.0405V218.672ZM62.0565 217.688V220.796H63.6885V222.2H62.0565V226.088H60.5325V217.688H62.0565ZM59.0925 222.764C59.0925 223.444 58.8285 223.972 58.3005 224.348C57.7725 224.716 57.0965 224.9 56.2725 224.9C55.4485 224.9 54.7685 224.716 54.2325 224.348C53.7045 223.972 53.4405 223.444 53.4405 222.764V222.596C53.4405 221.924 53.7045 221.404 54.2325 221.036C54.7685 220.66 55.4485 220.472 56.2725 220.472C57.0965 220.472 57.7725 220.66 58.3005 221.036C58.8285 221.404 59.0925 221.924 59.0925 222.596V222.764ZM54.9405 222.74C54.9405 223.012 55.0645 223.228 55.3125 223.388C55.5685 223.548 55.8885 223.628 56.2725 223.628C56.6565 223.628 56.9725 223.548 57.2205 223.388C57.4765 223.228 57.6045 223.012 57.6045 222.74V222.62C57.6045 222.348 57.4805 222.136 57.2325 221.984C56.9845 221.824 56.6645 221.744 56.2725 221.744C55.8885 221.744 55.5685 221.824 55.3125 221.984C55.0645 222.136 54.9405 222.348 54.9405 222.62V222.74ZM54.6885 225.716H56.2245V227.504H62.5845V228.896H54.6885V225.716ZM72.5354 223.508V217.688H74.0714V223.508H72.5354ZM70.8914 220.676C70.8914 221.532 70.6034 222.188 70.0274 222.644C69.4514 223.092 68.7114 223.316 67.8074 223.316C66.9034 223.316 66.1634 223.092 65.5874 222.644C65.0114 222.188 64.7234 221.532 64.7234 220.676V220.532C64.7234 219.668 65.0074 219.008 65.5754 218.552C66.1514 218.096 66.8954 217.868 67.8074 217.868C68.7194 217.868 69.4594 218.096 70.0274 218.552C70.6034 219.008 70.8914 219.668 70.8914 220.532V220.676ZM66.2594 220.664C66.2594 221.088 66.3994 221.412 66.6794 221.636C66.9674 221.86 67.3434 221.972 67.8074 221.972C68.2714 221.972 68.6434 221.86 68.9234 221.636C69.2114 221.412 69.3554 221.088 69.3554 220.664V220.532C69.3554 220.1 69.2114 219.772 68.9234 219.548C68.6434 219.324 68.2714 219.212 67.8074 219.212C67.3434 219.212 66.9674 219.324 66.6794 219.548C66.3994 219.772 66.2594 220.1 66.2594 220.532V220.664ZM67.9874 225.104H72.5354V224H74.0714V228.896H66.4634V224H67.9874V225.104ZM67.9874 226.436V227.54H72.5354V226.436H67.9874ZM84.7548 221.984V222.968H89.2668V224.276H78.7068V222.968H83.2188V221.984H80.0508V217.904H87.8148V219.176H81.5868V220.712H87.9348V221.984H84.7548ZM86.5068 226.628H79.9428V225.212H88.0428V229.016H86.5068V226.628ZM98.2697 221.384V217.688H99.8057V228.896H98.2697V222.788H95.8337V221.384H98.2697ZM94.3817 219.848C94.3817 220.736 94.2777 221.604 94.0697 222.452L97.2137 226.316L96.0737 227.288L93.4817 224.12C92.9617 225.248 92.1817 226.34 91.1417 227.396L90.0617 226.388C91.0457 225.388 91.7617 224.368 92.2097 223.328C92.6577 222.28 92.8817 221.12 92.8817 219.848V218.312H94.3817V219.848ZM109.649 221.852V217.688H111.185V228.896H109.649V223.256H108.041V221.852H109.649ZM104.573 225.968C105.805 225.968 107.081 225.864 108.401 225.656L108.569 226.976C107.289 227.224 105.869 227.348 104.309 227.348H102.017V222.164H105.809V219.836H102.017V218.456H107.345V223.508H103.541V225.968H104.573Z" fill="black"/>
<mask id="path-37-inside-1_6600_30930" fill="white">
<path d="M171 1V253H165V1H171Z"/>
</mask>
<path d="M171 1V253H165V1H171Z" fill="#F5F9FF"/>
<path d="M170 1V253H172V1H170ZM166 253V1H164V253H166Z" fill="#E6E6E6" mask="url(#path-37-inside-1_6600_30930)"/>
<rect x="160.375" y="50.3746" width="15.2507" height="4.25074" rx="2.12537" fill="white"/>
<rect x="160.375" y="50.3746" width="15.2507" height="4.25074" rx="2.12537" stroke="#E6E6E6" stroke-width="0.749263"/>
<rect x="160.375" y="101.375" width="15.2507" height="3.25074" rx="1.62537" fill="white"/>
<rect x="160.375" y="101.375" width="15.2507" height="3.25074" rx="1.62537" stroke="#E6E6E6" stroke-width="0.749263"/>
<rect x="160.375" y="151.375" width="15.2507" height="3.25074" rx="1.62537" fill="white"/>
<rect x="160.375" y="151.375" width="15.2507" height="3.25074" rx="1.62537" stroke="#E6E6E6" stroke-width="0.749263"/>
<rect x="160.375" y="201.375" width="15.2507" height="4.25074" rx="2.12537" fill="white"/>
<rect x="160.375" y="201.375" width="15.2507" height="4.25074" rx="2.12537" stroke="#E6E6E6" stroke-width="0.749263"/>
<defs>
<clipPath id="clip0_6600_30930">
<rect width="51" height="82" fill="white" transform="translate(227.5 95)"/>
</clipPath>
<clipPath id="clip1_6600_30930">
<rect width="50" height="81" fill="white" transform="translate(57.5 96)"/>
</clipPath>
</defs>
</svg>
