<svg width="321" height="240" viewBox="0 0 321 240" fill="none" xmlns="http://www.w3.org/2000/svg">
<path d="M20.7208 79.0871C9.277 79.0871 1.49449e-06 69.8101 1.99471e-06 58.3663L2.41633e-06 48.7208C2.91655e-06 37.277 9.27702 28 20.7208 28L83.2792 28C94.723 28 104 37.277 104 48.7208L104 86.1208C104 89.7261 98.9946 90.6325 97.7303 87.2561L95.1438 80.3485C94.8597 79.5899 94.1347 79.0871 93.3246 79.0871L85.343 79.0871L66.686 79.0871L20.7208 79.0871Z" fill="#FFDA79"/>
<path d="M25.5899 61.528H23.5419V46.584H25.5899V61.528ZM17.2059 59.624C15.9899 59.624 15.0033 59.2133 14.2459 58.392C13.4993 57.5707 13.1259 56.296 13.1259 54.568V52.28C13.1259 50.552 13.4993 49.2773 14.2459 48.456C15.0033 47.6347 15.9899 47.224 17.2059 47.224C18.4113 47.224 19.3873 47.6347 20.1339 48.456C20.8913 49.2773 21.2699 50.552 21.2699 52.28V54.568C21.2699 56.296 20.8913 57.5707 20.1339 58.392C19.3873 59.2133 18.4113 59.624 17.2059 59.624ZM17.2059 57.768C17.8139 57.768 18.2993 57.5173 18.6619 57.016C19.0353 56.5147 19.2219 55.6987 19.2219 54.568V52.28C19.2219 51.1493 19.0353 50.3333 18.6619 49.832C18.2993 49.3307 17.8139 49.08 17.2059 49.08C16.5979 49.08 16.1073 49.336 15.7339 49.848C15.3606 50.3493 15.1739 51.16 15.1739 52.28V54.568C15.1739 55.688 15.3606 56.504 15.7339 57.016C16.1073 57.5173 16.5979 57.768 17.2059 57.768ZM34.9058 52.264C33.7965 53.736 31.9085 54.9413 29.2418 55.88L28.3778 54.104C30.1271 53.496 31.4871 52.7653 32.4578 51.912C33.4391 51.048 33.9885 50.1573 34.1058 49.24H28.8098V47.384H36.1858V48.392C36.1858 49.1067 36.0791 49.7947 35.8658 50.456H38.7298V46.584H40.7618V57.64H38.7298V52.264H34.9058ZM32.6658 56.632V59.672H41.3218V61.528H30.6338V56.632H32.6658ZM59.9024 61.528H57.8544V46.584H59.9024V61.528ZM51.5184 59.624C50.3024 59.624 49.3158 59.2133 48.5584 58.392C47.8118 57.5707 47.4384 56.296 47.4384 54.568V52.28C47.4384 50.552 47.8118 49.2773 48.5584 48.456C49.3158 47.6347 50.3024 47.224 51.5184 47.224C52.7238 47.224 53.6998 47.6347 54.4464 48.456C55.2038 49.2773 55.5824 50.552 55.5824 52.28V54.568C55.5824 56.296 55.2038 57.5707 54.4464 58.392C53.6998 59.2133 52.7238 59.624 51.5184 59.624ZM51.5184 57.768C52.1264 57.768 52.6118 57.5173 52.9744 57.016C53.3478 56.5147 53.5344 55.6987 53.5344 54.568V52.28C53.5344 51.1493 53.3478 50.3333 52.9744 49.832C52.6118 49.3307 52.1264 49.08 51.5184 49.08C50.9104 49.08 50.4198 49.336 50.0464 49.848C49.6731 50.3493 49.4864 51.16 49.4864 52.28V54.568C49.4864 55.688 49.6731 56.504 50.0464 57.016C50.4198 57.5173 50.9104 57.768 51.5184 57.768ZM73.0263 46.584H75.0743V61.528H73.0263V54.168H69.2823C68.173 56.3333 66.381 58.2213 63.9063 59.832L62.6583 58.216C63.9276 57.416 64.989 56.5307 65.8423 55.56C66.7063 54.5787 67.3463 53.576 67.7623 52.552C68.1783 51.528 68.3863 50.5307 68.3863 49.56H63.0903V47.688H70.4663V49.16C70.4663 50.2587 70.317 51.304 70.0183 52.296H73.0263V46.584ZM87.7502 49.544H78.6942V47.672H89.8142V49.016C89.8142 50.0933 89.7502 51.288 89.6222 52.6C89.4942 53.9013 89.3182 55.1973 89.0942 56.488L87.0782 56.168C87.2809 55.0053 87.4409 53.8107 87.5582 52.584C87.6862 51.3573 87.7502 50.3707 87.7502 49.624V49.544ZM84.1822 52.984V58.616H91.3662V60.488H77.2862V58.616H82.1342V52.984H84.1822Z" fill="#333333"/>
<path d="M25.5899 61.528H23.5419V46.584H25.5899V61.528ZM17.2059 59.624C15.9899 59.624 15.0033 59.2133 14.2459 58.392C13.4993 57.5707 13.1259 56.296 13.1259 54.568V52.28C13.1259 50.552 13.4993 49.2773 14.2459 48.456C15.0033 47.6347 15.9899 47.224 17.2059 47.224C18.4113 47.224 19.3873 47.6347 20.1339 48.456C20.8913 49.2773 21.2699 50.552 21.2699 52.28V54.568C21.2699 56.296 20.8913 57.5707 20.1339 58.392C19.3873 59.2133 18.4113 59.624 17.2059 59.624ZM17.2059 57.768C17.8139 57.768 18.2993 57.5173 18.6619 57.016C19.0353 56.5147 19.2219 55.6987 19.2219 54.568V52.28C19.2219 51.1493 19.0353 50.3333 18.6619 49.832C18.2993 49.3307 17.8139 49.08 17.2059 49.08C16.5979 49.08 16.1073 49.336 15.7339 49.848C15.3606 50.3493 15.1739 51.16 15.1739 52.28V54.568C15.1739 55.688 15.3606 56.504 15.7339 57.016C16.1073 57.5173 16.5979 57.768 17.2059 57.768ZM34.9058 52.264C33.7965 53.736 31.9085 54.9413 29.2418 55.88L28.3778 54.104C30.1271 53.496 31.4871 52.7653 32.4578 51.912C33.4391 51.048 33.9885 50.1573 34.1058 49.24H28.8098V47.384H36.1858V48.392C36.1858 49.1067 36.0791 49.7947 35.8658 50.456H38.7298V46.584H40.7618V57.64H38.7298V52.264H34.9058ZM32.6658 56.632V59.672H41.3218V61.528H30.6338V56.632H32.6658ZM59.9024 61.528H57.8544V46.584H59.9024V61.528ZM51.5184 59.624C50.3024 59.624 49.3158 59.2133 48.5584 58.392C47.8118 57.5707 47.4384 56.296 47.4384 54.568V52.28C47.4384 50.552 47.8118 49.2773 48.5584 48.456C49.3158 47.6347 50.3024 47.224 51.5184 47.224C52.7238 47.224 53.6998 47.6347 54.4464 48.456C55.2038 49.2773 55.5824 50.552 55.5824 52.28V54.568C55.5824 56.296 55.2038 57.5707 54.4464 58.392C53.6998 59.2133 52.7238 59.624 51.5184 59.624ZM51.5184 57.768C52.1264 57.768 52.6118 57.5173 52.9744 57.016C53.3478 56.5147 53.5344 55.6987 53.5344 54.568V52.28C53.5344 51.1493 53.3478 50.3333 52.9744 49.832C52.6118 49.3307 52.1264 49.08 51.5184 49.08C50.9104 49.08 50.4198 49.336 50.0464 49.848C49.6731 50.3493 49.4864 51.16 49.4864 52.28V54.568C49.4864 55.688 49.6731 56.504 50.0464 57.016C50.4198 57.5173 50.9104 57.768 51.5184 57.768ZM73.0263 46.584H75.0743V61.528H73.0263V54.168H69.2823C68.173 56.3333 66.381 58.2213 63.9063 59.832L62.6583 58.216C63.9276 57.416 64.989 56.5307 65.8423 55.56C66.7063 54.5787 67.3463 53.576 67.7623 52.552C68.1783 51.528 68.3863 50.5307 68.3863 49.56H63.0903V47.688H70.4663V49.16C70.4663 50.2587 70.317 51.304 70.0183 52.296H73.0263V46.584ZM87.7502 49.544H78.6942V47.672H89.8142V49.016C89.8142 50.0933 89.7502 51.288 89.6222 52.6C89.4942 53.9013 89.3182 55.1973 89.0942 56.488L87.0782 56.168C87.2809 55.0053 87.4409 53.8107 87.5582 52.584C87.6862 51.3573 87.7502 50.3707 87.7502 49.624V49.544ZM84.1822 52.984V58.616H91.3662V60.488H77.2862V58.616H82.1342V52.984H84.1822Z" fill="black" fill-opacity="0.2"/>
<path d="M25.5899 61.528H23.5419V46.584H25.5899V61.528ZM17.2059 59.624C15.9899 59.624 15.0033 59.2133 14.2459 58.392C13.4993 57.5707 13.1259 56.296 13.1259 54.568V52.28C13.1259 50.552 13.4993 49.2773 14.2459 48.456C15.0033 47.6347 15.9899 47.224 17.2059 47.224C18.4113 47.224 19.3873 47.6347 20.1339 48.456C20.8913 49.2773 21.2699 50.552 21.2699 52.28V54.568C21.2699 56.296 20.8913 57.5707 20.1339 58.392C19.3873 59.2133 18.4113 59.624 17.2059 59.624ZM17.2059 57.768C17.8139 57.768 18.2993 57.5173 18.6619 57.016C19.0353 56.5147 19.2219 55.6987 19.2219 54.568V52.28C19.2219 51.1493 19.0353 50.3333 18.6619 49.832C18.2993 49.3307 17.8139 49.08 17.2059 49.08C16.5979 49.08 16.1073 49.336 15.7339 49.848C15.3606 50.3493 15.1739 51.16 15.1739 52.28V54.568C15.1739 55.688 15.3606 56.504 15.7339 57.016C16.1073 57.5173 16.5979 57.768 17.2059 57.768ZM34.9058 52.264C33.7965 53.736 31.9085 54.9413 29.2418 55.88L28.3778 54.104C30.1271 53.496 31.4871 52.7653 32.4578 51.912C33.4391 51.048 33.9885 50.1573 34.1058 49.24H28.8098V47.384H36.1858V48.392C36.1858 49.1067 36.0791 49.7947 35.8658 50.456H38.7298V46.584H40.7618V57.64H38.7298V52.264H34.9058ZM32.6658 56.632V59.672H41.3218V61.528H30.6338V56.632H32.6658ZM59.9024 61.528H57.8544V46.584H59.9024V61.528ZM51.5184 59.624C50.3024 59.624 49.3158 59.2133 48.5584 58.392C47.8118 57.5707 47.4384 56.296 47.4384 54.568V52.28C47.4384 50.552 47.8118 49.2773 48.5584 48.456C49.3158 47.6347 50.3024 47.224 51.5184 47.224C52.7238 47.224 53.6998 47.6347 54.4464 48.456C55.2038 49.2773 55.5824 50.552 55.5824 52.28V54.568C55.5824 56.296 55.2038 57.5707 54.4464 58.392C53.6998 59.2133 52.7238 59.624 51.5184 59.624ZM51.5184 57.768C52.1264 57.768 52.6118 57.5173 52.9744 57.016C53.3478 56.5147 53.5344 55.6987 53.5344 54.568V52.28C53.5344 51.1493 53.3478 50.3333 52.9744 49.832C52.6118 49.3307 52.1264 49.08 51.5184 49.08C50.9104 49.08 50.4198 49.336 50.0464 49.848C49.6731 50.3493 49.4864 51.16 49.4864 52.28V54.568C49.4864 55.688 49.6731 56.504 50.0464 57.016C50.4198 57.5173 50.9104 57.768 51.5184 57.768ZM73.0263 46.584H75.0743V61.528H73.0263V54.168H69.2823C68.173 56.3333 66.381 58.2213 63.9063 59.832L62.6583 58.216C63.9276 57.416 64.989 56.5307 65.8423 55.56C66.7063 54.5787 67.3463 53.576 67.7623 52.552C68.1783 51.528 68.3863 50.5307 68.3863 49.56H63.0903V47.688H70.4663V49.16C70.4663 50.2587 70.317 51.304 70.0183 52.296H73.0263V46.584ZM87.7502 49.544H78.6942V47.672H89.8142V49.016C89.8142 50.0933 89.7502 51.288 89.6222 52.6C89.4942 53.9013 89.3182 55.1973 89.0942 56.488L87.0782 56.168C87.2809 55.0053 87.4409 53.8107 87.5582 52.584C87.6862 51.3573 87.7502 50.3707 87.7502 49.624V49.544ZM84.1822 52.984V58.616H91.3662V60.488H77.2862V58.616H82.1342V52.984H84.1822Z" fill="black" fill-opacity="0.2"/>
<path d="M25.5899 61.528H23.5419V46.584H25.5899V61.528ZM17.2059 59.624C15.9899 59.624 15.0033 59.2133 14.2459 58.392C13.4993 57.5707 13.1259 56.296 13.1259 54.568V52.28C13.1259 50.552 13.4993 49.2773 14.2459 48.456C15.0033 47.6347 15.9899 47.224 17.2059 47.224C18.4113 47.224 19.3873 47.6347 20.1339 48.456C20.8913 49.2773 21.2699 50.552 21.2699 52.28V54.568C21.2699 56.296 20.8913 57.5707 20.1339 58.392C19.3873 59.2133 18.4113 59.624 17.2059 59.624ZM17.2059 57.768C17.8139 57.768 18.2993 57.5173 18.6619 57.016C19.0353 56.5147 19.2219 55.6987 19.2219 54.568V52.28C19.2219 51.1493 19.0353 50.3333 18.6619 49.832C18.2993 49.3307 17.8139 49.08 17.2059 49.08C16.5979 49.08 16.1073 49.336 15.7339 49.848C15.3606 50.3493 15.1739 51.16 15.1739 52.28V54.568C15.1739 55.688 15.3606 56.504 15.7339 57.016C16.1073 57.5173 16.5979 57.768 17.2059 57.768ZM34.9058 52.264C33.7965 53.736 31.9085 54.9413 29.2418 55.88L28.3778 54.104C30.1271 53.496 31.4871 52.7653 32.4578 51.912C33.4391 51.048 33.9885 50.1573 34.1058 49.24H28.8098V47.384H36.1858V48.392C36.1858 49.1067 36.0791 49.7947 35.8658 50.456H38.7298V46.584H40.7618V57.64H38.7298V52.264H34.9058ZM32.6658 56.632V59.672H41.3218V61.528H30.6338V56.632H32.6658ZM59.9024 61.528H57.8544V46.584H59.9024V61.528ZM51.5184 59.624C50.3024 59.624 49.3158 59.2133 48.5584 58.392C47.8118 57.5707 47.4384 56.296 47.4384 54.568V52.28C47.4384 50.552 47.8118 49.2773 48.5584 48.456C49.3158 47.6347 50.3024 47.224 51.5184 47.224C52.7238 47.224 53.6998 47.6347 54.4464 48.456C55.2038 49.2773 55.5824 50.552 55.5824 52.28V54.568C55.5824 56.296 55.2038 57.5707 54.4464 58.392C53.6998 59.2133 52.7238 59.624 51.5184 59.624ZM51.5184 57.768C52.1264 57.768 52.6118 57.5173 52.9744 57.016C53.3478 56.5147 53.5344 55.6987 53.5344 54.568V52.28C53.5344 51.1493 53.3478 50.3333 52.9744 49.832C52.6118 49.3307 52.1264 49.08 51.5184 49.08C50.9104 49.08 50.4198 49.336 50.0464 49.848C49.6731 50.3493 49.4864 51.16 49.4864 52.28V54.568C49.4864 55.688 49.6731 56.504 50.0464 57.016C50.4198 57.5173 50.9104 57.768 51.5184 57.768ZM73.0263 46.584H75.0743V61.528H73.0263V54.168H69.2823C68.173 56.3333 66.381 58.2213 63.9063 59.832L62.6583 58.216C63.9276 57.416 64.989 56.5307 65.8423 55.56C66.7063 54.5787 67.3463 53.576 67.7623 52.552C68.1783 51.528 68.3863 50.5307 68.3863 49.56H63.0903V47.688H70.4663V49.16C70.4663 50.2587 70.317 51.304 70.0183 52.296H73.0263V46.584ZM87.7502 49.544H78.6942V47.672H89.8142V49.016C89.8142 50.0933 89.7502 51.288 89.6222 52.6C89.4942 53.9013 89.3182 55.1973 89.0942 56.488L87.0782 56.168C87.2809 55.0053 87.4409 53.8107 87.5582 52.584C87.6862 51.3573 87.7502 50.3707 87.7502 49.624V49.544ZM84.1822 52.984V58.616H91.3662V60.488H77.2862V58.616H82.1342V52.984H84.1822Z" fill="black" fill-opacity="0.2"/>
<path d="M25.5899 61.528H23.5419V46.584H25.5899V61.528ZM17.2059 59.624C15.9899 59.624 15.0033 59.2133 14.2459 58.392C13.4993 57.5707 13.1259 56.296 13.1259 54.568V52.28C13.1259 50.552 13.4993 49.2773 14.2459 48.456C15.0033 47.6347 15.9899 47.224 17.2059 47.224C18.4113 47.224 19.3873 47.6347 20.1339 48.456C20.8913 49.2773 21.2699 50.552 21.2699 52.28V54.568C21.2699 56.296 20.8913 57.5707 20.1339 58.392C19.3873 59.2133 18.4113 59.624 17.2059 59.624ZM17.2059 57.768C17.8139 57.768 18.2993 57.5173 18.6619 57.016C19.0353 56.5147 19.2219 55.6987 19.2219 54.568V52.28C19.2219 51.1493 19.0353 50.3333 18.6619 49.832C18.2993 49.3307 17.8139 49.08 17.2059 49.08C16.5979 49.08 16.1073 49.336 15.7339 49.848C15.3606 50.3493 15.1739 51.16 15.1739 52.28V54.568C15.1739 55.688 15.3606 56.504 15.7339 57.016C16.1073 57.5173 16.5979 57.768 17.2059 57.768ZM34.9058 52.264C33.7965 53.736 31.9085 54.9413 29.2418 55.88L28.3778 54.104C30.1271 53.496 31.4871 52.7653 32.4578 51.912C33.4391 51.048 33.9885 50.1573 34.1058 49.24H28.8098V47.384H36.1858V48.392C36.1858 49.1067 36.0791 49.7947 35.8658 50.456H38.7298V46.584H40.7618V57.64H38.7298V52.264H34.9058ZM32.6658 56.632V59.672H41.3218V61.528H30.6338V56.632H32.6658ZM59.9024 61.528H57.8544V46.584H59.9024V61.528ZM51.5184 59.624C50.3024 59.624 49.3158 59.2133 48.5584 58.392C47.8118 57.5707 47.4384 56.296 47.4384 54.568V52.28C47.4384 50.552 47.8118 49.2773 48.5584 48.456C49.3158 47.6347 50.3024 47.224 51.5184 47.224C52.7238 47.224 53.6998 47.6347 54.4464 48.456C55.2038 49.2773 55.5824 50.552 55.5824 52.28V54.568C55.5824 56.296 55.2038 57.5707 54.4464 58.392C53.6998 59.2133 52.7238 59.624 51.5184 59.624ZM51.5184 57.768C52.1264 57.768 52.6118 57.5173 52.9744 57.016C53.3478 56.5147 53.5344 55.6987 53.5344 54.568V52.28C53.5344 51.1493 53.3478 50.3333 52.9744 49.832C52.6118 49.3307 52.1264 49.08 51.5184 49.08C50.9104 49.08 50.4198 49.336 50.0464 49.848C49.6731 50.3493 49.4864 51.16 49.4864 52.28V54.568C49.4864 55.688 49.6731 56.504 50.0464 57.016C50.4198 57.5173 50.9104 57.768 51.5184 57.768ZM73.0263 46.584H75.0743V61.528H73.0263V54.168H69.2823C68.173 56.3333 66.381 58.2213 63.9063 59.832L62.6583 58.216C63.9276 57.416 64.989 56.5307 65.8423 55.56C66.7063 54.5787 67.3463 53.576 67.7623 52.552C68.1783 51.528 68.3863 50.5307 68.3863 49.56H63.0903V47.688H70.4663V49.16C70.4663 50.2587 70.317 51.304 70.0183 52.296H73.0263V46.584ZM87.7502 49.544H78.6942V47.672H89.8142V49.016C89.8142 50.0933 89.7502 51.288 89.6222 52.6C89.4942 53.9013 89.3182 55.1973 89.0942 56.488L87.0782 56.168C87.2809 55.0053 87.4409 53.8107 87.5582 52.584C87.6862 51.3573 87.7502 50.3707 87.7502 49.624V49.544ZM84.1822 52.984V58.616H91.3662V60.488H77.2862V58.616H82.1342V52.984H84.1822Z" fill="black" fill-opacity="0.2"/>
<path d="M299.187 128.627C309.025 128.627 317 120.651 317 110.813V110.813C317 100.975 309.025 93 299.187 93L248.721 93C237.277 93 228 102.277 228 113.721L228 131.2C228 134.674 232.729 135.709 234.18 132.552L235.463 129.758C235.78 129.068 236.469 128.627 237.228 128.627L243.966 128.627L259.932 128.627L299.187 128.627Z" fill="#FFDA79"/>
<path d="M251.441 104.768H253.985V106.416H246.817V104.768H249.377V103.424H251.441V104.768ZM258.129 107.136V103.584H260.065V112.48H258.129V108.944H256.657V112.48H254.785V103.744H256.657V107.136H258.129ZM253.489 109.808C253.489 110.64 253.206 111.28 252.641 111.728C252.086 112.176 251.35 112.4 250.433 112.4C249.505 112.4 248.753 112.176 248.177 111.728C247.612 111.28 247.329 110.64 247.329 109.808V109.616C247.329 108.784 247.612 108.144 248.177 107.696C248.753 107.248 249.505 107.024 250.433 107.024C251.35 107.024 252.086 107.248 252.641 107.696C253.206 108.144 253.489 108.784 253.489 109.616V109.808ZM249.137 109.76C249.137 110.069 249.254 110.315 249.489 110.496C249.724 110.667 250.038 110.752 250.433 110.752C250.806 110.752 251.105 110.661 251.329 110.48C251.564 110.299 251.681 110.059 251.681 109.76V109.664C251.681 109.365 251.564 109.125 251.329 108.944C251.105 108.763 250.806 108.672 250.433 108.672C250.038 108.672 249.724 108.763 249.489 108.944C249.254 109.115 249.137 109.355 249.137 109.664V109.76ZM258.017 115.152H249.633V113.296H260.065V118.688H258.017V115.152ZM272.917 111.648V103.584H274.965V111.648H272.917ZM266.661 108.864C265.893 109.899 264.736 110.843 263.189 111.696L262.133 110.048C263.477 109.291 264.442 108.501 265.029 107.68C265.626 106.859 265.925 105.963 265.925 104.992V104.032H267.925V104.992C267.925 105.781 267.808 106.507 267.573 107.168L271.653 109.744L270.581 111.376L266.661 108.864ZM274.965 118.528H264.805V112.464H274.965V118.528ZM272.917 114.272H266.853V116.704H272.917V114.272ZM282.953 109.952C281.683 109.952 280.665 109.675 279.897 109.12C279.129 108.565 278.745 107.797 278.745 106.816C278.745 105.845 279.129 105.088 279.897 104.544C280.665 103.989 281.683 103.712 282.953 103.712H285.481C286.75 103.712 287.769 103.989 288.537 104.544C289.315 105.088 289.705 105.845 289.705 106.816C289.705 107.797 289.315 108.565 288.537 109.12C287.769 109.675 286.75 109.952 285.481 109.952H282.953ZM285.113 108.192C285.923 108.192 286.547 108.075 286.985 107.84C287.433 107.605 287.657 107.275 287.657 106.848C287.657 106.421 287.433 106.091 286.985 105.856C286.547 105.611 285.923 105.488 285.113 105.488H283.321C282.51 105.488 281.881 105.611 281.433 105.856C280.995 106.091 280.777 106.421 280.777 106.848C280.777 107.275 280.995 107.605 281.433 107.84C281.881 108.075 282.51 108.192 283.321 108.192H285.113ZM291.257 113.072H277.177V111.216H291.257V113.072ZM289.865 118.528H278.969V114.208H281.017V116.624H289.865V118.528ZM294.029 117.888C293.666 117.888 293.357 117.76 293.101 117.504C292.855 117.259 292.733 116.955 292.733 116.592C292.733 116.229 292.855 115.92 293.101 115.664C293.357 115.408 293.666 115.28 294.029 115.28C294.391 115.28 294.695 115.408 294.941 115.664C295.197 115.92 295.325 116.229 295.325 116.592C295.325 116.955 295.197 117.259 294.941 117.504C294.695 117.76 294.391 117.888 294.029 117.888ZM298.482 117.888C298.119 117.888 297.81 117.76 297.554 117.504C297.308 117.259 297.186 116.955 297.186 116.592C297.186 116.229 297.308 115.92 297.554 115.664C297.81 115.408 298.119 115.28 298.482 115.28C298.844 115.28 299.148 115.408 299.394 115.664C299.65 115.92 299.778 116.229 299.778 116.592C299.778 116.955 299.65 117.259 299.394 117.504C299.148 117.76 298.844 117.888 298.482 117.888Z" fill="#333333"/>
<path d="M251.441 104.768H253.985V106.416H246.817V104.768H249.377V103.424H251.441V104.768ZM258.129 107.136V103.584H260.065V112.48H258.129V108.944H256.657V112.48H254.785V103.744H256.657V107.136H258.129ZM253.489 109.808C253.489 110.64 253.206 111.28 252.641 111.728C252.086 112.176 251.35 112.4 250.433 112.4C249.505 112.4 248.753 112.176 248.177 111.728C247.612 111.28 247.329 110.64 247.329 109.808V109.616C247.329 108.784 247.612 108.144 248.177 107.696C248.753 107.248 249.505 107.024 250.433 107.024C251.35 107.024 252.086 107.248 252.641 107.696C253.206 108.144 253.489 108.784 253.489 109.616V109.808ZM249.137 109.76C249.137 110.069 249.254 110.315 249.489 110.496C249.724 110.667 250.038 110.752 250.433 110.752C250.806 110.752 251.105 110.661 251.329 110.48C251.564 110.299 251.681 110.059 251.681 109.76V109.664C251.681 109.365 251.564 109.125 251.329 108.944C251.105 108.763 250.806 108.672 250.433 108.672C250.038 108.672 249.724 108.763 249.489 108.944C249.254 109.115 249.137 109.355 249.137 109.664V109.76ZM258.017 115.152H249.633V113.296H260.065V118.688H258.017V115.152ZM272.917 111.648V103.584H274.965V111.648H272.917ZM266.661 108.864C265.893 109.899 264.736 110.843 263.189 111.696L262.133 110.048C263.477 109.291 264.442 108.501 265.029 107.68C265.626 106.859 265.925 105.963 265.925 104.992V104.032H267.925V104.992C267.925 105.781 267.808 106.507 267.573 107.168L271.653 109.744L270.581 111.376L266.661 108.864ZM274.965 118.528H264.805V112.464H274.965V118.528ZM272.917 114.272H266.853V116.704H272.917V114.272ZM282.953 109.952C281.683 109.952 280.665 109.675 279.897 109.12C279.129 108.565 278.745 107.797 278.745 106.816C278.745 105.845 279.129 105.088 279.897 104.544C280.665 103.989 281.683 103.712 282.953 103.712H285.481C286.75 103.712 287.769 103.989 288.537 104.544C289.315 105.088 289.705 105.845 289.705 106.816C289.705 107.797 289.315 108.565 288.537 109.12C287.769 109.675 286.75 109.952 285.481 109.952H282.953ZM285.113 108.192C285.923 108.192 286.547 108.075 286.985 107.84C287.433 107.605 287.657 107.275 287.657 106.848C287.657 106.421 287.433 106.091 286.985 105.856C286.547 105.611 285.923 105.488 285.113 105.488H283.321C282.51 105.488 281.881 105.611 281.433 105.856C280.995 106.091 280.777 106.421 280.777 106.848C280.777 107.275 280.995 107.605 281.433 107.84C281.881 108.075 282.51 108.192 283.321 108.192H285.113ZM291.257 113.072H277.177V111.216H291.257V113.072ZM289.865 118.528H278.969V114.208H281.017V116.624H289.865V118.528ZM294.029 117.888C293.666 117.888 293.357 117.76 293.101 117.504C292.855 117.259 292.733 116.955 292.733 116.592C292.733 116.229 292.855 115.92 293.101 115.664C293.357 115.408 293.666 115.28 294.029 115.28C294.391 115.28 294.695 115.408 294.941 115.664C295.197 115.92 295.325 116.229 295.325 116.592C295.325 116.955 295.197 117.259 294.941 117.504C294.695 117.76 294.391 117.888 294.029 117.888ZM298.482 117.888C298.119 117.888 297.81 117.76 297.554 117.504C297.308 117.259 297.186 116.955 297.186 116.592C297.186 116.229 297.308 115.92 297.554 115.664C297.81 115.408 298.119 115.28 298.482 115.28C298.844 115.28 299.148 115.408 299.394 115.664C299.65 115.92 299.778 116.229 299.778 116.592C299.778 116.955 299.65 117.259 299.394 117.504C299.148 117.76 298.844 117.888 298.482 117.888Z" fill="black" fill-opacity="0.2"/>
<path d="M251.441 104.768H253.985V106.416H246.817V104.768H249.377V103.424H251.441V104.768ZM258.129 107.136V103.584H260.065V112.48H258.129V108.944H256.657V112.48H254.785V103.744H256.657V107.136H258.129ZM253.489 109.808C253.489 110.64 253.206 111.28 252.641 111.728C252.086 112.176 251.35 112.4 250.433 112.4C249.505 112.4 248.753 112.176 248.177 111.728C247.612 111.28 247.329 110.64 247.329 109.808V109.616C247.329 108.784 247.612 108.144 248.177 107.696C248.753 107.248 249.505 107.024 250.433 107.024C251.35 107.024 252.086 107.248 252.641 107.696C253.206 108.144 253.489 108.784 253.489 109.616V109.808ZM249.137 109.76C249.137 110.069 249.254 110.315 249.489 110.496C249.724 110.667 250.038 110.752 250.433 110.752C250.806 110.752 251.105 110.661 251.329 110.48C251.564 110.299 251.681 110.059 251.681 109.76V109.664C251.681 109.365 251.564 109.125 251.329 108.944C251.105 108.763 250.806 108.672 250.433 108.672C250.038 108.672 249.724 108.763 249.489 108.944C249.254 109.115 249.137 109.355 249.137 109.664V109.76ZM258.017 115.152H249.633V113.296H260.065V118.688H258.017V115.152ZM272.917 111.648V103.584H274.965V111.648H272.917ZM266.661 108.864C265.893 109.899 264.736 110.843 263.189 111.696L262.133 110.048C263.477 109.291 264.442 108.501 265.029 107.68C265.626 106.859 265.925 105.963 265.925 104.992V104.032H267.925V104.992C267.925 105.781 267.808 106.507 267.573 107.168L271.653 109.744L270.581 111.376L266.661 108.864ZM274.965 118.528H264.805V112.464H274.965V118.528ZM272.917 114.272H266.853V116.704H272.917V114.272ZM282.953 109.952C281.683 109.952 280.665 109.675 279.897 109.12C279.129 108.565 278.745 107.797 278.745 106.816C278.745 105.845 279.129 105.088 279.897 104.544C280.665 103.989 281.683 103.712 282.953 103.712H285.481C286.75 103.712 287.769 103.989 288.537 104.544C289.315 105.088 289.705 105.845 289.705 106.816C289.705 107.797 289.315 108.565 288.537 109.12C287.769 109.675 286.75 109.952 285.481 109.952H282.953ZM285.113 108.192C285.923 108.192 286.547 108.075 286.985 107.84C287.433 107.605 287.657 107.275 287.657 106.848C287.657 106.421 287.433 106.091 286.985 105.856C286.547 105.611 285.923 105.488 285.113 105.488H283.321C282.51 105.488 281.881 105.611 281.433 105.856C280.995 106.091 280.777 106.421 280.777 106.848C280.777 107.275 280.995 107.605 281.433 107.84C281.881 108.075 282.51 108.192 283.321 108.192H285.113ZM291.257 113.072H277.177V111.216H291.257V113.072ZM289.865 118.528H278.969V114.208H281.017V116.624H289.865V118.528ZM294.029 117.888C293.666 117.888 293.357 117.76 293.101 117.504C292.855 117.259 292.733 116.955 292.733 116.592C292.733 116.229 292.855 115.92 293.101 115.664C293.357 115.408 293.666 115.28 294.029 115.28C294.391 115.28 294.695 115.408 294.941 115.664C295.197 115.92 295.325 116.229 295.325 116.592C295.325 116.955 295.197 117.259 294.941 117.504C294.695 117.76 294.391 117.888 294.029 117.888ZM298.482 117.888C298.119 117.888 297.81 117.76 297.554 117.504C297.308 117.259 297.186 116.955 297.186 116.592C297.186 116.229 297.308 115.92 297.554 115.664C297.81 115.408 298.119 115.28 298.482 115.28C298.844 115.28 299.148 115.408 299.394 115.664C299.65 115.92 299.778 116.229 299.778 116.592C299.778 116.955 299.65 117.259 299.394 117.504C299.148 117.76 298.844 117.888 298.482 117.888Z" fill="black" fill-opacity="0.2"/>
<path d="M251.441 104.768H253.985V106.416H246.817V104.768H249.377V103.424H251.441V104.768ZM258.129 107.136V103.584H260.065V112.48H258.129V108.944H256.657V112.48H254.785V103.744H256.657V107.136H258.129ZM253.489 109.808C253.489 110.64 253.206 111.28 252.641 111.728C252.086 112.176 251.35 112.4 250.433 112.4C249.505 112.4 248.753 112.176 248.177 111.728C247.612 111.28 247.329 110.64 247.329 109.808V109.616C247.329 108.784 247.612 108.144 248.177 107.696C248.753 107.248 249.505 107.024 250.433 107.024C251.35 107.024 252.086 107.248 252.641 107.696C253.206 108.144 253.489 108.784 253.489 109.616V109.808ZM249.137 109.76C249.137 110.069 249.254 110.315 249.489 110.496C249.724 110.667 250.038 110.752 250.433 110.752C250.806 110.752 251.105 110.661 251.329 110.48C251.564 110.299 251.681 110.059 251.681 109.76V109.664C251.681 109.365 251.564 109.125 251.329 108.944C251.105 108.763 250.806 108.672 250.433 108.672C250.038 108.672 249.724 108.763 249.489 108.944C249.254 109.115 249.137 109.355 249.137 109.664V109.76ZM258.017 115.152H249.633V113.296H260.065V118.688H258.017V115.152ZM272.917 111.648V103.584H274.965V111.648H272.917ZM266.661 108.864C265.893 109.899 264.736 110.843 263.189 111.696L262.133 110.048C263.477 109.291 264.442 108.501 265.029 107.68C265.626 106.859 265.925 105.963 265.925 104.992V104.032H267.925V104.992C267.925 105.781 267.808 106.507 267.573 107.168L271.653 109.744L270.581 111.376L266.661 108.864ZM274.965 118.528H264.805V112.464H274.965V118.528ZM272.917 114.272H266.853V116.704H272.917V114.272ZM282.953 109.952C281.683 109.952 280.665 109.675 279.897 109.12C279.129 108.565 278.745 107.797 278.745 106.816C278.745 105.845 279.129 105.088 279.897 104.544C280.665 103.989 281.683 103.712 282.953 103.712H285.481C286.75 103.712 287.769 103.989 288.537 104.544C289.315 105.088 289.705 105.845 289.705 106.816C289.705 107.797 289.315 108.565 288.537 109.12C287.769 109.675 286.75 109.952 285.481 109.952H282.953ZM285.113 108.192C285.923 108.192 286.547 108.075 286.985 107.84C287.433 107.605 287.657 107.275 287.657 106.848C287.657 106.421 287.433 106.091 286.985 105.856C286.547 105.611 285.923 105.488 285.113 105.488H283.321C282.51 105.488 281.881 105.611 281.433 105.856C280.995 106.091 280.777 106.421 280.777 106.848C280.777 107.275 280.995 107.605 281.433 107.84C281.881 108.075 282.51 108.192 283.321 108.192H285.113ZM291.257 113.072H277.177V111.216H291.257V113.072ZM289.865 118.528H278.969V114.208H281.017V116.624H289.865V118.528ZM294.029 117.888C293.666 117.888 293.357 117.76 293.101 117.504C292.855 117.259 292.733 116.955 292.733 116.592C292.733 116.229 292.855 115.92 293.101 115.664C293.357 115.408 293.666 115.28 294.029 115.28C294.391 115.28 294.695 115.408 294.941 115.664C295.197 115.92 295.325 116.229 295.325 116.592C295.325 116.955 295.197 117.259 294.941 117.504C294.695 117.76 294.391 117.888 294.029 117.888ZM298.482 117.888C298.119 117.888 297.81 117.76 297.554 117.504C297.308 117.259 297.186 116.955 297.186 116.592C297.186 116.229 297.308 115.92 297.554 115.664C297.81 115.408 298.119 115.28 298.482 115.28C298.844 115.28 299.148 115.408 299.394 115.664C299.65 115.92 299.778 116.229 299.778 116.592C299.778 116.955 299.65 117.259 299.394 117.504C299.148 117.76 298.844 117.888 298.482 117.888Z" fill="black" fill-opacity="0.2"/>
<path d="M251.441 104.768H253.985V106.416H246.817V104.768H249.377V103.424H251.441V104.768ZM258.129 107.136V103.584H260.065V112.48H258.129V108.944H256.657V112.48H254.785V103.744H256.657V107.136H258.129ZM253.489 109.808C253.489 110.64 253.206 111.28 252.641 111.728C252.086 112.176 251.35 112.4 250.433 112.4C249.505 112.4 248.753 112.176 248.177 111.728C247.612 111.28 247.329 110.64 247.329 109.808V109.616C247.329 108.784 247.612 108.144 248.177 107.696C248.753 107.248 249.505 107.024 250.433 107.024C251.35 107.024 252.086 107.248 252.641 107.696C253.206 108.144 253.489 108.784 253.489 109.616V109.808ZM249.137 109.76C249.137 110.069 249.254 110.315 249.489 110.496C249.724 110.667 250.038 110.752 250.433 110.752C250.806 110.752 251.105 110.661 251.329 110.48C251.564 110.299 251.681 110.059 251.681 109.76V109.664C251.681 109.365 251.564 109.125 251.329 108.944C251.105 108.763 250.806 108.672 250.433 108.672C250.038 108.672 249.724 108.763 249.489 108.944C249.254 109.115 249.137 109.355 249.137 109.664V109.76ZM258.017 115.152H249.633V113.296H260.065V118.688H258.017V115.152ZM272.917 111.648V103.584H274.965V111.648H272.917ZM266.661 108.864C265.893 109.899 264.736 110.843 263.189 111.696L262.133 110.048C263.477 109.291 264.442 108.501 265.029 107.68C265.626 106.859 265.925 105.963 265.925 104.992V104.032H267.925V104.992C267.925 105.781 267.808 106.507 267.573 107.168L271.653 109.744L270.581 111.376L266.661 108.864ZM274.965 118.528H264.805V112.464H274.965V118.528ZM272.917 114.272H266.853V116.704H272.917V114.272ZM282.953 109.952C281.683 109.952 280.665 109.675 279.897 109.12C279.129 108.565 278.745 107.797 278.745 106.816C278.745 105.845 279.129 105.088 279.897 104.544C280.665 103.989 281.683 103.712 282.953 103.712H285.481C286.75 103.712 287.769 103.989 288.537 104.544C289.315 105.088 289.705 105.845 289.705 106.816C289.705 107.797 289.315 108.565 288.537 109.12C287.769 109.675 286.75 109.952 285.481 109.952H282.953ZM285.113 108.192C285.923 108.192 286.547 108.075 286.985 107.84C287.433 107.605 287.657 107.275 287.657 106.848C287.657 106.421 287.433 106.091 286.985 105.856C286.547 105.611 285.923 105.488 285.113 105.488H283.321C282.51 105.488 281.881 105.611 281.433 105.856C280.995 106.091 280.777 106.421 280.777 106.848C280.777 107.275 280.995 107.605 281.433 107.84C281.881 108.075 282.51 108.192 283.321 108.192H285.113ZM291.257 113.072H277.177V111.216H291.257V113.072ZM289.865 118.528H278.969V114.208H281.017V116.624H289.865V118.528ZM294.029 117.888C293.666 117.888 293.357 117.76 293.101 117.504C292.855 117.259 292.733 116.955 292.733 116.592C292.733 116.229 292.855 115.92 293.101 115.664C293.357 115.408 293.666 115.28 294.029 115.28C294.391 115.28 294.695 115.408 294.941 115.664C295.197 115.92 295.325 116.229 295.325 116.592C295.325 116.955 295.197 117.259 294.941 117.504C294.695 117.76 294.391 117.888 294.029 117.888ZM298.482 117.888C298.119 117.888 297.81 117.76 297.554 117.504C297.308 117.259 297.186 116.955 297.186 116.592C297.186 116.229 297.308 115.92 297.554 115.664C297.81 115.408 298.119 115.28 298.482 115.28C298.844 115.28 299.148 115.408 299.394 115.664C299.65 115.92 299.778 116.229 299.778 116.592C299.778 116.955 299.65 117.259 299.394 117.504C299.148 117.76 298.844 117.888 298.482 117.888Z" fill="black" fill-opacity="0.2"/>
<g clip-path="url(#clip0_6600_30676)">
<path d="M165.069 8.4011C164.397 8.4011 163.847 7.85148 163.847 7.17973V1.21942C163.847 0.547665 164.397 -0.00195312 165.069 -0.00195312C165.741 -0.00195312 166.29 0.547665 166.29 1.21942V7.17973C166.29 7.85148 165.741 8.4011 165.069 8.4011Z" fill="#C99A3A"/>
<path d="M170.833 9.09665C170.65 9.09665 170.467 9.06001 170.296 8.97451C169.685 8.68138 169.441 7.94856 169.734 7.33787L172.409 1.89054C172.702 1.27986 173.435 1.03558 174.046 1.32871C174.656 1.62184 174.901 2.35467 174.608 2.96535L171.933 8.41268C171.725 8.84016 171.285 9.09665 170.833 9.09665Z" fill="#C99A3A"/>
<path d="M159.463 9.09665C159.011 9.09665 158.571 8.84016 158.363 8.41268L155.689 2.96535C155.395 2.35467 155.64 1.62184 156.25 1.32871C156.861 1.03558 157.594 1.27986 157.887 1.89054L160.562 7.33787C160.855 7.94856 160.611 8.68138 160 8.97451C159.829 9.06001 159.646 9.09665 159.463 9.09665Z" fill="#C99A3A"/>
<path d="M131.827 40.6088V205.494V209.281C131.827 210.648 131.436 212.004 130.715 213.165L119.576 230.997C117.793 233.842 120.468 237.384 123.692 236.456L135.527 233.073C137.433 232.523 139.46 232.792 141.182 233.769C144.798 235.821 152.565 239.082 165.414 239.082C183.759 239.082 199.002 224.047 199.002 205.494V40.6088C199.002 22.0561 183.967 7.021 165.414 7.021C146.862 7.021 131.827 22.0561 131.827 40.6088Z" fill="#FFCC47"/>
<path d="M149.889 60.604H148.998C147.763 60.604 146.762 61.6047 146.762 62.8391C146.762 64.0735 147.763 65.0742 148.998 65.0742H149.889C151.124 65.0742 152.124 64.0735 152.124 62.8391C152.124 61.6047 151.124 60.604 149.889 60.604Z" fill="#99752C"/>
<path d="M155.065 61.6406C154.748 61.6406 154.479 61.3964 154.455 61.0788C154.43 60.7368 154.675 60.4437 155.017 60.4193L165.85 59.5643C166.156 59.5521 166.485 59.7841 166.51 60.1261C166.534 60.4681 166.29 60.7612 165.948 60.7857L155.114 61.6406C155.114 61.6406 155.078 61.6406 155.065 61.6406Z" fill="#997F4A"/>
<path d="M165.899 65.4278C165.899 65.4278 165.875 65.4278 165.85 65.4278L155.017 64.6583C154.675 64.6339 154.43 64.3408 154.455 64.011C154.479 63.669 154.797 63.4248 155.102 63.4492L165.936 64.2187C166.278 64.2431 166.522 64.5362 166.498 64.866C166.473 65.1835 166.204 65.4278 165.887 65.4278H165.899Z" fill="#997F4A"/>
<path d="M143.965 61.6422C143.965 61.6422 143.88 61.6422 143.831 61.63L136.063 59.8834C135.733 59.8101 135.525 59.4804 135.599 59.1506C135.672 58.8208 136.002 58.6132 136.332 58.6865L144.099 60.433C144.429 60.5063 144.637 60.8361 144.564 61.1659C144.503 61.4468 144.246 61.6422 143.965 61.6422Z" fill="#997F4A"/>
<path d="M136.198 65.8431C135.905 65.8431 135.637 65.6233 135.6 65.3302C135.551 65.0004 135.783 64.6828 136.113 64.634L143.881 63.4492C144.211 63.4004 144.528 63.6325 144.577 63.9622C144.626 64.292 144.394 64.6096 144.064 64.6584L136.296 65.8431C136.296 65.8431 136.235 65.8431 136.198 65.8431Z" fill="#997F4A"/>
<path d="M155.827 49.144H155.814C154.209 49.144 152.907 50.4455 152.907 52.0509V54.2372C152.907 55.8426 154.209 57.144 155.814 57.144H155.827C157.432 57.144 158.733 55.8426 158.733 54.2372V52.0509C158.733 50.4455 157.432 49.144 155.827 49.144Z" fill="#99752C"/>
<path d="M143.975 49.144H143.963C142.358 49.144 141.056 50.4455 141.056 52.0509V54.2372C141.056 55.8426 142.358 57.144 143.963 57.144H143.975C145.581 57.144 146.882 55.8426 146.882 54.2372V52.0509C146.882 50.4455 145.581 49.144 143.975 49.144Z" fill="#99752C"/>
<path d="M147.347 70.1165L152.745 69.2004C153.185 69.1272 153.551 69.5302 153.441 69.9577L151.817 75.9791C151.682 76.4676 151.035 76.5898 150.742 76.1867L146.968 71.0936C146.699 70.7272 146.907 70.202 147.359 70.1287L147.347 70.1165Z" fill="#99752C"/>
<path d="M152.906 46.9849C152.808 46.9849 152.711 46.9604 152.625 46.9116C152.32 46.7528 152.21 46.3864 152.356 46.0933C152.393 46.0322 155.654 39.8276 162.005 42.0627C162.323 42.1727 162.494 42.5269 162.384 42.8444C162.274 43.162 161.932 43.333 161.602 43.223C156.252 41.3543 153.565 46.4475 153.443 46.6673C153.333 46.8749 153.126 46.9971 152.906 46.9971V46.9849Z" fill="#C99A3A"/>
<path d="M146.882 46.9863C146.687 46.9863 146.504 46.9008 146.381 46.7298C146.247 46.5344 142.949 41.9542 138.552 44.226C138.259 44.3848 137.881 44.2626 137.734 43.9573C137.575 43.652 137.697 43.2855 137.991 43.139C143.34 40.3787 147.346 45.9726 147.383 46.0214C147.578 46.3023 147.505 46.681 147.236 46.8764C147.126 46.9497 147.004 46.9863 146.882 46.9863Z" fill="#C99A3A"/>
</g>
<defs>
<clipPath id="clip0_6600_30676">
<rect width="80" height="239.084" fill="white" transform="translate(119)"/>
</clipPath>
</defs>
</svg>
