<svg width="335" height="302" viewBox="0 0 335 302" fill="none" xmlns="http://www.w3.org/2000/svg">
<path d="M1 228.319L1.00001 25.7531C1.00001 12.6346 11.6347 2 24.7532 2L310.247 2.00001C323.365 2.00001 334 12.6347 334 25.7532L334 291.533C334 294.196 330.685 295.421 328.954 293.397L294.579 253.234C293.949 252.497 293.027 252.073 292.057 252.073L251.25 252.073L167.5 252.073L24.7532 252.073C11.6347 252.073 1 241.438 1 228.319Z" fill="white" stroke="#E6E6E6" stroke-width="2"/>
<path d="M209.968 25.626H213.28V27.226H204.576V25.626H207.904V24.426H209.968V25.626ZM216.816 24.586V29.514H218.816V31.386H216.816V36.186H214.768V24.586H216.816ZM213.904 34.73C212.816 34.8793 211.616 34.9966 210.304 35.082C209.003 35.1673 207.797 35.21 206.688 35.21H204.4L204.304 33.578H206.88C207.36 33.578 207.733 33.5726 208 33.562V32.506C207.147 32.41 206.469 32.17 205.968 31.786C205.467 31.402 205.216 30.89 205.216 30.25V30.074C205.216 29.3166 205.563 28.7406 206.256 28.346C206.949 27.9513 207.851 27.754 208.96 27.754C210.059 27.754 210.949 27.9513 211.632 28.346C212.325 28.7406 212.672 29.3166 212.672 30.074V30.25C212.672 30.8686 212.432 31.37 211.952 31.754C211.483 32.1273 210.848 32.3726 210.048 32.49V33.466C211.595 33.3593 212.821 33.2526 213.728 33.146L213.904 34.73ZM207.264 30.218C207.264 30.4526 207.424 30.6393 207.744 30.778C208.064 30.9166 208.469 30.986 208.96 30.986C209.44 30.986 209.835 30.9166 210.144 30.778C210.464 30.6393 210.624 30.4526 210.624 30.218V30.106C210.624 29.8713 210.464 29.6846 210.144 29.546C209.835 29.4073 209.44 29.338 208.96 29.338C208.469 29.338 208.064 29.4073 207.744 29.546C207.424 29.6846 207.264 29.8713 207.264 30.106V30.218ZM206.832 35.946H208.864V37.738H217.52V39.53H206.832V35.946ZM231.828 24.602V27.514H233.988V29.354H231.828V32.73H229.796V24.602H231.828ZM223.844 30.282C223.108 31.2526 221.935 32.1433 220.324 32.954L219.38 31.306C220.596 30.666 221.487 29.9993 222.052 29.306C222.628 28.6126 222.943 27.85 222.996 27.018H219.956V25.226H228.068V27.018H224.98C224.969 27.5833 224.879 28.122 224.708 28.634L228.628 30.954L227.62 32.634L223.844 30.282ZM228.564 33.386C229.268 33.386 229.892 33.5193 230.436 33.786C230.98 34.042 231.401 34.41 231.7 34.89C232.009 35.37 232.164 35.9193 232.164 36.538C232.164 37.1673 232.009 37.7166 231.7 38.186C231.401 38.666 230.98 39.034 230.436 39.29C229.892 39.5566 229.268 39.69 228.564 39.69H225.284C224.58 39.69 223.956 39.5566 223.412 39.29C222.868 39.034 222.441 38.666 222.132 38.186C221.833 37.7166 221.684 37.1673 221.684 36.538C221.684 35.9193 221.833 35.37 222.132 34.89C222.441 34.41 222.868 34.042 223.412 33.786C223.967 33.5193 224.591 33.386 225.284 33.386H228.564ZM228.26 37.866C228.857 37.866 229.316 37.7433 229.636 37.498C229.956 37.2633 230.116 36.938 230.116 36.522C230.116 36.1166 229.956 35.7966 229.636 35.562C229.316 35.3166 228.857 35.194 228.26 35.194H225.572C224.975 35.194 224.516 35.3166 224.196 35.562C223.887 35.7966 223.732 36.1166 223.732 36.522C223.732 36.938 223.887 37.2633 224.196 37.498C224.516 37.7433 224.975 37.866 225.572 37.866H228.26ZM247 29.994H249.176V31.85H247V39.53H244.968V24.586H247V29.994ZM238.248 24.602H240.312V26.634H243.672V28.458H234.888V26.634H238.248V24.602ZM239.288 29.594C239.992 29.594 240.626 29.7433 241.192 30.042C241.768 30.33 242.216 30.746 242.536 31.29C242.866 31.8233 243.032 32.442 243.032 33.146V34.026C243.032 34.73 242.866 35.354 242.536 35.898C242.216 36.4313 241.768 36.8473 241.192 37.146C240.626 37.4446 239.992 37.594 239.288 37.594C238.594 37.594 237.96 37.4446 237.384 37.146C236.808 36.8473 236.354 36.4313 236.024 35.898C235.693 35.354 235.528 34.73 235.528 34.026V33.146C235.528 32.442 235.693 31.8233 236.024 31.29C236.354 30.746 236.802 30.33 237.368 30.042C237.944 29.7433 238.584 29.594 239.288 29.594ZM241 33.226C241 32.6606 240.84 32.218 240.52 31.898C240.2 31.578 239.789 31.418 239.288 31.418C238.797 31.418 238.386 31.578 238.056 31.898C237.736 32.218 237.576 32.6606 237.576 33.226V33.946C237.576 34.5113 237.736 34.9593 238.056 35.29C238.386 35.61 238.797 35.77 239.288 35.77C239.778 35.77 240.184 35.61 240.504 35.29C240.834 34.9593 241 34.5113 241 33.946V33.226ZM253.9 29.034H262.396V30.89H251.852V24.89H253.9V29.034ZM264.14 34.09H250.06V32.234H264.14V34.09ZM262.748 39.53H251.852V35.21H253.9V37.626H262.748V39.53ZM280.432 29.994V24.586H282.416V39.53H280.432V31.85H278.944V39.178H277.008V24.826H278.944V29.994H280.432ZM273.712 28.666C273.691 29.754 273.59 30.7086 273.408 31.53L276.64 36.186L275.056 37.386L272.672 33.914C272.15 35.1513 271.419 36.3566 270.48 37.53L268.976 36.33C269.947 35.0713 270.646 33.8286 271.072 32.602C271.51 31.3753 271.739 30.0633 271.76 28.666H269.472V26.81H271.776V24.602H273.744V26.81H276.16V28.666H273.712ZM295.284 30.138V24.586H297.332V39.53H295.284V32.01H293.14V30.138H295.284ZM288.484 35.626C290.148 35.626 291.855 35.4873 293.604 35.21L293.844 36.97C292.169 37.3006 290.265 37.466 288.132 37.466H285.108V25.61H292.596V27.45H287.14V30.554H292.452V32.346H287.14V35.626H288.484Z" fill="#808080"/>
<g clip-path="url(#clip0_6572_26850)">
<path d="M254.534 61.2196C254.199 61.2196 253.924 60.9437 253.924 60.6066V57.615C253.924 57.2778 254.199 57.002 254.534 57.002C254.87 57.002 255.145 57.2778 255.145 57.615V60.6066C255.145 60.9437 254.87 61.2196 254.534 61.2196Z" fill="#C99A3A"/>
<path d="M257.414 61.5713C257.322 61.5713 257.23 61.5529 257.145 61.51C256.84 61.3628 256.717 60.995 256.864 60.6885L258.201 57.9544C258.348 57.6479 258.714 57.5253 259.02 57.6724C259.325 57.8195 259.447 58.1873 259.301 58.4939L257.963 61.228C257.859 61.4425 257.64 61.5713 257.414 61.5713Z" fill="#C99A3A"/>
<path d="M251.728 61.5713C251.502 61.5713 251.282 61.4425 251.179 61.228L249.841 58.4939C249.695 58.1873 249.817 57.8195 250.122 57.6724C250.427 57.5253 250.794 57.6479 250.94 57.9544L252.278 60.6885C252.424 60.995 252.302 61.3628 251.997 61.51C251.911 61.5529 251.82 61.5713 251.728 61.5713Z" fill="#C99A3A"/>
<path d="M237.91 77.3831V160.142V162.042C237.91 162.729 237.715 163.409 237.354 163.992L231.785 172.942C230.893 174.37 232.231 176.148 233.843 175.682L239.761 173.984C240.713 173.708 241.727 173.843 242.588 174.333C244.396 175.363 248.28 177 254.704 177C263.877 177 271.498 169.454 271.498 160.142V77.3831C271.498 68.0713 263.98 60.5249 254.704 60.5249C245.428 60.5249 237.91 68.0713 237.91 77.3831Z" fill="#FFCC47"/>
<path d="M246.946 87.4238H246.5C245.883 87.4238 245.383 87.9261 245.383 88.5457C245.383 89.1652 245.883 89.6675 246.5 89.6675H246.946C247.563 89.6675 248.063 89.1652 248.063 88.5457C248.063 87.9261 247.563 87.4238 246.946 87.4238Z" fill="#99752C"/>
<path d="M249.534 87.9411C249.375 87.9411 249.241 87.8185 249.228 87.6591C249.216 87.4874 249.338 87.3403 249.509 87.328L254.926 86.8989C255.079 86.8928 255.244 87.0093 255.256 87.1809C255.268 87.3526 255.146 87.4997 254.975 87.5119L249.558 87.9411C249.558 87.9411 249.54 87.9411 249.534 87.9411Z" fill="#997F4A"/>
<path d="M254.951 89.8406C254.951 89.8406 254.938 89.8406 254.926 89.8406L249.509 89.4544C249.338 89.4422 249.216 89.295 249.228 89.1295C249.241 88.9579 249.399 88.8353 249.552 88.8475L254.969 89.2337C255.14 89.246 255.262 89.3931 255.25 89.5586C255.238 89.718 255.103 89.8406 254.944 89.8406H254.951Z" fill="#997F4A"/>
<path d="M243.982 87.9406C243.982 87.9406 243.94 87.9406 243.915 87.9345L240.031 87.0579C239.866 87.0211 239.762 86.8556 239.799 86.69C239.836 86.5245 240.001 86.4203 240.166 86.4571L244.049 87.3337C244.214 87.3705 244.318 87.536 244.282 87.7015C244.251 87.8425 244.123 87.9406 243.982 87.9406Z" fill="#997F4A"/>
<path d="M240.101 90.0515C239.955 90.0515 239.821 89.9411 239.802 89.794C239.778 89.6285 239.894 89.4691 240.059 89.4446L243.943 88.8499C244.108 88.8254 244.266 88.9419 244.291 89.1074C244.315 89.2729 244.199 89.4323 244.034 89.4568L240.15 90.0515C240.15 90.0515 240.12 90.0515 240.101 90.0515Z" fill="#997F4A"/>
<path d="M249.912 81.6704H249.905C249.103 81.6704 248.452 82.3236 248.452 83.1294V84.2267C248.452 85.0325 249.103 85.6857 249.905 85.6857H249.912C250.714 85.6857 251.365 85.0325 251.365 84.2267V83.1294C251.365 82.3236 250.714 81.6704 249.912 81.6704Z" fill="#99752C"/>
<path d="M243.985 81.6704H243.979C243.177 81.6704 242.526 82.3236 242.526 83.1294V84.2267C242.526 85.0325 243.177 85.6857 243.979 85.6857H243.985C244.788 85.6857 245.439 85.0325 245.439 84.2267V83.1294C245.439 82.3236 244.788 81.6704 243.985 81.6704Z" fill="#99752C"/>
<path d="M245.675 92.1965L248.374 91.7368C248.594 91.7 248.777 91.9023 248.722 92.1169L247.91 95.1391C247.843 95.3843 247.519 95.4456 247.373 95.2433L245.486 92.687C245.351 92.5031 245.455 92.2395 245.681 92.2027L245.675 92.1965Z" fill="#99752C"/>
<path d="M248.452 80.5826C248.404 80.5826 248.355 80.5703 248.312 80.5458C248.159 80.4661 248.104 80.2822 248.178 80.1351C248.196 80.1044 249.826 76.9902 253.002 78.1121C253.161 78.1672 253.246 78.345 253.191 78.5044C253.136 78.6638 252.965 78.7496 252.801 78.6944C250.126 77.7565 248.782 80.3128 248.721 80.4232C248.666 80.5274 248.562 80.5887 248.452 80.5887V80.5826Z" fill="#C99A3A"/>
<path d="M245.44 80.5855C245.342 80.5855 245.25 80.5426 245.189 80.4568C245.122 80.3587 243.473 78.0598 241.275 79.2C241.128 79.2797 240.939 79.2184 240.866 79.0652C240.786 78.9119 240.847 78.728 240.994 78.6545C243.669 77.269 245.672 80.0767 245.69 80.1012C245.788 80.2422 245.751 80.4322 245.617 80.5303C245.562 80.5671 245.501 80.5855 245.44 80.5855Z" fill="#C99A3A"/>
</g>
<path d="M186.766 196.21H188.602V196.99H186.766V199.726H185.902V193.726H186.766V196.21ZM183.55 194.914C183.55 196.002 183.118 196.946 182.254 197.746C181.398 198.546 180.178 199.206 178.594 199.726L178.258 198.982C179.61 198.55 180.682 197.998 181.474 197.326C182.266 196.646 182.674 195.926 182.698 195.166H178.45V194.386H183.55V194.914ZM186.766 204.802H179.866V200.518H186.766V204.802ZM185.902 201.286H180.73V204.022H185.902V201.286ZM198.745 199.786H197.893V196.726H195.277V195.958H197.893V193.738H198.745V199.786ZM192.661 197.278C192.117 198.158 191.217 198.962 189.961 199.69L189.517 198.994C190.509 198.41 191.249 197.786 191.737 197.122C192.233 196.45 192.481 195.69 192.481 194.842V194.122H193.333V194.842C193.333 195.458 193.233 196.026 193.033 196.546L196.273 198.838L195.817 199.522L192.661 197.278ZM196.321 200.458C196.849 200.458 197.309 200.558 197.701 200.758C198.093 200.95 198.393 201.218 198.601 201.562C198.809 201.898 198.913 202.274 198.913 202.69C198.913 203.114 198.809 203.494 198.601 203.83C198.393 204.166 198.093 204.43 197.701 204.622C197.309 204.814 196.849 204.91 196.321 204.91H193.993C193.465 204.91 193.005 204.814 192.613 204.622C192.221 204.43 191.921 204.166 191.713 203.83C191.505 203.494 191.401 203.114 191.401 202.69C191.401 202.274 191.505 201.898 191.713 201.562C191.921 201.218 192.221 200.95 192.613 200.758C193.005 200.558 193.465 200.458 193.993 200.458H196.321ZM196.153 204.142C196.769 204.142 197.237 204.006 197.557 203.734C197.885 203.47 198.049 203.118 198.049 202.678C198.049 202.254 197.885 201.906 197.557 201.634C197.237 201.362 196.769 201.226 196.153 201.226H194.161C193.545 201.226 193.073 201.362 192.745 201.634C192.417 201.906 192.253 202.254 192.253 202.678C192.253 203.118 192.417 203.47 192.745 203.734C193.073 204.006 193.545 204.142 194.161 204.142H196.153ZM207.725 203.242L211.025 194.518H211.937L208.265 204.166H207.185L203.501 194.518H204.413L207.725 203.242ZM213.014 201.538C213.262 202.194 213.654 202.694 214.19 203.038C214.734 203.382 215.378 203.554 216.122 203.554C216.874 203.554 217.482 203.398 217.946 203.086C218.41 202.774 218.642 202.342 218.642 201.79C218.642 201.278 218.478 200.882 218.15 200.602C217.822 200.322 217.362 200.098 216.77 199.93L215.306 199.498C213.618 199.01 212.774 198.134 212.774 196.87C212.774 196.366 212.91 195.922 213.182 195.538C213.462 195.154 213.842 194.858 214.322 194.65C214.802 194.442 215.338 194.338 215.93 194.338C216.786 194.338 217.518 194.55 218.126 194.974C218.734 195.398 219.166 195.958 219.422 196.654L218.666 197.002C218.426 196.41 218.074 195.95 217.61 195.622C217.146 195.294 216.586 195.13 215.93 195.13C215.242 195.13 214.686 195.286 214.262 195.598C213.838 195.91 213.626 196.334 213.626 196.87C213.626 197.366 213.79 197.754 214.118 198.034C214.454 198.314 214.91 198.538 215.486 198.706L216.95 199.138C217.718 199.37 218.334 199.69 218.798 200.098C219.27 200.506 219.506 201.07 219.506 201.79C219.506 202.31 219.358 202.762 219.062 203.146C218.766 203.53 218.362 203.826 217.85 204.034C217.338 204.242 216.762 204.346 216.122 204.346C215.186 204.346 214.374 204.13 213.686 203.698C213.006 203.266 212.526 202.658 212.246 201.874L213.014 201.538ZM231.983 193.726H232.835V199.15H231.983V193.726ZM226.835 197.002C226.275 197.81 225.331 198.546 224.003 199.21L223.607 198.502C224.639 197.974 225.407 197.41 225.911 196.81C226.423 196.21 226.679 195.522 226.679 194.746V194.11H227.531V194.746C227.531 195.298 227.431 195.81 227.231 196.282L230.591 198.286L230.171 198.97L226.835 197.002ZM226.571 202.738V204.106H233.291V204.862H225.719V201.994H231.983V200.674H225.659V199.942H232.835V202.738H226.571ZM242.222 199.09H245.222V199.846H234.854V199.09H237.866V197.722C237.306 197.578 236.878 197.354 236.582 197.05C236.286 196.738 236.138 196.346 236.138 195.874C236.138 195.218 236.414 194.722 236.966 194.386C237.518 194.05 238.286 193.882 239.27 193.882H240.818C241.802 193.882 242.57 194.05 243.122 194.386C243.674 194.722 243.95 195.218 243.95 195.874C243.95 196.346 243.802 196.738 243.506 197.05C243.21 197.354 242.782 197.578 242.222 197.722V199.09ZM236.99 195.874C236.99 196.282 237.198 196.594 237.614 196.81C238.03 197.026 238.63 197.134 239.414 197.134H240.674C241.45 197.134 242.046 197.026 242.462 196.81C242.878 196.586 243.086 196.274 243.086 195.874C243.086 195.474 242.878 195.17 242.462 194.962C242.054 194.746 241.458 194.638 240.674 194.638H239.414C238.63 194.638 238.03 194.746 237.614 194.962C237.198 195.17 236.99 195.474 236.99 195.874ZM238.694 199.09H241.394V197.842C241.282 197.858 240.834 197.866 240.05 197.866C239.274 197.866 238.822 197.858 238.694 197.842V199.09ZM241.25 200.974C242.13 200.974 242.81 201.158 243.29 201.526C243.77 201.886 244.01 202.358 244.01 202.942C244.01 203.534 243.77 204.01 243.29 204.37C242.81 204.738 242.13 204.922 241.25 204.922H238.826C237.954 204.922 237.278 204.738 236.798 204.37C236.318 204.01 236.078 203.534 236.078 202.942C236.078 202.358 236.318 201.886 236.798 201.526C237.278 201.158 237.954 200.974 238.826 200.974H241.25ZM241.058 204.154C241.746 204.154 242.266 204.046 242.618 203.83C242.97 203.614 243.146 203.318 243.146 202.942C243.146 202.566 242.97 202.274 242.618 202.066C242.266 201.85 241.746 201.742 241.058 201.742H239.018C238.33 201.742 237.81 201.85 237.458 202.066C237.106 202.274 236.93 202.566 236.93 202.942C236.93 203.318 237.106 203.614 237.458 203.83C237.81 204.046 238.33 204.154 239.018 204.154H241.058ZM247.193 206.266H246.485L246.737 203.086H247.601L247.193 206.266ZM261.241 204.802H260.377V193.726H261.241V204.802ZM255.205 203.326C254.365 203.326 253.681 203.026 253.153 202.426C252.625 201.818 252.361 200.894 252.361 199.654V197.998C252.361 196.758 252.625 195.838 253.153 195.238C253.681 194.63 254.365 194.326 255.205 194.326C256.045 194.326 256.729 194.63 257.257 195.238C257.785 195.838 258.049 196.758 258.049 197.998V199.654C258.049 200.894 257.785 201.818 257.257 202.426C256.729 203.026 256.045 203.326 255.205 203.326ZM255.205 202.534C255.813 202.534 256.297 202.298 256.657 201.826C257.017 201.354 257.197 200.626 257.197 199.642V197.998C257.197 197.014 257.017 196.29 256.657 195.826C256.297 195.354 255.813 195.118 255.205 195.118C254.597 195.118 254.113 195.354 253.753 195.826C253.401 196.29 253.225 197.014 253.225 197.998V199.642C253.225 200.626 253.401 201.354 253.753 201.826C254.113 202.298 254.597 202.534 255.205 202.534ZM266.91 199.918C268.286 199.278 269.31 198.61 269.982 197.914C270.654 197.21 270.99 196.454 270.99 195.646V195.322H267.522V194.542H275.214V195.322H271.854V195.646C271.854 196.174 271.754 196.666 271.554 197.122L275.802 199.954L275.346 200.65L271.146 197.842C270.418 198.882 269.134 199.818 267.294 200.65L266.91 199.918ZM271.794 200.398V203.122H276.546V203.914H266.178V203.122H270.942V200.398H271.794ZM281.253 194.83H284.037V195.562H277.617V194.83H280.401V193.582H281.253V194.83ZM286.293 196.438H288.141V197.218H286.293V199.858H285.441V193.726H286.293V196.438ZM283.521 198.118C283.521 198.678 283.269 199.114 282.765 199.426C282.261 199.738 281.621 199.894 280.845 199.894C280.061 199.894 279.417 199.738 278.913 199.426C278.409 199.114 278.157 198.678 278.157 198.118V197.962C278.157 197.41 278.409 196.978 278.913 196.666C279.425 196.354 280.069 196.198 280.845 196.198C281.621 196.198 282.261 196.354 282.765 196.666C283.269 196.978 283.521 197.41 283.521 197.962V198.118ZM279.009 198.106C279.009 198.426 279.181 198.682 279.525 198.874C279.877 199.066 280.317 199.162 280.845 199.162C281.365 199.162 281.801 199.066 282.153 198.874C282.505 198.682 282.681 198.426 282.681 198.106V197.986C282.681 197.674 282.505 197.422 282.153 197.23C281.801 197.03 281.365 196.93 280.845 196.93C280.317 196.93 279.877 197.03 279.525 197.23C279.181 197.422 279.009 197.674 279.009 197.986V198.106ZM280.269 201.838H285.441V200.518H286.293V204.79H279.405V200.518H280.269V201.838ZM280.269 202.606V204.034H285.441V202.606H280.269ZM300.35 204.802V193.738H301.202V204.802H300.35ZM295.49 199.294C294.642 199.294 293.946 199.086 293.402 198.67C292.858 198.246 292.586 197.642 292.586 196.858V196.654C292.586 195.862 292.858 195.258 293.402 194.842C293.946 194.418 294.642 194.206 295.49 194.206C296.33 194.206 297.022 194.418 297.566 194.842C298.11 195.258 298.382 195.862 298.382 196.654V196.858C298.382 197.642 298.11 198.246 297.566 198.67C297.022 199.086 296.33 199.294 295.49 199.294ZM293.45 196.846C293.45 197.382 293.638 197.798 294.014 198.094C294.39 198.39 294.882 198.538 295.49 198.538C296.098 198.538 296.586 198.39 296.954 198.094C297.33 197.798 297.518 197.382 297.518 196.846V196.666C297.518 196.13 297.33 195.714 296.954 195.418C296.586 195.122 296.098 194.974 295.49 194.974C294.882 194.974 294.39 195.122 294.014 195.418C293.638 195.714 293.45 196.13 293.45 196.666V196.846ZM299.39 201.13C298.35 201.274 297.19 201.378 295.91 201.442C295.838 202.418 295.722 203.57 295.562 204.898L294.722 204.802C294.89 203.354 294.998 202.246 295.046 201.478C294.518 201.494 294.142 201.502 293.918 201.502H291.998L291.95 200.71H293.966C294.678 200.71 295.53 200.678 296.522 200.614C297.522 200.55 298.446 200.466 299.294 200.362L299.39 201.13ZM307.169 194.842H309.965V195.574H303.533V194.842H306.317V193.582H307.169V194.842ZM311.729 196.918V193.726H312.581V200.086H311.729V197.674H309.929V196.918H311.729ZM309.437 198.202C309.437 198.77 309.185 199.214 308.681 199.534C308.185 199.846 307.545 200.002 306.761 200.002C305.977 200.002 305.333 199.846 304.829 199.534C304.333 199.214 304.085 198.77 304.085 198.202V198.034C304.085 197.466 304.333 197.026 304.829 196.714C305.333 196.394 305.977 196.234 306.761 196.234C307.537 196.234 308.177 196.394 308.681 196.714C309.185 197.026 309.437 197.466 309.437 198.034V198.202ZM304.925 198.19C304.925 198.518 305.097 198.782 305.441 198.982C305.785 199.182 306.225 199.282 306.761 199.282C307.281 199.282 307.717 199.182 308.069 198.982C308.421 198.782 308.597 198.518 308.597 198.19V198.07C308.597 197.742 308.421 197.478 308.069 197.278C307.717 197.07 307.281 196.966 306.761 196.966C306.233 196.966 305.793 197.07 305.441 197.278C305.097 197.478 304.925 197.742 304.925 198.07V198.19ZM312.581 204.79H305.465V200.866H312.581V204.79ZM311.729 201.622H306.317V204.034H311.729V201.622ZM323.263 198.058V193.726H324.115V204.802H323.263V198.85H321.547V204.598H320.719V193.906H321.547V198.058H323.263ZM316.819 193.738H317.671V195.478H319.831V196.27H314.647V195.478H316.819V193.738ZM317.263 197.41C317.671 197.41 318.035 197.514 318.355 197.722C318.675 197.93 318.923 198.23 319.099 198.622C319.275 199.014 319.363 199.474 319.363 200.002V200.638C319.363 201.158 319.275 201.618 319.099 202.018C318.923 202.41 318.675 202.714 318.355 202.93C318.035 203.138 317.671 203.242 317.263 203.242C316.847 203.242 316.475 203.138 316.147 202.93C315.827 202.714 315.579 202.41 315.403 202.018C315.227 201.626 315.139 201.166 315.139 200.638V200.002C315.139 199.21 315.331 198.582 315.715 198.118C316.107 197.646 316.623 197.41 317.263 197.41ZM318.547 200.05C318.547 199.482 318.427 199.034 318.187 198.706C317.947 198.37 317.639 198.202 317.263 198.202C316.871 198.202 316.555 198.37 316.315 198.706C316.075 199.034 315.955 199.482 315.955 200.05V200.59C315.955 201.158 316.075 201.614 316.315 201.958C316.555 202.294 316.871 202.462 317.263 202.462C317.639 202.462 317.947 202.294 318.187 201.958C318.427 201.614 318.547 201.158 318.547 200.59V200.05Z" fill="#666666"/>
<path d="M237.382 225.982H235.846V217.69H237.382V225.982ZM231.13 224.302C230.538 224.302 230.01 224.19 229.546 223.966C229.082 223.734 228.714 223.39 228.442 222.934C228.17 222.47 228.034 221.898 228.034 221.218V221.038C228.034 220.358 228.17 219.786 228.442 219.322C228.714 218.85 229.082 218.502 229.546 218.278C230.01 218.046 230.538 217.93 231.13 217.93C231.714 217.93 232.238 218.046 232.702 218.278C233.166 218.502 233.53 218.846 233.794 219.31C234.066 219.774 234.202 220.35 234.202 221.038V221.218C234.202 221.898 234.066 222.47 233.794 222.934C233.53 223.39 233.166 223.734 232.702 223.966C232.238 224.19 231.714 224.302 231.13 224.302ZM231.13 222.958C231.578 222.958 231.946 222.81 232.234 222.514C232.53 222.21 232.678 221.774 232.678 221.206V221.038C232.678 220.462 232.53 220.026 232.234 219.73C231.946 219.426 231.578 219.274 231.13 219.274C230.674 219.274 230.298 219.426 230.002 219.73C229.714 220.026 229.57 220.462 229.57 221.038V221.206C229.57 221.782 229.714 222.218 230.002 222.514C230.298 222.81 230.674 222.958 231.13 222.958ZM237.802 228.898H229.774V225.226H231.31V227.506H237.802V228.898ZM245.089 224.638V226.714H249.601V228.118H239.041V226.714H243.553V224.638H240.097V223.258H241.777V219.766H240.097V218.386H248.557V219.766H246.877V223.258H248.557V224.638H245.089ZM245.389 219.766H243.265V223.258H245.389V219.766ZM257.776 218.662H260.296V219.934H253.708V218.662H256.228V217.57H257.776V218.662ZM260.212 222.154V220.846H261.58V217.69H263.116V226.09H261.58V222.154H260.212ZM259.84 222.694C259.84 223.366 259.576 223.886 259.048 224.254C258.52 224.622 257.844 224.806 257.02 224.806C256.196 224.806 255.516 224.622 254.98 224.254C254.452 223.886 254.188 223.366 254.188 222.694V222.538C254.188 221.874 254.452 221.358 254.98 220.99C255.516 220.622 256.196 220.438 257.02 220.438C257.844 220.438 258.52 220.622 259.048 220.99C259.576 221.358 259.84 221.874 259.84 222.538V222.694ZM255.688 222.682C255.688 222.946 255.812 223.154 256.06 223.306C256.308 223.458 256.628 223.534 257.02 223.534C257.404 223.534 257.72 223.458 257.968 223.306C258.224 223.154 258.352 222.946 258.352 222.682V222.55C258.352 222.294 258.224 222.09 257.968 221.938C257.72 221.786 257.404 221.71 257.02 221.71C256.636 221.71 256.316 221.786 256.06 221.938C255.812 222.09 255.688 222.294 255.688 222.55V222.682ZM257.044 225.622V227.506H263.536V228.898H255.508V225.622H257.044ZM272.959 221.854V217.69H274.495V228.898H272.959V223.258H271.351V221.854H272.959ZM267.859 225.97C269.107 225.97 270.387 225.866 271.699 225.658L271.879 226.978C270.623 227.226 269.195 227.35 267.595 227.35H265.327V218.458H270.943V219.838H266.851V222.166H270.835V223.51H266.851V225.97H267.859Z" fill="black"/>
<path d="M51.3157 25.624H54.6277V27.224H45.9237V25.624H49.2517V24.424H51.3157V25.624ZM58.1637 24.584V29.512H60.1637V31.384H58.1637V36.184H56.1157V24.584H58.1637ZM55.2517 34.728C54.1637 34.8773 52.9637 34.9947 51.6517 35.08C50.3503 35.1653 49.145 35.208 48.0357 35.208H45.7477L45.6517 33.576H48.2277C48.7077 33.576 49.081 33.5707 49.3477 33.56V32.504C48.4943 32.408 47.817 32.168 47.3157 31.784C46.8143 31.4 46.5637 30.888 46.5637 30.248V30.072C46.5637 29.3147 46.9103 28.7387 47.6037 28.344C48.297 27.9493 49.1983 27.752 50.3077 27.752C51.4063 27.752 52.297 27.9493 52.9797 28.344C53.673 28.7387 54.0197 29.3147 54.0197 30.072V30.248C54.0197 30.8667 53.7797 31.368 53.2997 31.752C52.8303 32.1253 52.1957 32.3707 51.3957 32.488V33.464C52.9423 33.3573 54.169 33.2507 55.0757 33.144L55.2517 34.728ZM48.6117 30.216C48.6117 30.4507 48.7717 30.6373 49.0917 30.776C49.4117 30.9147 49.817 30.984 50.3077 30.984C50.7877 30.984 51.1823 30.9147 51.4917 30.776C51.8117 30.6373 51.9717 30.4507 51.9717 30.216V30.104C51.9717 29.8693 51.8117 29.6827 51.4917 29.544C51.1823 29.4053 50.7877 29.336 50.3077 29.336C49.817 29.336 49.4117 29.4053 49.0917 29.544C48.7717 29.6827 48.6117 29.8693 48.6117 30.104V30.216ZM48.1797 35.944H50.2117V37.736H58.8677V39.528H48.1797V35.944ZM73.1755 24.6V27.512H75.3355V29.352H73.1755V32.728H71.1275V24.6H73.1755ZM65.1595 29.944C64.4022 30.9893 63.2929 31.9333 61.8315 32.776L60.7435 31.16C62.0342 30.392 62.9622 29.5867 63.5275 28.744C64.0929 27.9013 64.3755 26.9893 64.3755 26.008V25.032H66.3755V26.008C66.3755 26.7973 66.2635 27.5387 66.0395 28.232L69.9435 30.872L68.8555 32.456L65.1595 29.944ZM69.9115 33.384C70.6155 33.384 71.2395 33.5173 71.7835 33.784C72.3275 34.04 72.7489 34.408 73.0475 34.888C73.3569 35.368 73.5115 35.9173 73.5115 36.536C73.5115 37.1653 73.3569 37.7147 73.0475 38.184C72.7489 38.664 72.3275 39.032 71.7835 39.288C71.2395 39.5547 70.6155 39.688 69.9115 39.688H66.6315C65.9275 39.688 65.3035 39.5547 64.7595 39.288C64.2155 39.032 63.7889 38.664 63.4795 38.184C63.1809 37.7147 63.0315 37.1653 63.0315 36.536C63.0315 35.9173 63.1809 35.368 63.4795 34.888C63.7889 34.408 64.2155 34.04 64.7595 33.784C65.3142 33.5173 65.9382 33.384 66.6315 33.384H69.9115ZM69.6075 37.864C70.2049 37.864 70.6635 37.7413 70.9835 37.496C71.3035 37.2613 71.4635 36.936 71.4635 36.52C71.4635 36.1147 71.3035 35.7947 70.9835 35.56C70.6635 35.3147 70.2049 35.192 69.6075 35.192H66.9195C66.3222 35.192 65.8635 35.3147 65.5435 35.56C65.2342 35.7947 65.0795 36.1147 65.0795 36.52C65.0795 36.936 65.2342 37.2613 65.5435 37.496C65.8635 37.7413 66.3222 37.864 66.9195 37.864H69.6075ZM89.1954 39.528H87.1474V24.584H89.1954V39.528ZM81.1314 33.592C80.3421 33.592 79.6327 33.4427 79.0034 33.144C78.3847 32.8453 77.8941 32.392 77.5314 31.784C77.1687 31.176 76.9874 30.4293 76.9874 29.544V29.288C76.9874 28.392 77.1687 27.64 77.5314 27.032C77.8941 26.424 78.3847 25.9707 79.0034 25.672C79.6327 25.3733 80.3421 25.224 81.1314 25.224C81.9101 25.224 82.6087 25.3733 83.2274 25.672C83.8461 25.9707 84.3367 26.424 84.6994 27.032C85.0621 27.64 85.2434 28.392 85.2434 29.288V29.544C85.2434 30.4293 85.0621 31.176 84.6994 31.784C84.3367 32.392 83.8461 32.8453 83.2274 33.144C82.6087 33.4427 81.9101 33.592 81.1314 33.592ZM81.1314 31.736C81.7287 31.736 82.2194 31.5493 82.6034 31.176C82.9981 30.792 83.1954 30.2373 83.1954 29.512V29.288C83.1954 28.5627 82.9981 28.0133 82.6034 27.64C82.2194 27.256 81.7287 27.064 81.1314 27.064C80.5234 27.064 80.0221 27.256 79.6274 27.64C79.2434 28.0133 79.0514 28.5627 79.0514 29.288V29.512C79.0514 30.2373 79.2434 30.792 79.6274 31.176C80.0221 31.5493 80.5234 31.736 81.1314 31.736ZM76.4754 37.336L76.3794 35.48H79.0674C79.9847 35.48 81.0887 35.4427 82.3794 35.368C83.6807 35.2827 84.9074 35.1707 86.0594 35.032L86.2994 36.856C85.1901 37.016 83.9687 37.1333 82.6354 37.208C81.3021 37.2933 80.0487 37.336 78.8754 37.336H76.4754ZM106.608 29.992V24.584H108.592V39.528H106.608V31.848H105.12V39.176H103.184V24.824H105.12V29.992H106.608ZM99.888 28.664C99.8667 29.752 99.7654 30.7067 99.584 31.528L102.816 36.184L101.232 37.384L98.848 33.912C98.3254 35.1493 97.5947 36.3547 96.656 37.528L95.152 36.328C96.1227 35.0693 96.8214 33.8267 97.248 32.6C97.6854 31.3733 97.9147 30.0613 97.936 28.664H95.648V26.808H97.952V24.6H99.92V26.808H102.336V28.664H99.888ZM121.46 30.136V24.584H123.508V39.528H121.46V32.008H119.316V30.136H121.46ZM114.66 35.624C116.324 35.624 118.031 35.4853 119.78 35.208L120.02 36.968C118.345 37.2987 116.441 37.464 114.308 37.464H111.284V25.608H118.772V27.448H113.316V30.552H118.628V32.344H113.316V35.624H114.66Z" fill="#0455BE"/>
<g clip-path="url(#clip1_6572_26850)">
<path d="M85.6342 116.964C85.341 116.964 85.0845 116.756 85.0357 116.456C84.9929 116.204 83.9975 110.321 86.0616 107.986C86.6784 107.281 87.4968 106.95 88.4677 106.999C90.1838 107.116 90.7517 108.139 90.9349 108.734C91.3013 109.917 90.8128 111.461 90.141 112C89.8784 112.215 89.4937 112.166 89.28 111.902C89.0723 111.639 89.1151 111.253 89.3777 111.038C89.6097 110.854 90.0128 109.88 89.7685 109.095C89.6036 108.556 89.1517 108.268 88.3945 108.219C87.8082 108.188 87.3319 108.372 86.9716 108.789C85.5853 110.358 85.97 114.697 86.2326 116.235C86.2876 116.566 86.0677 116.885 85.738 116.946C85.7013 116.946 85.6647 116.952 85.6342 116.952V116.964Z" fill="#CCAB62"/>
<path d="M68.9144 132.564V160.143V162.043C68.9144 162.729 68.719 163.409 68.3587 163.991L62.7892 172.939C61.8976 174.367 63.235 176.144 64.8472 175.679L70.7648 173.981C71.7175 173.705 72.7312 173.84 73.5923 174.33C75.3999 175.36 79.2839 176.996 85.7083 176.996C94.8808 176.996 102.502 169.452 102.502 160.143V132.564C102.502 123.255 94.9846 115.711 85.7083 115.711C76.432 115.711 68.9144 123.255 68.9144 132.564Z" fill="#FFDA79"/>
<path d="M78.4156 144.944C78.817 144.944 79.1423 144.617 79.1423 144.215C79.1423 143.812 78.817 143.485 78.4156 143.485C78.0143 143.485 77.6889 143.812 77.6889 144.215C77.6889 144.617 78.0143 144.944 78.4156 144.944Z" fill="#997F4A"/>
<path d="M78.6391 139.623H78.1933C77.5761 139.623 77.0757 140.125 77.0757 140.745C77.0757 141.364 77.5761 141.866 78.1933 141.866H78.6391C79.2563 141.866 79.7567 141.364 79.7567 140.745C79.7567 140.125 79.2563 139.623 78.6391 139.623Z" fill="#997F4A"/>
<path d="M86.6474 142.043C86.6474 142.043 86.6351 142.043 86.6229 142.043L81.2061 141.657C81.0351 141.644 80.913 141.497 80.9252 141.332C80.9374 141.16 81.1023 141.038 81.2489 141.05L86.6657 141.436C86.8367 141.448 86.9588 141.595 86.9466 141.761C86.9344 141.92 86.8 142.043 86.6412 142.043H86.6474Z" fill="#997F4A"/>
<path d="M71.7946 142.25C71.648 142.25 71.5137 142.14 71.4954 141.993C71.4709 141.827 71.587 141.668 71.7519 141.643L75.6358 141.049C75.8007 141.024 75.9595 141.141 75.9839 141.306C76.0084 141.472 75.8923 141.631 75.7274 141.656L71.8435 142.25C71.8435 142.25 71.8129 142.25 71.7946 142.25Z" fill="#997F4A"/>
<path d="M81.6084 133.524H81.6023C80.7996 133.524 80.1489 134.177 80.1489 134.982V136.079C80.1489 136.885 80.7996 137.538 81.6023 137.538H81.6084C82.4111 137.538 83.0618 136.885 83.0618 136.079V134.982C83.0618 134.177 82.4111 133.524 81.6084 133.524Z" fill="#997F4A"/>
<path d="M75.6821 133.524H75.676C74.8733 133.524 74.2226 134.177 74.2226 134.982V136.079C74.2226 136.885 74.8733 137.538 75.676 137.538H75.6821C76.4848 137.538 77.1356 136.885 77.1356 136.079V134.982C77.1356 134.177 76.4848 133.524 75.6821 133.524Z" fill="#997F4A"/>
<path d="M74.3005 139.53C72.102 139.53 70.3127 137.569 70.3127 135.16C70.3127 132.752 72.102 130.791 74.3005 130.791C76.4989 130.791 78.2883 132.752 78.2883 135.16C78.2883 137.569 76.4989 139.53 74.3005 139.53ZM74.3005 131.281C72.3707 131.281 70.8012 133.022 70.8012 135.16C70.8012 137.299 72.3707 139.04 74.3005 139.04C76.2302 139.04 77.7997 137.299 77.7997 135.16C77.7997 133.022 76.2302 131.281 74.3005 131.281Z" fill="#CCAB62"/>
<path d="M82.8698 139.53C80.6164 139.53 78.7782 137.569 78.7782 135.16C78.7782 132.752 80.6103 130.791 82.8698 130.791C85.1293 130.791 86.9614 132.752 86.9614 135.16C86.9614 137.569 85.1293 139.53 82.8698 139.53ZM82.8698 131.281C80.8851 131.281 79.2667 133.022 79.2667 135.16C79.2667 137.299 80.879 139.04 82.8698 139.04C84.8606 139.04 86.4729 137.299 86.4729 135.16C86.4729 133.022 84.8545 131.281 82.8698 131.281Z" fill="#CCAB62"/>
<path d="M78.909 135.178H78.1578V135.668H78.909V135.178Z" fill="#CCAB62"/>
<path d="M81.2263 140.542C81.0614 140.542 80.9271 140.414 80.921 140.248C80.9149 140.077 81.0431 139.936 81.208 139.93L86.6309 139.66C86.8019 139.648 86.9424 139.783 86.9485 139.954C86.9546 140.126 86.8263 140.267 86.6614 140.273L81.2385 140.542H81.2263Z" fill="#997F4A"/>
<path d="M75.7096 140.668C75.7096 140.668 75.6851 140.668 75.6668 140.668L71.7218 140.141C71.5569 140.117 71.4347 139.963 71.4592 139.798C71.4836 139.632 71.6363 139.516 71.8012 139.534L75.7462 140.061C75.9111 140.086 76.0332 140.239 76.0088 140.405C75.9905 140.558 75.8561 140.668 75.7096 140.668Z" fill="#997F4A"/>
</g>
<path d="M28.8753 193.724H29.7273V199.148H28.8753V193.724ZM20.9673 194.264H26.2713V198.644H20.9673V194.264ZM21.8073 197.888H25.4313V195.02H21.8073V197.888ZM23.4753 202.736V204.104H30.1113V204.86H22.6113V199.94H29.7273V200.672H23.4753V201.992H29.7273V202.736H23.4753ZM32.6942 197.036C33.9502 196.764 34.9062 196.424 35.5622 196.016C36.2262 195.608 36.5662 195.16 36.5822 194.672H33.2582V193.94H40.6142V194.672H37.4342C37.4182 195.032 37.3262 195.356 37.1582 195.644L41.1662 197.048L40.8782 197.756L36.6182 196.268C35.8822 196.884 34.6462 197.38 32.9102 197.756L32.6942 197.036ZM42.1142 198.284V199.016H37.3622V200.156H40.7822V202.844H33.9422V204.128H41.0822V204.86H33.0902V202.124H39.9182V200.888H33.0302V200.156H36.5102V199.016H31.7462V198.284H42.1142ZM56.4111 198.356V199.136H46.0431V198.356H53.5911C53.7031 197.732 53.7911 197.112 53.8551 196.496C53.9271 195.872 53.9631 195.372 53.9631 194.996V194.9H47.3511V194.12H54.8151V194.816C54.8151 195.84 54.6951 197.02 54.4551 198.356H56.4111ZM51.7191 200.96C51.7191 201.384 51.6071 201.788 51.3831 202.172L55.6551 204.116L55.2951 204.86L50.9031 202.82C50.1271 203.652 48.8711 204.352 47.1351 204.92L46.8351 204.176C48.0591 203.76 49.0351 203.28 49.7631 202.736C50.4911 202.184 50.8551 201.592 50.8551 200.96V200.372H51.7191V200.96ZM59.726 197.54H66.434V198.332H58.874V194H59.726V197.54ZM67.79 200.54H57.422V199.748H67.79V200.54ZM66.638 204.8H58.874V201.584H59.726V204.008H66.638V204.8ZM76.6148 196.436C75.9028 197.244 74.6788 197.944 72.9428 198.536L72.6428 197.78C73.9308 197.34 74.9028 196.848 75.5588 196.304C76.2148 195.752 76.5428 195.152 76.5428 194.504V193.88H77.3828V194.504C77.3828 194.952 77.2828 195.372 77.0828 195.764L81.1508 197.816L80.7788 198.536L76.6148 196.436ZM71.7188 200.408V199.616H82.0868V200.408H77.3348V202.664H76.4828V200.408H71.7188ZM73.1228 201.584H73.9868V204.008H80.9348V204.8H73.1228V201.584ZM91.8458 193.724V196.664H93.6818V197.456H91.8458V202.136H90.9818V193.724H91.8458ZM88.6298 195.032C88.6298 196.208 88.2018 197.256 87.3458 198.176C86.4898 199.088 85.2778 199.856 83.7098 200.48L83.3378 199.748C84.7138 199.204 85.7978 198.532 86.5898 197.732C87.3818 196.932 87.7778 196.096 87.7778 195.224H83.5298V194.444H88.6298V195.032ZM84.9458 201.26H85.8098V204.008H92.4698V204.8H84.9458V201.26ZM95.4367 206.264H94.7287L94.9807 203.084H95.8447L95.4367 206.264ZM108.873 196.208H110.709V196.988H108.873V199.724H108.009V193.724H108.873V196.208ZM105.657 194.912C105.657 196 105.225 196.944 104.361 197.744C103.505 198.544 102.285 199.204 100.701 199.724L100.365 198.98C101.717 198.548 102.789 197.996 103.581 197.324C104.373 196.644 104.781 195.924 104.805 195.164H100.557V194.384H105.657V194.912ZM108.873 204.8H101.973V200.516H108.873V204.8ZM108.009 201.284H102.837V204.02H108.009V201.284ZM120.852 199.784H120V196.724H117.384V195.956H120V193.736H120.852V199.784ZM114.768 197.276C114.224 198.156 113.324 198.96 112.068 199.688L111.624 198.992C112.616 198.408 113.356 197.784 113.844 197.12C114.34 196.448 114.588 195.688 114.588 194.84V194.12H115.44V194.84C115.44 195.456 115.34 196.024 115.14 196.544L118.38 198.836L117.924 199.52L114.768 197.276ZM118.428 200.456C118.956 200.456 119.416 200.556 119.808 200.756C120.2 200.948 120.5 201.216 120.708 201.56C120.916 201.896 121.02 202.272 121.02 202.688C121.02 203.112 120.916 203.492 120.708 203.828C120.5 204.164 120.2 204.428 119.808 204.62C119.416 204.812 118.956 204.908 118.428 204.908H116.1C115.572 204.908 115.112 204.812 114.72 204.62C114.328 204.428 114.028 204.164 113.82 203.828C113.612 203.492 113.508 203.112 113.508 202.688C113.508 202.272 113.612 201.896 113.82 201.56C114.028 201.216 114.328 200.948 114.72 200.756C115.112 200.556 115.572 200.456 116.1 200.456H118.428ZM118.26 204.14C118.876 204.14 119.344 204.004 119.664 203.732C119.992 203.468 120.156 203.116 120.156 202.676C120.156 202.252 119.992 201.904 119.664 201.632C119.344 201.36 118.876 201.224 118.26 201.224H116.268C115.652 201.224 115.18 201.36 114.852 201.632C114.524 201.904 114.36 202.252 114.36 202.676C114.36 203.116 114.524 203.468 114.852 203.732C115.18 204.004 115.652 204.14 116.268 204.14H118.26ZM128.499 198.224V199.508H133.251V200.276H122.883V199.508H127.647V198.224H124.167V197.48H125.883V194.744H124.167V194H131.979V194.744H130.251V197.48H131.979V198.224H128.499ZM129.411 194.744H126.723V197.48H129.411V194.744ZM131.055 202.328H124.227V201.56H131.919V204.92H131.055V202.328ZM143.01 193.724V195.968H144.846V196.76H143.01V199.208H142.146V193.724H143.01ZM138.87 194.204H139.71V198.764H134.526V194.204H135.366V195.692H138.87V194.204ZM135.366 196.448V198.008H138.87V196.448H135.366ZM143.01 202.76H136.974V204.104H143.466V204.86H136.11V202.028H142.146V200.732H136.05V199.988H143.01V202.76Z" fill="#666666"/>
<path d="M49.2013 219.872H50.8213V221.264H49.2013V223.736H47.6653V217.688H49.2013V219.872ZM45.9133 218.9C45.9133 220.14 45.4733 221.164 44.5933 221.972C43.7213 222.772 42.4453 223.416 40.7653 223.904L40.1653 222.536C41.4053 222.192 42.3773 221.764 43.0813 221.252C43.7933 220.74 44.2093 220.196 44.3293 219.62H40.5013V218.228H45.9133V218.9ZM49.2013 228.896H41.8213V224.348H49.2013V228.896ZM47.6653 225.704H43.3573V227.528H47.6653V225.704ZM61.2042 223.796H59.6682V220.928H57.4722V219.572H59.6682V217.7H61.2042V223.796ZM54.8922 221.708C54.3402 222.476 53.5122 223.184 52.4082 223.832L51.5802 222.62C52.5482 222.044 53.2442 221.44 53.6682 220.808C54.1002 220.176 54.3162 219.492 54.3162 218.756V218.024H55.8162V218.756C55.8162 219.364 55.7282 219.92 55.5522 220.424L58.4922 222.464L57.6642 223.652L54.8922 221.708ZM58.6122 224.288C59.1402 224.288 59.6122 224.388 60.0282 224.588C60.4442 224.78 60.7642 225.056 60.9882 225.416C61.2202 225.776 61.3362 226.188 61.3362 226.652C61.3362 227.124 61.2202 227.536 60.9882 227.888C60.7642 228.248 60.4442 228.524 60.0282 228.716C59.6202 228.916 59.1482 229.016 58.6122 229.016H56.0682C55.5402 229.016 55.0682 228.916 54.6522 228.716C54.2442 228.524 53.9242 228.248 53.6922 227.888C53.4682 227.536 53.3562 227.124 53.3562 226.652C53.3562 226.188 53.4682 225.776 53.6922 225.416C53.9242 225.056 54.2442 224.78 54.6522 224.588C55.0682 224.388 55.5402 224.288 56.0682 224.288H58.6122ZM58.3962 227.648C58.8442 227.648 59.1882 227.556 59.4282 227.372C59.6762 227.188 59.8002 226.944 59.8002 226.64C59.8002 226.336 59.6762 226.096 59.4282 225.92C59.1882 225.736 58.8442 225.644 58.3962 225.644H56.2842C55.8362 225.644 55.4922 225.736 55.2522 225.92C55.0122 226.096 54.8922 226.336 54.8922 226.64C54.8922 226.952 55.0122 227.196 55.2522 227.372C55.4922 227.556 55.8362 227.648 56.2842 227.648H58.3962ZM74.3116 217.688H75.7636V223.148H74.3116V217.688ZM73.3516 223.148H71.9356V220.688H70.3636V219.344H71.9356V217.808H73.3516V223.148ZM70.5316 223.076L68.5156 221.504C68.0676 222.176 67.4356 222.78 66.6196 223.316L65.7556 222.176C66.4996 221.672 67.0396 221.116 67.3756 220.508C67.7116 219.9 67.8796 219.264 67.8796 218.6V217.976H69.3436V218.6C69.3436 219.176 69.2716 219.712 69.1276 220.208L71.3956 221.972L70.5316 223.076ZM69.5956 226.928V227.672H76.1116V228.956H68.0596V225.692H74.2396V225.008H67.9996V223.76H75.7636V226.928H69.5956ZM85.4025 228.896V217.688H86.9385V228.896H85.4025ZM83.2185 225.488C83.5545 225.456 83.9945 225.4 84.5385 225.32L84.7185 226.7C83.8465 226.836 82.9185 226.94 81.9345 227.012C80.9585 227.084 80.0385 227.12 79.1745 227.12H77.4705L77.3865 225.716H78.6225V219.86H77.5545V218.456H84.2745V219.86H83.2185V225.488ZM81.7185 219.86H80.1105V225.704C80.6865 225.688 81.2225 225.66 81.7185 225.62V219.86ZM97.622 221.984V222.968H102.134V224.276H91.574V222.968H96.086V221.984H92.918V217.904H100.682V219.176H94.454V220.712H100.802V221.984H97.622ZM99.374 226.628H92.81V225.212H100.91V229.016H99.374V226.628ZM111.137 221.384V217.688H112.673V228.896H111.137V222.788H108.701V221.384H111.137ZM107.249 219.848C107.249 220.736 107.145 221.604 106.937 222.452L110.081 226.316L108.941 227.288L106.349 224.12C105.829 225.248 105.049 226.34 104.009 227.396L102.929 226.388C103.913 225.388 104.629 224.368 105.077 223.328C105.525 222.28 105.749 221.12 105.749 219.848V218.312H107.249V219.848ZM123.428 221.744H125.048V223.136H123.428V228.896H121.892V217.688H123.428V221.744ZM114.728 219.92V218.516H120.14V219.62C120.14 221.196 119.728 222.664 118.904 224.024C118.088 225.376 116.904 226.576 115.352 227.624L114.404 226.424C115.332 225.816 116.108 225.144 116.732 224.408C117.364 223.672 117.832 222.924 118.136 222.164C118.44 221.396 118.592 220.648 118.592 219.92H114.728Z" fill="black"/>
<mask id="path-35-inside-1_6572_26850" fill="white">
<path d="M171 1V253H165V1H171Z"/>
</mask>
<path d="M171 1V253H165V1H171Z" fill="#FFFBF0"/>
<path d="M170 1V253H172V1H170ZM166 253V1H164V253H166Z" fill="#E6E6E6" mask="url(#path-35-inside-1_6572_26850)"/>
<rect x="160.375" y="50.3746" width="15.2507" height="4.25074" rx="2.12537" fill="white"/>
<rect x="160.375" y="50.3746" width="15.2507" height="4.25074" rx="2.12537" stroke="#E6E6E6" stroke-width="0.749263"/>
<rect x="160.375" y="101.375" width="15.2507" height="3.25074" rx="1.62537" fill="white"/>
<rect x="160.375" y="101.375" width="15.2507" height="3.25074" rx="1.62537" stroke="#E6E6E6" stroke-width="0.749263"/>
<rect x="160.375" y="151.375" width="15.2507" height="3.25074" rx="1.62537" fill="white"/>
<rect x="160.375" y="151.375" width="15.2507" height="3.25074" rx="1.62537" stroke="#E6E6E6" stroke-width="0.749263"/>
<rect x="160.375" y="201.375" width="15.2507" height="4.25074" rx="2.12537" fill="white"/>
<rect x="160.375" y="201.375" width="15.2507" height="4.25074" rx="2.12537" stroke="#E6E6E6" stroke-width="0.749263"/>
<defs>
<clipPath id="clip0_6572_26850">
<rect width="40" height="120" fill="white" transform="translate(231.5 57.002)"/>
</clipPath>
<clipPath id="clip1_6572_26850">
<rect width="40" height="70" fill="white" transform="translate(62.5 107)"/>
</clipPath>
</defs>
</svg>
