<svg width="335" height="302" viewBox="0 0 335 302" fill="none" xmlns="http://www.w3.org/2000/svg">
<path d="M1 228.319L1.00001 25.7531C1.00001 12.6346 11.6347 2 24.7532 2L310.247 2.00001C323.365 2.00001 334 12.6347 334 25.7532L334 291.533C334 294.196 330.685 295.421 328.954 293.397L294.579 253.234C293.949 252.497 293.027 252.073 292.057 252.073L251.25 252.073L167.5 252.073L24.7532 252.073C11.6347 252.073 1 241.438 1 228.319Z" fill="white" stroke="#E6E6E6" stroke-width="2"/>
<path d="M210.968 25.624H214.28V27.224H205.576V25.624H208.904V24.424H210.968V25.624ZM217.816 24.584V29.512H219.816V31.384H217.816V36.184H215.768V24.584H217.816ZM214.904 34.728C213.816 34.8773 212.616 34.9947 211.304 35.08C210.003 35.1653 208.797 35.208 207.688 35.208H205.4L205.304 33.576H207.88C208.36 33.576 208.733 33.5707 209 33.56V32.504C208.147 32.408 207.469 32.168 206.968 31.784C206.467 31.4 206.216 30.888 206.216 30.248V30.072C206.216 29.3147 206.563 28.7387 207.256 28.344C207.949 27.9493 208.851 27.752 209.96 27.752C211.059 27.752 211.949 27.9493 212.632 28.344C213.325 28.7387 213.672 29.3147 213.672 30.072V30.248C213.672 30.8667 213.432 31.368 212.952 31.752C212.483 32.1253 211.848 32.3707 211.048 32.488V33.464C212.595 33.3573 213.821 33.2507 214.728 33.144L214.904 34.728ZM208.264 30.216C208.264 30.4507 208.424 30.6373 208.744 30.776C209.064 30.9147 209.469 30.984 209.96 30.984C210.44 30.984 210.835 30.9147 211.144 30.776C211.464 30.6373 211.624 30.4507 211.624 30.216V30.104C211.624 29.8693 211.464 29.6827 211.144 29.544C210.835 29.4053 210.44 29.336 209.96 29.336C209.469 29.336 209.064 29.4053 208.744 29.544C208.424 29.6827 208.264 29.8693 208.264 30.104V30.216ZM207.832 35.944H209.864V37.736H218.52V39.528H207.832V35.944ZM232.828 24.6V27.512H234.988V29.352H232.828V32.728H230.796V24.6H232.828ZM224.844 30.28C224.108 31.2507 222.935 32.1413 221.324 32.952L220.38 31.304C221.596 30.664 222.487 29.9973 223.052 29.304C223.628 28.6107 223.943 27.848 223.996 27.016H220.956V25.224H229.068V27.016H225.98C225.969 27.5813 225.879 28.12 225.708 28.632L229.628 30.952L228.62 32.632L224.844 30.28ZM229.564 33.384C230.268 33.384 230.892 33.5173 231.436 33.784C231.98 34.04 232.401 34.408 232.7 34.888C233.009 35.368 233.164 35.9173 233.164 36.536C233.164 37.1653 233.009 37.7147 232.7 38.184C232.401 38.664 231.98 39.032 231.436 39.288C230.892 39.5547 230.268 39.688 229.564 39.688H226.284C225.58 39.688 224.956 39.5547 224.412 39.288C223.868 39.032 223.441 38.664 223.132 38.184C222.833 37.7147 222.684 37.1653 222.684 36.536C222.684 35.9173 222.833 35.368 223.132 34.888C223.441 34.408 223.868 34.04 224.412 33.784C224.967 33.5173 225.591 33.384 226.284 33.384H229.564ZM229.26 37.864C229.857 37.864 230.316 37.7413 230.636 37.496C230.956 37.2613 231.116 36.936 231.116 36.52C231.116 36.1147 230.956 35.7947 230.636 35.56C230.316 35.3147 229.857 35.192 229.26 35.192H226.572C225.975 35.192 225.516 35.3147 225.196 35.56C224.887 35.7947 224.732 36.1147 224.732 36.52C224.732 36.936 224.887 37.2613 225.196 37.496C225.516 37.7413 225.975 37.864 226.572 37.864H229.26ZM248 29.992H250.176V31.848H248V39.528H245.968V24.584H248V29.992ZM239.248 24.6H241.312V26.632H244.672V28.456H235.888V26.632H239.248V24.6ZM240.288 29.592C240.992 29.592 241.626 29.7413 242.192 30.04C242.768 30.328 243.216 30.744 243.536 31.288C243.866 31.8213 244.032 32.44 244.032 33.144V34.024C244.032 34.728 243.866 35.352 243.536 35.896C243.216 36.4293 242.768 36.8453 242.192 37.144C241.626 37.4427 240.992 37.592 240.288 37.592C239.594 37.592 238.96 37.4427 238.384 37.144C237.808 36.8453 237.354 36.4293 237.024 35.896C236.693 35.352 236.528 34.728 236.528 34.024V33.144C236.528 32.44 236.693 31.8213 237.024 31.288C237.354 30.744 237.802 30.328 238.368 30.04C238.944 29.7413 239.584 29.592 240.288 29.592ZM242 33.224C242 32.6587 241.84 32.216 241.52 31.896C241.2 31.576 240.789 31.416 240.288 31.416C239.797 31.416 239.386 31.576 239.056 31.896C238.736 32.216 238.576 32.6587 238.576 33.224V33.944C238.576 34.5093 238.736 34.9573 239.056 35.288C239.386 35.608 239.797 35.768 240.288 35.768C240.778 35.768 241.184 35.608 241.504 35.288C241.834 34.9573 242 34.5093 242 33.944V33.224ZM254.9 29.032H263.396V30.888H252.852V24.888H254.9V29.032ZM265.14 34.088H251.06V32.232H265.14V34.088ZM263.748 39.528H252.852V35.208H254.9V37.624H263.748V39.528ZM281.432 29.992V24.584H283.416V39.528H281.432V31.848H279.944V39.176H278.008V24.824H279.944V29.992H281.432ZM274.712 28.664C274.691 29.752 274.59 30.7067 274.408 31.528L277.64 36.184L276.056 37.384L273.672 33.912C273.15 35.1493 272.419 36.3547 271.48 37.528L269.976 36.328C270.947 35.0693 271.646 33.8267 272.072 32.6C272.51 31.3733 272.739 30.0613 272.76 28.664H270.472V26.808H272.776V24.6H274.744V26.808H277.16V28.664H274.712ZM296.284 30.136V24.584H298.332V39.528H296.284V32.008H294.14V30.136H296.284ZM289.484 35.624C291.148 35.624 292.855 35.4853 294.604 35.208L294.844 36.968C293.169 37.2987 291.265 37.464 289.132 37.464H286.108V25.608H293.596V27.448H288.14V30.552H293.452V32.344H288.14V35.624H289.484Z" fill="#808080"/>
<g clip-path="url(#clip0_6600_30929)">
<path d="M250.443 103.691C250.286 103.691 250.129 103.629 250.021 103.512C250.003 103.493 247.835 101.405 243.82 101.497C243.488 101.497 243.21 101.239 243.204 100.894C243.198 100.549 243.457 100.271 243.796 100.265C247.279 100.179 249.513 101.547 250.419 102.243C253.209 99.717 257.634 100.783 257.834 100.832C258.16 100.912 258.353 101.245 258.274 101.577C258.196 101.91 257.864 102.113 257.544 102.027C257.502 102.015 253.154 100.974 250.896 103.487C250.787 103.61 250.63 103.684 250.467 103.684H250.455L250.443 103.691Z" fill="#4F8DC6"/>
<path d="M250.426 103.467C250.178 103.467 249.955 103.313 249.864 103.073C249.852 103.036 248.482 99.5303 245.771 98.8034C245.451 98.7171 245.257 98.3783 245.342 98.0518C245.426 97.7253 245.759 97.5281 246.079 97.6144C248.119 98.1627 249.49 99.8753 250.251 101.151C251.187 98.9759 253.318 98.0271 254.513 97.8177C254.846 97.7561 255.154 97.9902 255.208 98.3229C255.262 98.6555 255.045 98.9759 254.713 99.0313C254.574 99.056 251.38 99.6659 251.024 102.919C250.993 103.202 250.776 103.424 250.504 103.461C250.48 103.461 250.45 103.461 250.426 103.461V103.467Z" fill="#4F8DC6"/>
<path d="M250.428 103.467C250.15 103.467 249.897 103.27 249.837 102.981C248.87 98.3541 251.189 96.241 251.292 96.1548C251.545 95.933 251.926 95.9576 252.143 96.2164C252.36 96.4751 252.336 96.8571 252.083 97.085C252.004 97.1589 250.211 98.8531 251.02 102.728C251.086 103.061 250.881 103.387 250.555 103.461C250.513 103.474 250.471 103.474 250.428 103.474V103.467Z" fill="#4F8DC6"/>
<path d="M268.254 119.017C267.517 118.869 266.974 118.234 266.859 117.47C265.657 109.32 258.768 103.067 250.448 103.067C241.276 103.067 233.844 110.651 233.844 120.009V160.059V161.969C233.844 162.659 233.65 163.342 233.294 163.928L227.788 172.922C226.906 174.358 228.228 176.144 229.822 175.676L235.673 173.969C236.615 173.692 237.617 173.828 238.469 174.321C240.256 175.356 244.096 177.001 250.448 177.001C256.389 177.001 261.666 173.748 264.607 168.868C264.909 168.369 265.446 168.074 266.02 168.074C272.359 168.074 277.504 162.831 277.504 156.362V130.5C277.504 124.814 273.525 120.076 268.254 119.017Z" fill="#5FA3FC"/>
<path d="M242.453 128.523H242.012C241.402 128.523 240.907 129.028 240.907 129.651C240.907 130.273 241.402 130.778 242.012 130.778H242.453C243.063 130.778 243.558 130.273 243.558 129.651C243.558 129.028 243.063 128.523 242.453 128.523Z" fill="#3C6899"/>
<path d="M245.015 129.055C244.858 129.055 244.725 128.931 244.713 128.771C244.701 128.599 244.822 128.451 244.991 128.439L250.346 128.007C250.497 127.995 250.66 128.118 250.672 128.291C250.684 128.463 250.564 128.611 250.395 128.623L245.039 129.055C245.039 129.055 245.021 129.055 245.015 129.055Z" fill="#3C6899"/>
<path d="M250.371 130.963C250.371 130.963 250.358 130.963 250.346 130.963L244.991 130.575C244.822 130.563 244.701 130.415 244.713 130.248C244.725 130.076 244.888 129.953 245.033 129.965L250.389 130.353C250.558 130.365 250.678 130.513 250.666 130.68C250.654 130.84 250.521 130.963 250.364 130.963H250.371Z" fill="#3C6899"/>
<path d="M239.526 129.054C239.526 129.054 239.484 129.054 239.46 129.047L235.62 128.166C235.457 128.129 235.354 127.963 235.39 127.797C235.426 127.63 235.589 127.526 235.752 127.563L239.593 128.444C239.756 128.481 239.858 128.647 239.822 128.813C239.792 128.955 239.665 129.054 239.526 129.054Z" fill="#3C6899"/>
<path d="M235.689 131.175C235.544 131.175 235.411 131.064 235.393 130.916C235.369 130.75 235.484 130.59 235.647 130.565L239.487 129.967C239.65 129.943 239.807 130.06 239.831 130.226C239.855 130.392 239.741 130.553 239.578 130.577L235.737 131.175C235.737 131.175 235.707 131.175 235.689 131.175Z" fill="#3C6899"/>
<path d="M245.561 122.76L245.555 122.76C244.765 122.689 244.068 123.286 243.999 124.093L243.904 125.191C243.835 125.998 244.42 126.709 245.211 126.78L245.217 126.78C246.007 126.851 246.704 126.254 246.773 125.447L246.868 124.349C246.937 123.542 246.352 122.831 245.561 122.76Z" fill="#3C6899"/>
<path d="M239.363 122.762L239.357 122.763C238.567 122.833 237.982 123.544 238.051 124.351L238.145 125.45C238.214 126.256 238.911 126.853 239.702 126.783L239.708 126.782C240.499 126.711 241.083 126 241.014 125.194L240.92 124.095C240.851 123.288 240.154 122.692 239.363 122.762Z" fill="#3C6899"/>
<path d="M242.231 133.525C240.553 133.525 240.154 132.922 240.094 132.798C240.016 132.65 240.07 132.459 240.221 132.379C240.366 132.299 240.553 132.355 240.631 132.509C240.631 132.509 240.933 132.909 242.237 132.909C243.542 132.909 243.85 132.496 243.85 132.496C243.928 132.349 244.109 132.293 244.254 132.373C244.399 132.453 244.453 132.644 244.375 132.798C244.315 132.922 243.91 133.525 242.237 133.525H242.231Z" fill="#3C6899"/>
<path d="M240.844 132.971C240.844 132.971 240.765 134.659 242.287 134.77C242.287 134.77 243.742 134.856 243.627 132.737C243.627 132.737 242.432 133.464 240.844 132.971Z" fill="#3C6899"/>
<path d="M269.229 153.432C270.527 127.594 268.003 119.844 267.538 118.667C267.285 118.464 267.079 118.187 266.959 117.873C267.085 120.208 268.468 148.103 264.737 168.679C264.894 168.488 265.087 168.334 265.298 168.23C265.509 168.125 265.745 168.07 265.992 168.063C268.969 166.462 269.229 153.432 269.229 153.432Z" fill="#4E87C6"/>
<path d="M273.924 126.624C275.15 130.672 274.92 138.52 274.461 149.16L275.065 149.184C275.524 138.477 275.753 130.585 274.497 126.439C273.411 122.854 272.161 121.006 271.201 120.057C270.687 119.792 270.144 119.564 269.589 119.379L269.54 119.675C269.54 119.675 271.968 120.205 273.918 126.624H273.924Z" fill="#4E87C6"/>
<path d="M272.487 152.872C274.546 152.86 276.695 151.979 277.492 151.615V150.938C277.136 151.11 274.709 152.244 272.487 152.256C271.648 152.256 270.978 152.921 270.959 153.759C270.802 161.263 269.903 166.419 268.538 167.769C268.852 167.695 269.166 167.615 269.474 167.516C271.074 164.775 271.473 157.961 271.563 153.772C271.575 153.273 271.98 152.878 272.487 152.872Z" fill="#4E87C6"/>
</g>
<path d="M197.768 193.724H198.632V199.556H197.768V193.724ZM195.296 194.9C195.296 195.972 194.852 196.9 193.964 197.684C193.084 198.468 191.828 199.108 190.196 199.604L189.896 198.86C191.272 198.452 192.364 197.92 193.172 197.264C193.98 196.608 194.4 195.908 194.432 195.164H190.076V194.384H195.296V194.9ZM197.192 201.104V204.02H199.028V204.8H191.036V204.02H192.884V201.104H191.156V200.336H198.92V201.104H197.192ZM196.352 201.104H193.724V204.02H196.352V201.104ZM205.055 198.38C204.087 198.38 203.323 198.184 202.763 197.792C202.203 197.392 201.923 196.836 201.923 196.124C201.923 195.42 202.203 194.872 202.763 194.48C203.323 194.08 204.087 193.88 205.055 193.88H206.591C207.567 193.88 208.335 194.08 208.895 194.48C209.455 194.872 209.735 195.42 209.735 196.124C209.735 196.836 209.455 197.392 208.895 197.792C208.335 198.184 207.567 198.38 206.591 198.38H205.055ZM206.459 197.624C207.219 197.624 207.811 197.492 208.235 197.228C208.659 196.956 208.871 196.592 208.871 196.136C208.871 195.672 208.659 195.308 208.235 195.044C207.819 194.78 207.227 194.648 206.459 194.648H205.199C204.423 194.648 203.823 194.78 203.399 195.044C202.983 195.308 202.775 195.672 202.775 196.136C202.775 196.6 202.987 196.964 203.411 197.228C203.835 197.492 204.431 197.624 205.199 197.624H206.459ZM211.007 200.528H200.639V199.736H211.007V200.528ZM209.855 204.8H202.091V201.584H202.943V204.008H209.855V204.8ZM223.672 198.056H225.508V198.848H223.672V204.8H222.808V193.724H223.672V198.056ZM218.464 195.8C218.464 196.736 218.348 197.644 218.116 198.524L221.428 202.592L220.792 203.144L217.804 199.472C217.292 200.784 216.448 202.048 215.272 203.264L214.672 202.688C215.672 201.664 216.412 200.6 216.892 199.496C217.38 198.392 217.624 197.16 217.624 195.8V194.408H218.464V195.8ZM234.979 196.328V193.736H235.807V199.964H234.979V197.108H233.311V199.964H232.483V193.844H233.311V196.328H234.979ZM231.319 199.556L228.883 197.384C228.443 198.256 227.715 199.064 226.699 199.808L226.207 199.148C227.007 198.556 227.607 197.912 228.007 197.216C228.415 196.52 228.619 195.752 228.619 194.912V194.12H229.459V194.912C229.459 195.504 229.375 196.064 229.207 196.592L231.823 198.944L231.319 199.556ZM234.955 201.524H228.547V200.744H235.807V204.908H234.955V201.524ZM243.635 203.348L245.987 197.228H246.899L244.127 204.164H243.143L240.359 197.228H241.271L243.635 203.348ZM247.93 202.136C248.186 202.624 248.51 202.988 248.902 203.228C249.302 203.468 249.758 203.588 250.27 203.588C250.79 203.588 251.214 203.488 251.542 203.288C251.878 203.096 252.046 202.82 252.046 202.46C252.046 202.124 251.926 201.864 251.686 201.68C251.454 201.496 251.102 201.332 250.63 201.188L249.682 200.912C249.058 200.728 248.57 200.484 248.218 200.18C247.874 199.868 247.702 199.444 247.702 198.908C247.702 198.34 247.926 197.888 248.374 197.552C248.822 197.216 249.39 197.048 250.078 197.048C250.718 197.048 251.27 197.188 251.734 197.468C252.198 197.74 252.57 198.136 252.85 198.656L252.178 199.1C251.946 198.692 251.65 198.376 251.29 198.152C250.93 197.92 250.522 197.804 250.066 197.804C249.602 197.804 249.23 197.904 248.95 198.104C248.678 198.304 248.542 198.572 248.542 198.908C248.542 199.22 248.646 199.472 248.854 199.664C249.07 199.848 249.394 200.008 249.826 200.144L250.774 200.42C251.43 200.612 251.946 200.86 252.322 201.164C252.698 201.468 252.886 201.9 252.886 202.46C252.886 203.06 252.634 203.524 252.13 203.852C251.626 204.18 251.002 204.344 250.258 204.344C249.57 204.344 248.966 204.192 248.446 203.888C247.926 203.592 247.522 203.152 247.234 202.568L247.93 202.136ZM261.052 195.008H263.872V195.728H257.38V195.008H260.188V193.736H261.052V195.008ZM265.432 204.8V193.736H266.284V204.8H265.432ZM257.92 198.14C257.92 197.588 258.176 197.156 258.688 196.844C259.2 196.532 259.852 196.376 260.644 196.376C261.42 196.376 262.06 196.532 262.564 196.844C263.076 197.156 263.332 197.588 263.332 198.14V198.296C263.332 198.856 263.08 199.296 262.576 199.616C262.072 199.928 261.428 200.084 260.644 200.084C259.844 200.084 259.188 199.928 258.676 199.616C258.172 199.296 257.92 198.856 257.92 198.296V198.14ZM262.492 198.164C262.492 197.836 262.316 197.572 261.964 197.372C261.612 197.172 261.172 197.072 260.644 197.072C260.1 197.072 259.648 197.172 259.288 197.372C258.936 197.572 258.76 197.836 258.76 198.164V198.284C258.76 198.62 258.936 198.888 259.288 199.088C259.648 199.28 260.1 199.376 260.644 199.376C261.172 199.376 261.612 199.28 261.964 199.088C262.316 198.888 262.492 198.62 262.492 198.284V198.164ZM264.472 201.572C263.472 201.724 262.312 201.832 260.992 201.896C260.936 202.688 260.836 203.688 260.692 204.896L259.84 204.8C259.976 203.8 260.072 202.844 260.128 201.932C259.6 201.948 259.224 201.956 259 201.956H257.08L257.032 201.176H259.048C259.744 201.176 260.592 201.148 261.592 201.092C262.592 201.028 263.52 200.944 264.376 200.84L264.472 201.572ZM277.675 204.8H276.823V193.724H277.675V204.8ZM268.975 203.192V198.452H273.271V195.392H268.975V194.612H274.135V199.232H269.827V202.412H270.991C271.655 202.412 272.391 202.38 273.199 202.316C274.015 202.244 274.779 202.152 275.491 202.04L275.599 202.784C274.943 202.912 274.191 203.012 273.343 203.084C272.495 203.156 271.663 203.192 270.847 203.192H268.975ZM289.053 200.192H288.201V193.736H289.053V200.192ZM280.353 199.796V196.628H284.661V195.08H280.353V194.324H285.513V197.384H281.193V199.028H282.369C283.049 199.028 283.793 198.996 284.601 198.932C285.417 198.86 286.173 198.768 286.869 198.656L286.977 199.388C286.305 199.508 285.545 199.608 284.697 199.688C283.849 199.76 283.025 199.796 282.225 199.796H280.353ZM289.053 204.908H288.201V201.764H281.817V200.972H289.053V204.908ZM298.946 197.576C298.202 198.688 296.89 199.692 295.01 200.588L294.614 199.856C296.038 199.168 297.09 198.448 297.77 197.696C298.458 196.936 298.802 196.12 298.802 195.248V194.36H299.654V195.248C299.654 195.792 299.546 196.324 299.33 196.844L303.734 199.892L303.254 200.588L298.946 197.576ZM293.99 203.9V203.12H304.358V203.9H293.99ZM313.865 199.496V193.724H314.729V199.496H313.865ZM311.513 194.888C311.513 196.064 311.053 197.06 310.133 197.876C309.221 198.692 307.921 199.328 306.233 199.784L305.993 199.076C306.865 198.844 307.633 198.552 308.297 198.2C308.961 197.848 309.493 197.452 309.893 197.012C309.365 197.06 308.753 197.1 308.057 197.132C307.369 197.164 306.745 197.18 306.185 197.18H305.945L305.909 196.472H306.149C306.717 196.472 307.429 196.452 308.285 196.412C309.141 196.372 309.849 196.324 310.409 196.268C310.609 195.9 310.709 195.504 310.709 195.08H306.137V194.324H311.513V194.888ZM308.465 201.644H313.865V200.168H314.729V204.8H307.613V200.168H308.465V201.644ZM308.465 202.412V204.02H313.865V202.412H308.465Z" fill="#666666"/>
<path d="M227.04 218.672H229.56V219.944H222.972V218.672H225.492V217.568H227.04V218.672ZM232.056 217.688V220.796H233.688V222.2H232.056V226.088H230.532V217.688H232.056ZM229.092 222.764C229.092 223.444 228.828 223.972 228.3 224.348C227.772 224.716 227.096 224.9 226.272 224.9C225.448 224.9 224.768 224.716 224.232 224.348C223.704 223.972 223.44 223.444 223.44 222.764V222.596C223.44 221.924 223.704 221.404 224.232 221.036C224.768 220.66 225.448 220.472 226.272 220.472C227.096 220.472 227.772 220.66 228.3 221.036C228.828 221.404 229.092 221.924 229.092 222.596V222.764ZM224.94 222.74C224.94 223.012 225.064 223.228 225.312 223.388C225.568 223.548 225.888 223.628 226.272 223.628C226.656 223.628 226.972 223.548 227.22 223.388C227.476 223.228 227.604 223.012 227.604 222.74V222.62C227.604 222.348 227.48 222.136 227.232 221.984C226.984 221.824 226.664 221.744 226.272 221.744C225.888 221.744 225.568 221.824 225.312 221.984C225.064 222.136 224.94 222.348 224.94 222.62V222.74ZM224.688 225.716H226.224V227.504H232.584V228.896H224.688V225.716ZM242.535 223.508V217.688H244.071V223.508H242.535ZM240.891 220.676C240.891 221.532 240.603 222.188 240.027 222.644C239.451 223.092 238.711 223.316 237.807 223.316C236.903 223.316 236.163 223.092 235.587 222.644C235.011 222.188 234.723 221.532 234.723 220.676V220.532C234.723 219.668 235.007 219.008 235.575 218.552C236.151 218.096 236.895 217.868 237.807 217.868C238.719 217.868 239.459 218.096 240.027 218.552C240.603 219.008 240.891 219.668 240.891 220.532V220.676ZM236.259 220.664C236.259 221.088 236.399 221.412 236.679 221.636C236.967 221.86 237.343 221.972 237.807 221.972C238.271 221.972 238.643 221.86 238.923 221.636C239.211 221.412 239.355 221.088 239.355 220.664V220.532C239.355 220.1 239.211 219.772 238.923 219.548C238.643 219.324 238.271 219.212 237.807 219.212C237.343 219.212 236.967 219.324 236.679 219.548C236.399 219.772 236.259 220.1 236.259 220.532V220.664ZM237.987 225.104H242.535V224H244.071V228.896H236.463V224H237.987V225.104ZM237.987 226.436V227.54H242.535V226.436H237.987ZM254.755 221.984V222.968H259.267V224.276H248.707V222.968H253.219V221.984H250.051V217.904H257.815V219.176H251.587V220.712H257.935V221.984H254.755ZM256.507 226.628H249.943V225.212H258.043V229.016H256.507V226.628ZM268.27 221.384V217.688H269.806V228.896H268.27V222.788H265.834V221.384H268.27ZM264.382 219.848C264.382 220.736 264.278 221.604 264.07 222.452L267.214 226.316L266.074 227.288L263.482 224.12C262.962 225.248 262.182 226.34 261.142 227.396L260.062 226.388C261.046 225.388 261.762 224.368 262.21 223.328C262.658 222.28 262.882 221.12 262.882 219.848V218.312H264.382V219.848ZM279.649 221.852V217.688H281.185V228.896H279.649V223.256H278.041V221.852H279.649ZM274.573 225.968C275.805 225.968 277.081 225.864 278.401 225.656L278.569 226.976C277.289 227.224 275.869 227.348 274.309 227.348H272.017V222.164H275.809V219.836H272.017V218.456H277.345V223.508H273.541V225.968H274.573Z" fill="black"/>
<path d="M51.3157 25.624H54.6277V27.224H45.9237V25.624H49.2517V24.424H51.3157V25.624ZM58.1637 24.584V29.512H60.1637V31.384H58.1637V36.184H56.1157V24.584H58.1637ZM55.2517 34.728C54.1637 34.8773 52.9637 34.9947 51.6517 35.08C50.3503 35.1653 49.145 35.208 48.0357 35.208H45.7477L45.6517 33.576H48.2277C48.7077 33.576 49.081 33.5707 49.3477 33.56V32.504C48.4943 32.408 47.817 32.168 47.3157 31.784C46.8143 31.4 46.5637 30.888 46.5637 30.248V30.072C46.5637 29.3147 46.9103 28.7387 47.6037 28.344C48.297 27.9493 49.1983 27.752 50.3077 27.752C51.4063 27.752 52.297 27.9493 52.9797 28.344C53.673 28.7387 54.0197 29.3147 54.0197 30.072V30.248C54.0197 30.8667 53.7797 31.368 53.2997 31.752C52.8303 32.1253 52.1957 32.3707 51.3957 32.488V33.464C52.9423 33.3573 54.169 33.2507 55.0757 33.144L55.2517 34.728ZM48.6117 30.216C48.6117 30.4507 48.7717 30.6373 49.0917 30.776C49.4117 30.9147 49.817 30.984 50.3077 30.984C50.7877 30.984 51.1823 30.9147 51.4917 30.776C51.8117 30.6373 51.9717 30.4507 51.9717 30.216V30.104C51.9717 29.8693 51.8117 29.6827 51.4917 29.544C51.1823 29.4053 50.7877 29.336 50.3077 29.336C49.817 29.336 49.4117 29.4053 49.0917 29.544C48.7717 29.6827 48.6117 29.8693 48.6117 30.104V30.216ZM48.1797 35.944H50.2117V37.736H58.8677V39.528H48.1797V35.944ZM73.1755 24.6V27.512H75.3355V29.352H73.1755V32.728H71.1275V24.6H73.1755ZM65.1595 29.944C64.4022 30.9893 63.2929 31.9333 61.8315 32.776L60.7435 31.16C62.0342 30.392 62.9622 29.5867 63.5275 28.744C64.0929 27.9013 64.3755 26.9893 64.3755 26.008V25.032H66.3755V26.008C66.3755 26.7973 66.2635 27.5387 66.0395 28.232L69.9435 30.872L68.8555 32.456L65.1595 29.944ZM69.9115 33.384C70.6155 33.384 71.2395 33.5173 71.7835 33.784C72.3275 34.04 72.7489 34.408 73.0475 34.888C73.3569 35.368 73.5115 35.9173 73.5115 36.536C73.5115 37.1653 73.3569 37.7147 73.0475 38.184C72.7489 38.664 72.3275 39.032 71.7835 39.288C71.2395 39.5547 70.6155 39.688 69.9115 39.688H66.6315C65.9275 39.688 65.3035 39.5547 64.7595 39.288C64.2155 39.032 63.7889 38.664 63.4795 38.184C63.1809 37.7147 63.0315 37.1653 63.0315 36.536C63.0315 35.9173 63.1809 35.368 63.4795 34.888C63.7889 34.408 64.2155 34.04 64.7595 33.784C65.3142 33.5173 65.9382 33.384 66.6315 33.384H69.9115ZM69.6075 37.864C70.2049 37.864 70.6635 37.7413 70.9835 37.496C71.3035 37.2613 71.4635 36.936 71.4635 36.52C71.4635 36.1147 71.3035 35.7947 70.9835 35.56C70.6635 35.3147 70.2049 35.192 69.6075 35.192H66.9195C66.3222 35.192 65.8635 35.3147 65.5435 35.56C65.2342 35.7947 65.0795 36.1147 65.0795 36.52C65.0795 36.936 65.2342 37.2613 65.5435 37.496C65.8635 37.7413 66.3222 37.864 66.9195 37.864H69.6075ZM89.1954 39.528H87.1474V24.584H89.1954V39.528ZM81.1314 33.592C80.3421 33.592 79.6327 33.4427 79.0034 33.144C78.3847 32.8453 77.8941 32.392 77.5314 31.784C77.1687 31.176 76.9874 30.4293 76.9874 29.544V29.288C76.9874 28.392 77.1687 27.64 77.5314 27.032C77.8941 26.424 78.3847 25.9707 79.0034 25.672C79.6327 25.3733 80.3421 25.224 81.1314 25.224C81.9101 25.224 82.6087 25.3733 83.2274 25.672C83.8461 25.9707 84.3367 26.424 84.6994 27.032C85.0621 27.64 85.2434 28.392 85.2434 29.288V29.544C85.2434 30.4293 85.0621 31.176 84.6994 31.784C84.3367 32.392 83.8461 32.8453 83.2274 33.144C82.6087 33.4427 81.9101 33.592 81.1314 33.592ZM81.1314 31.736C81.7287 31.736 82.2194 31.5493 82.6034 31.176C82.9981 30.792 83.1954 30.2373 83.1954 29.512V29.288C83.1954 28.5627 82.9981 28.0133 82.6034 27.64C82.2194 27.256 81.7287 27.064 81.1314 27.064C80.5234 27.064 80.0221 27.256 79.6274 27.64C79.2434 28.0133 79.0514 28.5627 79.0514 29.288V29.512C79.0514 30.2373 79.2434 30.792 79.6274 31.176C80.0221 31.5493 80.5234 31.736 81.1314 31.736ZM76.4754 37.336L76.3794 35.48H79.0674C79.9847 35.48 81.0887 35.4427 82.3794 35.368C83.6807 35.2827 84.9074 35.1707 86.0594 35.032L86.2994 36.856C85.1901 37.016 83.9687 37.1333 82.6354 37.208C81.3021 37.2933 80.0487 37.336 78.8754 37.336H76.4754ZM106.608 29.992V24.584H108.592V39.528H106.608V31.848H105.12V39.176H103.184V24.824H105.12V29.992H106.608ZM99.888 28.664C99.8667 29.752 99.7654 30.7067 99.584 31.528L102.816 36.184L101.232 37.384L98.848 33.912C98.3254 35.1493 97.5947 36.3547 96.656 37.528L95.152 36.328C96.1227 35.0693 96.8214 33.8267 97.248 32.6C97.6854 31.3733 97.9147 30.0613 97.936 28.664H95.648V26.808H97.952V24.6H99.92V26.808H102.336V28.664H99.888ZM121.46 30.136V24.584H123.508V39.528H121.46V32.008H119.316V30.136H121.46ZM114.66 35.624C116.324 35.624 118.031 35.4853 119.78 35.208L120.02 36.968C118.345 37.2987 116.441 37.464 114.308 37.464H111.284V25.608H118.772V27.448H113.316V30.552H118.628V32.344H113.316V35.624H114.66Z" fill="#0455BE"/>
<g clip-path="url(#clip1_6600_30929)">
<path d="M84.9813 102.114C84.7682 102.114 84.5804 101.983 84.5043 101.787C84.4535 101.651 83.124 98.3436 77.4962 98.3436C77.2171 98.3436 76.9888 98.117 76.9888 97.8402C76.9888 97.5633 77.2171 97.3368 77.4962 97.3368C81.9721 97.3368 84.0577 99.2799 84.9204 100.493C85.6765 99.2447 87.6607 97.3015 92.6541 97.3015C92.9332 97.3015 93.1616 97.528 93.1616 97.8049C93.1616 98.0818 92.9332 98.3083 92.6541 98.3083C86.3312 98.3083 85.504 101.58 85.4735 101.721C85.4228 101.938 85.235 102.099 85.0118 102.114C85.0016 102.114 84.9915 102.114 84.9813 102.114Z" fill="#75A0C6"/>
<path d="M85.0705 101.834C84.7913 101.834 84.563 101.608 84.563 101.331C84.563 97.3641 89.3636 95.134 89.5716 95.0434C89.8305 94.9276 90.1299 95.0434 90.2466 95.2901C90.3633 95.5418 90.2516 95.8388 89.9979 95.9596C89.9522 95.9798 85.583 98.0135 85.583 101.331C85.583 101.608 85.3546 101.834 85.0755 101.834H85.0705Z" fill="#75A0C6"/>
<path d="M81.6132 101.488C71.2407 101.488 62.832 109.83 62.832 120.119V123.512V163.161V164.721C62.832 165.285 62.6696 165.844 62.3702 166.322L57.7371 173.667C56.9962 174.84 58.1076 176.3 59.4473 175.917L64.3646 174.523C65.1562 174.296 65.9986 174.407 66.7141 174.81C68.2162 175.655 71.4437 176.999 76.7822 176.999C76.8228 176.999 86.0434 176.999 89.7174 176.999C100.085 176.999 108.499 168.658 108.499 158.373V123.507V122.717V120.119C108.499 109.83 100.09 101.488 89.7174 101.488C86.0434 101.488 85.2822 101.488 81.6081 101.488H81.6132Z" fill="#91C0FD"/>
<path d="M74.3428 127.717H73.9724C73.4595 127.717 73.0437 128.129 73.0437 128.638C73.0437 129.147 73.4595 129.56 73.9724 129.56H74.3428C74.8557 129.56 75.2715 129.147 75.2715 128.638C75.2715 128.129 74.8557 127.717 74.3428 127.717Z" fill="#48617C"/>
<path d="M76.8043 122.999H76.7992C76.1322 122.999 75.5914 123.536 75.5914 124.197V125.099C75.5914 125.76 76.1322 126.297 76.7992 126.297H76.8043C77.4713 126.297 78.012 125.76 78.012 125.099V124.197C78.012 123.536 77.4713 122.999 76.8043 122.999Z" fill="#48617C"/>
<path d="M71.8831 122.999H71.878C71.211 122.999 70.6703 123.536 70.6703 124.197V125.099C70.6703 125.76 71.211 126.297 71.878 126.297H71.8831C72.5502 126.297 73.0909 125.76 73.0909 125.099V124.197C73.0909 123.536 72.5502 122.999 71.8831 122.999Z" fill="#48617C"/>
<path d="M74.4782 133.312C74.2498 133.312 74.0164 133.282 73.7678 133.212C73.306 133.086 72.8289 132.794 72.7782 132.764C72.5397 132.618 72.4687 132.306 72.6158 132.069C72.763 131.832 73.0776 131.762 73.3161 131.908C73.4278 131.973 73.7678 132.17 74.0418 132.24C75.5033 132.643 76.3457 130.931 76.3812 130.856C76.503 130.604 76.8024 130.498 77.0561 130.619C77.3098 130.74 77.4164 131.037 77.2997 131.289C76.9394 132.054 75.9346 133.312 74.4833 133.312H74.4782Z" fill="#48617C"/>
<path d="M82.7109 132.373C84.8129 132.373 86.5168 130.683 86.5168 128.597C86.5168 126.512 84.8129 124.822 82.7109 124.822C80.6089 124.822 78.9049 126.512 78.9049 128.597C78.9049 130.683 80.6089 132.373 82.7109 132.373Z" fill="#75A0C6"/>
<path d="M67.2105 132.373C69.3125 132.373 71.0165 130.683 71.0165 128.597C71.0165 126.512 69.3125 124.822 67.2105 124.822C65.1085 124.822 63.4045 126.512 63.4045 128.597C63.4045 130.683 65.1085 132.373 67.2105 132.373Z" fill="#75A0C6"/>
<path d="M76.4919 128.15C76.3599 128.15 76.2483 128.05 76.2381 127.919C76.228 127.778 76.3295 127.657 76.4716 127.647L80.9728 127.295C81.0996 127.284 81.2366 127.385 81.2468 127.526C81.2569 127.667 81.1554 127.788 81.0133 127.798L76.5122 128.15C76.5122 128.15 76.4969 128.15 76.4919 128.15Z" fill="#48617C"/>
<path d="M80.9931 129.711C80.9931 129.711 80.9829 129.711 80.9728 129.711L76.4716 129.394C76.3295 129.384 76.228 129.263 76.2381 129.127C76.2483 128.986 76.3853 128.88 76.5071 128.895L81.0083 129.212C81.1504 129.222 81.2519 129.343 81.2417 129.479C81.2316 129.61 81.1199 129.711 80.988 129.711H80.9931Z" fill="#48617C"/>
<path d="M71.8769 128.149C71.8769 128.149 71.8414 128.149 71.8211 128.143L68.5936 127.424C68.4566 127.393 68.3703 127.257 68.4008 127.122C68.4312 126.986 68.5682 126.9 68.7052 126.93L71.9327 127.65C72.0697 127.68 72.156 127.816 72.1255 127.952C72.1002 128.068 71.9936 128.149 71.8769 128.149Z" fill="#48617C"/>
<path d="M68.6497 129.883C68.5279 129.883 68.4162 129.793 68.401 129.672C68.3807 129.536 68.4771 129.405 68.6141 129.385L71.8416 128.896C71.9786 128.876 72.1106 128.972 72.1309 129.108C72.1512 129.244 72.0547 129.375 71.9177 129.395L68.6903 129.883C68.6903 129.883 68.6649 129.883 68.6497 129.883Z" fill="#48617C"/>
</g>
<path d="M28.8753 193.724H29.7273V199.148H28.8753V193.724ZM20.9673 194.264H26.2713V198.644H20.9673V194.264ZM21.8073 197.888H25.4313V195.02H21.8073V197.888ZM23.4753 202.736V204.104H30.1113V204.86H22.6113V199.94H29.7273V200.672H23.4753V201.992H29.7273V202.736H23.4753ZM32.6942 197.036C33.9502 196.764 34.9062 196.424 35.5622 196.016C36.2262 195.608 36.5662 195.16 36.5822 194.672H33.2582V193.94H40.6142V194.672H37.4342C37.4182 195.032 37.3262 195.356 37.1582 195.644L41.1662 197.048L40.8782 197.756L36.6182 196.268C35.8822 196.884 34.6462 197.38 32.9102 197.756L32.6942 197.036ZM42.1142 198.284V199.016H37.3622V200.156H40.7822V202.844H33.9422V204.128H41.0822V204.86H33.0902V202.124H39.9182V200.888H33.0302V200.156H36.5102V199.016H31.7462V198.284H42.1142ZM56.4111 198.356V199.136H46.0431V198.356H53.5911C53.7031 197.732 53.7911 197.112 53.8551 196.496C53.9271 195.872 53.9631 195.372 53.9631 194.996V194.9H47.3511V194.12H54.8151V194.816C54.8151 195.84 54.6951 197.02 54.4551 198.356H56.4111ZM51.7191 200.96C51.7191 201.384 51.6071 201.788 51.3831 202.172L55.6551 204.116L55.2951 204.86L50.9031 202.82C50.1271 203.652 48.8711 204.352 47.1351 204.92L46.8351 204.176C48.0591 203.76 49.0351 203.28 49.7631 202.736C50.4911 202.184 50.8551 201.592 50.8551 200.96V200.372H51.7191V200.96ZM59.726 197.54H66.434V198.332H58.874V194H59.726V197.54ZM67.79 200.54H57.422V199.748H67.79V200.54ZM66.638 204.8H58.874V201.584H59.726V204.008H66.638V204.8ZM76.6148 196.436C75.9028 197.244 74.6788 197.944 72.9428 198.536L72.6428 197.78C73.9308 197.34 74.9028 196.848 75.5588 196.304C76.2148 195.752 76.5428 195.152 76.5428 194.504V193.88H77.3828V194.504C77.3828 194.952 77.2828 195.372 77.0828 195.764L81.1508 197.816L80.7788 198.536L76.6148 196.436ZM71.7188 200.408V199.616H82.0868V200.408H77.3348V202.664H76.4828V200.408H71.7188ZM73.1228 201.584H73.9868V204.008H80.9348V204.8H73.1228V201.584ZM91.8458 193.724V196.664H93.6818V197.456H91.8458V202.136H90.9818V193.724H91.8458ZM88.6298 195.032C88.6298 196.208 88.2018 197.256 87.3458 198.176C86.4898 199.088 85.2778 199.856 83.7098 200.48L83.3378 199.748C84.7138 199.204 85.7978 198.532 86.5898 197.732C87.3818 196.932 87.7778 196.096 87.7778 195.224H83.5298V194.444H88.6298V195.032ZM84.9458 201.26H85.8098V204.008H92.4698V204.8H84.9458V201.26ZM95.4367 206.264H94.7287L94.9807 203.084H95.8447L95.4367 206.264ZM108.873 196.208H110.709V196.988H108.873V199.724H108.009V193.724H108.873V196.208ZM105.657 194.912C105.657 196 105.225 196.944 104.361 197.744C103.505 198.544 102.285 199.204 100.701 199.724L100.365 198.98C101.717 198.548 102.789 197.996 103.581 197.324C104.373 196.644 104.781 195.924 104.805 195.164H100.557V194.384H105.657V194.912ZM108.873 204.8H101.973V200.516H108.873V204.8ZM108.009 201.284H102.837V204.02H108.009V201.284ZM120.852 199.784H120V196.724H117.384V195.956H120V193.736H120.852V199.784ZM114.768 197.276C114.224 198.156 113.324 198.96 112.068 199.688L111.624 198.992C112.616 198.408 113.356 197.784 113.844 197.12C114.34 196.448 114.588 195.688 114.588 194.84V194.12H115.44V194.84C115.44 195.456 115.34 196.024 115.14 196.544L118.38 198.836L117.924 199.52L114.768 197.276ZM118.428 200.456C118.956 200.456 119.416 200.556 119.808 200.756C120.2 200.948 120.5 201.216 120.708 201.56C120.916 201.896 121.02 202.272 121.02 202.688C121.02 203.112 120.916 203.492 120.708 203.828C120.5 204.164 120.2 204.428 119.808 204.62C119.416 204.812 118.956 204.908 118.428 204.908H116.1C115.572 204.908 115.112 204.812 114.72 204.62C114.328 204.428 114.028 204.164 113.82 203.828C113.612 203.492 113.508 203.112 113.508 202.688C113.508 202.272 113.612 201.896 113.82 201.56C114.028 201.216 114.328 200.948 114.72 200.756C115.112 200.556 115.572 200.456 116.1 200.456H118.428ZM118.26 204.14C118.876 204.14 119.344 204.004 119.664 203.732C119.992 203.468 120.156 203.116 120.156 202.676C120.156 202.252 119.992 201.904 119.664 201.632C119.344 201.36 118.876 201.224 118.26 201.224H116.268C115.652 201.224 115.18 201.36 114.852 201.632C114.524 201.904 114.36 202.252 114.36 202.676C114.36 203.116 114.524 203.468 114.852 203.732C115.18 204.004 115.652 204.14 116.268 204.14H118.26ZM128.499 198.224V199.508H133.251V200.276H122.883V199.508H127.647V198.224H124.167V197.48H125.883V194.744H124.167V194H131.979V194.744H130.251V197.48H131.979V198.224H128.499ZM129.411 194.744H126.723V197.48H129.411V194.744ZM131.055 202.328H124.227V201.56H131.919V204.92H131.055V202.328ZM143.01 193.724V195.968H144.846V196.76H143.01V199.208H142.146V193.724H143.01ZM138.87 194.204H139.71V198.764H134.526V194.204H135.366V195.692H138.87V194.204ZM135.366 196.448V198.008H138.87V196.448H135.366ZM143.01 202.76H136.974V204.104H143.466V204.86H136.11V202.028H142.146V200.732H136.05V199.988H143.01V202.76Z" fill="#666666"/>
<path d="M49.2013 219.872H50.8213V221.264H49.2013V223.736H47.6653V217.688H49.2013V219.872ZM45.9133 218.9C45.9133 220.14 45.4733 221.164 44.5933 221.972C43.7213 222.772 42.4453 223.416 40.7653 223.904L40.1653 222.536C41.4053 222.192 42.3773 221.764 43.0813 221.252C43.7933 220.74 44.2093 220.196 44.3293 219.62H40.5013V218.228H45.9133V218.9ZM49.2013 228.896H41.8213V224.348H49.2013V228.896ZM47.6653 225.704H43.3573V227.528H47.6653V225.704ZM61.2042 223.796H59.6682V220.928H57.4722V219.572H59.6682V217.7H61.2042V223.796ZM54.8922 221.708C54.3402 222.476 53.5122 223.184 52.4082 223.832L51.5802 222.62C52.5482 222.044 53.2442 221.44 53.6682 220.808C54.1002 220.176 54.3162 219.492 54.3162 218.756V218.024H55.8162V218.756C55.8162 219.364 55.7282 219.92 55.5522 220.424L58.4922 222.464L57.6642 223.652L54.8922 221.708ZM58.6122 224.288C59.1402 224.288 59.6122 224.388 60.0282 224.588C60.4442 224.78 60.7642 225.056 60.9882 225.416C61.2202 225.776 61.3362 226.188 61.3362 226.652C61.3362 227.124 61.2202 227.536 60.9882 227.888C60.7642 228.248 60.4442 228.524 60.0282 228.716C59.6202 228.916 59.1482 229.016 58.6122 229.016H56.0682C55.5402 229.016 55.0682 228.916 54.6522 228.716C54.2442 228.524 53.9242 228.248 53.6922 227.888C53.4682 227.536 53.3562 227.124 53.3562 226.652C53.3562 226.188 53.4682 225.776 53.6922 225.416C53.9242 225.056 54.2442 224.78 54.6522 224.588C55.0682 224.388 55.5402 224.288 56.0682 224.288H58.6122ZM58.3962 227.648C58.8442 227.648 59.1882 227.556 59.4282 227.372C59.6762 227.188 59.8002 226.944 59.8002 226.64C59.8002 226.336 59.6762 226.096 59.4282 225.92C59.1882 225.736 58.8442 225.644 58.3962 225.644H56.2842C55.8362 225.644 55.4922 225.736 55.2522 225.92C55.0122 226.096 54.8922 226.336 54.8922 226.64C54.8922 226.952 55.0122 227.196 55.2522 227.372C55.4922 227.556 55.8362 227.648 56.2842 227.648H58.3962ZM74.3116 217.688H75.7636V223.148H74.3116V217.688ZM73.3516 223.148H71.9356V220.688H70.3636V219.344H71.9356V217.808H73.3516V223.148ZM70.5316 223.076L68.5156 221.504C68.0676 222.176 67.4356 222.78 66.6196 223.316L65.7556 222.176C66.4996 221.672 67.0396 221.116 67.3756 220.508C67.7116 219.9 67.8796 219.264 67.8796 218.6V217.976H69.3436V218.6C69.3436 219.176 69.2716 219.712 69.1276 220.208L71.3956 221.972L70.5316 223.076ZM69.5956 226.928V227.672H76.1116V228.956H68.0596V225.692H74.2396V225.008H67.9996V223.76H75.7636V226.928H69.5956ZM85.4025 228.896V217.688H86.9385V228.896H85.4025ZM83.2185 225.488C83.5545 225.456 83.9945 225.4 84.5385 225.32L84.7185 226.7C83.8465 226.836 82.9185 226.94 81.9345 227.012C80.9585 227.084 80.0385 227.12 79.1745 227.12H77.4705L77.3865 225.716H78.6225V219.86H77.5545V218.456H84.2745V219.86H83.2185V225.488ZM81.7185 219.86H80.1105V225.704C80.6865 225.688 81.2225 225.66 81.7185 225.62V219.86ZM97.622 221.984V222.968H102.134V224.276H91.574V222.968H96.086V221.984H92.918V217.904H100.682V219.176H94.454V220.712H100.802V221.984H97.622ZM99.374 226.628H92.81V225.212H100.91V229.016H99.374V226.628ZM111.137 221.384V217.688H112.673V228.896H111.137V222.788H108.701V221.384H111.137ZM107.249 219.848C107.249 220.736 107.145 221.604 106.937 222.452L110.081 226.316L108.941 227.288L106.349 224.12C105.829 225.248 105.049 226.34 104.009 227.396L102.929 226.388C103.913 225.388 104.629 224.368 105.077 223.328C105.525 222.28 105.749 221.12 105.749 219.848V218.312H107.249V219.848ZM123.428 221.744H125.048V223.136H123.428V228.896H121.892V217.688H123.428V221.744ZM114.728 219.92V218.516H120.14V219.62C120.14 221.196 119.728 222.664 118.904 224.024C118.088 225.376 116.904 226.576 115.352 227.624L114.404 226.424C115.332 225.816 116.108 225.144 116.732 224.408C117.364 223.672 117.832 222.924 118.136 222.164C118.44 221.396 118.592 220.648 118.592 219.92H114.728Z" fill="black"/>
<mask id="path-37-inside-1_6600_30929" fill="white">
<path d="M171 1V253H165V1H171Z"/>
</mask>
<path d="M171 1V253H165V1H171Z" fill="#F5F9FF"/>
<path d="M170 1V253H172V1H170ZM166 253V1H164V253H166Z" fill="#E6E6E6" mask="url(#path-37-inside-1_6600_30929)"/>
<rect x="160.375" y="50.3746" width="15.2507" height="4.25074" rx="2.12537" fill="white"/>
<rect x="160.375" y="50.3746" width="15.2507" height="4.25074" rx="2.12537" stroke="#E6E6E6" stroke-width="0.749263"/>
<rect x="160.375" y="101.375" width="15.2507" height="3.25074" rx="1.62537" fill="white"/>
<rect x="160.375" y="101.375" width="15.2507" height="3.25074" rx="1.62537" stroke="#E6E6E6" stroke-width="0.749263"/>
<rect x="160.375" y="151.375" width="15.2507" height="3.25074" rx="1.62537" fill="white"/>
<rect x="160.375" y="151.375" width="15.2507" height="3.25074" rx="1.62537" stroke="#E6E6E6" stroke-width="0.749263"/>
<rect x="160.375" y="201.375" width="15.2507" height="4.25074" rx="2.12537" fill="white"/>
<rect x="160.375" y="201.375" width="15.2507" height="4.25074" rx="2.12537" stroke="#E6E6E6" stroke-width="0.749263"/>
<defs>
<clipPath id="clip0_6600_30929">
<rect width="50" height="81" fill="white" transform="translate(227.5 96)"/>
</clipPath>
<clipPath id="clip1_6600_30929">
<rect width="51" height="82" fill="white" transform="translate(57.5 95)"/>
</clipPath>
</defs>
</svg>
