<svg width="335" height="302" viewBox="0 0 335 302" fill="none" xmlns="http://www.w3.org/2000/svg">
<path d="M1 228.319L1.00001 25.7531C1.00001 12.6346 11.6347 2 24.7532 2L310.247 2.00001C323.365 2.00001 334 12.6347 334 25.7532L334 291.533C334 294.196 330.685 295.421 328.954 293.397L294.579 253.234C293.949 252.497 293.027 252.073 292.057 252.073L251.25 252.073L167.5 252.073L24.7532 252.073C11.6347 252.073 1 241.438 1 228.319Z" fill="white" stroke="#E6E6E6" stroke-width="2"/>
<path d="M210.968 25.624H214.28V27.224H205.576V25.624H208.904V24.424H210.968V25.624ZM217.816 24.584V29.512H219.816V31.384H217.816V36.184H215.768V24.584H217.816ZM214.904 34.728C213.816 34.8773 212.616 34.9947 211.304 35.08C210.003 35.1653 208.797 35.208 207.688 35.208H205.4L205.304 33.576H207.88C208.36 33.576 208.733 33.5707 209 33.56V32.504C208.147 32.408 207.469 32.168 206.968 31.784C206.467 31.4 206.216 30.888 206.216 30.248V30.072C206.216 29.3147 206.563 28.7387 207.256 28.344C207.949 27.9493 208.851 27.752 209.96 27.752C211.059 27.752 211.949 27.9493 212.632 28.344C213.325 28.7387 213.672 29.3147 213.672 30.072V30.248C213.672 30.8667 213.432 31.368 212.952 31.752C212.483 32.1253 211.848 32.3707 211.048 32.488V33.464C212.595 33.3573 213.821 33.2507 214.728 33.144L214.904 34.728ZM208.264 30.216C208.264 30.4507 208.424 30.6373 208.744 30.776C209.064 30.9147 209.469 30.984 209.96 30.984C210.44 30.984 210.835 30.9147 211.144 30.776C211.464 30.6373 211.624 30.4507 211.624 30.216V30.104C211.624 29.8693 211.464 29.6827 211.144 29.544C210.835 29.4053 210.44 29.336 209.96 29.336C209.469 29.336 209.064 29.4053 208.744 29.544C208.424 29.6827 208.264 29.8693 208.264 30.104V30.216ZM207.832 35.944H209.864V37.736H218.52V39.528H207.832V35.944ZM232.828 24.6V27.512H234.988V29.352H232.828V32.728H230.796V24.6H232.828ZM224.844 30.28C224.108 31.2507 222.935 32.1413 221.324 32.952L220.38 31.304C221.596 30.664 222.487 29.9973 223.052 29.304C223.628 28.6107 223.943 27.848 223.996 27.016H220.956V25.224H229.068V27.016H225.98C225.969 27.5813 225.879 28.12 225.708 28.632L229.628 30.952L228.62 32.632L224.844 30.28ZM229.564 33.384C230.268 33.384 230.892 33.5173 231.436 33.784C231.98 34.04 232.401 34.408 232.7 34.888C233.009 35.368 233.164 35.9173 233.164 36.536C233.164 37.1653 233.009 37.7147 232.7 38.184C232.401 38.664 231.98 39.032 231.436 39.288C230.892 39.5547 230.268 39.688 229.564 39.688H226.284C225.58 39.688 224.956 39.5547 224.412 39.288C223.868 39.032 223.441 38.664 223.132 38.184C222.833 37.7147 222.684 37.1653 222.684 36.536C222.684 35.9173 222.833 35.368 223.132 34.888C223.441 34.408 223.868 34.04 224.412 33.784C224.967 33.5173 225.591 33.384 226.284 33.384H229.564ZM229.26 37.864C229.857 37.864 230.316 37.7413 230.636 37.496C230.956 37.2613 231.116 36.936 231.116 36.52C231.116 36.1147 230.956 35.7947 230.636 35.56C230.316 35.3147 229.857 35.192 229.26 35.192H226.572C225.975 35.192 225.516 35.3147 225.196 35.56C224.887 35.7947 224.732 36.1147 224.732 36.52C224.732 36.936 224.887 37.2613 225.196 37.496C225.516 37.7413 225.975 37.864 226.572 37.864H229.26ZM248 29.992H250.176V31.848H248V39.528H245.968V24.584H248V29.992ZM239.248 24.6H241.312V26.632H244.672V28.456H235.888V26.632H239.248V24.6ZM240.288 29.592C240.992 29.592 241.626 29.7413 242.192 30.04C242.768 30.328 243.216 30.744 243.536 31.288C243.866 31.8213 244.032 32.44 244.032 33.144V34.024C244.032 34.728 243.866 35.352 243.536 35.896C243.216 36.4293 242.768 36.8453 242.192 37.144C241.626 37.4427 240.992 37.592 240.288 37.592C239.594 37.592 238.96 37.4427 238.384 37.144C237.808 36.8453 237.354 36.4293 237.024 35.896C236.693 35.352 236.528 34.728 236.528 34.024V33.144C236.528 32.44 236.693 31.8213 237.024 31.288C237.354 30.744 237.802 30.328 238.368 30.04C238.944 29.7413 239.584 29.592 240.288 29.592ZM242 33.224C242 32.6587 241.84 32.216 241.52 31.896C241.2 31.576 240.789 31.416 240.288 31.416C239.797 31.416 239.386 31.576 239.056 31.896C238.736 32.216 238.576 32.6587 238.576 33.224V33.944C238.576 34.5093 238.736 34.9573 239.056 35.288C239.386 35.608 239.797 35.768 240.288 35.768C240.778 35.768 241.184 35.608 241.504 35.288C241.834 34.9573 242 34.5093 242 33.944V33.224ZM254.9 29.032H263.396V30.888H252.852V24.888H254.9V29.032ZM265.14 34.088H251.06V32.232H265.14V34.088ZM263.748 39.528H252.852V35.208H254.9V37.624H263.748V39.528ZM281.432 29.992V24.584H283.416V39.528H281.432V31.848H279.944V39.176H278.008V24.824H279.944V29.992H281.432ZM274.712 28.664C274.691 29.752 274.59 30.7067 274.408 31.528L277.64 36.184L276.056 37.384L273.672 33.912C273.15 35.1493 272.419 36.3547 271.48 37.528L269.976 36.328C270.947 35.0693 271.646 33.8267 272.072 32.6C272.51 31.3733 272.739 30.0613 272.76 28.664H270.472V26.808H272.776V24.6H274.744V26.808H277.16V28.664H274.712ZM296.284 30.136V24.584H298.332V39.528H296.284V32.008H294.14V30.136H296.284ZM289.484 35.624C291.148 35.624 292.855 35.4853 294.604 35.208L294.844 36.968C293.169 37.2987 291.265 37.464 289.132 37.464H286.108V25.608H293.596V27.448H288.14V30.552H293.452V32.344H288.14V35.624H289.484Z" fill="#808080"/>
<g clip-path="url(#clip0_6600_30928)">
<path d="M255.634 116.964C255.341 116.964 255.085 116.756 255.036 116.456C254.993 116.204 253.998 110.321 256.062 107.986C256.678 107.281 257.497 106.95 258.468 106.999C260.184 107.116 260.752 108.139 260.935 108.734C261.301 109.917 260.813 111.461 260.141 112C259.878 112.215 259.494 112.166 259.28 111.902C259.072 111.639 259.115 111.253 259.378 111.038C259.61 110.854 260.013 109.88 259.769 109.095C259.604 108.556 259.152 108.268 258.394 108.219C257.808 108.188 257.332 108.372 256.972 108.789C255.585 110.358 255.97 114.697 256.233 116.235C256.288 116.566 256.068 116.885 255.738 116.946C255.701 116.946 255.665 116.952 255.634 116.952V116.964Z" fill="#CCAB62"/>
<path d="M238.914 132.564V160.143V162.043C238.914 162.729 238.719 163.409 238.359 163.991L232.789 172.939C231.898 174.367 233.235 176.144 234.847 175.679L240.765 173.981C241.718 173.705 242.731 173.84 243.592 174.33C245.4 175.36 249.284 176.996 255.708 176.996C264.881 176.996 272.502 169.452 272.502 160.143V132.564C272.502 123.255 264.985 115.711 255.708 115.711C246.432 115.711 238.914 123.255 238.914 132.564Z" fill="#FFDA79"/>
<path d="M248.416 144.944C248.817 144.944 249.142 144.617 249.142 144.215C249.142 143.812 248.817 143.485 248.416 143.485C248.014 143.485 247.689 143.812 247.689 144.215C247.689 144.617 248.014 144.944 248.416 144.944Z" fill="#997F4A"/>
<path d="M248.639 139.623H248.193C247.576 139.623 247.076 140.125 247.076 140.745C247.076 141.364 247.576 141.866 248.193 141.866H248.639C249.256 141.866 249.757 141.364 249.757 140.745C249.757 140.125 249.256 139.623 248.639 139.623Z" fill="#997F4A"/>
<path d="M256.647 142.043C256.647 142.043 256.635 142.043 256.623 142.043L251.206 141.657C251.035 141.645 250.913 141.497 250.925 141.332C250.937 141.16 251.102 141.038 251.249 141.05L256.666 141.436C256.837 141.448 256.959 141.595 256.947 141.761C256.934 141.92 256.8 142.043 256.641 142.043H256.647Z" fill="#997F4A"/>
<path d="M241.795 142.25C241.648 142.25 241.514 142.14 241.495 141.993C241.471 141.827 241.587 141.668 241.752 141.643L245.636 141.049C245.801 141.024 245.96 141.141 245.984 141.306C246.008 141.472 245.892 141.631 245.727 141.656L241.844 142.25C241.844 142.25 241.813 142.25 241.795 142.25Z" fill="#997F4A"/>
<path d="M251.608 133.524H251.602C250.8 133.524 250.149 134.177 250.149 134.982V136.079C250.149 136.885 250.8 137.538 251.602 137.538H251.608C252.411 137.538 253.062 136.885 253.062 136.079V134.982C253.062 134.177 252.411 133.524 251.608 133.524Z" fill="#997F4A"/>
<path d="M245.682 133.524H245.676C244.873 133.524 244.223 134.177 244.223 134.982V136.079C244.223 136.885 244.873 137.538 245.676 137.538H245.682C246.485 137.538 247.136 136.885 247.136 136.079V134.982C247.136 134.177 246.485 133.524 245.682 133.524Z" fill="#997F4A"/>
<path d="M244.3 139.53C242.102 139.53 240.313 137.569 240.313 135.16C240.313 132.752 242.102 130.791 244.3 130.791C246.499 130.791 248.288 132.752 248.288 135.16C248.288 137.569 246.499 139.53 244.3 139.53ZM244.3 131.281C242.371 131.281 240.801 133.022 240.801 135.16C240.801 137.299 242.371 139.04 244.3 139.04C246.23 139.04 247.8 137.299 247.8 135.16C247.8 133.022 246.23 131.281 244.3 131.281Z" fill="#CCAB62"/>
<path d="M252.87 139.53C250.616 139.53 248.778 137.569 248.778 135.16C248.778 132.752 250.61 130.791 252.87 130.791C255.129 130.791 256.961 132.752 256.961 135.16C256.961 137.569 255.129 139.53 252.87 139.53ZM252.87 131.281C250.885 131.281 249.267 133.022 249.267 135.16C249.267 137.299 250.879 139.04 252.87 139.04C254.861 139.04 256.473 137.299 256.473 135.16C256.473 133.022 254.855 131.281 252.87 131.281Z" fill="#CCAB62"/>
<path d="M248.909 135.178H248.158V135.668H248.909V135.178Z" fill="#CCAB62"/>
<path d="M251.226 140.542C251.061 140.542 250.927 140.414 250.921 140.248C250.915 140.077 251.043 139.936 251.208 139.93L256.631 139.66C256.802 139.648 256.942 139.783 256.948 139.954C256.955 140.126 256.826 140.267 256.661 140.273L251.239 140.542H251.226Z" fill="#997F4A"/>
<path d="M245.71 140.668C245.71 140.668 245.685 140.668 245.667 140.668L241.722 140.141C241.557 140.117 241.435 139.963 241.459 139.798C241.484 139.632 241.636 139.516 241.801 139.534L245.746 140.061C245.911 140.086 246.033 140.239 246.009 140.405C245.99 140.558 245.856 140.668 245.71 140.668Z" fill="#997F4A"/>
</g>
<path d="M197.768 193.724H198.632V199.556H197.768V193.724ZM195.296 194.9C195.296 195.972 194.852 196.9 193.964 197.684C193.084 198.468 191.828 199.108 190.196 199.604L189.896 198.86C191.272 198.452 192.364 197.92 193.172 197.264C193.98 196.608 194.4 195.908 194.432 195.164H190.076V194.384H195.296V194.9ZM197.192 201.104V204.02H199.028V204.8H191.036V204.02H192.884V201.104H191.156V200.336H198.92V201.104H197.192ZM196.352 201.104H193.724V204.02H196.352V201.104ZM205.055 198.38C204.087 198.38 203.323 198.184 202.763 197.792C202.203 197.392 201.923 196.836 201.923 196.124C201.923 195.42 202.203 194.872 202.763 194.48C203.323 194.08 204.087 193.88 205.055 193.88H206.591C207.567 193.88 208.335 194.08 208.895 194.48C209.455 194.872 209.735 195.42 209.735 196.124C209.735 196.836 209.455 197.392 208.895 197.792C208.335 198.184 207.567 198.38 206.591 198.38H205.055ZM206.459 197.624C207.219 197.624 207.811 197.492 208.235 197.228C208.659 196.956 208.871 196.592 208.871 196.136C208.871 195.672 208.659 195.308 208.235 195.044C207.819 194.78 207.227 194.648 206.459 194.648H205.199C204.423 194.648 203.823 194.78 203.399 195.044C202.983 195.308 202.775 195.672 202.775 196.136C202.775 196.6 202.987 196.964 203.411 197.228C203.835 197.492 204.431 197.624 205.199 197.624H206.459ZM211.007 200.528H200.639V199.736H211.007V200.528ZM209.855 204.8H202.091V201.584H202.943V204.008H209.855V204.8ZM223.672 198.056H225.508V198.848H223.672V204.8H222.808V193.724H223.672V198.056ZM218.464 195.8C218.464 196.736 218.348 197.644 218.116 198.524L221.428 202.592L220.792 203.144L217.804 199.472C217.292 200.784 216.448 202.048 215.272 203.264L214.672 202.688C215.672 201.664 216.412 200.6 216.892 199.496C217.38 198.392 217.624 197.16 217.624 195.8V194.408H218.464V195.8ZM234.979 196.328V193.736H235.807V199.964H234.979V197.108H233.311V199.964H232.483V193.844H233.311V196.328H234.979ZM231.319 199.556L228.883 197.384C228.443 198.256 227.715 199.064 226.699 199.808L226.207 199.148C227.007 198.556 227.607 197.912 228.007 197.216C228.415 196.52 228.619 195.752 228.619 194.912V194.12H229.459V194.912C229.459 195.504 229.375 196.064 229.207 196.592L231.823 198.944L231.319 199.556ZM234.955 201.524H228.547V200.744H235.807V204.908H234.955V201.524ZM243.635 203.348L245.987 197.228H246.899L244.127 204.164H243.143L240.359 197.228H241.271L243.635 203.348ZM247.93 202.136C248.186 202.624 248.51 202.988 248.902 203.228C249.302 203.468 249.758 203.588 250.27 203.588C250.79 203.588 251.214 203.488 251.542 203.288C251.878 203.096 252.046 202.82 252.046 202.46C252.046 202.124 251.926 201.864 251.686 201.68C251.454 201.496 251.102 201.332 250.63 201.188L249.682 200.912C249.058 200.728 248.57 200.484 248.218 200.18C247.874 199.868 247.702 199.444 247.702 198.908C247.702 198.34 247.926 197.888 248.374 197.552C248.822 197.216 249.39 197.048 250.078 197.048C250.718 197.048 251.27 197.188 251.734 197.468C252.198 197.74 252.57 198.136 252.85 198.656L252.178 199.1C251.946 198.692 251.65 198.376 251.29 198.152C250.93 197.92 250.522 197.804 250.066 197.804C249.602 197.804 249.23 197.904 248.95 198.104C248.678 198.304 248.542 198.572 248.542 198.908C248.542 199.22 248.646 199.472 248.854 199.664C249.07 199.848 249.394 200.008 249.826 200.144L250.774 200.42C251.43 200.612 251.946 200.86 252.322 201.164C252.698 201.468 252.886 201.9 252.886 202.46C252.886 203.06 252.634 203.524 252.13 203.852C251.626 204.18 251.002 204.344 250.258 204.344C249.57 204.344 248.966 204.192 248.446 203.888C247.926 203.592 247.522 203.152 247.234 202.568L247.93 202.136ZM261.052 195.008H263.872V195.728H257.38V195.008H260.188V193.736H261.052V195.008ZM265.432 204.8V193.736H266.284V204.8H265.432ZM257.92 198.14C257.92 197.588 258.176 197.156 258.688 196.844C259.2 196.532 259.852 196.376 260.644 196.376C261.42 196.376 262.06 196.532 262.564 196.844C263.076 197.156 263.332 197.588 263.332 198.14V198.296C263.332 198.856 263.08 199.296 262.576 199.616C262.072 199.928 261.428 200.084 260.644 200.084C259.844 200.084 259.188 199.928 258.676 199.616C258.172 199.296 257.92 198.856 257.92 198.296V198.14ZM262.492 198.164C262.492 197.836 262.316 197.572 261.964 197.372C261.612 197.172 261.172 197.072 260.644 197.072C260.1 197.072 259.648 197.172 259.288 197.372C258.936 197.572 258.76 197.836 258.76 198.164V198.284C258.76 198.62 258.936 198.888 259.288 199.088C259.648 199.28 260.1 199.376 260.644 199.376C261.172 199.376 261.612 199.28 261.964 199.088C262.316 198.888 262.492 198.62 262.492 198.284V198.164ZM264.472 201.572C263.472 201.724 262.312 201.832 260.992 201.896C260.936 202.688 260.836 203.688 260.692 204.896L259.84 204.8C259.976 203.8 260.072 202.844 260.128 201.932C259.6 201.948 259.224 201.956 259 201.956H257.08L257.032 201.176H259.048C259.744 201.176 260.592 201.148 261.592 201.092C262.592 201.028 263.52 200.944 264.376 200.84L264.472 201.572ZM277.675 204.8H276.823V193.724H277.675V204.8ZM268.975 203.192V198.452H273.271V195.392H268.975V194.612H274.135V199.232H269.827V202.412H270.991C271.655 202.412 272.391 202.38 273.199 202.316C274.015 202.244 274.779 202.152 275.491 202.04L275.599 202.784C274.943 202.912 274.191 203.012 273.343 203.084C272.495 203.156 271.663 203.192 270.847 203.192H268.975ZM289.053 200.192H288.201V193.736H289.053V200.192ZM280.353 199.796V196.628H284.661V195.08H280.353V194.324H285.513V197.384H281.193V199.028H282.369C283.049 199.028 283.793 198.996 284.601 198.932C285.417 198.86 286.173 198.768 286.869 198.656L286.977 199.388C286.305 199.508 285.545 199.608 284.697 199.688C283.849 199.76 283.025 199.796 282.225 199.796H280.353ZM289.053 204.908H288.201V201.764H281.817V200.972H289.053V204.908ZM298.946 197.576C298.202 198.688 296.89 199.692 295.01 200.588L294.614 199.856C296.038 199.168 297.09 198.448 297.77 197.696C298.458 196.936 298.802 196.12 298.802 195.248V194.36H299.654V195.248C299.654 195.792 299.546 196.324 299.33 196.844L303.734 199.892L303.254 200.588L298.946 197.576ZM293.99 203.9V203.12H304.358V203.9H293.99ZM313.865 199.496V193.724H314.729V199.496H313.865ZM311.513 194.888C311.513 196.064 311.053 197.06 310.133 197.876C309.221 198.692 307.921 199.328 306.233 199.784L305.993 199.076C306.865 198.844 307.633 198.552 308.297 198.2C308.961 197.848 309.493 197.452 309.893 197.012C309.365 197.06 308.753 197.1 308.057 197.132C307.369 197.164 306.745 197.18 306.185 197.18H305.945L305.909 196.472H306.149C306.717 196.472 307.429 196.452 308.285 196.412C309.141 196.372 309.849 196.324 310.409 196.268C310.609 195.9 310.709 195.504 310.709 195.08H306.137V194.324H311.513V194.888ZM308.465 201.644H313.865V200.168H314.729V204.8H307.613V200.168H308.465V201.644ZM308.465 202.412V204.02H313.865V202.412H308.465Z" fill="#666666"/>
<path d="M226.367 221.744H227.987V223.136H226.367V228.896H224.831V217.688H226.367V221.744ZM221.183 219.836C221.183 220.764 221.083 221.64 220.883 222.464L223.907 226.34L222.743 227.288L220.295 224.168C219.783 225.312 219.047 226.388 218.087 227.396L216.983 226.412C217.927 225.404 218.611 224.376 219.035 223.328C219.467 222.28 219.683 221.116 219.683 219.836V218.312H221.183V219.836ZM237.134 220.004V217.7H238.574V223.976H237.134V221.36H236.03V223.976H234.626V217.808H236.03V220.004H237.134ZM233.414 223.712L231.374 221.912C230.942 222.64 230.306 223.32 229.466 223.952L228.566 222.824C230.014 221.736 230.738 220.388 230.738 218.78V218.024H232.202V218.78C232.202 219.428 232.126 220.02 231.974 220.556L234.314 222.632L233.414 223.712ZM237.05 225.968H230.762V224.588H238.574V229.016H237.05V225.968ZM249.761 228.896H248.225V217.688H249.761V228.896ZM243.713 224.444C243.121 224.444 242.589 224.332 242.117 224.108C241.653 223.884 241.285 223.544 241.013 223.088C240.741 222.632 240.605 222.072 240.605 221.408V221.216C240.605 220.544 240.741 219.98 241.013 219.524C241.285 219.068 241.653 218.728 242.117 218.504C242.589 218.28 243.121 218.168 243.713 218.168C244.297 218.168 244.821 218.28 245.285 218.504C245.749 218.728 246.117 219.068 246.389 219.524C246.661 219.98 246.797 220.544 246.797 221.216V221.408C246.797 222.072 246.661 222.632 246.389 223.088C246.117 223.544 245.749 223.884 245.285 224.108C244.821 224.332 244.297 224.444 243.713 224.444ZM243.713 223.052C244.161 223.052 244.529 222.912 244.817 222.632C245.113 222.344 245.261 221.928 245.261 221.384V221.216C245.261 220.672 245.113 220.26 244.817 219.98C244.529 219.692 244.161 219.548 243.713 219.548C243.257 219.548 242.881 219.692 242.585 219.98C242.297 220.26 242.153 220.672 242.153 221.216V221.384C242.153 221.928 242.297 222.344 242.585 222.632C242.881 222.912 243.257 223.052 243.713 223.052ZM240.221 227.252L240.149 225.86H242.165C242.853 225.86 243.681 225.832 244.649 225.776C245.625 225.712 246.545 225.628 247.409 225.524L247.589 226.892C246.757 227.012 245.841 227.1 244.841 227.156C243.841 227.22 242.901 227.252 242.021 227.252H240.221ZM258.836 218.528H261.416V219.74H254.708V218.528H257.288V217.568H258.836V218.528ZM262.58 223.892V217.688H264.116V223.892H262.58ZM260.936 222.128C260.936 222.728 260.668 223.188 260.132 223.508C259.596 223.82 258.908 223.976 258.068 223.976C257.22 223.976 256.528 223.82 255.992 223.508C255.456 223.188 255.188 222.728 255.188 222.128V222.02C255.188 221.412 255.456 220.952 255.992 220.64C256.528 220.32 257.22 220.16 258.068 220.16C258.908 220.16 259.596 220.32 260.132 220.64C260.668 220.952 260.936 221.412 260.936 222.02V222.128ZM256.676 222.116C256.676 222.316 256.808 222.476 257.072 222.596C257.336 222.708 257.668 222.764 258.068 222.764C258.468 222.764 258.796 222.708 259.052 222.596C259.316 222.476 259.448 222.316 259.448 222.116V222.032C259.448 221.832 259.316 221.672 259.052 221.552C258.796 221.432 258.468 221.372 258.068 221.372C257.668 221.372 257.336 221.432 257.072 221.552C256.808 221.672 256.676 221.832 256.676 222.032V222.116ZM258.032 225.344H262.58V224.384H264.116V228.896H256.496V224.384H258.032V225.344ZM258.032 226.664V227.564H262.58V226.664H258.032ZM270.827 221.972C270.003 223.012 268.703 223.928 266.927 224.72L266.219 223.4C267.683 222.72 268.735 222.024 269.375 221.312C270.023 220.592 270.347 219.836 270.347 219.044V218.204H271.883V219.044C271.883 219.612 271.783 220.156 271.583 220.676L275.891 223.448L275.051 224.72L270.827 221.972ZM265.775 228.116V226.712H276.335V228.116H265.775ZM285.338 221.852V217.688H286.874V228.896H285.338V223.256H283.73V221.852H285.338ZM280.238 225.968C281.486 225.968 282.766 225.864 284.078 225.656L284.258 226.976C283.002 227.224 281.574 227.348 279.974 227.348H277.706V218.456H283.322V219.836H279.23V222.164H283.214V223.508H279.23V225.968H280.238Z" fill="black"/>
<path d="M48.5539 25.624H51.8659V27.224H43.1619V25.624H46.4899V24.424H48.5539V25.624ZM55.4019 24.584V29.512H57.4019V31.384H55.4019V36.184H53.3539V24.584H55.4019ZM52.4899 34.728C51.4019 34.8773 50.2019 34.9947 48.8899 35.08C47.5886 35.1653 46.3833 35.208 45.2739 35.208H42.9859L42.8899 33.576H45.4659C45.9459 33.576 46.3193 33.5707 46.5859 33.56V32.504C45.7326 32.408 45.0553 32.168 44.5539 31.784C44.0526 31.4 43.8019 30.888 43.8019 30.248V30.072C43.8019 29.3147 44.1486 28.7387 44.8419 28.344C45.5353 27.9493 46.4366 27.752 47.5459 27.752C48.6446 27.752 49.5353 27.9493 50.2179 28.344C50.9113 28.7387 51.2579 29.3147 51.2579 30.072V30.248C51.2579 30.8667 51.0179 31.368 50.5379 31.752C50.0686 32.1253 49.4339 32.3707 48.6339 32.488V33.464C50.1806 33.3573 51.4073 33.2507 52.3139 33.144L52.4899 34.728ZM45.8499 30.216C45.8499 30.4507 46.0099 30.6373 46.3299 30.776C46.6499 30.9147 47.0553 30.984 47.5459 30.984C48.0259 30.984 48.4206 30.9147 48.7299 30.776C49.0499 30.6373 49.2099 30.4507 49.2099 30.216V30.104C49.2099 29.8693 49.0499 29.6827 48.7299 29.544C48.4206 29.4053 48.0259 29.336 47.5459 29.336C47.0553 29.336 46.6499 29.4053 46.3299 29.544C46.0099 29.6827 45.8499 29.8693 45.8499 30.104V30.216ZM45.4179 35.944H47.4499V37.736H56.1059V39.528H45.4179V35.944ZM70.4138 24.6V27.512H72.5738V29.352H70.4138V32.728H68.3658V24.6H70.4138ZM62.3978 29.944C61.6405 30.9893 60.5311 31.9333 59.0698 32.776L57.9818 31.16C59.2725 30.392 60.2005 29.5867 60.7658 28.744C61.3311 27.9013 61.6138 26.9893 61.6138 26.008V25.032H63.6138V26.008C63.6138 26.7973 63.5018 27.5387 63.2778 28.232L67.1818 30.872L66.0938 32.456L62.3978 29.944ZM67.1498 33.384C67.8538 33.384 68.4778 33.5173 69.0218 33.784C69.5658 34.04 69.9871 34.408 70.2858 34.888C70.5951 35.368 70.7498 35.9173 70.7498 36.536C70.7498 37.1653 70.5951 37.7147 70.2858 38.184C69.9871 38.664 69.5658 39.032 69.0218 39.288C68.4778 39.5547 67.8538 39.688 67.1498 39.688H63.8698C63.1658 39.688 62.5418 39.5547 61.9978 39.288C61.4538 39.032 61.0271 38.664 60.7178 38.184C60.4191 37.7147 60.2698 37.1653 60.2698 36.536C60.2698 35.9173 60.4191 35.368 60.7178 34.888C61.0271 34.408 61.4538 34.04 61.9978 33.784C62.5525 33.5173 63.1765 33.384 63.8698 33.384H67.1498ZM66.8458 37.864C67.4431 37.864 67.9018 37.7413 68.2218 37.496C68.5418 37.2613 68.7018 36.936 68.7018 36.52C68.7018 36.1147 68.5418 35.7947 68.2218 35.56C67.9018 35.3147 67.4431 35.192 66.8458 35.192H64.1578C63.5605 35.192 63.1018 35.3147 62.7818 35.56C62.4725 35.7947 62.3178 36.1147 62.3178 36.52C62.3178 36.936 62.4725 37.2613 62.7818 37.496C63.1018 37.7413 63.5605 37.864 64.1578 37.864H66.8458ZM86.4337 39.528H84.3857V24.584H86.4337V39.528ZM78.3697 33.592C77.5804 33.592 76.871 33.4427 76.2417 33.144C75.623 32.8453 75.1324 32.392 74.7697 31.784C74.407 31.176 74.2257 30.4293 74.2257 29.544V29.288C74.2257 28.392 74.407 27.64 74.7697 27.032C75.1324 26.424 75.623 25.9707 76.2417 25.672C76.871 25.3733 77.5804 25.224 78.3697 25.224C79.1484 25.224 79.847 25.3733 80.4657 25.672C81.0844 25.9707 81.575 26.424 81.9377 27.032C82.3004 27.64 82.4817 28.392 82.4817 29.288V29.544C82.4817 30.4293 82.3004 31.176 81.9377 31.784C81.575 32.392 81.0844 32.8453 80.4657 33.144C79.847 33.4427 79.1484 33.592 78.3697 33.592ZM78.3697 31.736C78.967 31.736 79.4577 31.5493 79.8417 31.176C80.2364 30.792 80.4337 30.2373 80.4337 29.512V29.288C80.4337 28.5627 80.2364 28.0133 79.8417 27.64C79.4577 27.256 78.967 27.064 78.3697 27.064C77.7617 27.064 77.2604 27.256 76.8657 27.64C76.4817 28.0133 76.2897 28.5627 76.2897 29.288V29.512C76.2897 30.2373 76.4817 30.792 76.8657 31.176C77.2604 31.5493 77.7617 31.736 78.3697 31.736ZM73.7137 37.336L73.6177 35.48H76.3057C77.223 35.48 78.327 35.4427 79.6177 35.368C80.919 35.2827 82.1457 35.1707 83.2977 35.032L83.5377 36.856C82.4284 37.016 81.207 37.1333 79.8737 37.208C78.5404 37.2933 77.287 37.336 76.1137 37.336H73.7137ZM103.846 29.992V24.584H105.83V39.528H103.846V31.848H102.358V39.176H100.422V24.824H102.358V29.992H103.846ZM97.1263 28.664C97.105 29.752 97.0036 30.7067 96.8223 31.528L100.054 36.184L98.4703 37.384L96.0863 33.912C95.5636 35.1493 94.833 36.3547 93.8943 37.528L92.3903 36.328C93.361 35.0693 94.0596 33.8267 94.4863 32.6C94.9236 31.3733 95.153 30.0613 95.1743 28.664H92.8863V26.808H95.1903V24.6H97.1583V26.808H99.5743V28.664H97.1263ZM118.698 30.136V24.584H120.746V39.528H118.698V32.008H116.554V30.136H118.698ZM111.898 35.624C113.562 35.624 115.269 35.4853 117.018 35.208L117.258 36.968C115.584 37.2987 113.68 37.464 111.546 37.464H108.522V25.608H116.01V27.448H110.554V30.552H115.866V32.344H110.554V35.624H111.898Z" fill="#0455BE"/>
<g clip-path="url(#clip1_6600_30928)">
<path d="M85.5345 61.2176C85.1986 61.2176 84.9238 60.9418 84.9238 60.6046V57.613C84.9238 57.2759 85.1986 57 85.5345 57C85.8704 57 86.1452 57.2759 86.1452 57.613V60.6046C86.1452 60.9418 85.8704 61.2176 85.5345 61.2176Z" fill="#C99A3A"/>
<path d="M88.4136 61.5692C88.322 61.5692 88.2304 61.5508 88.1449 61.5079C87.8395 61.3608 87.7174 60.9929 87.8639 60.6864L89.2013 57.9523C89.3479 57.6458 89.7143 57.5232 90.0197 57.6703C90.325 57.8175 90.4471 58.1853 90.3006 58.4918L88.9632 61.2259C88.8594 61.4404 88.6395 61.5692 88.4136 61.5692Z" fill="#C99A3A"/>
<path d="M82.7283 61.5692C82.5023 61.5692 82.2825 61.4404 82.1786 61.2259L80.8412 58.4918C80.6947 58.1853 80.8168 57.8175 81.1222 57.6703C81.4275 57.5232 81.7939 57.6458 81.9405 57.9523L83.2779 60.6864C83.4244 60.9929 83.3023 61.3608 82.997 61.5079C82.9115 61.5508 82.8199 61.5692 82.7283 61.5692Z" fill="#C99A3A"/>
<path d="M68.9101 77.3813V160.14V162.04C68.9101 162.727 68.7147 163.407 68.3544 163.99L62.7849 172.94C61.8933 174.368 63.2307 176.146 64.8429 175.68L70.7605 173.982C71.7131 173.706 72.7269 173.841 73.5879 174.331C75.3956 175.361 79.2796 176.998 85.704 176.998C94.8765 176.998 102.498 169.452 102.498 160.14V77.3813C102.498 68.0694 94.9803 60.5231 85.704 60.5231C76.4276 60.5231 68.9101 68.0694 68.9101 77.3813Z" fill="#FFCC47"/>
<path d="M77.9459 87.4218H77.5001C76.8829 87.4218 76.3826 87.924 76.3826 88.5436C76.3826 89.1632 76.8829 89.6654 77.5001 89.6654H77.9459C78.5631 89.6654 79.0635 89.1632 79.0635 88.5436C79.0635 87.924 78.5631 87.4218 77.9459 87.4218Z" fill="#99752C"/>
<path d="M80.5337 87.9391C80.3749 87.9391 80.2406 87.8165 80.2284 87.6571C80.2162 87.4855 80.3383 87.3383 80.5093 87.3261L85.9261 86.897C86.0788 86.8908 86.2436 87.0073 86.2559 87.179C86.2681 87.3506 86.1459 87.4977 85.9749 87.51L80.5582 87.9391C80.5582 87.9391 80.5398 87.9391 80.5337 87.9391Z" fill="#997F4A"/>
<path d="M85.9505 89.8387C85.9505 89.8387 85.9383 89.8387 85.9261 89.8387L80.5093 89.4525C80.3383 89.4402 80.2162 89.2931 80.2284 89.1276C80.2406 88.9559 80.3994 88.8333 80.552 88.8456L85.9688 89.2318C86.1398 89.244 86.262 89.3912 86.2498 89.5567C86.2375 89.7161 86.1032 89.8387 85.9444 89.8387H85.9505Z" fill="#997F4A"/>
<path d="M74.9823 87.9387C74.9823 87.9387 74.9396 87.9387 74.9151 87.9325L71.0312 87.0559C70.8663 87.0191 70.7625 86.8536 70.7991 86.6881C70.8357 86.5226 71.0006 86.4184 71.1655 86.4551L75.0495 87.3318C75.2144 87.3685 75.3182 87.5341 75.2815 87.6996C75.251 87.8406 75.1228 87.9387 74.9823 87.9387Z" fill="#997F4A"/>
<path d="M71.1014 90.0495C70.9549 90.0495 70.8205 89.9392 70.8022 89.7921C70.7778 89.6265 70.8938 89.4671 71.0587 89.4426L74.9427 88.848C75.1075 88.8235 75.2663 88.9399 75.2907 89.1055C75.3152 89.271 75.1991 89.4304 75.0343 89.4549L71.1503 90.0495C71.1503 90.0495 71.1198 90.0495 71.1014 90.0495Z" fill="#997F4A"/>
<path d="M80.9116 81.6683H80.9055C80.1028 81.6683 79.452 82.3216 79.452 83.1273V84.2247C79.452 85.0304 80.1028 85.6837 80.9055 85.6837H80.9116C81.7143 85.6837 82.365 85.0304 82.365 84.2247V83.1273C82.365 82.3216 81.7143 81.6683 80.9116 81.6683Z" fill="#99752C"/>
<path d="M74.9853 81.6683H74.9792C74.1765 81.6683 73.5258 82.3216 73.5258 83.1273V84.2247C73.5258 85.0304 74.1765 85.6837 74.9792 85.6837H74.9853C75.788 85.6837 76.4387 85.0304 76.4387 84.2247V83.1273C76.4387 82.3216 75.788 81.6683 74.9853 81.6683Z" fill="#99752C"/>
<path d="M76.6749 92.1946L79.3741 91.7348C79.5939 91.698 79.7771 91.9003 79.7222 92.1149L78.91 95.1371C78.8428 95.3823 78.5191 95.4436 78.3726 95.2413L76.4855 92.685C76.3512 92.5011 76.455 92.2375 76.681 92.2007L76.6749 92.1946Z" fill="#99752C"/>
<path d="M79.4524 80.5807C79.4035 80.5807 79.3546 80.5685 79.3119 80.544C79.1592 80.4643 79.1043 80.2804 79.1775 80.1332C79.1959 80.1026 80.8264 76.9884 84.002 78.1102C84.1607 78.1654 84.2462 78.3432 84.1913 78.5026C84.1363 78.662 83.9653 78.7478 83.8004 78.6926C81.1256 77.7547 79.7821 80.311 79.7211 80.4213C79.6661 80.5256 79.5623 80.5869 79.4524 80.5869V80.5807Z" fill="#C99A3A"/>
<path d="M76.4396 80.5834C76.3419 80.5834 76.2503 80.5405 76.1892 80.4547C76.1221 80.3566 74.4732 78.0577 72.2747 79.198C72.1282 79.2777 71.9389 79.2164 71.8656 79.0631C71.7862 78.9099 71.8473 78.7259 71.9938 78.6524C74.6686 77.2669 76.6717 80.0746 76.69 80.0991C76.7877 80.2401 76.7511 80.4302 76.6167 80.5282C76.5618 80.565 76.5007 80.5834 76.4396 80.5834Z" fill="#C99A3A"/>
</g>
<path d="M36.6199 194.972H39.4039V195.716H32.9839V194.972H35.7679V193.58H36.6199V194.972ZM41.6599 193.724V197.12H43.5079V197.924H41.6599V202.244H40.8079V193.724H41.6599ZM38.8879 198.74C38.8879 199.38 38.6359 199.888 38.1319 200.264C37.6279 200.632 36.9879 200.816 36.2119 200.816C35.7079 200.816 35.2519 200.736 34.8439 200.576C34.4359 200.408 34.1119 200.168 33.8719 199.856C33.6399 199.544 33.5239 199.172 33.5239 198.74V198.536C33.5239 197.896 33.7759 197.396 34.2799 197.036C34.7919 196.668 35.4359 196.484 36.2119 196.484C36.9879 196.484 37.6279 196.668 38.1319 197.036C38.6359 197.396 38.8879 197.896 38.8879 198.536V198.74ZM34.3759 198.728C34.3759 199.128 34.5479 199.452 34.8919 199.7C35.2439 199.94 35.6839 200.06 36.2119 200.06C36.7319 200.06 37.1679 199.94 37.5199 199.7C37.8719 199.452 38.0479 199.128 38.0479 198.728V198.56C38.0479 198.16 37.8719 197.84 37.5199 197.6C37.1679 197.352 36.7319 197.228 36.2119 197.228C35.6839 197.228 35.2439 197.352 34.8919 197.6C34.5479 197.84 34.3759 198.16 34.3759 198.56V198.728ZM34.7719 201.812H35.6359V204.008H42.2959V204.788H34.7719V201.812ZM52.7988 199.496V193.724H53.6628V199.496H52.7988ZM50.5308 196.7C50.5308 197.228 50.4028 197.68 50.1468 198.056C49.8988 198.424 49.5548 198.704 49.1148 198.896C48.6828 199.08 48.1988 199.172 47.6628 199.172C47.1188 199.172 46.6268 199.08 46.1868 198.896C45.7548 198.704 45.4108 198.424 45.1548 198.056C44.9068 197.68 44.7828 197.228 44.7828 196.7V196.496C44.7828 195.704 45.0508 195.096 45.5868 194.672C46.1308 194.24 46.8228 194.024 47.6628 194.024C48.4948 194.024 49.1788 194.24 49.7148 194.672C50.2588 195.096 50.5308 195.704 50.5308 196.496V196.7ZM45.6468 196.688C45.6468 197.224 45.8308 197.644 46.1988 197.948C46.5668 198.244 47.0548 198.392 47.6628 198.392C48.2628 198.392 48.7468 198.244 49.1148 197.948C49.4908 197.644 49.6788 197.224 49.6788 196.688V196.508C49.6788 195.964 49.4908 195.544 49.1148 195.248C48.7468 194.952 48.2628 194.804 47.6628 194.804C47.0548 194.804 46.5668 194.952 46.1988 195.248C45.8308 195.544 45.6468 195.964 45.6468 196.508V196.688ZM47.3988 201.644H52.7988V200.168H53.6628V204.8H46.5468V200.168H47.3988V201.644ZM47.3988 202.412V204.02H52.7988V202.412H47.3988ZM64.3457 204.8V193.724H65.1857V204.8H64.3457ZM61.9577 198.176V193.904H62.7857V204.596H61.9577V198.956H60.4577V199.652C60.4577 200.9 60.2497 201.824 59.8337 202.424C59.4177 203.024 58.8697 203.324 58.1897 203.324C57.4937 203.324 56.9377 203.024 56.5217 202.424C56.1057 201.824 55.8977 200.9 55.8977 199.652V197.996C55.8977 196.748 56.1057 195.824 56.5217 195.224C56.9377 194.624 57.4937 194.324 58.1897 194.324C58.8697 194.324 59.4177 194.624 59.8337 195.224C60.2497 195.824 60.4577 196.748 60.4577 197.996V198.176H61.9577ZM59.6297 197.996C59.6297 197.012 59.4977 196.288 59.2337 195.824C58.9777 195.352 58.6257 195.116 58.1777 195.116C57.7297 195.116 57.3737 195.352 57.1097 195.824C56.8537 196.288 56.7257 197.012 56.7257 197.996V199.64C56.7257 200.624 56.8537 201.352 57.1097 201.824C57.3737 202.296 57.7297 202.532 58.1777 202.532C58.6257 202.532 58.9777 202.296 59.2337 201.824C59.4977 201.352 59.6297 200.624 59.6297 199.64V197.996ZM73.0746 194.876H75.2706V195.608H70.0146V194.876H72.2106V193.58H73.0746V194.876ZM78.6426 196.676V193.724H79.4826V200.324H78.6426V197.444H76.9746V200.324H76.1586V193.844H76.9746V196.676H78.6426ZM74.8386 198.32C74.8386 198.904 74.6386 199.364 74.2386 199.7C73.8386 200.028 73.3146 200.192 72.6666 200.192C72.0026 200.192 71.4706 200.028 71.0706 199.7C70.6706 199.372 70.4706 198.912 70.4706 198.32V198.152C70.4706 197.568 70.6706 197.112 71.0706 196.784C71.4706 196.456 72.0026 196.292 72.6666 196.292C73.3146 196.292 73.8386 196.456 74.2386 196.784C74.6386 197.112 74.8386 197.568 74.8386 198.152V198.32ZM71.2626 198.308C71.2626 198.652 71.3906 198.932 71.6466 199.148C71.9026 199.356 72.2426 199.46 72.6666 199.46C73.0746 199.46 73.4026 199.356 73.6506 199.148C73.9066 198.932 74.0346 198.652 74.0346 198.308V198.188C74.0346 197.836 73.9066 197.556 73.6506 197.348C73.4026 197.132 73.0746 197.024 72.6666 197.024C72.2426 197.024 71.9026 197.132 71.6466 197.348C71.3906 197.556 71.2626 197.836 71.2626 198.188V198.308ZM78.6186 201.896H72.2106V201.104H79.4826V204.908H78.6186V201.896ZM89.8535 199.724V193.724H90.7055V199.724H89.8535ZM84.7175 197.228C84.1575 198.1 83.2175 198.9 81.8975 199.628L81.4775 198.932C82.5095 198.356 83.2775 197.74 83.7815 197.084C84.2935 196.42 84.5495 195.672 84.5495 194.84V194.12H85.4015V194.84C85.4015 195.424 85.2975 195.98 85.0895 196.508L88.4615 198.704L88.0175 199.4L84.7175 197.228ZM90.7055 204.8H83.5895V200.516H90.7055V204.8ZM89.8535 201.284H84.4415V204.02H89.8535V201.284ZM101.484 193.724V196.664H103.32V197.456H101.484V202.136H100.62V193.724H101.484ZM93.0004 194.384H98.1844V199.856H93.0004V194.384ZM93.8404 199.088H97.3444V195.152H93.8404V199.088ZM94.5844 201.428H95.4484V204.008H102.108V204.8H94.5844V201.428ZM112.649 199.328H117.401V200.084H107.033V199.328H111.797V198.068L110.165 196.76C109.789 197.352 109.165 197.892 108.293 198.38L107.861 197.72C108.637 197.264 109.169 196.788 109.457 196.292C109.745 195.788 109.889 195.22 109.889 194.588V194H110.729V194.588C110.729 195.156 110.657 195.64 110.513 196.04L112.229 197.408C112.813 197 113.213 196.572 113.429 196.124C113.645 195.668 113.753 195.156 113.753 194.588V194H114.593V194.588C114.593 195.148 114.521 195.628 114.377 196.028L116.585 197.78L116.081 198.38L114.041 196.748C113.729 197.236 113.265 197.684 112.649 198.092V199.328ZM115.205 202.22H108.377V201.44H116.069V204.92H115.205V202.22ZM124.028 199.328H128.78V200.084H118.412V199.328H123.176V198.068L121.544 196.76C121.168 197.352 120.544 197.892 119.672 198.38L119.24 197.72C120.016 197.264 120.548 196.788 120.836 196.292C121.124 195.788 121.268 195.22 121.268 194.588V194H122.108V194.588C122.108 195.156 122.036 195.64 121.892 196.04L123.608 197.408C124.192 197 124.592 196.572 124.808 196.124C125.024 195.668 125.132 195.156 125.132 194.588V194H125.972V194.588C125.972 195.148 125.9 195.628 125.756 196.028L127.964 197.78L127.46 198.38L125.42 196.748C125.108 197.236 124.644 197.684 124.028 198.092V199.328ZM126.584 202.22H119.756V201.44H127.448V204.92H126.584V202.22ZM131.339 201.236H130.523L130.451 194.216H131.411L131.339 201.236ZM130.931 204.344C130.747 204.344 130.587 204.276 130.451 204.14C130.323 204.012 130.259 203.856 130.259 203.672C130.259 203.488 130.323 203.332 130.451 203.204C130.587 203.076 130.747 203.012 130.931 203.012C131.115 203.012 131.271 203.076 131.399 203.204C131.535 203.332 131.603 203.488 131.603 203.672C131.603 203.856 131.535 204.012 131.399 204.14C131.271 204.276 131.115 204.344 130.931 204.344Z" fill="#666666"/>
<path d="M68.3819 225.98H66.8459V217.688H68.3819V225.98ZM62.1299 224.3C61.5379 224.3 61.0099 224.188 60.5459 223.964C60.0819 223.732 59.7139 223.388 59.4419 222.932C59.1699 222.468 59.0339 221.896 59.0339 221.216V221.036C59.0339 220.356 59.1699 219.784 59.4419 219.32C59.7139 218.848 60.0819 218.5 60.5459 218.276C61.0099 218.044 61.5379 217.928 62.1299 217.928C62.7139 217.928 63.2379 218.044 63.7019 218.276C64.1659 218.5 64.5299 218.844 64.7939 219.308C65.0659 219.772 65.2019 220.348 65.2019 221.036V221.216C65.2019 221.896 65.0659 222.468 64.7939 222.932C64.5299 223.388 64.1659 223.732 63.7019 223.964C63.2379 224.188 62.7139 224.3 62.1299 224.3ZM62.1299 222.956C62.5779 222.956 62.9459 222.808 63.2339 222.512C63.5299 222.208 63.6779 221.772 63.6779 221.204V221.036C63.6779 220.46 63.5299 220.024 63.2339 219.728C62.9459 219.424 62.5779 219.272 62.1299 219.272C61.6739 219.272 61.2979 219.424 61.0019 219.728C60.7139 220.024 60.5699 220.46 60.5699 221.036V221.204C60.5699 221.78 60.7139 222.216 61.0019 222.512C61.2979 222.808 61.6739 222.956 62.1299 222.956ZM68.8019 228.896H60.7739V225.224H62.3099V227.504H68.8019V228.896ZM76.0888 224.636V226.712H80.6008V228.116H70.0408V226.712H74.5528V224.636H71.0968V223.256H72.7768V219.764H71.0968V218.384H79.5568V219.764H77.8768V223.256H79.5568V224.636H76.0888ZM76.3888 219.764H74.2648V223.256H76.3888V219.764ZM88.7763 218.66H91.2963V219.932H84.7083V218.66H87.2283V217.568H88.7763V218.66ZM91.2123 222.152V220.844H92.5803V217.688H94.1163V226.088H92.5803V222.152H91.2123ZM90.8403 222.692C90.8403 223.364 90.5763 223.884 90.0483 224.252C89.5203 224.62 88.8443 224.804 88.0203 224.804C87.1963 224.804 86.5163 224.62 85.9803 224.252C85.4523 223.884 85.1883 223.364 85.1883 222.692V222.536C85.1883 221.872 85.4523 221.356 85.9803 220.988C86.5163 220.62 87.1963 220.436 88.0203 220.436C88.8443 220.436 89.5203 220.62 90.0483 220.988C90.5763 221.356 90.8403 221.872 90.8403 222.536V222.692ZM86.6883 222.68C86.6883 222.944 86.8123 223.152 87.0603 223.304C87.3083 223.456 87.6283 223.532 88.0203 223.532C88.4043 223.532 88.7203 223.456 88.9683 223.304C89.2243 223.152 89.3523 222.944 89.3523 222.68V222.548C89.3523 222.292 89.2243 222.088 88.9683 221.936C88.7203 221.784 88.4043 221.708 88.0203 221.708C87.6363 221.708 87.3163 221.784 87.0603 221.936C86.8123 222.088 86.6883 222.292 86.6883 222.548V222.68ZM88.0443 225.62V227.504H94.5363V228.896H86.5083V225.62H88.0443ZM103.959 221.852V217.688H105.495V228.896H103.959V223.256H102.351V221.852H103.959ZM98.8592 225.968C100.107 225.968 101.387 225.864 102.699 225.656L102.879 226.976C101.623 227.224 100.195 227.348 98.5952 227.348H96.3272V218.456H101.943V219.836H97.8512V222.164H101.835V223.508H97.8512V225.968H98.8592Z" fill="black"/>
<mask id="path-35-inside-1_6600_30928" fill="white">
<path d="M171 1V253H165V1H171Z"/>
</mask>
<path d="M171 1V253H165V1H171Z" fill="#FFFBF0"/>
<path d="M170 1V253H172V1H170ZM166 253V1H164V253H166Z" fill="#E6E6E6" mask="url(#path-35-inside-1_6600_30928)"/>
<rect x="160.375" y="50.3746" width="15.2507" height="4.25074" rx="2.12537" fill="white"/>
<rect x="160.375" y="50.3746" width="15.2507" height="4.25074" rx="2.12537" stroke="#E6E6E6" stroke-width="0.749263"/>
<rect x="160.375" y="101.375" width="15.2507" height="3.25074" rx="1.62537" fill="white"/>
<rect x="160.375" y="101.375" width="15.2507" height="3.25074" rx="1.62537" stroke="#E6E6E6" stroke-width="0.749263"/>
<rect x="160.375" y="151.375" width="15.2507" height="3.25074" rx="1.62537" fill="white"/>
<rect x="160.375" y="151.375" width="15.2507" height="3.25074" rx="1.62537" stroke="#E6E6E6" stroke-width="0.749263"/>
<rect x="160.375" y="201.375" width="15.2507" height="4.25074" rx="2.12537" fill="white"/>
<rect x="160.375" y="201.375" width="15.2507" height="4.25074" rx="2.12537" stroke="#E6E6E6" stroke-width="0.749263"/>
<defs>
<clipPath id="clip0_6600_30928">
<rect width="40" height="70" fill="white" transform="translate(232.5 107)"/>
</clipPath>
<clipPath id="clip1_6600_30928">
<rect width="40" height="120" fill="white" transform="translate(62.5 57)"/>
</clipPath>
</defs>
</svg>
