<svg width="233" height="193" viewBox="0 0 233 193" fill="none" xmlns="http://www.w3.org/2000/svg">
<path d="M20.7208 48.7498C9.27701 48.7498 -1.44466e-06 39.4728 -1.94489e-06 28.029L-2.26434e-06 20.7208C-2.76456e-06 9.27707 9.27701 5.58017e-05 20.7208 5.53014e-05L55.6871 5.3773e-05C67.1309 5.32728e-05 76.4079 9.27707 76.4079 20.7208L76.4079 55.7795C76.4079 59.3415 71.494 60.2917 70.1661 56.9864L67.3464 49.9682C67.0507 49.2321 66.3371 48.7498 65.5439 48.7498L57.3059 48.7498L38.204 48.7498L20.7208 48.7498Z" fill="#5FA3FC"/>
<path d="M25.0236 22.2801C24.2662 23.1441 23.0289 23.8961 21.3116 24.5361L20.5596 22.8081C21.6689 22.3921 22.5116 21.9335 23.0876 21.4321C23.6636 20.9201 24.0102 20.3495 24.1276 19.7201H21.0556V17.9441H24.1756V16.4241H26.1276V17.9441H29.3276V19.7201H26.1116C26.0796 20.0615 26.0156 20.3815 25.9196 20.6801L29.8236 22.5041L28.9596 24.2481L25.0236 22.2801ZM33.0076 16.5841V19.3521H35.1676V21.1921H33.0076V24.1841H30.9756V16.5841H33.0076ZM33.0076 29.0481H25.2156V29.9281H33.4716V31.6081H23.1676V27.4321H30.9756V26.6321H23.1036V25.0001H33.0076V29.0481ZM48.1794 19.6561H50.3554V21.5121H48.1794V24.9681H46.1474V16.6001H48.1794V19.6561ZM44.0034 18.2161C44.0034 19.9975 43.4008 21.4641 42.1954 22.6161C40.9901 23.7681 39.1821 24.6748 36.7714 25.3361L36.1314 23.6881C38.1901 23.1548 39.7208 22.4561 40.7234 21.5921C39.2088 21.7201 37.8434 21.7841 36.6274 21.7841H36.2594L36.1794 20.2001H36.4994C37.2568 20.2001 38.1688 20.1788 39.2354 20.1361C40.3128 20.0828 41.2141 20.0241 41.9394 19.9601C42.0674 19.6721 42.1474 19.3308 42.1794 18.9361H36.4994V17.2241H44.0034V18.2161ZM46.1474 27.6241H38.1954V25.7841H48.1794V31.6881H46.1474V27.6241ZM54.1193 26.5361H52.2313L52.0233 17.1921H54.3273L54.1193 26.5361ZM53.1753 30.8881C52.8126 30.8881 52.5033 30.7601 52.2473 30.5041C52.002 30.2588 51.8793 29.9548 51.8793 29.5921C51.8793 29.2295 52.002 28.9201 52.2473 28.6641C52.5033 28.4081 52.8126 28.2801 53.1753 28.2801C53.538 28.2801 53.842 28.4081 54.0873 28.6641C54.3433 28.9201 54.4713 29.2295 54.4713 29.5921C54.4713 29.9548 54.3433 30.2588 54.0873 30.5041C53.842 30.7601 53.538 30.8881 53.1753 30.8881Z" fill="white"/>
<g clip-path="url(#clip0_6572_26710)">
<path d="M121.037 57.8402C120.657 57.8402 120.322 57.6039 120.186 57.2496C120.096 57.0043 117.723 51.0348 107.683 51.0348C107.185 51.0348 106.777 50.626 106.777 50.1262C106.777 49.6265 107.185 49.2177 107.683 49.2177C115.668 49.2177 119.389 52.7248 120.929 54.9145C122.278 52.6612 125.818 49.1541 134.727 49.1541C135.225 49.1541 135.632 49.5629 135.632 50.0626C135.632 50.5624 135.225 50.9712 134.727 50.9712C123.446 50.9712 121.97 56.8771 121.915 57.1315C121.825 57.5222 121.49 57.8129 121.092 57.8402C121.073 57.8402 121.055 57.8402 121.037 57.8402Z" fill="#75A0C6"/>
<path d="M121.198 57.3384C120.7 57.3384 120.292 56.9296 120.292 56.4299C120.292 49.2702 128.858 45.2451 129.229 45.0816C129.691 44.8726 130.225 45.0816 130.433 45.5268C130.641 45.9811 130.442 46.5172 129.989 46.7352C129.908 46.7716 122.112 50.4423 122.112 56.4299C122.112 56.9296 121.705 57.3384 121.207 57.3384H121.198Z" fill="#75A0C6"/>
<path d="M115.022 56.7125C96.516 56.7125 81.5135 71.7678 81.5135 90.3394V96.4633V168.024V170.84C81.5135 171.858 81.2238 172.866 80.6896 173.73L72.4233 186.986C71.1014 189.103 73.0842 191.738 75.4745 191.047L84.2478 188.531C85.6602 188.122 87.1632 188.322 88.4398 189.048C91.1198 190.575 96.8781 193.001 106.403 193.001C106.475 193.001 122.926 193.001 129.482 193.001C147.979 193.001 162.99 177.946 162.99 159.383V96.4542V95.0277V90.3394C162.99 71.7678 147.988 56.7125 129.482 56.7125C122.926 56.7125 121.568 56.7125 115.013 56.7125H115.022Z" fill="#91C0FD"/>
<path d="M102.05 104.059H101.39C100.474 104.059 99.7327 104.803 99.7327 105.722C99.7327 106.64 100.474 107.384 101.39 107.384H102.05C102.966 107.384 103.707 106.64 103.707 105.722C103.707 104.803 102.966 104.059 102.05 104.059Z" fill="#48617C"/>
<path d="M106.449 95.5454H106.44C105.25 95.5454 104.285 96.5136 104.285 97.7078V99.3342C104.285 100.529 105.25 101.497 106.44 101.497H106.449C107.639 101.497 108.604 100.529 108.604 99.3342V97.7078C108.604 96.5136 107.639 95.5454 106.449 95.5454Z" fill="#48617C"/>
<path d="M97.6698 95.5454H97.6608C96.4707 95.5454 95.5059 96.5136 95.5059 97.7078V99.3342C95.5059 100.529 96.4707 101.497 97.6608 101.497H97.6698C98.8599 101.497 99.8247 100.529 99.8247 99.3342V97.7078C99.8247 96.5136 98.8599 95.5454 97.6698 95.5454Z" fill="#48617C"/>
<path d="M102.293 114.153C101.885 114.153 101.469 114.099 101.025 113.971C100.201 113.744 99.3501 113.217 99.2596 113.163C98.8341 112.899 98.7073 112.336 98.9699 111.909C99.2324 111.482 99.7938 111.355 100.219 111.618C100.419 111.736 101.025 112.091 101.514 112.218C104.122 112.945 105.625 109.856 105.688 109.719C105.905 109.265 106.439 109.074 106.892 109.292C107.345 109.51 107.535 110.046 107.327 110.501C106.684 111.882 104.891 114.153 102.302 114.153H102.293Z" fill="#48617C"/>
<path d="M116.981 112.463C120.731 112.463 123.771 109.412 123.771 105.649C123.771 101.885 120.731 98.8342 116.981 98.8342C113.231 98.8342 110.19 101.885 110.19 105.649C110.19 109.412 113.231 112.463 116.981 112.463Z" fill="#75A0C6"/>
<path d="M89.3293 112.463C93.0796 112.463 96.1198 109.412 96.1198 105.649C96.1198 101.885 93.0796 98.8342 89.3293 98.8342C85.579 98.8342 82.5388 101.885 82.5388 105.649C82.5388 109.412 85.579 112.463 89.3293 112.463Z" fill="#75A0C6"/>
<path d="M105.891 104.838C105.655 104.838 105.456 104.656 105.438 104.42C105.42 104.166 105.601 103.948 105.855 103.929L113.885 103.293C114.112 103.275 114.356 103.457 114.374 103.711C114.392 103.966 114.211 104.184 113.958 104.202L105.927 104.838C105.927 104.838 105.9 104.838 105.891 104.838Z" fill="#48617C"/>
<path d="M113.922 107.657C113.922 107.657 113.904 107.657 113.885 107.657L105.855 107.085C105.601 107.067 105.42 106.849 105.438 106.603C105.456 106.349 105.701 106.158 105.918 106.185L113.949 106.758C114.202 106.776 114.383 106.994 114.365 107.239C114.347 107.476 114.148 107.657 113.913 107.657H113.922Z" fill="#48617C"/>
<path d="M97.6591 104.838C97.6591 104.838 97.5957 104.838 97.5595 104.829L91.8012 103.53C91.5567 103.475 91.4028 103.23 91.4571 102.985C91.5115 102.739 91.7559 102.585 92.0004 102.639L97.7587 103.939C98.0032 103.993 98.1571 104.238 98.1028 104.484C98.0575 104.693 97.8674 104.838 97.6591 104.838Z" fill="#48617C"/>
<path d="M91.899 107.964C91.6817 107.964 91.4825 107.801 91.4553 107.583C91.4191 107.337 91.5911 107.101 91.8356 107.065L97.5939 106.183C97.8384 106.147 98.0738 106.32 98.11 106.565C98.1462 106.81 97.9742 107.047 97.7297 107.083L91.9714 107.964C91.9714 107.964 91.9261 107.964 91.899 107.964Z" fill="#48617C"/>
</g>
<defs>
<clipPath id="clip0_6572_26710">
<rect width="90.9926" height="148" fill="white" transform="translate(72 45.0001)"/>
</clipPath>
</defs>
</svg>
