<svg width="293" height="210" viewBox="0 0 293 210" fill="none" xmlns="http://www.w3.org/2000/svg">
<path d="M273.8 48.8013C284.403 48.8013 293 40.2052 293 29.6014L293 19.1998C293 8.59601 284.403 -5.36546e-05 273.8 -5.31911e-05L216.2 -5.06733e-05C205.596 -5.02098e-05 197 8.59603 197 19.1998L197 59.9868C197 63.147 201.256 64.1593 202.679 61.3375L208.501 49.7909C208.807 49.1841 209.429 48.8013 210.108 48.8013L221 48.8013L245 48.8013L273.8 48.8013Z" fill="#FFE08F"/>
<path d="M225.264 17.8267H230.256V19.5867H218.208V17.8267H223.216V16.1947H225.264V17.8267ZM226.128 20.5947C226.8 20.5947 227.392 20.7227 227.904 20.9787C228.426 21.224 228.826 21.5707 229.104 22.0187C229.381 22.4667 229.52 22.9733 229.52 23.5387C229.52 24.104 229.381 24.6107 229.104 25.0587C228.826 25.5067 228.426 25.8587 227.904 26.1147C227.392 26.36 226.8 26.4827 226.128 26.4827H222.32C221.648 26.4827 221.05 26.36 220.528 26.1147C220.016 25.8587 219.621 25.5067 219.344 25.0587C219.066 24.6107 218.928 24.104 218.928 23.5387C218.928 22.9733 219.066 22.4667 219.344 22.0187C219.621 21.5707 220.016 21.224 220.528 20.9787C221.05 20.7227 221.648 20.5947 222.32 20.5947H226.128ZM227.472 23.5227C227.472 23.1813 227.328 22.904 227.04 22.6907C226.752 22.4667 226.32 22.3547 225.744 22.3547H222.72C222.144 22.3547 221.712 22.4667 221.424 22.6907C221.136 22.904 220.992 23.1813 220.992 23.5227C220.992 23.8747 221.136 24.1627 221.424 24.3867C221.712 24.6 222.144 24.7067 222.72 24.7067H225.744C226.32 24.7067 226.752 24.6 227.04 24.3867C227.328 24.1627 227.472 23.8747 227.472 23.5227ZM217.2 29.9387V28.0827H231.28V29.9387H217.2ZM238.1 21.6507C236.83 21.6507 235.817 21.416 235.06 20.9467C234.313 20.4773 233.94 19.7947 233.94 18.8987C233.94 18.0027 234.313 17.3253 235.06 16.8667C235.817 16.408 236.83 16.1787 238.1 16.1787H240.724C241.993 16.1787 243.006 16.408 243.764 16.8667C244.521 17.3253 244.9 18.0027 244.9 18.8987C244.9 19.7947 244.521 20.4773 243.764 20.9467C243.006 21.416 241.993 21.6507 240.724 21.6507H238.1ZM240.34 19.9867C241.15 19.9867 241.769 19.896 242.196 19.7147C242.633 19.5333 242.852 19.2667 242.852 18.9147C242.852 18.2107 242.014 17.8587 240.34 17.8587H238.5C236.814 17.8587 235.972 18.2107 235.972 18.9147C235.972 19.2667 236.19 19.5333 236.628 19.7147C237.065 19.896 237.689 19.9867 238.5 19.9867H240.34ZM246.452 24.4507H232.372V22.7227H246.452V24.4507ZM244.836 30.9947H234.02V25.6987H244.836V30.9947ZM236.068 27.3947V29.2827H242.788V27.3947H236.068ZM249.223 30.3547C248.861 30.3547 248.551 30.2267 248.295 29.9707C248.05 29.7253 247.927 29.4213 247.927 29.0587C247.927 28.696 248.05 28.3867 248.295 28.1307C248.551 27.8747 248.861 27.7467 249.223 27.7467C249.586 27.7467 249.89 27.8747 250.135 28.1307C250.391 28.3867 250.519 28.696 250.519 29.0587C250.519 29.4213 250.391 29.7253 250.135 29.9707C249.89 30.2267 249.586 30.3547 249.223 30.3547ZM253.677 30.3547C253.314 30.3547 253.005 30.2267 252.749 29.9707C252.503 29.7253 252.381 29.4213 252.381 29.0587C252.381 28.696 252.503 28.3867 252.749 28.1307C253.005 27.8747 253.314 27.7467 253.677 27.7467C254.039 27.7467 254.343 27.8747 254.589 28.1307C254.845 28.3867 254.973 28.696 254.973 29.0587C254.973 29.4213 254.845 29.7253 254.589 29.9707C254.343 30.2267 254.039 30.3547 253.677 30.3547ZM258.13 30.3547C257.767 30.3547 257.458 30.2267 257.202 29.9707C256.956 29.7253 256.834 29.4213 256.834 29.0587C256.834 28.696 256.956 28.3867 257.202 28.1307C257.458 27.8747 257.767 27.7467 258.13 27.7467C258.492 27.7467 258.796 27.8747 259.042 28.1307C259.298 28.3867 259.426 28.696 259.426 29.0587C259.426 29.4213 259.298 29.7253 259.042 29.9707C258.796 30.2267 258.492 30.3547 258.13 30.3547ZM262.583 30.3547C262.22 30.3547 261.911 30.2267 261.655 29.9707C261.409 29.7253 261.287 29.4213 261.287 29.0587C261.287 28.696 261.409 28.3867 261.655 28.1307C261.911 27.8747 262.22 27.7467 262.583 27.7467C262.945 27.7467 263.249 27.8747 263.495 28.1307C263.751 28.3867 263.879 28.696 263.879 29.0587C263.879 29.4213 263.751 29.7253 263.495 29.9707C263.249 30.2267 262.945 30.3547 262.583 30.3547ZM267.036 30.3547C266.673 30.3547 266.364 30.2267 266.108 29.9707C265.863 29.7253 265.74 29.4213 265.74 29.0587C265.74 28.696 265.863 28.3867 266.108 28.1307C266.364 27.8747 266.673 27.7467 267.036 27.7467C267.399 27.7467 267.703 27.8747 267.948 28.1307C268.204 28.3867 268.332 28.696 268.332 29.0587C268.332 29.4213 268.204 29.7253 267.948 29.9707C267.703 30.2267 267.399 30.3547 267.036 30.3547ZM271.489 30.3547C271.126 30.3547 270.817 30.2267 270.561 29.9707C270.316 29.7253 270.193 29.4213 270.193 29.0587C270.193 28.696 270.316 28.3867 270.561 28.1307C270.817 27.8747 271.126 27.7467 271.489 27.7467C271.852 27.7467 272.156 27.8747 272.401 28.1307C272.657 28.3867 272.785 28.696 272.785 29.0587C272.785 29.4213 272.657 29.7253 272.401 29.9707C272.156 30.2267 271.852 30.3547 271.489 30.3547Z" fill="#333333"/>
<path d="M225.264 17.8267H230.256V19.5867H218.208V17.8267H223.216V16.1947H225.264V17.8267ZM226.128 20.5947C226.8 20.5947 227.392 20.7227 227.904 20.9787C228.426 21.224 228.826 21.5707 229.104 22.0187C229.381 22.4667 229.52 22.9733 229.52 23.5387C229.52 24.104 229.381 24.6107 229.104 25.0587C228.826 25.5067 228.426 25.8587 227.904 26.1147C227.392 26.36 226.8 26.4827 226.128 26.4827H222.32C221.648 26.4827 221.05 26.36 220.528 26.1147C220.016 25.8587 219.621 25.5067 219.344 25.0587C219.066 24.6107 218.928 24.104 218.928 23.5387C218.928 22.9733 219.066 22.4667 219.344 22.0187C219.621 21.5707 220.016 21.224 220.528 20.9787C221.05 20.7227 221.648 20.5947 222.32 20.5947H226.128ZM227.472 23.5227C227.472 23.1813 227.328 22.904 227.04 22.6907C226.752 22.4667 226.32 22.3547 225.744 22.3547H222.72C222.144 22.3547 221.712 22.4667 221.424 22.6907C221.136 22.904 220.992 23.1813 220.992 23.5227C220.992 23.8747 221.136 24.1627 221.424 24.3867C221.712 24.6 222.144 24.7067 222.72 24.7067H225.744C226.32 24.7067 226.752 24.6 227.04 24.3867C227.328 24.1627 227.472 23.8747 227.472 23.5227ZM217.2 29.9387V28.0827H231.28V29.9387H217.2ZM238.1 21.6507C236.83 21.6507 235.817 21.416 235.06 20.9467C234.313 20.4773 233.94 19.7947 233.94 18.8987C233.94 18.0027 234.313 17.3253 235.06 16.8667C235.817 16.408 236.83 16.1787 238.1 16.1787H240.724C241.993 16.1787 243.006 16.408 243.764 16.8667C244.521 17.3253 244.9 18.0027 244.9 18.8987C244.9 19.7947 244.521 20.4773 243.764 20.9467C243.006 21.416 241.993 21.6507 240.724 21.6507H238.1ZM240.34 19.9867C241.15 19.9867 241.769 19.896 242.196 19.7147C242.633 19.5333 242.852 19.2667 242.852 18.9147C242.852 18.2107 242.014 17.8587 240.34 17.8587H238.5C236.814 17.8587 235.972 18.2107 235.972 18.9147C235.972 19.2667 236.19 19.5333 236.628 19.7147C237.065 19.896 237.689 19.9867 238.5 19.9867H240.34ZM246.452 24.4507H232.372V22.7227H246.452V24.4507ZM244.836 30.9947H234.02V25.6987H244.836V30.9947ZM236.068 27.3947V29.2827H242.788V27.3947H236.068ZM249.223 30.3547C248.861 30.3547 248.551 30.2267 248.295 29.9707C248.05 29.7253 247.927 29.4213 247.927 29.0587C247.927 28.696 248.05 28.3867 248.295 28.1307C248.551 27.8747 248.861 27.7467 249.223 27.7467C249.586 27.7467 249.89 27.8747 250.135 28.1307C250.391 28.3867 250.519 28.696 250.519 29.0587C250.519 29.4213 250.391 29.7253 250.135 29.9707C249.89 30.2267 249.586 30.3547 249.223 30.3547ZM253.677 30.3547C253.314 30.3547 253.005 30.2267 252.749 29.9707C252.503 29.7253 252.381 29.4213 252.381 29.0587C252.381 28.696 252.503 28.3867 252.749 28.1307C253.005 27.8747 253.314 27.7467 253.677 27.7467C254.039 27.7467 254.343 27.8747 254.589 28.1307C254.845 28.3867 254.973 28.696 254.973 29.0587C254.973 29.4213 254.845 29.7253 254.589 29.9707C254.343 30.2267 254.039 30.3547 253.677 30.3547ZM258.13 30.3547C257.767 30.3547 257.458 30.2267 257.202 29.9707C256.956 29.7253 256.834 29.4213 256.834 29.0587C256.834 28.696 256.956 28.3867 257.202 28.1307C257.458 27.8747 257.767 27.7467 258.13 27.7467C258.492 27.7467 258.796 27.8747 259.042 28.1307C259.298 28.3867 259.426 28.696 259.426 29.0587C259.426 29.4213 259.298 29.7253 259.042 29.9707C258.796 30.2267 258.492 30.3547 258.13 30.3547ZM262.583 30.3547C262.22 30.3547 261.911 30.2267 261.655 29.9707C261.409 29.7253 261.287 29.4213 261.287 29.0587C261.287 28.696 261.409 28.3867 261.655 28.1307C261.911 27.8747 262.22 27.7467 262.583 27.7467C262.945 27.7467 263.249 27.8747 263.495 28.1307C263.751 28.3867 263.879 28.696 263.879 29.0587C263.879 29.4213 263.751 29.7253 263.495 29.9707C263.249 30.2267 262.945 30.3547 262.583 30.3547ZM267.036 30.3547C266.673 30.3547 266.364 30.2267 266.108 29.9707C265.863 29.7253 265.74 29.4213 265.74 29.0587C265.74 28.696 265.863 28.3867 266.108 28.1307C266.364 27.8747 266.673 27.7467 267.036 27.7467C267.399 27.7467 267.703 27.8747 267.948 28.1307C268.204 28.3867 268.332 28.696 268.332 29.0587C268.332 29.4213 268.204 29.7253 267.948 29.9707C267.703 30.2267 267.399 30.3547 267.036 30.3547ZM271.489 30.3547C271.126 30.3547 270.817 30.2267 270.561 29.9707C270.316 29.7253 270.193 29.4213 270.193 29.0587C270.193 28.696 270.316 28.3867 270.561 28.1307C270.817 27.8747 271.126 27.7467 271.489 27.7467C271.852 27.7467 272.156 27.8747 272.401 28.1307C272.657 28.3867 272.785 28.696 272.785 29.0587C272.785 29.4213 272.657 29.7253 272.401 29.9707C272.156 30.2267 271.852 30.3547 271.489 30.3547Z" fill="black" fill-opacity="0.2"/>
<path d="M225.264 17.8267H230.256V19.5867H218.208V17.8267H223.216V16.1947H225.264V17.8267ZM226.128 20.5947C226.8 20.5947 227.392 20.7227 227.904 20.9787C228.426 21.224 228.826 21.5707 229.104 22.0187C229.381 22.4667 229.52 22.9733 229.52 23.5387C229.52 24.104 229.381 24.6107 229.104 25.0587C228.826 25.5067 228.426 25.8587 227.904 26.1147C227.392 26.36 226.8 26.4827 226.128 26.4827H222.32C221.648 26.4827 221.05 26.36 220.528 26.1147C220.016 25.8587 219.621 25.5067 219.344 25.0587C219.066 24.6107 218.928 24.104 218.928 23.5387C218.928 22.9733 219.066 22.4667 219.344 22.0187C219.621 21.5707 220.016 21.224 220.528 20.9787C221.05 20.7227 221.648 20.5947 222.32 20.5947H226.128ZM227.472 23.5227C227.472 23.1813 227.328 22.904 227.04 22.6907C226.752 22.4667 226.32 22.3547 225.744 22.3547H222.72C222.144 22.3547 221.712 22.4667 221.424 22.6907C221.136 22.904 220.992 23.1813 220.992 23.5227C220.992 23.8747 221.136 24.1627 221.424 24.3867C221.712 24.6 222.144 24.7067 222.72 24.7067H225.744C226.32 24.7067 226.752 24.6 227.04 24.3867C227.328 24.1627 227.472 23.8747 227.472 23.5227ZM217.2 29.9387V28.0827H231.28V29.9387H217.2ZM238.1 21.6507C236.83 21.6507 235.817 21.416 235.06 20.9467C234.313 20.4773 233.94 19.7947 233.94 18.8987C233.94 18.0027 234.313 17.3253 235.06 16.8667C235.817 16.408 236.83 16.1787 238.1 16.1787H240.724C241.993 16.1787 243.006 16.408 243.764 16.8667C244.521 17.3253 244.9 18.0027 244.9 18.8987C244.9 19.7947 244.521 20.4773 243.764 20.9467C243.006 21.416 241.993 21.6507 240.724 21.6507H238.1ZM240.34 19.9867C241.15 19.9867 241.769 19.896 242.196 19.7147C242.633 19.5333 242.852 19.2667 242.852 18.9147C242.852 18.2107 242.014 17.8587 240.34 17.8587H238.5C236.814 17.8587 235.972 18.2107 235.972 18.9147C235.972 19.2667 236.19 19.5333 236.628 19.7147C237.065 19.896 237.689 19.9867 238.5 19.9867H240.34ZM246.452 24.4507H232.372V22.7227H246.452V24.4507ZM244.836 30.9947H234.02V25.6987H244.836V30.9947ZM236.068 27.3947V29.2827H242.788V27.3947H236.068ZM249.223 30.3547C248.861 30.3547 248.551 30.2267 248.295 29.9707C248.05 29.7253 247.927 29.4213 247.927 29.0587C247.927 28.696 248.05 28.3867 248.295 28.1307C248.551 27.8747 248.861 27.7467 249.223 27.7467C249.586 27.7467 249.89 27.8747 250.135 28.1307C250.391 28.3867 250.519 28.696 250.519 29.0587C250.519 29.4213 250.391 29.7253 250.135 29.9707C249.89 30.2267 249.586 30.3547 249.223 30.3547ZM253.677 30.3547C253.314 30.3547 253.005 30.2267 252.749 29.9707C252.503 29.7253 252.381 29.4213 252.381 29.0587C252.381 28.696 252.503 28.3867 252.749 28.1307C253.005 27.8747 253.314 27.7467 253.677 27.7467C254.039 27.7467 254.343 27.8747 254.589 28.1307C254.845 28.3867 254.973 28.696 254.973 29.0587C254.973 29.4213 254.845 29.7253 254.589 29.9707C254.343 30.2267 254.039 30.3547 253.677 30.3547ZM258.13 30.3547C257.767 30.3547 257.458 30.2267 257.202 29.9707C256.956 29.7253 256.834 29.4213 256.834 29.0587C256.834 28.696 256.956 28.3867 257.202 28.1307C257.458 27.8747 257.767 27.7467 258.13 27.7467C258.492 27.7467 258.796 27.8747 259.042 28.1307C259.298 28.3867 259.426 28.696 259.426 29.0587C259.426 29.4213 259.298 29.7253 259.042 29.9707C258.796 30.2267 258.492 30.3547 258.13 30.3547ZM262.583 30.3547C262.22 30.3547 261.911 30.2267 261.655 29.9707C261.409 29.7253 261.287 29.4213 261.287 29.0587C261.287 28.696 261.409 28.3867 261.655 28.1307C261.911 27.8747 262.22 27.7467 262.583 27.7467C262.945 27.7467 263.249 27.8747 263.495 28.1307C263.751 28.3867 263.879 28.696 263.879 29.0587C263.879 29.4213 263.751 29.7253 263.495 29.9707C263.249 30.2267 262.945 30.3547 262.583 30.3547ZM267.036 30.3547C266.673 30.3547 266.364 30.2267 266.108 29.9707C265.863 29.7253 265.74 29.4213 265.74 29.0587C265.74 28.696 265.863 28.3867 266.108 28.1307C266.364 27.8747 266.673 27.7467 267.036 27.7467C267.399 27.7467 267.703 27.8747 267.948 28.1307C268.204 28.3867 268.332 28.696 268.332 29.0587C268.332 29.4213 268.204 29.7253 267.948 29.9707C267.703 30.2267 267.399 30.3547 267.036 30.3547ZM271.489 30.3547C271.126 30.3547 270.817 30.2267 270.561 29.9707C270.316 29.7253 270.193 29.4213 270.193 29.0587C270.193 28.696 270.316 28.3867 270.561 28.1307C270.817 27.8747 271.126 27.7467 271.489 27.7467C271.852 27.7467 272.156 27.8747 272.401 28.1307C272.657 28.3867 272.785 28.696 272.785 29.0587C272.785 29.4213 272.657 29.7253 272.401 29.9707C272.156 30.2267 271.852 30.3547 271.489 30.3547Z" fill="black" fill-opacity="0.2"/>
<path d="M225.264 17.8267H230.256V19.5867H218.208V17.8267H223.216V16.1947H225.264V17.8267ZM226.128 20.5947C226.8 20.5947 227.392 20.7227 227.904 20.9787C228.426 21.224 228.826 21.5707 229.104 22.0187C229.381 22.4667 229.52 22.9733 229.52 23.5387C229.52 24.104 229.381 24.6107 229.104 25.0587C228.826 25.5067 228.426 25.8587 227.904 26.1147C227.392 26.36 226.8 26.4827 226.128 26.4827H222.32C221.648 26.4827 221.05 26.36 220.528 26.1147C220.016 25.8587 219.621 25.5067 219.344 25.0587C219.066 24.6107 218.928 24.104 218.928 23.5387C218.928 22.9733 219.066 22.4667 219.344 22.0187C219.621 21.5707 220.016 21.224 220.528 20.9787C221.05 20.7227 221.648 20.5947 222.32 20.5947H226.128ZM227.472 23.5227C227.472 23.1813 227.328 22.904 227.04 22.6907C226.752 22.4667 226.32 22.3547 225.744 22.3547H222.72C222.144 22.3547 221.712 22.4667 221.424 22.6907C221.136 22.904 220.992 23.1813 220.992 23.5227C220.992 23.8747 221.136 24.1627 221.424 24.3867C221.712 24.6 222.144 24.7067 222.72 24.7067H225.744C226.32 24.7067 226.752 24.6 227.04 24.3867C227.328 24.1627 227.472 23.8747 227.472 23.5227ZM217.2 29.9387V28.0827H231.28V29.9387H217.2ZM238.1 21.6507C236.83 21.6507 235.817 21.416 235.06 20.9467C234.313 20.4773 233.94 19.7947 233.94 18.8987C233.94 18.0027 234.313 17.3253 235.06 16.8667C235.817 16.408 236.83 16.1787 238.1 16.1787H240.724C241.993 16.1787 243.006 16.408 243.764 16.8667C244.521 17.3253 244.9 18.0027 244.9 18.8987C244.9 19.7947 244.521 20.4773 243.764 20.9467C243.006 21.416 241.993 21.6507 240.724 21.6507H238.1ZM240.34 19.9867C241.15 19.9867 241.769 19.896 242.196 19.7147C242.633 19.5333 242.852 19.2667 242.852 18.9147C242.852 18.2107 242.014 17.8587 240.34 17.8587H238.5C236.814 17.8587 235.972 18.2107 235.972 18.9147C235.972 19.2667 236.19 19.5333 236.628 19.7147C237.065 19.896 237.689 19.9867 238.5 19.9867H240.34ZM246.452 24.4507H232.372V22.7227H246.452V24.4507ZM244.836 30.9947H234.02V25.6987H244.836V30.9947ZM236.068 27.3947V29.2827H242.788V27.3947H236.068ZM249.223 30.3547C248.861 30.3547 248.551 30.2267 248.295 29.9707C248.05 29.7253 247.927 29.4213 247.927 29.0587C247.927 28.696 248.05 28.3867 248.295 28.1307C248.551 27.8747 248.861 27.7467 249.223 27.7467C249.586 27.7467 249.89 27.8747 250.135 28.1307C250.391 28.3867 250.519 28.696 250.519 29.0587C250.519 29.4213 250.391 29.7253 250.135 29.9707C249.89 30.2267 249.586 30.3547 249.223 30.3547ZM253.677 30.3547C253.314 30.3547 253.005 30.2267 252.749 29.9707C252.503 29.7253 252.381 29.4213 252.381 29.0587C252.381 28.696 252.503 28.3867 252.749 28.1307C253.005 27.8747 253.314 27.7467 253.677 27.7467C254.039 27.7467 254.343 27.8747 254.589 28.1307C254.845 28.3867 254.973 28.696 254.973 29.0587C254.973 29.4213 254.845 29.7253 254.589 29.9707C254.343 30.2267 254.039 30.3547 253.677 30.3547ZM258.13 30.3547C257.767 30.3547 257.458 30.2267 257.202 29.9707C256.956 29.7253 256.834 29.4213 256.834 29.0587C256.834 28.696 256.956 28.3867 257.202 28.1307C257.458 27.8747 257.767 27.7467 258.13 27.7467C258.492 27.7467 258.796 27.8747 259.042 28.1307C259.298 28.3867 259.426 28.696 259.426 29.0587C259.426 29.4213 259.298 29.7253 259.042 29.9707C258.796 30.2267 258.492 30.3547 258.13 30.3547ZM262.583 30.3547C262.22 30.3547 261.911 30.2267 261.655 29.9707C261.409 29.7253 261.287 29.4213 261.287 29.0587C261.287 28.696 261.409 28.3867 261.655 28.1307C261.911 27.8747 262.22 27.7467 262.583 27.7467C262.945 27.7467 263.249 27.8747 263.495 28.1307C263.751 28.3867 263.879 28.696 263.879 29.0587C263.879 29.4213 263.751 29.7253 263.495 29.9707C263.249 30.2267 262.945 30.3547 262.583 30.3547ZM267.036 30.3547C266.673 30.3547 266.364 30.2267 266.108 29.9707C265.863 29.7253 265.74 29.4213 265.74 29.0587C265.74 28.696 265.863 28.3867 266.108 28.1307C266.364 27.8747 266.673 27.7467 267.036 27.7467C267.399 27.7467 267.703 27.8747 267.948 28.1307C268.204 28.3867 268.332 28.696 268.332 29.0587C268.332 29.4213 268.204 29.7253 267.948 29.9707C267.703 30.2267 267.399 30.3547 267.036 30.3547ZM271.489 30.3547C271.126 30.3547 270.817 30.2267 270.561 29.9707C270.316 29.7253 270.193 29.4213 270.193 29.0587C270.193 28.696 270.316 28.3867 270.561 28.1307C270.817 27.8747 271.126 27.7467 271.489 27.7467C271.852 27.7467 272.156 27.8747 272.401 28.1307C272.657 28.3867 272.785 28.696 272.785 29.0587C272.785 29.4213 272.657 29.7253 272.401 29.9707C272.156 30.2267 271.852 30.3547 271.489 30.3547Z" fill="black" fill-opacity="0.2"/>
<path d="M225.264 17.8267H230.256V19.5867H218.208V17.8267H223.216V16.1947H225.264V17.8267ZM226.128 20.5947C226.8 20.5947 227.392 20.7227 227.904 20.9787C228.426 21.224 228.826 21.5707 229.104 22.0187C229.381 22.4667 229.52 22.9733 229.52 23.5387C229.52 24.104 229.381 24.6107 229.104 25.0587C228.826 25.5067 228.426 25.8587 227.904 26.1147C227.392 26.36 226.8 26.4827 226.128 26.4827H222.32C221.648 26.4827 221.05 26.36 220.528 26.1147C220.016 25.8587 219.621 25.5067 219.344 25.0587C219.066 24.6107 218.928 24.104 218.928 23.5387C218.928 22.9733 219.066 22.4667 219.344 22.0187C219.621 21.5707 220.016 21.224 220.528 20.9787C221.05 20.7227 221.648 20.5947 222.32 20.5947H226.128ZM227.472 23.5227C227.472 23.1813 227.328 22.904 227.04 22.6907C226.752 22.4667 226.32 22.3547 225.744 22.3547H222.72C222.144 22.3547 221.712 22.4667 221.424 22.6907C221.136 22.904 220.992 23.1813 220.992 23.5227C220.992 23.8747 221.136 24.1627 221.424 24.3867C221.712 24.6 222.144 24.7067 222.72 24.7067H225.744C226.32 24.7067 226.752 24.6 227.04 24.3867C227.328 24.1627 227.472 23.8747 227.472 23.5227ZM217.2 29.9387V28.0827H231.28V29.9387H217.2ZM238.1 21.6507C236.83 21.6507 235.817 21.416 235.06 20.9467C234.313 20.4773 233.94 19.7947 233.94 18.8987C233.94 18.0027 234.313 17.3253 235.06 16.8667C235.817 16.408 236.83 16.1787 238.1 16.1787H240.724C241.993 16.1787 243.006 16.408 243.764 16.8667C244.521 17.3253 244.9 18.0027 244.9 18.8987C244.9 19.7947 244.521 20.4773 243.764 20.9467C243.006 21.416 241.993 21.6507 240.724 21.6507H238.1ZM240.34 19.9867C241.15 19.9867 241.769 19.896 242.196 19.7147C242.633 19.5333 242.852 19.2667 242.852 18.9147C242.852 18.2107 242.014 17.8587 240.34 17.8587H238.5C236.814 17.8587 235.972 18.2107 235.972 18.9147C235.972 19.2667 236.19 19.5333 236.628 19.7147C237.065 19.896 237.689 19.9867 238.5 19.9867H240.34ZM246.452 24.4507H232.372V22.7227H246.452V24.4507ZM244.836 30.9947H234.02V25.6987H244.836V30.9947ZM236.068 27.3947V29.2827H242.788V27.3947H236.068ZM249.223 30.3547C248.861 30.3547 248.551 30.2267 248.295 29.9707C248.05 29.7253 247.927 29.4213 247.927 29.0587C247.927 28.696 248.05 28.3867 248.295 28.1307C248.551 27.8747 248.861 27.7467 249.223 27.7467C249.586 27.7467 249.89 27.8747 250.135 28.1307C250.391 28.3867 250.519 28.696 250.519 29.0587C250.519 29.4213 250.391 29.7253 250.135 29.9707C249.89 30.2267 249.586 30.3547 249.223 30.3547ZM253.677 30.3547C253.314 30.3547 253.005 30.2267 252.749 29.9707C252.503 29.7253 252.381 29.4213 252.381 29.0587C252.381 28.696 252.503 28.3867 252.749 28.1307C253.005 27.8747 253.314 27.7467 253.677 27.7467C254.039 27.7467 254.343 27.8747 254.589 28.1307C254.845 28.3867 254.973 28.696 254.973 29.0587C254.973 29.4213 254.845 29.7253 254.589 29.9707C254.343 30.2267 254.039 30.3547 253.677 30.3547ZM258.13 30.3547C257.767 30.3547 257.458 30.2267 257.202 29.9707C256.956 29.7253 256.834 29.4213 256.834 29.0587C256.834 28.696 256.956 28.3867 257.202 28.1307C257.458 27.8747 257.767 27.7467 258.13 27.7467C258.492 27.7467 258.796 27.8747 259.042 28.1307C259.298 28.3867 259.426 28.696 259.426 29.0587C259.426 29.4213 259.298 29.7253 259.042 29.9707C258.796 30.2267 258.492 30.3547 258.13 30.3547ZM262.583 30.3547C262.22 30.3547 261.911 30.2267 261.655 29.9707C261.409 29.7253 261.287 29.4213 261.287 29.0587C261.287 28.696 261.409 28.3867 261.655 28.1307C261.911 27.8747 262.22 27.7467 262.583 27.7467C262.945 27.7467 263.249 27.8747 263.495 28.1307C263.751 28.3867 263.879 28.696 263.879 29.0587C263.879 29.4213 263.751 29.7253 263.495 29.9707C263.249 30.2267 262.945 30.3547 262.583 30.3547ZM267.036 30.3547C266.673 30.3547 266.364 30.2267 266.108 29.9707C265.863 29.7253 265.74 29.4213 265.74 29.0587C265.74 28.696 265.863 28.3867 266.108 28.1307C266.364 27.8747 266.673 27.7467 267.036 27.7467C267.399 27.7467 267.703 27.8747 267.948 28.1307C268.204 28.3867 268.332 28.696 268.332 29.0587C268.332 29.4213 268.204 29.7253 267.948 29.9707C267.703 30.2267 267.399 30.3547 267.036 30.3547ZM271.489 30.3547C271.126 30.3547 270.817 30.2267 270.561 29.9707C270.316 29.7253 270.193 29.4213 270.193 29.0587C270.193 28.696 270.316 28.3867 270.561 28.1307C270.817 27.8747 271.126 27.7467 271.489 27.7467C271.852 27.7467 272.156 27.8747 272.401 28.1307C272.657 28.3867 272.785 28.696 272.785 29.0587C272.785 29.4213 272.657 29.7253 272.401 29.9707C272.156 30.2267 271.852 30.3547 271.489 30.3547Z" fill="black" fill-opacity="0.2"/>
<g clip-path="url(#clip0_6600_30625)">
<path d="M147.879 49.6223C147.095 49.6223 146.409 49.0657 146.278 48.2634C146.164 47.5922 143.501 31.8751 149.022 25.6374C150.672 23.7547 152.861 22.8706 155.459 23.0016C160.049 23.3126 161.568 26.0467 162.058 27.6348C163.039 30.7946 161.732 34.9203 159.935 36.3611C159.232 36.9341 158.203 36.8031 157.631 36.0991C157.076 35.3951 157.19 34.3637 157.893 33.7907C158.514 33.2995 159.592 30.6964 158.938 28.6008C158.497 27.16 157.288 26.3906 155.263 26.2596C153.694 26.1777 152.42 26.6689 151.456 27.7822C147.748 31.9734 148.777 43.5647 149.48 47.674C149.627 48.5581 149.039 49.4095 148.157 49.5732C148.059 49.5732 147.961 49.5896 147.879 49.5896V49.6223Z" fill="#CCAB62"/>
<path d="M103.155 91.3033V164.977V170.052C103.155 171.886 102.633 173.703 101.669 175.258L86.7704 199.161C84.3854 202.976 87.9629 207.724 92.2756 206.48L108.105 201.945C110.653 201.208 113.365 201.568 115.669 202.878C120.504 205.628 130.894 210 148.079 210C172.615 210 193.003 189.846 193.003 164.977V91.3033C193.003 66.4343 172.893 46.2805 148.079 46.2805C123.265 46.2805 103.155 66.4343 103.155 91.3033Z" fill="#FFDA79"/>
<path d="M128.573 124.362C129.647 124.362 130.517 123.49 130.517 122.414C130.517 121.338 129.647 120.466 128.573 120.466C127.499 120.466 126.629 121.338 126.629 122.414C126.629 123.49 127.499 124.362 128.573 124.362Z" fill="#997F4A"/>
<path d="M129.177 110.15H127.985C126.334 110.15 124.995 111.492 124.995 113.146C124.995 114.801 126.334 116.142 127.985 116.142H129.177C130.829 116.142 132.167 114.801 132.167 113.146C132.167 111.492 130.829 110.15 129.177 110.15Z" fill="#997F4A"/>
<path d="M150.591 116.616C150.591 116.616 150.558 116.616 150.526 116.616L136.036 115.585C135.578 115.552 135.252 115.159 135.284 114.717C135.317 114.259 135.758 113.931 136.15 113.964L150.64 114.995C151.097 115.028 151.424 115.421 151.391 115.863C151.359 116.289 150.999 116.616 150.575 116.616H150.591Z" fill="#997F4A"/>
<path d="M110.866 117.173C110.474 117.173 110.115 116.878 110.066 116.485C110 116.043 110.311 115.618 110.752 115.552L121.142 113.964C121.583 113.899 122.007 114.21 122.073 114.652C122.138 115.094 121.828 115.519 121.387 115.585L110.997 117.173C110.997 117.173 110.915 117.173 110.866 117.173Z" fill="#997F4A"/>
<path d="M137.112 93.8615H137.096C134.949 93.8615 133.208 95.606 133.208 97.758V100.689C133.208 102.841 134.949 104.585 137.096 104.585H137.112C139.26 104.585 141 102.841 141 100.689V97.758C141 95.606 139.26 93.8615 137.112 93.8615Z" fill="#997F4A"/>
<path d="M121.255 93.8615H121.239C119.092 93.8615 117.351 95.606 117.351 97.758V100.689C117.351 102.841 119.092 104.585 121.239 104.585H121.255C123.402 104.585 125.143 102.841 125.143 100.689V97.758C125.143 95.606 123.402 93.8615 121.255 93.8615Z" fill="#997F4A"/>
<path d="M117.559 109.904C111.679 109.904 106.892 104.665 106.892 98.2312C106.892 91.797 111.679 86.558 117.559 86.558C123.44 86.558 128.227 91.797 128.227 98.2312C128.227 104.665 123.44 109.904 117.559 109.904ZM117.559 87.8677C112.397 87.8677 108.199 92.5174 108.199 98.2312C108.199 103.945 112.397 108.595 117.559 108.595C122.722 108.595 126.92 103.945 126.92 98.2312C126.92 92.5174 122.722 87.8677 117.559 87.8677Z" fill="#CCAB62"/>
<path d="M140.497 109.904C134.469 109.904 129.552 104.665 129.552 98.2312C129.552 91.797 134.453 86.558 140.497 86.558C146.541 86.558 151.442 91.797 151.442 98.2312C151.442 104.665 146.541 109.904 140.497 109.904ZM140.497 87.8677C135.188 87.8677 130.859 92.5174 130.859 98.2312C130.859 103.945 135.171 108.595 140.497 108.595C145.822 108.595 150.135 103.945 150.135 98.2312C150.135 92.5174 145.806 87.8677 140.497 87.8677Z" fill="#CCAB62"/>
<path d="M129.896 98.2805H127.886V99.5903H129.896V98.2805Z" fill="#CCAB62"/>
<path d="M136.087 112.606C135.646 112.606 135.286 112.262 135.27 111.82C135.254 111.361 135.597 110.985 136.038 110.969L150.544 110.248C151.001 110.215 151.377 110.576 151.393 111.034C151.41 111.492 151.067 111.869 150.626 111.885L136.119 112.606H136.087Z" fill="#997F4A"/>
<path d="M121.333 112.947C121.333 112.947 121.268 112.947 121.219 112.947L110.666 111.539C110.225 111.474 109.898 111.065 109.963 110.623C110.029 110.181 110.437 109.87 110.878 109.919L121.431 111.327C121.872 111.392 122.199 111.801 122.134 112.243C122.085 112.653 121.725 112.947 121.333 112.947Z" fill="#997F4A"/>
</g>
<defs>
<clipPath id="clip0_6600_30625">
<rect width="107" height="187" fill="white" transform="translate(86 23.002)"/>
</clipPath>
</defs>
</svg>
