<svg width="41" height="41" viewBox="0 0 41 41" fill="none" xmlns="http://www.w3.org/2000/svg">
<mask id="mask0_6942_35611" style="mask-type:luminance" maskUnits="userSpaceOnUse" x="0" y="0" width="41" height="41">
<path d="M40.5039 0.180344H0.503906V40.1804H40.5039V0.180344Z" fill="white"/>
</mask>
<g mask="url(#mask0_6942_35611)">
<path d="M40.5039 0.180344H0.503906V40.1804H40.5039V0.180344Z" fill="#5FA3FC"/>
<path d="M19.652 9.00636C19.51 9.00636 19.382 8.92036 19.334 8.78436C19.298 8.69036 18.412 6.46436 14.652 6.46436C14.464 6.46436 14.312 6.31236 14.312 6.12436C14.312 5.93636 14.464 5.78436 14.652 5.78436C17.644 5.78436 19.036 7.09436 19.614 7.91236C20.12 7.07236 21.444 5.76236 24.782 5.76236C24.97 5.76236 25.122 5.91436 25.122 6.10236C25.122 6.29036 24.97 6.44236 24.782 6.44236C20.558 6.44236 20.004 8.64636 19.984 8.74036C19.95 8.88636 19.824 8.99436 19.674 9.00436C19.666 9.00436 19.66 9.00436 19.652 9.00436V9.00636Z" fill="white"/>
<path d="M19.714 8.81835C19.526 8.81835 19.374 8.66634 19.374 8.47834C19.374 5.80634 22.582 4.30635 22.718 4.24435C22.89 4.16635 23.09 4.24234 23.168 4.41034C23.246 4.58034 23.172 4.78234 23.002 4.86034C22.972 4.87434 20.052 6.24434 20.052 8.47834C20.052 8.66634 19.9 8.81835 19.712 8.81835H19.714Z" fill="white"/>
<path d="M17.4 8.58635C10.47 8.58635 4.84995 14.2044 4.84995 21.1344V23.4184V50.1244V51.1764C4.84995 51.5584 4.74195 51.9304 4.53995 52.2544L1.44595 57.2044C0.951947 57.9944 1.69195 58.9784 2.58795 58.7224L5.87395 57.7824C6.40195 57.6304 6.96795 57.7044 7.44595 57.9744C8.44995 58.5424 10.608 59.4484 14.174 59.4484C14.2 59.4484 20.362 59.4484 22.818 59.4484C29.748 59.4484 35.366 53.8304 35.366 46.9024V23.4184V22.8844V21.1324C35.366 14.2024 29.746 8.58435 22.816 8.58435C20.362 8.58435 19.852 8.58435 17.4 8.58435V8.58635Z" fill="white"/>
<path d="M18.9637 26.4924H18.7157C18.3733 26.4924 18.0957 26.7699 18.0957 27.1124C18.0957 27.4548 18.3733 27.7324 18.7157 27.7324H18.9637C19.3061 27.7324 19.5837 27.4548 19.5837 27.1124C19.5837 26.7699 19.3061 26.4924 18.9637 26.4924Z" fill="#48617C"/>
<path d="M21.4158 24.1204C21.4158 23.6741 21.054 23.3124 20.6078 23.3124C20.1616 23.3124 19.7998 23.6741 19.7998 24.1204V24.7264C19.7998 25.1726 20.1616 25.5344 20.6078 25.5344C21.054 25.5344 21.4158 25.1726 21.4158 24.7264V24.1204Z" fill="#48617C"/>
<path d="M18.1258 24.1204C18.1258 23.6741 17.764 23.3124 17.3178 23.3124C16.8715 23.3124 16.5098 23.6741 16.5098 24.1204V24.7264C16.5098 25.1726 16.8715 25.5344 17.3178 25.5344C17.764 25.5344 18.1258 25.1726 18.1258 24.7264V24.1204Z" fill="#48617C"/>
<path d="M19.052 30.2583C18.9 30.2583 18.742 30.2384 18.578 30.1924C18.27 30.1064 17.95 29.9104 17.916 29.8883C17.758 29.7883 17.708 29.5803 17.808 29.4223C17.908 29.2623 18.116 29.2144 18.276 29.3144C18.35 29.3604 18.58 29.4904 18.76 29.5404C19.738 29.8104 20.3 28.6583 20.322 28.6083C20.402 28.4383 20.604 28.3683 20.774 28.4483C20.942 28.5283 21.016 28.7283 20.936 28.8983C20.694 29.4143 20.022 30.2603 19.054 30.2603L19.052 30.2583Z" fill="#48617C"/>
<path d="M24.5557 29.6304C25.9607 29.6304 27.0997 28.4914 27.0997 27.0864C27.0997 25.6813 25.9607 24.5424 24.5557 24.5424C23.1507 24.5424 22.0117 25.6813 22.0117 27.0864C22.0117 28.4914 23.1507 29.6304 24.5557 29.6304Z" fill="#75A0C6"/>
<path d="M14.1959 29.6304C15.6009 29.6304 16.7399 28.4914 16.7399 27.0864C16.7399 25.6813 15.6009 24.5424 14.1959 24.5424C12.7908 24.5424 11.6519 25.6813 11.6519 27.0864C11.6519 28.4914 12.7908 29.6304 14.1959 29.6304Z" fill="#75A0C6"/>
<path d="M20.3996 26.7824C20.3116 26.7824 20.2376 26.7144 20.2316 26.6264C20.2236 26.5324 20.2936 26.4504 20.3876 26.4444L23.3956 26.2064C23.4816 26.2004 23.5696 26.2684 23.5776 26.3624C23.5856 26.4564 23.5156 26.5384 23.4216 26.5444L20.4136 26.7824C20.4136 26.7824 20.4056 26.7824 20.3996 26.7824Z" fill="#48617C"/>
<path d="M23.4078 27.8323C23.4078 27.8323 23.3998 27.8323 23.3958 27.8323L20.3879 27.6203C20.2939 27.6143 20.2239 27.5324 20.2299 27.4404C20.2359 27.3464 20.3299 27.2743 20.4119 27.2823L23.4198 27.4943C23.5138 27.5003 23.5839 27.5824 23.5779 27.6744C23.5719 27.7644 23.4979 27.8323 23.4099 27.8323H23.4078Z" fill="#48617C"/>
<path d="M17.3179 26.7824C17.3059 26.7824 17.2939 26.7824 17.2799 26.7784L15.1239 26.2924C15.0319 26.2724 14.9739 26.1804 14.9959 26.0904C15.0159 25.9984 15.1079 25.9424 15.1979 25.9624L17.3539 26.4484C17.4459 26.4684 17.5039 26.5604 17.4819 26.6504C17.4639 26.7284 17.3939 26.7824 17.3159 26.7824H17.3179Z" fill="#48617C"/>
<path d="M15.1621 27.9484C15.0801 27.9484 15.0081 27.8884 14.9941 27.8044C14.9801 27.7124 15.0441 27.6264 15.1361 27.6104L17.2921 27.2823C17.3861 27.2683 17.4721 27.3324 17.4861 27.4244C17.5001 27.5164 17.4361 27.6023 17.3441 27.6183L15.1881 27.9464C15.1881 27.9464 15.1701 27.9464 15.1621 27.9464V27.9484Z" fill="#48617C"/>
</g>
</svg>
