<svg width="36" height="73" viewBox="0 0 36 73" fill="none" xmlns="http://www.w3.org/2000/svg">
<path d="M20.642 10.3377C20.3804 10.3377 20.1515 10.1216 20.1079 9.81026C20.0698 9.54971 19.1815 3.44918 21.0235 1.02803C21.5739 0.297239 22.3041 -0.0459163 23.1706 0.00492149C24.702 0.125661 25.2088 1.1869 25.3723 1.80331C25.6993 3.02977 25.2633 4.63116 24.6638 5.19037C24.4295 5.41279 24.0862 5.36195 23.8954 5.0887C23.7101 4.81545 23.7483 4.4151 23.9826 4.19268C24.1897 4.00204 24.5494 2.99164 24.3314 2.17824C24.1843 1.61902 23.781 1.32035 23.1052 1.26951C22.5821 1.23774 22.157 1.42838 21.8355 1.8605C20.5984 3.48731 20.9417 7.98645 21.176 9.58149C21.2251 9.92464 21.0289 10.2551 20.7346 10.3186C20.7019 10.3186 20.6692 10.325 20.642 10.325V10.3377Z" fill="#CCAB62"/>
<path d="M5.72091 26.518V55.1142V57.0842C5.72091 57.7959 5.54652 58.5013 5.22499 59.105L0.254889 68.3829C-0.540764 69.8635 0.652715 71.7064 2.09143 71.2234L7.37216 69.4632C8.22231 69.1772 9.12696 69.317 9.89536 69.8254C11.5085 70.893 14.9745 72.5897 20.7075 72.5897C28.8929 72.5897 35.6941 64.767 35.6941 55.1142V26.518C35.6941 16.8651 28.9856 9.04248 20.7075 9.04248C12.4295 9.04248 5.72091 16.8651 5.72091 26.518Z" fill="#FFDA79"/>
<path d="M19.9302 39.3489C20.2884 39.3489 20.5788 39.0103 20.5788 38.5926C20.5788 38.175 20.2884 37.8364 19.9302 37.8364C19.5721 37.8364 19.2817 38.175 19.2817 38.5926C19.2817 39.0103 19.5721 39.3489 19.9302 39.3489Z" fill="#997F4A"/>
<path d="M20.1314 33.8334H19.7336C19.1828 33.8334 18.7363 34.354 18.7363 34.9963C18.7363 35.6385 19.1828 36.1592 19.7336 36.1592H20.1314C20.6822 36.1592 21.1287 35.6385 21.1287 34.9963C21.1287 34.354 20.6822 33.8334 20.1314 33.8334Z" fill="#997F4A"/>
<path d="M27.2758 36.342C27.2758 36.342 27.2649 36.342 27.254 36.342L22.4201 35.9416C22.2675 35.9289 22.1586 35.7764 22.1695 35.6048C22.1804 35.4269 22.3275 35.2998 22.4583 35.3125L27.2921 35.7129C27.4447 35.7256 27.5537 35.8781 27.5428 36.0497C27.5319 36.2149 27.412 36.342 27.2703 36.342H27.2758Z" fill="#997F4A"/>
<path d="M14.0243 36.5588C13.8935 36.5588 13.7736 36.4445 13.7573 36.2919C13.7355 36.1204 13.839 35.9551 13.9862 35.9297L17.4522 35.3133C17.5993 35.2879 17.741 35.4086 17.7628 35.5802C17.7846 35.7518 17.6811 35.917 17.5339 35.9424L14.0679 36.5588C14.0679 36.5588 14.0407 36.5588 14.0243 36.5588Z" fill="#997F4A"/>
<path d="M22.7788 27.5088H22.7733C22.057 27.5088 21.4763 28.1859 21.4763 29.0212V30.1587C21.4763 30.994 22.057 31.6711 22.7733 31.6711H22.7788C23.4951 31.6711 24.0758 30.994 24.0758 30.1587V29.0212C24.0758 28.1859 23.4951 27.5088 22.7788 27.5088Z" fill="#997F4A"/>
<path d="M17.4888 27.5088H17.4833C16.767 27.5088 16.1863 28.1859 16.1863 29.0212V30.1587C16.1863 30.994 16.767 31.6711 17.4833 31.6711H17.4888C18.2051 31.6711 18.7858 30.994 18.7858 30.1587V29.0212C18.7858 28.1859 18.2051 27.5088 17.4888 27.5088Z" fill="#997F4A"/>
<path d="M16.2557 33.7374C14.2938 33.7374 12.697 31.7039 12.697 29.2065C12.697 26.709 14.2938 24.6755 16.2557 24.6755C18.2175 24.6755 19.8143 26.709 19.8143 29.2065C19.8143 31.7039 18.2175 33.7374 16.2557 33.7374ZM16.2557 25.1839C14.5336 25.1839 13.133 26.9887 13.133 29.2065C13.133 31.4243 14.5336 33.229 16.2557 33.229C17.9778 33.229 19.3783 31.4243 19.3783 29.2065C19.3783 26.9887 17.9778 25.1839 16.2557 25.1839Z" fill="#CCAB62"/>
<path d="M23.9084 33.7374C21.8974 33.7374 20.2571 31.7039 20.2571 29.2065C20.2571 26.709 21.892 24.6755 23.9084 24.6755C25.9247 24.6755 27.5596 26.709 27.5596 29.2065C27.5596 31.7039 25.9247 33.7374 23.9084 33.7374ZM23.9084 25.1839C22.1372 25.1839 20.6931 26.9887 20.6931 29.2065C20.6931 31.4243 22.1318 33.229 23.9084 33.229C25.685 33.229 27.1237 31.4243 27.1237 29.2065C27.1237 26.9887 25.6795 25.1839 23.9084 25.1839Z" fill="#CCAB62"/>
<path d="M20.371 29.2251H19.7007V29.7335H20.371V29.2251Z" fill="#CCAB62"/>
<path d="M22.4365 34.7858C22.2893 34.7858 22.1695 34.6523 22.164 34.4807C22.1586 34.3028 22.273 34.1566 22.4201 34.1503L27.2594 33.8707C27.412 33.858 27.5374 33.9978 27.5428 34.1757C27.5483 34.3536 27.4338 34.4998 27.2867 34.5061L22.4474 34.7858H22.4365Z" fill="#997F4A"/>
<path d="M17.5152 34.9193C17.5152 34.9193 17.4934 34.9193 17.4771 34.9193L13.9566 34.3728C13.8095 34.3474 13.7005 34.1885 13.7223 34.0169C13.7441 33.8454 13.8803 33.7246 14.0274 33.7437L17.5479 34.2902C17.6951 34.3156 17.8041 34.4745 17.7823 34.646C17.7659 34.8049 17.646 34.9193 17.5152 34.9193Z" fill="#997F4A"/>
</svg>
