<svg width="77" height="122" viewBox="0 0 77 122" fill="none" xmlns="http://www.w3.org/2000/svg">
<g clip-path="url(#clip0_6772_18886)">
<path d="M35.3359 11.5805C35.0942 11.5805 34.8524 11.4877 34.6851 11.3114C34.6572 11.2836 31.319 8.138 25.1356 8.27719C24.6242 8.27719 24.1965 7.88747 24.1872 7.36785C24.1779 6.84823 24.5777 6.43067 25.0984 6.42139C30.4636 6.29149 33.904 8.35142 35.2988 9.39995C39.5946 5.59556 46.4103 7.20083 46.7172 7.27506C47.2193 7.39569 47.5168 7.89675 47.396 8.39782C47.2751 8.89888 46.7637 9.20509 46.2709 9.07518C46.2058 9.05662 39.5109 7.48848 36.0333 11.2743C35.866 11.4599 35.6242 11.5712 35.3731 11.5712H35.3545L35.3359 11.5805Z" fill="#4F8DC6"/>
<path d="M35.3052 11.245C34.9239 11.245 34.5799 11.013 34.4404 10.6511C34.4218 10.5954 32.3111 5.3157 28.1361 4.22078C27.6433 4.09088 27.3457 3.58053 27.4759 3.08875C27.6061 2.59696 28.1175 2.30003 28.6103 2.42994C31.7532 3.25577 33.8639 5.83532 35.0355 7.75607C36.4767 4.48059 39.7591 3.05163 41.6002 2.73615C42.1116 2.64336 42.5858 2.99596 42.6695 3.49702C42.7532 3.99809 42.4184 4.48059 41.907 4.5641C41.6931 4.60122 36.7743 5.51984 36.2257 10.4191C36.1792 10.846 35.8445 11.18 35.426 11.2357C35.3888 11.2357 35.3423 11.2357 35.3052 11.2357V11.245Z" fill="#4F8DC6"/>
<path d="M35.3068 11.245C34.8791 11.245 34.4885 10.9481 34.3955 10.512C32.9078 3.54346 36.4784 0.360767 36.6364 0.230862C37.027 -0.103182 37.6128 -0.0660657 37.9475 0.323651C38.2823 0.713368 38.2451 1.28867 37.8545 1.63199C37.7337 1.74333 34.972 4.29505 36.218 10.1315C36.3203 10.6326 36.0042 11.1244 35.502 11.2357C35.437 11.2543 35.3719 11.2543 35.3068 11.2543V11.245Z" fill="#4F8DC6"/>
<path d="M62.7566 34.6651C61.6222 34.4424 60.7854 33.4867 60.6087 32.3361C58.7583 20.06 48.1489 10.6418 35.3357 10.6418C21.2114 10.6418 9.7651 22.0643 9.7651 36.159V96.4817V99.3582C9.7651 100.397 9.46755 101.427 8.91894 102.309L0.438805 115.856C-0.918761 118.018 1.11759 120.709 3.57236 120.004L12.5825 117.434C14.0331 117.016 15.5766 117.22 16.8877 117.963C19.64 119.521 25.5538 121.999 35.3357 121.999C44.4853 121.999 52.6121 117.1 57.1404 109.751C57.6053 108.999 58.4329 108.554 59.3162 108.554C69.0796 108.554 77.0018 100.657 77.0018 90.9143V51.9611C77.0018 43.3966 70.8741 36.2611 62.7566 34.6651Z" fill="#5FA3FC"/>
<path d="M23.0332 48.9829H22.3544C21.4147 48.9829 20.6528 49.7432 20.6528 50.681C20.6528 51.6188 21.4147 52.379 22.3544 52.379H23.0332C23.973 52.379 24.7348 51.6188 24.7348 50.681C24.7348 49.7432 23.973 48.9829 23.0332 48.9829Z" fill="#3C6899"/>
<path d="M26.974 49.7823C26.7323 49.7823 26.5277 49.5967 26.5091 49.3555C26.4905 49.0957 26.6765 48.873 26.9368 48.8544L35.1845 48.2049C35.417 48.1863 35.668 48.3719 35.6866 48.6317C35.7052 48.8915 35.5192 49.1142 35.2589 49.1328L27.0112 49.7823C27.0112 49.7823 26.9833 49.7823 26.974 49.7823Z" fill="#3C6899"/>
<path d="M35.2217 52.6585C35.2217 52.6585 35.2031 52.6585 35.1845 52.6585L26.9368 52.0739C26.6765 52.0554 26.4905 51.8327 26.5091 51.5822C26.5277 51.3224 26.7787 51.1368 27.0019 51.1553L35.2496 51.7399C35.5099 51.7585 35.6959 51.9812 35.6773 52.2317C35.6587 52.4729 35.4541 52.6585 35.2124 52.6585H35.2217Z" fill="#3C6899"/>
<path d="M18.5232 49.7826C18.5232 49.7826 18.4581 49.7826 18.4209 49.7733L12.5071 48.4464C12.2561 48.3907 12.098 48.1402 12.1538 47.8897C12.2096 47.6391 12.4606 47.4814 12.7117 47.5371L18.6255 48.8639C18.8765 48.9196 19.0346 49.1702 18.9788 49.4207C18.9323 49.6341 18.737 49.7826 18.5232 49.7826Z" fill="#3C6899"/>
<path d="M12.6105 52.974C12.3873 52.974 12.1827 52.807 12.1548 52.5843C12.1177 52.3338 12.2943 52.0925 12.5454 52.0554L18.4592 51.1553C18.7102 51.1182 18.952 51.2945 18.9892 51.545C19.0264 51.7956 18.8497 52.0368 18.5986 52.0739L12.6849 52.974C12.6849 52.974 12.6384 52.974 12.6105 52.974Z" fill="#3C6899"/>
<path d="M27.814 40.3068L27.8047 40.306C26.5871 40.1997 25.5137 41.0985 25.4072 42.3135L25.2622 43.9681C25.1556 45.1832 26.0563 46.2543 27.2739 46.3606L27.2831 46.3614C28.5007 46.4677 29.5741 45.5689 29.6806 44.3539L29.8257 42.6993C29.9322 41.4843 29.0315 40.4131 27.814 40.3068Z" fill="#3C6899"/>
<path d="M18.2685 40.2972L18.2593 40.298C17.0417 40.4043 16.141 41.4754 16.2476 42.6905L16.3926 44.3451C16.4992 45.5601 17.5725 46.4589 18.7901 46.3526L18.7994 46.3518C20.0169 46.2455 20.9176 45.1744 20.8111 43.9593L20.666 42.3047C20.5595 41.0897 19.4861 40.1909 18.2685 40.2972Z" fill="#3C6899"/>
<path d="M22.6885 56.5182C20.1036 56.5182 19.4899 55.6089 19.3969 55.4233C19.276 55.2006 19.3597 54.913 19.5922 54.7923C19.8153 54.6717 20.1036 54.7552 20.2245 54.9872C20.2245 54.9872 20.6894 55.5903 22.6978 55.5903C24.7063 55.5903 25.1805 54.9686 25.1805 54.9686C25.3014 54.7459 25.5803 54.6624 25.8035 54.783C26.0267 54.9037 26.1103 55.1913 25.9895 55.4233C25.8965 55.6089 25.2735 56.5182 22.6978 56.5182H22.6885Z" fill="#3C6899"/>
<path d="M20.5489 55.6822C20.5489 55.6822 20.428 58.2246 22.7712 58.3917C22.7712 58.3917 25.0121 58.5216 24.8355 55.3296C24.8355 55.3296 22.9944 56.4245 20.5489 55.6822Z" fill="#3C6899"/>
<path d="M64.2632 86.4987C66.2624 47.5827 62.3756 35.9097 61.6597 34.1374C61.2691 33.8312 60.953 33.4137 60.767 32.9404C60.9623 36.4572 63.0916 78.4724 57.3452 109.464C57.587 109.177 57.8845 108.945 58.21 108.787C58.5354 108.629 58.898 108.546 59.2793 108.536C63.8634 106.124 64.2632 86.4987 64.2632 86.4987Z" fill="#4E87C6"/>
<path d="M71.4948 46.1179C73.3824 52.2142 73.029 64.0356 72.3223 80.0604L73.2522 80.0975C73.9589 63.9706 74.3122 52.0843 72.3781 45.8395C70.7044 40.4392 68.7796 37.6555 67.3012 36.2265C66.5108 35.8275 65.674 35.4842 64.8185 35.2058L64.7441 35.6512C64.7441 35.6512 68.4821 36.4492 71.4855 46.1179H71.4948Z" fill="#4E87C6"/>
<path d="M69.2813 85.656C72.4521 85.6375 75.7623 84.3106 76.9897 83.7631V82.7424C76.4411 83.0022 72.7032 84.7096 69.2813 84.7281C67.9889 84.7281 66.9567 85.7303 66.9289 86.9922C66.6871 98.294 65.3016 106.061 63.2002 108.093C63.6837 107.981 64.1672 107.861 64.6414 107.712C67.1055 103.583 67.7192 93.3205 67.8587 87.0108C67.8773 86.2592 68.5003 85.6653 69.2813 85.656Z" fill="#4E87C6"/>
</g>
<defs>
<clipPath id="clip0_6772_18886">
<rect width="77" height="122" fill="white"/>
</clipPath>
</defs>
</svg>
