<svg width="24" height="24" viewBox="0 0 24 24" fill="none" xmlns="http://www.w3.org/2000/svg">
<path d="M19.6651 16.811C19.3883 17.4566 19.0462 18.0721 18.6441 18.648C18.1061 19.4147 17.6675 19.9454 17.3281 20.24C16.8035 20.722 16.2395 20.97 15.6361 20.984C15.2035 20.9847 14.6828 20.8604 14.0741 20.611C13.4648 20.363 12.9038 20.2394 12.3911 20.24C11.8545 20.2394 11.2778 20.363 10.6611 20.611C10.0451 20.861 9.54681 20.992 9.16614 21.004C8.58881 21.0294 8.01247 20.7747 7.43714 20.24C7.07047 19.92 6.61147 19.3707 6.06014 18.592C5.47014 17.762 4.98514 16.7984 4.60514 15.701C4.19847 14.5144 3.99481 13.3654 3.99414 12.254C3.99414 10.9807 4.26947 9.88336 4.82014 8.96202C5.237 8.23957 5.83277 7.63657 6.55014 7.21102C7.25761 6.78669 8.06523 6.55821 8.89014 6.54902C9.35014 6.54969 9.95347 6.69036 10.7001 6.97102C11.8201 7.39202 11.9271 7.39302 12.1361 7.39302C12.2941 7.39302 12.8251 7.22702 13.7291 6.89502C14.5818 6.58836 15.3028 6.46036 15.8921 6.51102C17.4921 6.63902 18.6921 7.27069 19.4921 8.40602C18.0621 9.27336 17.3545 10.4857 17.3691 12.043C17.3825 13.2564 17.8215 14.264 18.6861 15.066C19.0677 15.4321 19.5135 15.7247 20.0011 15.929C19.8951 16.2357 19.7831 16.5297 19.6651 16.811ZM15.9981 2.38002C15.9975 3.33069 15.6511 4.21702 14.9591 5.03902C14.1231 6.01502 13.1131 6.58002 12.0181 6.49102C12.0039 6.37155 11.9969 6.25134 11.9971 6.13102C11.9971 5.21802 12.3931 4.24202 13.1001 3.44302C13.4521 3.03902 13.8998 2.70269 14.4431 2.43402C14.9851 2.16936 15.4971 2.02436 15.9791 1.99902C15.9925 2.12702 15.9988 2.25402 15.9981 2.38002Z" fill="white"/>
</svg>
