<svg width="29" height="28" viewBox="0 0 29 28" fill="none" xmlns="http://www.w3.org/2000/svg">
<g opacity="0.7">
<path d="M20.3335 23.3333H26.1668V21C26.1668 19.067 24.5998 17.5 22.6668 17.5C21.552 17.5 20.5588 18.0212 19.9179 18.8333M20.3335 23.3333H8.66683M20.3335 23.3333V21C20.3335 20.2343 20.186 19.5032 19.9179 18.8333M8.66683 23.3333H2.8335V21C2.8335 19.067 4.4005 17.5 6.3335 17.5C7.44837 17.5 8.4415 18.0212 9.08245 18.8333M8.66683 23.3333V21C8.66683 20.2343 8.81432 19.5032 9.08245 18.8333M9.08245 18.8333C9.94258 16.6845 12.0441 15.1666 14.5002 15.1666C16.9562 15.1666 19.0577 16.6845 19.9179 18.8333M18.0002 8.16663C18.0002 10.0996 16.4332 11.6666 14.5002 11.6666C12.5672 11.6666 11.0002 10.0996 11.0002 8.16663C11.0002 6.23363 12.5672 4.66663 14.5002 4.66663C16.4332 4.66663 18.0002 6.23363 18.0002 8.16663ZM25.0002 11.6666C25.0002 12.9553 23.9555 14 22.6668 14C21.3782 14 20.3335 12.9553 20.3335 11.6666C20.3335 10.378 21.3782 9.33329 22.6668 9.33329C23.9555 9.33329 25.0002 10.378 25.0002 11.6666ZM8.66683 11.6666C8.66683 12.9553 7.62216 14 6.3335 14C5.04483 14 4.00016 12.9553 4.00016 11.6666C4.00016 10.378 5.04483 9.33329 6.3335 9.33329C7.62216 9.33329 8.66683 10.378 8.66683 11.6666Z" stroke="#333333" stroke-width="1.5" stroke-linecap="round" stroke-linejoin="round"/>
<path d="M20.3335 23.3333H26.1668V21C26.1668 19.067 24.5998 17.5 22.6668 17.5C21.552 17.5 20.5588 18.0212 19.9179 18.8333M20.3335 23.3333H8.66683M20.3335 23.3333V21C20.3335 20.2343 20.186 19.5032 19.9179 18.8333M8.66683 23.3333H2.8335V21C2.8335 19.067 4.4005 17.5 6.3335 17.5C7.44837 17.5 8.4415 18.0212 9.08245 18.8333M8.66683 23.3333V21C8.66683 20.2343 8.81432 19.5032 9.08245 18.8333M9.08245 18.8333C9.94258 16.6845 12.0441 15.1666 14.5002 15.1666C16.9562 15.1666 19.0577 16.6845 19.9179 18.8333M18.0002 8.16663C18.0002 10.0996 16.4332 11.6666 14.5002 11.6666C12.5672 11.6666 11.0002 10.0996 11.0002 8.16663C11.0002 6.23363 12.5672 4.66663 14.5002 4.66663C16.4332 4.66663 18.0002 6.23363 18.0002 8.16663ZM25.0002 11.6666C25.0002 12.9553 23.9555 14 22.6668 14C21.3782 14 20.3335 12.9553 20.3335 11.6666C20.3335 10.378 21.3782 9.33329 22.6668 9.33329C23.9555 9.33329 25.0002 10.378 25.0002 11.6666ZM8.66683 11.6666C8.66683 12.9553 7.62216 14 6.3335 14C5.04483 14 4.00016 12.9553 4.00016 11.6666C4.00016 10.378 5.04483 9.33329 6.3335 9.33329C7.62216 9.33329 8.66683 10.378 8.66683 11.6666Z" stroke="black" stroke-opacity="0.2" stroke-width="1.5" stroke-linecap="round" stroke-linejoin="round"/>
<path d="M20.3335 23.3333H26.1668V21C26.1668 19.067 24.5998 17.5 22.6668 17.5C21.552 17.5 20.5588 18.0212 19.9179 18.8333M20.3335 23.3333H8.66683M20.3335 23.3333V21C20.3335 20.2343 20.186 19.5032 19.9179 18.8333M8.66683 23.3333H2.8335V21C2.8335 19.067 4.4005 17.5 6.3335 17.5C7.44837 17.5 8.4415 18.0212 9.08245 18.8333M8.66683 23.3333V21C8.66683 20.2343 8.81432 19.5032 9.08245 18.8333M9.08245 18.8333C9.94258 16.6845 12.0441 15.1666 14.5002 15.1666C16.9562 15.1666 19.0577 16.6845 19.9179 18.8333M18.0002 8.16663C18.0002 10.0996 16.4332 11.6666 14.5002 11.6666C12.5672 11.6666 11.0002 10.0996 11.0002 8.16663C11.0002 6.23363 12.5672 4.66663 14.5002 4.66663C16.4332 4.66663 18.0002 6.23363 18.0002 8.16663ZM25.0002 11.6666C25.0002 12.9553 23.9555 14 22.6668 14C21.3782 14 20.3335 12.9553 20.3335 11.6666C20.3335 10.378 21.3782 9.33329 22.6668 9.33329C23.9555 9.33329 25.0002 10.378 25.0002 11.6666ZM8.66683 11.6666C8.66683 12.9553 7.62216 14 6.3335 14C5.04483 14 4.00016 12.9553 4.00016 11.6666C4.00016 10.378 5.04483 9.33329 6.3335 9.33329C7.62216 9.33329 8.66683 10.378 8.66683 11.6666Z" stroke="black" stroke-opacity="0.2" stroke-width="1.5" stroke-linecap="round" stroke-linejoin="round"/>
<path d="M20.3335 23.3333H26.1668V21C26.1668 19.067 24.5998 17.5 22.6668 17.5C21.552 17.5 20.5588 18.0212 19.9179 18.8333M20.3335 23.3333H8.66683M20.3335 23.3333V21C20.3335 20.2343 20.186 19.5032 19.9179 18.8333M8.66683 23.3333H2.8335V21C2.8335 19.067 4.4005 17.5 6.3335 17.5C7.44837 17.5 8.4415 18.0212 9.08245 18.8333M8.66683 23.3333V21C8.66683 20.2343 8.81432 19.5032 9.08245 18.8333M9.08245 18.8333C9.94258 16.6845 12.0441 15.1666 14.5002 15.1666C16.9562 15.1666 19.0577 16.6845 19.9179 18.8333M18.0002 8.16663C18.0002 10.0996 16.4332 11.6666 14.5002 11.6666C12.5672 11.6666 11.0002 10.0996 11.0002 8.16663C11.0002 6.23363 12.5672 4.66663 14.5002 4.66663C16.4332 4.66663 18.0002 6.23363 18.0002 8.16663ZM25.0002 11.6666C25.0002 12.9553 23.9555 14 22.6668 14C21.3782 14 20.3335 12.9553 20.3335 11.6666C20.3335 10.378 21.3782 9.33329 22.6668 9.33329C23.9555 9.33329 25.0002 10.378 25.0002 11.6666ZM8.66683 11.6666C8.66683 12.9553 7.62216 14 6.3335 14C5.04483 14 4.00016 12.9553 4.00016 11.6666C4.00016 10.378 5.04483 9.33329 6.3335 9.33329C7.62216 9.33329 8.66683 10.378 8.66683 11.6666Z" stroke="black" stroke-opacity="0.2" stroke-width="1.5" stroke-linecap="round" stroke-linejoin="round"/>
<path d="M20.3335 23.3333H26.1668V21C26.1668 19.067 24.5998 17.5 22.6668 17.5C21.552 17.5 20.5588 18.0212 19.9179 18.8333M20.3335 23.3333H8.66683M20.3335 23.3333V21C20.3335 20.2343 20.186 19.5032 19.9179 18.8333M8.66683 23.3333H2.8335V21C2.8335 19.067 4.4005 17.5 6.3335 17.5C7.44837 17.5 8.4415 18.0212 9.08245 18.8333M8.66683 23.3333V21C8.66683 20.2343 8.81432 19.5032 9.08245 18.8333M9.08245 18.8333C9.94258 16.6845 12.0441 15.1666 14.5002 15.1666C16.9562 15.1666 19.0577 16.6845 19.9179 18.8333M18.0002 8.16663C18.0002 10.0996 16.4332 11.6666 14.5002 11.6666C12.5672 11.6666 11.0002 10.0996 11.0002 8.16663C11.0002 6.23363 12.5672 4.66663 14.5002 4.66663C16.4332 4.66663 18.0002 6.23363 18.0002 8.16663ZM25.0002 11.6666C25.0002 12.9553 23.9555 14 22.6668 14C21.3782 14 20.3335 12.9553 20.3335 11.6666C20.3335 10.378 21.3782 9.33329 22.6668 9.33329C23.9555 9.33329 25.0002 10.378 25.0002 11.6666ZM8.66683 11.6666C8.66683 12.9553 7.62216 14 6.3335 14C5.04483 14 4.00016 12.9553 4.00016 11.6666C4.00016 10.378 5.04483 9.33329 6.3335 9.33329C7.62216 9.33329 8.66683 10.378 8.66683 11.6666Z" stroke="black" stroke-opacity="0.2" stroke-width="1.5" stroke-linecap="round" stroke-linejoin="round"/>
</g>
</svg>
