<svg width="29" height="28" viewBox="0 0 29 28" fill="none" xmlns="http://www.w3.org/2000/svg">
<path d="M18.6999 8.4002C18.6999 10.7198 16.8195 12.6002 14.4999 12.6002C12.1803 12.6002 10.2999 10.7198 10.2999 8.4002C10.2999 6.0806 12.1803 4.2002 14.4999 4.2002C16.8195 4.2002 18.6999 6.0806 18.6999 8.4002Z" fill="#0066EB"/>
<path d="M25.6999 11.2002C25.6999 12.7466 24.4463 14.0002 22.8999 14.0002C21.3535 14.0002 20.0999 12.7466 20.0999 11.2002C20.0999 9.6538 21.3535 8.4002 22.8999 8.4002C24.4463 8.4002 25.6999 9.6538 25.6999 11.2002Z" fill="#0066EB"/>
<path d="M20.0999 21.0002C20.0999 17.9074 17.5927 15.4002 14.4999 15.4002C11.4071 15.4002 8.8999 17.9074 8.8999 21.0002V25.2002H20.0999V21.0002Z" fill="#0066EB"/>
<path d="M8.8999 11.2002C8.8999 12.7466 7.6463 14.0002 6.0999 14.0002C4.55351 14.0002 3.2999 12.7466 3.2999 11.2002C3.2999 9.6538 4.55351 8.4002 6.0999 8.4002C7.6463 8.4002 8.8999 9.6538 8.8999 11.2002Z" fill="#0066EB"/>
<path d="M22.8999 25.2002V21.0002C22.8999 19.5244 22.5193 18.1375 21.8509 16.9322C22.1862 16.846 22.5377 16.8002 22.8999 16.8002C25.2195 16.8002 27.0999 18.6806 27.0999 21.0002V25.2002H22.8999Z" fill="#0066EB"/>
<path d="M7.14887 16.9322C6.48049 18.1375 6.0999 19.5244 6.0999 21.0002V25.2002H1.8999V21.0002C1.8999 18.6806 3.78031 16.8002 6.0999 16.8002C6.4621 16.8002 6.81358 16.846 7.14887 16.9322Z" fill="#0066EB"/>
</svg>
