<svg width="128" height="19" viewBox="0 0 128 19" fill="none" xmlns="http://www.w3.org/2000/svg">
<path d="M7.78788 0.576C8.89188 0.576 9.85188 0.696 10.6679 0.935999C11.4839 1.176 12.1719 1.488 12.7319 1.872C13.0999 2.128 13.2999 2.44 13.3319 2.808C13.3639 3.176 13.2679 3.52 13.0439 3.84C12.8359 4.144 12.5639 4.344 12.2279 4.44C11.8919 4.536 11.5559 4.48 11.2199 4.272C10.7079 3.968 10.1879 3.752 9.65988 3.624C9.13188 3.48 8.48388 3.408 7.71588 3.408C6.38788 3.408 5.36388 3.848 4.64388 4.728C3.92388 5.592 3.56388 7.056 3.56388 9.12V9.624C3.56388 11.64 3.90788 13.096 4.59588 13.992C5.28388 14.872 6.33188 15.312 7.73988 15.312C8.53988 15.312 9.23588 15.224 9.82788 15.048C10.4359 14.856 11.0199 14.576 11.5799 14.208C11.8999 13.984 12.2359 13.904 12.5879 13.968C12.9399 14.016 13.2359 14.208 13.4759 14.544C13.7159 14.88 13.8119 15.248 13.7639 15.648C13.7159 16.048 13.4999 16.384 13.1159 16.656C12.4279 17.152 11.6199 17.528 10.6919 17.784C9.77988 18.04 8.77188 18.168 7.66788 18.168C6.53188 18.168 5.51588 18.008 4.61988 17.688C3.73988 17.368 2.98788 16.872 2.36388 16.2C1.75588 15.528 1.28388 14.672 0.947875 13.632C0.627875 12.576 0.467875 11.32 0.467875 9.864V8.88C0.467875 7.424 0.627875 6.176 0.947875 5.136C1.28388 4.08 1.76388 3.216 2.38788 2.544C3.01188 1.872 3.77988 1.376 4.69188 1.056C5.60388 0.736 6.63588 0.576 7.78788 0.576ZM18.4488 0.696C18.8648 0.696 19.2248 0.8 19.5288 1.008C19.8328 1.216 19.9848 1.552 19.9848 2.016V7.728H27.1608V2.016C27.1608 1.552 27.3128 1.216 27.6168 1.008C27.9208 0.8 28.2808 0.696 28.6968 0.696C29.1128 0.696 29.4728 0.8 29.7768 1.008C30.0808 1.216 30.2328 1.552 30.2328 2.016V16.728C30.2328 17.192 30.0808 17.528 29.7768 17.736C29.4728 17.944 29.1128 18.048 28.6968 18.048C28.2808 18.048 27.9208 17.944 27.6168 17.736C27.3128 17.528 27.1608 17.192 27.1608 16.728V10.272H19.9848V16.728C19.9848 17.192 19.8328 17.528 19.5288 17.736C19.2248 17.944 18.8648 18.048 18.4488 18.048C18.0328 18.048 17.6728 17.944 17.3688 17.736C17.0648 17.528 16.9128 17.192 16.9128 16.728V2.016C16.9128 1.552 17.0648 1.216 17.3688 1.008C17.6728 0.8 18.0328 0.696 18.4488 0.696ZM40.4279 0.696C40.8439 0.696 41.2039 0.791999 41.5079 0.983999C41.8119 1.176 42.0759 1.552 42.2999 2.112L47.6999 16.032C47.8759 16.496 47.8759 16.896 47.6999 17.232C47.5239 17.568 47.2359 17.8 46.8359 17.928C46.4359 18.056 46.0359 18.072 45.6359 17.976C45.2519 17.88 44.9719 17.576 44.7959 17.064L43.4039 13.224H37.3559L35.9399 17.16C35.7639 17.624 35.4919 17.904 35.1239 18C34.7719 18.08 34.4039 18.056 34.0199 17.928C33.6359 17.8 33.3559 17.584 33.1799 17.28C33.0039 16.976 33.0039 16.6 33.1799 16.152L38.5799 2.112C38.7879 1.552 39.0439 1.176 39.3479 0.983999C39.6679 0.791999 40.0279 0.696 40.4279 0.696ZM40.3799 4.536C40.2519 5.016 40.1239 5.448 39.9959 5.832C39.8839 6.2 39.7319 6.656 39.5399 7.2L38.2679 10.68H42.4919L41.2439 7.2C41.0359 6.64 40.8679 6.16 40.7399 5.76C40.6279 5.36 40.5079 4.952 40.3799 4.536ZM57.2142 0.839999C58.2542 0.839999 59.1422 0.967999 59.8782 1.224C60.6302 1.464 61.2462 1.808 61.7262 2.256C62.2062 2.688 62.5582 3.208 62.7822 3.816C63.0222 4.424 63.1422 5.08 63.1422 5.784V6.12C63.1422 6.824 63.0222 7.496 62.7822 8.136C62.5422 8.76 62.1742 9.312 61.6782 9.792C61.1822 10.256 60.5662 10.632 59.8302 10.92C59.0942 11.192 58.2222 11.328 57.2142 11.328H53.7582V16.728C53.7582 17.192 53.6062 17.528 53.3022 17.736C52.9982 17.944 52.6382 18.048 52.2222 18.048C51.8062 18.048 51.4462 17.944 51.1422 17.736C50.8382 17.528 50.6862 17.192 50.6862 16.728V2.832C50.6862 2.08 50.8302 1.56 51.1182 1.272C51.4222 0.983999 51.9582 0.839999 52.7262 0.839999H57.2142ZM53.7582 8.736H56.8062C57.8142 8.736 58.6062 8.544 59.1822 8.16C59.7582 7.776 60.0462 7.08 60.0462 6.072V5.808C60.0462 5.328 59.9742 4.936 59.8302 4.632C59.6862 4.328 59.4782 4.088 59.2062 3.912C58.9502 3.72 58.6382 3.592 58.2702 3.528C57.9022 3.448 57.5022 3.408 57.0702 3.408H53.7582V8.736ZM72.616 0.576C73.72 0.576 74.68 0.696 75.496 0.935999C76.312 1.176 77 1.488 77.56 1.872C77.928 2.128 78.128 2.44 78.16 2.808C78.192 3.176 78.096 3.52 77.872 3.84C77.664 4.144 77.392 4.344 77.056 4.44C76.72 4.536 76.384 4.48 76.048 4.272C75.536 3.968 75.016 3.752 74.488 3.624C73.96 3.48 73.312 3.408 72.544 3.408C71.216 3.408 70.192 3.848 69.472 4.728C68.752 5.592 68.392 7.056 68.392 9.12V9.624C68.392 11.64 68.736 13.096 69.424 13.992C70.112 14.872 71.16 15.312 72.568 15.312C73.368 15.312 74.064 15.224 74.656 15.048C75.264 14.856 75.848 14.576 76.408 14.208C76.728 13.984 77.064 13.904 77.416 13.968C77.768 14.016 78.064 14.208 78.304 14.544C78.544 14.88 78.64 15.248 78.592 15.648C78.544 16.048 78.328 16.384 77.944 16.656C77.256 17.152 76.448 17.528 75.52 17.784C74.608 18.04 73.6 18.168 72.496 18.168C71.36 18.168 70.344 18.008 69.448 17.688C68.568 17.368 67.816 16.872 67.192 16.2C66.584 15.528 66.112 14.672 65.776 13.632C65.456 12.576 65.296 11.32 65.296 9.864V8.88C65.296 7.424 65.456 6.176 65.776 5.136C66.112 4.08 66.592 3.216 67.216 2.544C67.84 1.872 68.608 1.376 69.52 1.056C70.432 0.736 71.464 0.576 72.616 0.576ZM83.2769 0.696C83.6929 0.696 84.0529 0.8 84.3569 1.008C84.6609 1.216 84.8129 1.552 84.8129 2.016V7.728H91.9889V2.016C91.9889 1.552 92.1409 1.216 92.4449 1.008C92.7489 0.8 93.1089 0.696 93.5249 0.696C93.9409 0.696 94.3009 0.8 94.6049 1.008C94.9089 1.216 95.0609 1.552 95.0609 2.016V16.728C95.0609 17.192 94.9089 17.528 94.6049 17.736C94.3009 17.944 93.9409 18.048 93.5249 18.048C93.1089 18.048 92.7489 17.944 92.4449 17.736C92.1409 17.528 91.9889 17.192 91.9889 16.728V10.272H84.8129V16.728C84.8129 17.192 84.6609 17.528 84.3569 17.736C84.0529 17.944 83.6929 18.048 83.2769 18.048C82.8609 18.048 82.5009 17.944 82.1969 17.736C81.8929 17.528 81.7409 17.192 81.7409 16.728V2.016C81.7409 1.552 81.8929 1.216 82.1969 1.008C82.5009 0.8 82.8609 0.696 83.2769 0.696ZM105.256 0.696C105.672 0.696 106.032 0.791999 106.336 0.983999C106.64 1.176 106.904 1.552 107.128 2.112L112.528 16.032C112.704 16.496 112.704 16.896 112.528 17.232C112.352 17.568 112.064 17.8 111.664 17.928C111.264 18.056 110.864 18.072 110.464 17.976C110.08 17.88 109.8 17.576 109.624 17.064L108.232 13.224H102.184L100.768 17.16C100.592 17.624 100.32 17.904 99.952 18C99.6 18.08 99.232 18.056 98.848 17.928C98.464 17.8 98.184 17.584 98.008 17.28C97.832 16.976 97.832 16.6 98.008 16.152L103.408 2.112C103.616 1.552 103.872 1.176 104.176 0.983999C104.496 0.791999 104.856 0.696 105.256 0.696ZM105.208 4.536C105.08 5.016 104.952 5.448 104.824 5.832C104.712 6.2 104.56 6.656 104.368 7.2L103.096 10.68H107.32L106.072 7.2C105.864 6.64 105.696 6.16 105.568 5.76C105.456 5.36 105.336 4.952 105.208 4.536ZM122.042 0.839999C123.082 0.839999 123.97 0.967999 124.706 1.224C125.458 1.464 126.074 1.808 126.554 2.256C127.034 2.688 127.386 3.208 127.61 3.816C127.85 4.424 127.97 5.08 127.97 5.784V6.12C127.97 6.824 127.85 7.496 127.61 8.136C127.37 8.76 127.002 9.312 126.506 9.792C126.01 10.256 125.394 10.632 124.658 10.92C123.922 11.192 123.05 11.328 122.042 11.328H118.586V16.728C118.586 17.192 118.434 17.528 118.13 17.736C117.826 17.944 117.466 18.048 117.05 18.048C116.634 18.048 116.274 17.944 115.97 17.736C115.666 17.528 115.514 17.192 115.514 16.728V2.832C115.514 2.08 115.658 1.56 115.946 1.272C116.25 0.983999 116.786 0.839999 117.554 0.839999H122.042ZM118.586 8.736H121.634C122.642 8.736 123.434 8.544 124.01 8.16C124.586 7.776 124.874 7.08 124.874 6.072V5.808C124.874 5.328 124.802 4.936 124.658 4.632C124.514 4.328 124.306 4.088 124.034 3.912C123.778 3.72 123.466 3.592 123.098 3.528C122.73 3.448 122.33 3.408 121.898 3.408H118.586V8.736Z" fill="white"/>
</svg>
