<svg width="29" height="28" viewBox="0 0 29 28" fill="none" xmlns="http://www.w3.org/2000/svg">
<path d="M14.5 3.5L6.33333 11.6667V23.3333C6.33333 23.9777 6.85567 24.5 7.5 24.5H11C11.6443 24.5 12.1667 23.9777 12.1667 23.3333V18.6667C12.1667 18.0223 12.689 17.5 13.3333 17.5H15.6667C16.311 17.5 16.8333 18.0223 16.8333 18.6667V23.3333C16.8333 23.9777 17.3557 24.5 18 24.5H21.5C22.1443 24.5 22.6667 23.9777 22.6667 23.3333V11.6667L14.5 3.5Z" fill="#0066EB"/>
<path d="M4 14L6.33333 11.6667M6.33333 11.6667L14.5 3.5L22.6667 11.6667M6.33333 11.6667V23.3333C6.33333 23.9777 6.85567 24.5 7.5 24.5H11C11.6443 24.5 12.1667 23.9777 12.1667 23.3333V18.6667C12.1667 18.0223 12.689 17.5 13.3333 17.5H15.6667C16.311 17.5 16.8333 18.0223 16.8333 18.6667V23.3333C16.8333 23.9777 17.3557 24.5 18 24.5H21.5C22.1443 24.5 22.6667 23.9777 22.6667 23.3333V11.6667M22.6667 11.6667L25 14" stroke="#0066EB" stroke-width="1.5" stroke-linecap="round" stroke-linejoin="round"/>
</svg>
