<svg width="28" height="28" viewBox="0 0 28 28" fill="none" xmlns="http://www.w3.org/2000/svg">
<g opacity="0.7">
<path d="M3.5 14L5.83333 11.6667M5.83333 11.6667L14 3.5L22.1667 11.6667M5.83333 11.6667V23.3333C5.83333 23.9777 6.35567 24.5 7 24.5H10.5C11.1443 24.5 11.6667 23.9777 11.6667 23.3333V18.6667C11.6667 18.0223 12.189 17.5 12.8333 17.5H15.1667C15.811 17.5 16.3333 18.0223 16.3333 18.6667V23.3333C16.3333 23.9777 16.8557 24.5 17.5 24.5H21C21.6443 24.5 22.1667 23.9777 22.1667 23.3333V11.6667M22.1667 11.6667L24.5 14" stroke="#21272A" stroke-width="1.5" stroke-linecap="round" stroke-linejoin="round"/>
</g>
</svg>
