<svg width="29" height="28" viewBox="0 0 29 28" fill="none" xmlns="http://www.w3.org/2000/svg">
<path d="M18 11.6667C18 13.5997 16.433 15.1667 14.5 15.1667C12.567 15.1667 11 13.5997 11 11.6667C11 9.73367 12.567 8.16667 14.5 8.16667C16.433 8.16667 18 9.73367 18 11.6667Z" fill="#0066EB"/>
<path d="M14.5 18.6667C11.5831 18.6667 8.84478 19.4313 6.47454 20.771C8.40062 23.0516 11.2812 24.5 14.5 24.5C17.7188 24.5 20.5994 23.0516 22.5255 20.771C20.1552 19.4313 17.4169 18.6667 14.5 18.6667Z" fill="#0066EB"/>
<path d="M14.5 24.5C20.299 24.5 25 19.799 25 14C25 8.20101 20.299 3.5 14.5 3.5C8.70101 3.5 4 8.20101 4 14C4 19.799 8.70101 24.5 14.5 24.5ZM14.5 24.5C11.2812 24.5 8.40062 23.0516 6.47454 20.771C8.84478 19.4313 11.5831 18.6667 14.5 18.6667C17.4169 18.6667 20.1552 19.4313 22.5255 20.771C20.5994 23.0516 17.7188 24.5 14.5 24.5ZM18 11.6667C18 13.5997 16.433 15.1667 14.5 15.1667C12.567 15.1667 11 13.5997 11 11.6667C11 9.73367 12.567 8.16667 14.5 8.16667C16.433 8.16667 18 9.73367 18 11.6667Z" stroke="#0066EB" stroke-width="2" stroke-linecap="round" stroke-linejoin="round"/>
</svg>
