<svg width="28" height="28" viewBox="0 0 28 28" fill="none" xmlns="http://www.w3.org/2000/svg">
<g opacity="0.7">
<path d="M5.97454 20.771C8.34478 19.4313 11.0831 18.6667 14 18.6667C16.9169 18.6667 19.6552 19.4313 22.0255 20.771M17.5 11.6667C17.5 13.5997 15.933 15.1667 14 15.1667C12.067 15.1667 10.5 13.5997 10.5 11.6667C10.5 9.73367 12.067 8.16667 14 8.16667C15.933 8.16667 17.5 9.73367 17.5 11.6667ZM24.5 14C24.5 19.799 19.799 24.5 14 24.5C8.20101 24.5 3.5 19.799 3.5 14C3.5 8.20101 8.20101 3.5 14 3.5C19.799 3.5 24.5 8.20101 24.5 14Z" stroke="#1A1A1A" stroke-width="1.5" stroke-linecap="round" stroke-linejoin="round"/>
</g>
</svg>
